<svg xmlns="http://www.w3.org/2000/svg" xmlns:xlink="http://www.w3.org/1999/xlink" width="79" height="90.286" viewBox="0 0 79 90.286">
  <defs>
    <linearGradient id="linear-gradient" x1="0.5" x2="0.5" y2="1" gradientUnits="objectBoundingBox">
      <stop offset="0" stop-color="#5c8da5"/>
      <stop offset="1" stop-color="#5c8da5"/>
    </linearGradient>
  </defs>
  <path id="calendar-alt-solid" d="M0,81.821a8.466,8.466,0,0,0,8.464,8.464H70.536A8.466,8.466,0,0,0,79,81.821V33.857H0ZM56.429,47.259a2.122,2.122,0,0,1,2.116-2.116H65.6a2.122,2.122,0,0,1,2.116,2.116v7.054A2.122,2.122,0,0,1,65.6,56.429H58.545a2.122,2.122,0,0,1-2.116-2.116Zm0,22.571a2.122,2.122,0,0,1,2.116-2.116H65.6a2.122,2.122,0,0,1,2.116,2.116v7.054A2.122,2.122,0,0,1,65.6,79H58.545a2.122,2.122,0,0,1-2.116-2.116ZM33.857,47.259a2.122,2.122,0,0,1,2.116-2.116h7.054a2.122,2.122,0,0,1,2.116,2.116v7.054a2.122,2.122,0,0,1-2.116,2.116H35.973a2.122,2.122,0,0,1-2.116-2.116Zm0,22.571a2.122,2.122,0,0,1,2.116-2.116h7.054a2.122,2.122,0,0,1,2.116,2.116v7.054A2.122,2.122,0,0,1,43.027,79H35.973a2.122,2.122,0,0,1-2.116-2.116ZM11.286,47.259A2.122,2.122,0,0,1,13.4,45.143h7.054a2.122,2.122,0,0,1,2.116,2.116v7.054a2.122,2.122,0,0,1-2.116,2.116H13.4a2.122,2.122,0,0,1-2.116-2.116Zm0,22.571A2.122,2.122,0,0,1,13.4,67.714h7.054a2.122,2.122,0,0,1,2.116,2.116v7.054A2.122,2.122,0,0,1,20.455,79H13.4a2.122,2.122,0,0,1-2.116-2.116Zm59.25-58.545H62.071V2.821A2.83,2.83,0,0,0,59.25,0H53.607a2.83,2.83,0,0,0-2.821,2.821v8.464H28.214V2.821A2.83,2.83,0,0,0,25.393,0H19.75a2.83,2.83,0,0,0-2.821,2.821v8.464H8.464A8.466,8.466,0,0,0,0,19.75v8.464H79V19.75A8.466,8.466,0,0,0,70.536,11.286Z" fill="url(#linear-gradient)"/>
</svg>
