<svg xmlns="http://www.w3.org/2000/svg" width="78.907" height="90.18" viewBox="0 0 78.907 90.18">
  <path id="calendar-check-solid" d="M76.794,28.181H2.114A2.114,2.114,0,0,1,0,26.068V19.727a8.454,8.454,0,0,1,8.454-8.454h8.454V2.114A2.114,2.114,0,0,1,19.022,0h7.045a2.114,2.114,0,0,1,2.114,2.114v9.159H50.726V2.114A2.114,2.114,0,0,1,52.84,0h7.045A2.114,2.114,0,0,1,62,2.114v9.159h8.454a8.454,8.454,0,0,1,8.454,8.454v6.341A2.114,2.114,0,0,1,76.794,28.181ZM2.114,33.817h74.68a2.114,2.114,0,0,1,2.114,2.114V81.725a8.454,8.454,0,0,1-8.454,8.454h-62A8.454,8.454,0,0,1,0,81.725V35.931A2.114,2.114,0,0,1,2.114,33.817Zm58.7,16.9-4.961-5a2.113,2.113,0,0,0-2.989-.012L34.191,64.229l-8.1-8.164a2.114,2.114,0,0,0-2.989-.012l-5,4.962A2.113,2.113,0,0,0,18.089,64L32.638,78.67a2.113,2.113,0,0,0,2.989.012L60.806,53.706a2.113,2.113,0,0,0,.012-2.989Z" fill="#5c8da5"/>
</svg>
