<svg xmlns="http://www.w3.org/2000/svg" width="207.95" height="207.992" viewBox="0 0 207.95 207.992">
  <path id="drumstick-bite-solid" d="M187.992,20.136a68.822,68.822,0,0,0-97.278,0C76.3,34.527,65.056,51.993,65.056,77.988v34.862l-16.5,16.486c-3.94,3.936-9.748,4.5-14.939,2.437a24.5,24.5,0,0,0-26.4,40.1c6.2,6.194,14.829,7.945,22.794,6.121-1.828,7.961-.073,16.584,6.133,22.786a24.512,24.512,0,0,0,40.13-26.4c-2.067-5.171-1.511-10.967,2.437-14.927l16.495-16.474h34.886a76.308,76.308,0,0,0,25.138-4.062c-16.1-17.827-16.178-44.772.426-61.36C169.621,63.6,190.9,61.525,207.948,70.729a68.313,68.313,0,0,0-19.955-50.593Z" transform="translate(-0.027 -0.004)" fill="#5c8da5"/>
</svg>
