<svg xmlns="http://www.w3.org/2000/svg" width="87.18" height="87.18" viewBox="0 0 87.18 87.18">
  <path id="history-solid" d="M95.18,51.507A43.592,43.592,0,0,1,24.233,85.528a4.215,4.215,0,0,1-.323-6.258l1.98-1.98a4.226,4.226,0,0,1,5.605-.349,32.343,32.343,0,1,0-2.064-48.915l8.921,8.921a2.812,2.812,0,0,1-1.988,4.8H10.812A2.812,2.812,0,0,1,8,38.935V13.383a2.812,2.812,0,0,1,4.8-1.989l8.678,8.678a43.589,43.589,0,0,1,73.7,31.435Zm-31.8,13.848,1.727-2.22a4.218,4.218,0,0,0-.74-5.92l-7.154-5.564V33.31A4.218,4.218,0,0,0,53,29.092H50.184a4.218,4.218,0,0,0-4.218,4.218V57.153l11.5,8.942A4.218,4.218,0,0,0,63.382,65.355Z" transform="translate(-8 -8)" fill="#5c8da5"/>
</svg>
