<svg xmlns="http://www.w3.org/2000/svg" width="60.266" height="104.553" viewBox="0 0 60.266 104.553">
  <path id="mobile-alt-solid" d="M51.226,0H9.04C4.049,0,0,4.39,0,9.8v84.95c0,5.411,4.049,9.8,9.04,9.8H51.226c4.991,0,9.04-4.39,9.04-9.8V9.8C60.266,4.39,56.217,0,51.226,0ZM30.133,98.019a6.556,6.556,0,0,1,0-13.069,6.556,6.556,0,0,1,0,13.069ZM51.226,75.965a2.368,2.368,0,0,1-2.26,2.45H11.3a2.368,2.368,0,0,1-2.26-2.45V12.252A2.368,2.368,0,0,1,11.3,9.8H48.966a2.368,2.368,0,0,1,2.26,2.45Z" fill="#5c8da5"/>
</svg>
