<svg xmlns="http://www.w3.org/2000/svg" width="89.075" height="94.913" viewBox="0 0 89.075 94.913">
  <path id="running-solid" d="M58.241,17.8c5.676,0,10.278-3.984,10.278-8.9S63.918,0,58.241,0,47.964,3.984,47.964,8.9,52.565,17.8,58.241,17.8Zm-33.9,41.057-3.169,6.4H6.852C3.068,65.253,0,67.91,0,71.185s3.068,5.932,6.852,5.932H23.436a10.4,10.4,0,0,0,9.445-5.393l1.882-3.8-2.285-1.168a18.785,18.785,0,0,1-8.135-7.9Zm57.88-17.33H72.8l-5.58-9.872a20.147,20.147,0,0,0-13.229-9.443L38.767,18.29a22.991,22.991,0,0,0-17.31,3.177L12.963,27.1A5.417,5.417,0,0,0,11.7,35.421a7.582,7.582,0,0,0,9.606,1.1l8.5-5.638a7.469,7.469,0,0,1,5.411-1.138l3.148.81-8.021,16.2c-2.7,5.465-.281,11.866,5.631,14.888l18.2,9.3L48.283,87.206c-1.131,3.126.88,6.453,4.49,7.432a7.827,7.827,0,0,0,2.051.274,6.828,6.828,0,0,0,6.535-4.162l6.775-18.735c1.265-3.85-.619-7.986-4.634-10.083l-13.113-6.7,6.7-14.512,4.34,7.68a10.593,10.593,0,0,0,9.231,4.985H82.223c3.784,0,6.852-2.657,6.852-5.932s-3.068-5.93-6.852-5.93Z" fill="#5c8da5"/>
</svg>
