<svg xmlns="http://www.w3.org/2000/svg" width="140.818" height="84.491" viewBox="0 0 140.818 84.491">
  <path id="bed-solid" d="M38.725,106.245a17.6,17.6,0,1,0-17.6-17.6A17.623,17.623,0,0,0,38.725,106.245Zm77.45-28.164H66.888a3.519,3.519,0,0,0-3.52,3.52v31.684H14.082V67.52A3.519,3.519,0,0,0,10.561,64H3.52A3.519,3.519,0,0,0,0,67.52v77.45a3.519,3.519,0,0,0,3.52,3.52h7.041a3.519,3.519,0,0,0,3.52-3.52V134.409H126.736V144.97a3.519,3.519,0,0,0,3.52,3.52H137.3a3.519,3.519,0,0,0,3.52-3.52V102.725A24.642,24.642,0,0,0,116.175,78.082Z" transform="translate(0 -64)" fill="#5c8da5"/>
</svg>
