<svg xmlns="http://www.w3.org/2000/svg" xmlns:xlink="http://www.w3.org/1999/xlink" width="623.333" height="435.508" viewBox="0 0 623.333 435.508">
  <defs>
    <linearGradient id="linear-gradient" x1="0.5" x2="0.5" y2="1" gradientUnits="objectBoundingBox">
      <stop offset="0" stop-color="#e89c7b"/>
      <stop offset="1" stop-color="#ac75a6"/>
    </linearGradient>
  </defs>
  <g id="Group_4" data-name="Group 4" transform="translate(-642.333 -132.069)">
    <path id="blob" d="M587.3,381.346c-43.461,59.737,10.422-8.523-33.3,42.528-43.652,50.967-119.155,35.975-227.61,38.4C256.646,463.837,150,472.611,89.655,441.794S-1,360.96-1.278,291.741,8.64,111.468,75.961,98.78c73.9-13.93,114.859-3.7,176.932-39.735s132.928-43.618,191.926,0,102.2,76.25,146.368,138.111c43.832,61.4,39.574,124.452-3.887,184.189Z" transform="translate(643.616 102.96)" fill="url(#linear-gradient)"/>
    <g id="_51-Planning" data-name="51-Planning" transform="translate(693.803 119.845)">
      <path id="color_x5F_2" d="M299.511,311.689h52.4v10.127h-52.4Q299.511,316.753,299.511,311.689Zm-1.6-.986c.037-.013.074-.026.112-.038h-.111Zm-74,12.315h0Zm1.127-1.2h52.4V311.689h-52.4Zm-72.609,0h52.4V311.689h-52.4Zm-2.1,1.2h.047c-.017,0-.031-.005-.047-.008Zm.421-12.289c.06-.023.123-.043.186-.063l-.184,0Zm-72.8,11.087h52.4V311.689h-52.4Q77.946,316.753,77.946,321.816Zm-1.2,1.2h0Zm221.166-94.139-.018.526c.08-.028.161-.054.244-.076a1.814,1.814,0,0,1,.611-.144h38.622Zm1.6,11.632h44.852l7.55-.116v-10.01h-52.4Q299.511,235.448,299.511,240.511Zm-74.478,0h45.75l6.653-.1V230.385h-52.4Q225.032,235.448,225.033,240.511Zm-.7-11.632-.01.306h39.469Zm-71.9,11.632H197.2l7.625-.118V230.385h-52.4Zm-1.677-11.632-.019.553a3.044,3.044,0,0,1,.32-.1,1.818,1.818,0,0,1,.611-.144h38.548Zm-72.8,11.632H123.62l6.728-.1V230.385h-52.4Zm-.78-11.632-.011.308.025,0h39.445Zm222.345-69.673H313.04l38.874-.6V149.08h-52.4Q299.511,154.144,299.511,159.206Zm-1.637-11.1c.085-.031.173-.058.261-.082a1.815,1.815,0,0,1,.611-.144h54.138v-.361l-54.974-.426Zm-73.574-.226h54.267a1.617,1.617,0,0,1,.451.049,2.355,2.355,0,0,1,.283-.015v-.4l-54.974-.426Zm.732,11.327h14.426l37.976-.584V149.08h-52.4Q225.032,154.144,225.033,159.206Zm-74.321-11.072a2.867,2.867,0,0,1,.336-.111,1.818,1.818,0,0,1,.611-.144h54.063v-.361l-54.974-.426Zm1.713,11.072h13.454l38.949-.6V149.08h-52.4Zm-74.479,0H92.3l38.052-.585V149.08h-52.4Zm-.807-11.322c.014,0,.029,0,.041,0h54.3a1.618,1.618,0,0,1,.451.049c.072-.008.141-.012.209-.014v-.4l-54.974-.426ZM389,416.372c-3.712,1.751-7.573,3.293-11.136,5.325-1.234.7-4.742,2.609-2.036,4.069a22.23,22.23,0,0,0,4.547,1.74,47.026,47.026,0,0,0,12.176,1.418c6.051.074,25.316-.365,19.706-10.89C405.154,420.494,396,419.428,389,416.372Zm80.164,8.861a32.384,32.384,0,0,1-8.447.632c-4.031-.269-8.464-.147-12.608-.809,3.668,5.58,10.847,8.907,17.19,9.868a28.315,28.315,0,0,0,3.5.383,7.756,7.756,0,0,0,4.325-1.6,2.328,2.328,0,0,0,.176-.475C474.059,430.229,471.152,427.243,469.164,425.233ZM390.943,188.27s.063-.2.167-.526c-.133.21-.265.419-.415.621-.059.079-.122.154-.183.231C390.775,188.394,390.943,188.27,390.943,188.27Zm.94-17.641s.006-.032.016-.084l-.445.035c-.014.325-.041.639-.082.94.106.032.211.059.317.085Zm38.857,8.77a28.035,28.035,0,0,0-9.248-4.268,28.757,28.757,0,0,1-5.091-1.065c-.721-.1-1.145-.141-1.145-.141s-.169.13-.453.335c-4.208,3.53-12.895,6.574-17.517,4.412a5.289,5.289,0,0,1-1.324-.866,5.836,5.836,0,0,1-1.719-4.625,6.99,6.99,0,0,1-3.335.152,9.2,9.2,0,0,1-2.547,3.481,25.938,25.938,0,0,0-6.375,9.648c-2.17,5.265-4.123,10.586-6.688,15.632a.678.678,0,0,1,.224.627c-.925,7.99,4.026,14.959,4.313,22.807.277,7.569-1.67,14.484-3.378,21.767a.909.909,0,0,1-.084.216,24.077,24.077,0,0,0,7.039,5.167c1.291.565,2.685,1.125,4.153,1.646,11.9,3.733,27.043.874,37.49-3.432-2.36-6.256-1.795-12.333-1.223-18.958a.761.761,0,0,1,.076-.26l-.132-.092a23.835,23.835,0,0,1-5.118-2.446,125.889,125.889,0,0,1-16.925-13.462c-2.728-2.494-4.946-6.018-7.613-8.812a1.218,1.218,0,0,1-.487-.106.371.371,0,0,1-.18-.567,15.162,15.162,0,0,0-3.32-2.5,1.623,1.623,0,0,1-.866.107c-6.461-1.708-7.995-7.153-3.962-12.405,1.253-1.632,3.209-2.648,4.093-4.579.746-1.629,1.176-3.431,2-5.02.934-1.8,2.071-3.228,4.225-3.118a1.983,1.983,0,0,1,.486.086,2.181,2.181,0,0,1,1.28,1.211c.89,1.78.706,4.9.922,6.168a22.1,22.1,0,0,0,4.8,9.478c.03.009.062.007.09.018a11.487,11.487,0,0,1,3.506,2.006,3.582,3.582,0,0,1,1.3,2.087,2.789,2.789,0,0,1-.006.636c3.25,2.462,6.911,4.267,10.41,6.3-1.357-5.164-.7-10.6-.648-15.9.01-.975,2.481-1.427,2.469-.243-.058,5.77-.846,11.67,1.16,17.213a.609.609,0,0,1-.191.659c.2.132.4.26.6.4.053-.293.685-.754,1.3-.862,5.11-.9,10.787-1.326,15.95-.121a73.148,73.148,0,0,0-.875-9.678C437.122,191.443,435.115,184.508,430.739,179.4Z" transform="translate(-3.368 -3.993)" fill="#fff"/>
      <path id="color_x5F_1" d="M396.39,128.385c-1.816,1.308-5.836,3.654-4.2,6.406.533.9-1.862,1.689-2.284.977-2.114-3.564,2.524-6.385,4.955-8.138C395.639,127.069,397.748,127.407,396.39,128.385Zm-7.249,11.088c.019-.282-2.415-.027-2.461.665a1.706,1.706,0,0,0,.225,1.281c.256.322,1,.092,1.321.007.082-.022,1.331-.432,1.14-.672A1.71,1.71,0,0,1,389.142,139.474Zm13.964-6.822a1.609,1.609,0,0,0,1.6-.77,4.235,4.235,0,0,0,.8-1.775c.142-1.309-2.372-.985-2.5.174a3.291,3.291,0,0,1-.665,1.286C402.014,132.115,402.635,132.589,403.106,132.652Zm-14.046-3.657a2.092,2.092,0,0,0,1.738-.251,4.391,4.391,0,0,0,1.9-1.915c.212-.516-.826-.5-1.045-.466a1.756,1.756,0,0,0-1.408.805,2.152,2.152,0,0,1-.946.932C389.007,128.286,388.511,128.76,389.06,128.994Zm85.429,289.4c-.024.338-.3.707-.919.892-1.661.5-3.307.964-4.954,1.371,2.149,2.209,5.672,6.162,3.592,9.034-1.6,2.211-4.975,2.769-7.508,2.749-8.53-.069-19.019-4.116-23.131-12.135-.214-.064-.436-.111-.646-.182-5.465-1.834-6.044-6.247-7.432-11.467-1.949-7.325-3.516-14.741-5.3-22.108-4.142-17.131-10.772-33.524-16.1-50.3-4.811-15.15-9.463-30.353-14.628-45.385-1.255,40.377-5.6,82.861,18.833,117.718a.385.385,0,0,1,0,.5,15.758,15.758,0,0,1-5.126,3.954c6.657,12.6-15.657,13.825-22.973,13.658-5.211-.119-14.585-.1-18.625-4.115-4.1-4.071,8.716-9.211,13.826-11.259a24.068,24.068,0,0,1-4.13-2.723.289.289,0,0,1-.111-.191c-.345,0-.6-.086-.6-.275-.031-5.133-.329-10.234-.819-15.313a1.073,1.073,0,0,1-.174.016H46.1c-.56.152-1.158.157-1.332-.04-.351-.084-.3-.295-.054-.516V119.516c0-.328.374-.591.829-.755h-.369c-1.653,0,.222-1.207,1.011-1.207H378.513c.731-.426,1.971-.337,1.971.591v4.7c1.441-1.966,4.108-3.494,6.863-5.328a43.473,43.473,0,0,1,5.692-4.751,13.2,13.2,0,0,1,7.079-3.21,20.607,20.607,0,0,1,13.17.931.8.8,0,0,1,.5.425,2.1,2.1,0,0,1,.7-.219,14.569,14.569,0,0,1,11.9,4.761,10.548,10.548,0,0,1,4.454,9.049,20.6,20.6,0,0,1,.375,4.135,24.9,24.9,0,0,1-.723,5.261c-.083.359-.135.657-.172.933a13.7,13.7,0,0,0,.771,3.123c.069.14.137.274.212.434,1.775,3.752,4.782,5.094,8.626,6.008,5.035,1.2,11.714,3.88,14.64,8.475a9.832,9.832,0,0,1,.66,9.815c-1.738,3.949-2.5,7.087-.1,10.917,3.079,4.915,5.1,11.683,4.068,17.54a16.142,16.142,0,0,1-.918,3.225,7.654,7.654,0,0,1-3.69,5.454c-.221.119-.444.235-.67.349-3.7,2.9-8.8,4.07-13.88,4.132-1.021.158-1.689.233-1.843.249.058,7.081-.784,14.941-5.232,19.85-2.686,2.964-6.4,3.491-10.034,2.8-.532,6.18-.991,11.934,1.126,17.8a.774.774,0,0,1,.68.365c6.866,13.115,10.48,27.535,12.9,42.089,2.392,14.39,3.212,29.283,6.6,43.477,3.6,15.088,11.078,28.822,15.771,43.552,4.609,14.466,6.811,29.894,14.491,43.189A.657.657,0,0,1,474.489,418.39ZM420.578,226.6c-.052-.017-.1-.037-.153-.054a23.924,23.924,0,0,1-5.14-2.459,126.45,126.45,0,0,1-17-13.534c-2.74-2.508-4.967-6.05-7.646-8.859a1.221,1.221,0,0,1-.489-.107.373.373,0,0,1-.181-.57,15.23,15.23,0,0,0-3.335-2.515,1.629,1.629,0,0,1-.87.108c-6.489-1.717-8.03-7.191-3.98-12.471,1.258-1.641,3.223-2.662,4.111-4.6.749-1.638,1.182-3.449,2.007-5.047.938-1.812,2.08-3.245,4.243-3.135a1.989,1.989,0,0,1,.488.086,2.191,2.191,0,0,1,1.286,1.217c.894,1.789.709,4.929.926,6.2a22.222,22.222,0,0,0,4.82,9.528c.03.009.062.007.091.018a11.533,11.533,0,0,1,3.521,2.017,3.6,3.6,0,0,1,1.306,2.1,2.811,2.811,0,0,1-.006.639c3.264,2.475,6.941,4.289,10.455,6.335-1.363-5.191-.7-10.654-.651-15.988.01-.98,2.491-1.435,2.479-.244-.058,5.8-.849,11.732,1.165,17.3a.613.613,0,0,1-.192.663c.2.133.4.261.6.4.053-.295.688-.758,1.308-.867,5.132-.9,10.834-1.333,16.019-.122a73.62,73.62,0,0,0-.879-9.73c-1.056-6.717-3.071-13.688-7.466-18.826a28.143,28.143,0,0,0-9.288-4.291,28.857,28.857,0,0,1-5.113-1.071c-.724-.1-1.15-.141-1.15-.141l-.042-.021c-.131.12-.271.239-.413.358-4.226,3.548-12.95,6.61-17.592,4.436a5.31,5.31,0,0,1-1.33-.87,5.871,5.871,0,0,1-1.727-4.65,7.013,7.013,0,0,1-3.349.152,9.251,9.251,0,0,1-2.558,3.5,26.079,26.079,0,0,0-6.4,9.7c-2.18,5.293-4.141,10.643-6.717,15.716a.682.682,0,0,1,.225.63c-.929,8.033,4.043,15.039,4.331,22.929.278,7.61-1.677,14.561-3.393,21.883a.916.916,0,0,1-.084.218,24.181,24.181,0,0,0,7.07,5.195,29.43,29.43,0,0,0,4.171,1.655c11.954,3.753,27.16.879,37.652-3.45-2.37-6.289-1.8-12.4-1.228-19.059a.767.767,0,0,1,.076-.261A.4.4,0,0,1,420.578,226.6Zm-43.971-46.485a25.692,25.692,0,0,1,3.654-6.124c1.892-2.251,4.279-3.936,5.024-6.719-.3-.284-.15-.654.189-.95.027-.232.044-.473.049-.721.005-.3.293-.553.668-.726-2.087-1-1.785-5.47-2.31-7.321-.17-.6,2.286-1.282,2.461-.665.571,2.013.3,4.423,1.318,6.3.392.722.771.579,1.086.1.223-1.4.489-3.329.6-5.153a9.474,9.474,0,0,0-.752-2.358,6.771,6.771,0,0,0-3.137-3.4,17.608,17.608,0,0,0-3.2-1.28c-.86-.021-1.784-.023-2.773-.023a2.409,2.409,0,0,0-.963.2,2.3,2.3,0,0,0-.5.433c-2.347,2.808-1.132,7.285-1.063,10.629.005.228-.223.423-.539.571-.606,3.668-5.077,7.735-7.263,10.2a107.208,107.208,0,0,1-12.532,12.472c-1.588,1.279-3.653,2.245-4.549,4.175a10.933,10.933,0,0,0-.358,7.839,12.234,12.234,0,0,0,4.14,6.361c3.9,2.782,7.584.85,10.668-2.2a1.062,1.062,0,0,1,.336-.206C371.056,194.8,373.366,187.332,376.607,180.118Zm25.249,15.7.014-.016c.007-.008.013-.017.02-.026-.765-.611-1.522-1.269-2.257-1.97a1.549,1.549,0,0,1-1.472.713,3.7,3.7,0,0,0,.129.406c.014.032.021.053.027.068l.02.036c.037.069.075.138.117.2a3.2,3.2,0,0,0,.3.407l.05.054c.051.046.1.092.156.134a3.266,3.266,0,0,0,.336.233c.044.021.088.043.134.062.094.04.189.078.287.11l.08.024c.093.02.186.038.28.051s.167.017.251.023c.053,0,.109,0,.142,0,.1-.005.2-.011.3-.023l.032,0a4.475,4.475,0,0,0,.46-.128c.1-.046.291-.129.365-.172.013-.01.02-.016.037-.029C401.733,195.92,401.8,195.869,401.856,195.816ZM391.8,199.825a12.451,12.451,0,0,0,3.846-3.425,1.3,1.3,0,0,1,.394-.35,4.7,4.7,0,0,1-.5-1.59c-.1-.832-.269-2.2.527-2.713a4.138,4.138,0,0,1,1.142-.51,21.655,21.655,0,0,1-4.283-7.415,22.96,22.96,0,0,1-.725-4.6c-.073-.742-.451-5.667-1.527-3.585-1.161,2.246-1.71,4.723-3.059,6.844-.133.211-.266.421-.417.624-.059.08-.122.155-.184.232-1.791,2.256-4.462,3.668-5,6.82-.673,3.921,1.662,6.146,5.253,7.1a1.23,1.23,0,0,0,.882.038A12.329,12.329,0,0,1,391.8,199.825Zm-3.922-33.659c.106.032.212.059.319.086l.195-.982s.006-.033.016-.084c.014-.069.034-.176.061-.326-.159.045-.321.086-.493.117,0,.085-.012.161-.015.244C387.951,165.548,387.923,165.864,387.882,166.166Zm4.608.157a.556.556,0,0,1,.05.3c.039-.116.08-.232.118-.346Zm.737,1.17c-.135,8.657,13.049,4.568,17.06.2a17.386,17.386,0,0,1-4.1-2.541,7.588,7.588,0,0,1-2.626-3.943,4.117,4.117,0,0,1-.145-3.041c.037-.1.079-.215.118-.321a20.821,20.821,0,0,1,1.987-5.175,93.659,93.659,0,0,0,3.529-9.653.147.147,0,0,1,0-.019,7.741,7.741,0,0,0-1.369-2.635,3.7,3.7,0,0,1-1.144-2.623c-.285-1.44.228-2.608,1.521-4.171,2.161-2.611,3.657-4.387,4.04-7.831.412-3.707-1.53-5.249-4.458-5.917h0a18.128,18.128,0,0,0-2.343-.357c-.962-.089-.832-.6-.359-1.006l-.251-.127a2.63,2.63,0,0,1-1.862.36c-1.232-.272-1.723-1.339-2.442-1.872-.482-.027-1.087-.046-1.832-.051a7.62,7.62,0,0,0-1.575,1.041,48.207,48.207,0,0,0-8.324,9.027c-3.945,5.514-6.428,13.489-1.48,19.262,2.272,2.651,5.582,4.383,7.568,7.272,2.85,4.145,1.622,9.02.037,13.429C394.644,167.174,393.87,167.429,393.227,167.493Zm42.553,36.758c-5.211-1.712-11.137-1.354-16.453-.419a2.452,2.452,0,0,1-.55.045,25.318,25.318,0,0,1,5.734,5.4c.608.8-1.766,1.662-2.284.977-4.463-5.9-11.247-8.6-17.318-12.341-.456-.281-.918-.591-1.381-.915a5.136,5.136,0,0,1-1.741.976,5.3,5.3,0,0,1-4.6-.571,16.664,16.664,0,0,1-4.389,3.463c1.972,2.212,3.581,4.832,5.728,6.909A176.119,176.119,0,0,0,412,219.261c3.822,3.014,8.532,6.727,13.555,7.251,4.557.475,6.976-3.532,8.155-7.329A51.129,51.129,0,0,0,435.78,204.251ZM377.617,391.622c-2.739-26.764-10.655-52.933-12.79-79.807-1.046-13.171-1.779-26.46-1.1-39.67.5-9.772,1.165-20.854,6.346-29.434.048-.081.091-.164.14-.245.008-.012.02-.023.031-.036a1.131,1.131,0,0,1,.117-.113l.018-.014c.024-.018.046-.035.072-.051l.02-.015c1.729-7.288,4.415-15.147,3.2-22.733-.989-6.192-3.942-12.135-4.29-18.4-.171.279-.329.564-.5.84a1.153,1.153,0,0,1-.543.367c-3.876,3.752-9.98,6.578-14.77,2.608a13.45,13.45,0,0,1-2.849-3.358v6.606c0,.672-1.56,1.072-2.194.905a1.036,1.036,0,0,1-.14.012H294.137c-.463.064-.857.009-.939-.185l0-.006c-.009-.021-.031-.036-.031-.062V161.931a.429.429,0,0,1,.027-.15c0-.353,1.1-.962,1.666-.962h54.536c.389,0,.577.069.635.17.388-.014.688.069.688.277v27.168a33.366,33.366,0,0,1,3.925-3.282,95.46,95.46,0,0,0,7.213-6.765,113.237,113.237,0,0,0,8.634-9.68c1.184-1.532,3.177-3.638,3.493-5.709a.748.748,0,0,1-.326-.266c-2.221-3.333-4.623-7.31-4.065-11.525.527-3.979,2.81-6.52,5.151-9.6,2.823-3.713,2.681-7.082,3.251-11.074V118.681a1.513,1.513,0,0,1-.424.079H47.155a.181.181,0,0,1,.025.09v272.77Q212.4,391.623,377.617,391.622ZM348.253,207.883V162.027H295.623v45.856ZM408.859,414c-7.135,2.473-16.325,1.4-23.359-1.672-3.728,1.76-7.606,3.31-11.184,5.353-1.239.708-4.763,2.623-2.045,4.091a22.313,22.313,0,0,0,4.566,1.749,47.175,47.175,0,0,0,12.228,1.426C395.145,425.02,414.493,424.578,408.859,414Zm61.133,15.76a2.349,2.349,0,0,0,.177-.477c.758-3.025-2.163-6.027-4.159-8.048a32.489,32.489,0,0,1-8.483.636c-4.048-.271-8.5-.147-12.662-.813,3.684,5.61,10.894,8.955,17.265,9.921a28.4,28.4,0,0,0,3.519.385C467.473,431.413,469.322,431.117,469.992,429.758Zm1.914-11.627c-7.276-12.927-9.471-27.639-13.931-41.633-4.668-14.65-12.266-28.423-15.844-43.409-3.4-14.256-4.318-29.094-6.719-43.54-2.412-14.511-5.755-28.974-12.443-42.138-.031,0-.06-.005-.091-.009-15.021,6.23-38.793,9.623-51.558-2.953-4.765,9.3-5.077,21.431-5.3,31.505a349.817,349.817,0,0,0,1.422,37.107c2.683,31.713,13.384,62.429,13.574,94.4h0a.879.879,0,0,1,.539.164,21.649,21.649,0,0,0,4.415,2.793,1.152,1.152,0,0,1,.846.416,34.05,34.05,0,0,0,10,2.564,28.879,28.879,0,0,0,10.126-.343c1.347-.343,7.955-2.173,6.206-4.75a105.42,105.42,0,0,1-15.984-37.769c-5.781-27.779-2.675-56.3-2.017-84.4.005-.223.2-.422.474-.575-.47-1.329-.934-2.659-1.413-3.984-.357-.985,2.09-1.693,2.461-.665,6.141,16.974,11.419,34.237,16.867,51.445,4.822,15.233,10.992,30.2,15.12,45.63,1.882,7.033,3.432,14.146,5.11,21.23.788,3.325,1.579,6.654,2.508,9.942.714,2.526,1.251,7.107,3.8,8.445,5.091,2.676,11.9,2.186,17.473,2.559C462.6,420.5,467.126,419.513,471.906,418.131ZM128.189,161.267v46.906c0,.672-1.56,1.071-2.194.906a1.029,1.029,0,0,1-.139.012H71.611c-.464.064-.86.008-.94-.187l0,0c-.008-.022-.031-.037-.031-.063V161.932a.439.439,0,0,1,.027-.152c0-.353,1.105-.96,1.666-.96h54.536c.388,0,.577.069.635.17C127.889,160.977,128.189,161.061,128.189,161.267ZM73.1,207.883h52.629V162.027H73.1Q73.1,184.955,73.1,207.883Zm55.09-65.169v11.35c0,.66-1.5,1.057-2.159.913a1.1,1.1,0,0,1-.175.017H71.5c-.409.04-.743-.018-.825-.19a.207.207,0,0,1-.009-.02c-.006-.019-.025-.033-.025-.055v-11.35c0-.388.519-.683,1.08-.834a1.914,1.914,0,0,1,.571-.141c.014,0,.029,0,.042,0h54.536a1.622,1.622,0,0,1,.453.05c.072-.008.142-.012.21-.014C127.9,142.428,128.189,142.512,128.189,142.714ZM87.511,153.787h38.216v-10.18H73.1v10.18Zm115.478,7.48v46.906c0,.672-1.56,1.071-2.194.905a1.052,1.052,0,0,1-.14.012H146.412c-.463.064-.857.009-.939-.185a.013.013,0,0,1,0-.006c-.008-.021-.031-.036-.031-.062V161.932a.45.45,0,0,1,.027-.15c0-.353,1.1-.962,1.666-.962h54.536c.389,0,.577.069.635.17C202.69,160.977,202.99,161.061,202.99,161.267ZM147.9,207.883h52.629V162.027H147.9Zm55.09-65.169v11.35c0,.66-1.5,1.057-2.159.913a1.1,1.1,0,0,1-.175.017H146.3c-.469.046-.86-.028-.86-.266v-11.35c0-.307.327-.557.742-.722a2.881,2.881,0,0,1,.337-.111,1.824,1.824,0,0,1,.613-.145h54.536a1.623,1.623,0,0,1,.453.05C202.593,142.4,202.99,142.476,202.99,142.714Zm-41.578,11.074h39.118v-10.18H147.9v10.18Zm114.5,7.48v46.906c0,.672-1.56,1.071-2.194.906a1.03,1.03,0,0,1-.139.012H219.336c-.462.064-.855.009-.939-.184l0-.008c-.009-.021-.031-.036-.031-.061V161.932a.436.436,0,0,1,.027-.148c0-.352,1.1-.964,1.665-.964h54.536c.388,0,.577.069.635.17C275.614,160.977,275.913,161.061,275.913,161.267Zm-55.09,46.616h52.629V162.027H220.822Zm55.09-65.169v11.35c0,.66-1.5,1.057-2.159.913a1.1,1.1,0,0,1-.175.017H219.22c-.469.046-.86-.028-.86-.266v-11.35c0-.387.518-.682,1.079-.833a1.829,1.829,0,0,1,.614-.145h54.537a1.623,1.623,0,0,1,.453.05,2.369,2.369,0,0,1,.285-.015C275.665,142.439,275.913,142.525,275.913,142.714Zm-40.6,11.074h38.141v-10.18H220.823v10.18Zm57.852.942v-11.35c0-.325.368-.587.817-.751.085-.031.173-.058.262-.082a1.82,1.82,0,0,1,.613-.145h54.536a1.623,1.623,0,0,1,.453.05c.474-.049.871.025.871.264v11.35c0,.66-1.5,1.057-2.159.913a1.1,1.1,0,0,1-.175.017H294.023C293.553,155.04,293.163,154.967,293.163,154.729Zm55.09-11.122H295.623v10.18h52.629v-.6Q348.253,148.4,348.253,143.607Zm-220.064,99.4v46.906c0,.672-1.56,1.071-2.194.906a1.024,1.024,0,0,1-.139.012H71.611c-.464.064-.86.008-.94-.187l0,0c-.008-.022-.031-.037-.031-.063V243.672a.439.439,0,0,1,.027-.152c0-.353,1.105-.96,1.666-.96h54.536c.388,0,.577.069.635.17C127.889,242.716,128.189,242.8,128.189,243.006ZM73.1,289.622h52.629V243.767H73.1Q73.1,266.694,73.1,289.622Zm55.09-65.169V235.8c0,.66-1.5,1.056-2.158.914a1.129,1.129,0,0,1-.177.017H71.489a1.327,1.327,0,0,1-.709-.081h0a.24.24,0,0,1-.109-.111c0-.006-.007-.012-.008-.018s-.025-.033-.025-.054V225.119c0-.388.519-.683,1.08-.834a1.892,1.892,0,0,1,.587-.143l.025,0h54.536a1.622,1.622,0,0,1,.453.05C127.792,224.14,128.189,224.214,128.189,224.453Zm-9.218,11.074h6.757v-10.18H73.1v10.18Zm84.019,7.48v46.906c0,.672-1.56,1.071-2.194.905a1.047,1.047,0,0,1-.14.012H146.412c-.463.064-.857.009-.939-.185a.013.013,0,0,1,0-.006c-.008-.021-.031-.036-.031-.062V243.671a.449.449,0,0,1,.027-.15c0-.353,1.1-.962,1.666-.962h54.536c.389,0,.577.069.635.17C202.69,242.716,202.99,242.8,202.99,243.006ZM147.9,289.622h52.629V243.767H147.9Zm55.09-65.169V235.8c0,.66-1.5,1.056-2.158.914a1.129,1.129,0,0,1-.177.017H146.29c-.465.045-.852-.03-.852-.266V225.117c0-.312.336-.564.759-.73a3.055,3.055,0,0,1,.321-.1,1.825,1.825,0,0,1,.613-.145h54.536a1.622,1.622,0,0,1,.453.05C202.593,224.14,202.99,224.214,202.99,224.453ZM192.87,235.526h7.658v-10.18H147.9v10.18Zm83.042,7.48v46.906c0,.672-1.56,1.071-2.194.906a1.025,1.025,0,0,1-.139.012H219.336c-.462.064-.855.009-.939-.184l0-.008c-.009-.021-.031-.036-.031-.061V243.672a.436.436,0,0,1,.027-.148c0-.352,1.1-.964,1.665-.964h54.536c.388,0,.577.069.635.17C275.614,242.716,275.913,242.8,275.913,243.006Zm-55.09,46.616h52.629V243.767H220.822Zm55.09-65.169V235.8c0,.66-1.5,1.056-2.158.914a1.128,1.128,0,0,1-.177.017H219.213a1.3,1.3,0,0,1-.719-.087h0a.215.215,0,0,1-.132-.179V225.118c0-.387.518-.682,1.079-.833a1.828,1.828,0,0,1,.614-.145H274.59a1.622,1.622,0,0,1,.453.05C275.516,224.14,275.913,224.214,275.913,224.453Zm-9.142,11.074h6.682v-10.18H220.823v10.18Zm83.944,7.48v46.906c0,.672-1.56,1.071-2.194.905a1.047,1.047,0,0,1-.14.012H294.137c-.463.064-.857.009-.939-.185l0-.006c-.009-.021-.031-.036-.031-.062V243.671a.428.428,0,0,1,.027-.15c0-.353,1.1-.962,1.666-.962h54.536c.389,0,.577.069.635.17C350.415,242.716,350.714,242.8,350.714,243.006Zm-55.091,46.616h52.629V243.767H295.623Q295.623,266.694,295.623,289.622Zm55.091-65.169V235.8c0,.66-1.5,1.056-2.158.914a1.128,1.128,0,0,1-.177.017H294.015c-.466.045-.852-.03-.852-.266V225.117c0-.33.376-.593.834-.757.08-.028.161-.054.246-.076a1.82,1.82,0,0,1,.613-.145h54.536a1.621,1.621,0,0,1,.453.05C350.317,224.14,350.714,224.214,350.714,224.453ZM340.67,235.526h7.583v-10.18H295.623v10.18Zm-212.481,89.22v46.9c0,.672-1.56,1.071-2.194.906a1.039,1.039,0,0,1-.139.012H71.611c-.464.064-.86.008-.94-.187l0,0c-.008-.022-.031-.037-.031-.063v-46.9a.435.435,0,0,1,.027-.152c0-.353,1.105-.961,1.666-.961h54.536c.389,0,.578.068.636.171C127.89,324.456,128.189,324.539,128.189,324.746ZM73.1,371.36h52.629V325.5H73.1Q73.1,348.432,73.1,371.36Zm55.09-65.169V317.54c0,.659-1.5,1.055-2.156.914a1.146,1.146,0,0,1-.178.018H71.48a1.314,1.314,0,0,1-.7-.081l-.008,0a.235.235,0,0,1-.106-.114c0-.005-.006-.009-.007-.015s-.025-.033-.025-.054V306.856c0-.388.519-.683,1.08-.834a1.825,1.825,0,0,1,.612-.145h54.536a1.622,1.622,0,0,1,.453.05C127.792,305.878,128.189,305.953,128.189,306.191ZM73.1,317.265h52.629V307.084H73.1Q73.1,312.176,73.1,317.265Zm129.891,7.481v46.9c0,.672-1.56,1.071-2.194.905a1.046,1.046,0,0,1-.14.012H146.412c-.463.064-.857.009-.939-.185a.012.012,0,0,1,0-.006c-.008-.021-.031-.036-.031-.062v-46.9a.426.426,0,0,1,.027-.15c0-.353,1.1-.963,1.666-.963h54.536c.389,0,.578.069.636.171C202.69,324.456,202.99,324.539,202.99,324.746ZM147.9,371.36h52.629V325.5H147.9Zm55.09-65.169V317.54c0,.659-1.5,1.055-2.156.914a1.156,1.156,0,0,1-.178.018H146.282a2.024,2.024,0,0,1-.444,0l-.048-.008c-.211-.035-.353-.118-.353-.26V306.855c0-.316.344-.571.776-.737.06-.023.124-.044.187-.063.039-.013.077-.023.117-.033a1.825,1.825,0,0,1,.613-.145h54.536a1.622,1.622,0,0,1,.453.05C202.593,305.878,202.99,305.953,202.99,306.191Zm-55.09.893v10.181h52.629V307.084Zm128.013,17.662v46.9c0,.672-1.56,1.071-2.194.906a1.04,1.04,0,0,1-.139.012H219.336c-.462.064-.855.009-.939-.184l0-.008c-.009-.021-.031-.036-.031-.061v-46.9a.436.436,0,0,1,.027-.148c0-.353,1.1-.964,1.665-.964h54.536c.389,0,.578.069.636.171C275.614,324.456,275.913,324.539,275.913,324.746Zm-55.09,46.614h52.629V325.5H220.822Zm55.09-65.169V317.54c0,.659-1.5,1.055-2.156.914a1.146,1.146,0,0,1-.178.018H219.205a1.29,1.29,0,0,1-.708-.086l-.008,0a.275.275,0,0,1-.074-.059s0-.01-.007-.015a.181.181,0,0,1-.047-.1V306.855c0-.387.518-.682,1.079-.833a1.83,1.83,0,0,1,.614-.145H274.59a1.622,1.622,0,0,1,.453.05C275.516,305.878,275.913,305.953,275.913,306.191Zm-55.09,11.074h52.629V307.084H220.822Zm129.892,7.481v46.9c0,.672-1.56,1.071-2.194.905a1.047,1.047,0,0,1-.14.012H294.137c-.463.064-.857.009-.939-.185l0-.006c-.009-.021-.031-.036-.031-.062v-46.9a.425.425,0,0,1,.027-.15c0-.353,1.1-.963,1.666-.963h54.536c.389,0,.578.069.636.171C350.415,324.456,350.714,324.539,350.714,324.746ZM295.623,371.36h52.629V325.5H295.623Q295.623,348.432,295.623,371.36Zm55.091-65.169V317.54c0,.659-1.5,1.055-2.156.914a1.156,1.156,0,0,1-.178.018H294.007a2.114,2.114,0,0,1-.389,0h-.028v0a.477.477,0,0,1-.391-.182l-.005-.011c-.01-.023-.032-.042-.032-.07V306.855c0-.334.386-.6.851-.763.037-.013.075-.027.113-.038l.116-.033a1.821,1.821,0,0,1,.613-.145h54.536a1.622,1.622,0,0,1,.453.05C350.317,305.878,350.714,305.953,350.714,306.191Zm-55.091.893v10.181h52.629V307.084Zm-187.6-131.008c-2.815,2.883-5.406,5.983-8.461,8.619-1.352,1.167-3.144,2.585-5.029,2.5-2.746-.125-3.751-4.661-4.27-6.634-.317-1.2-2.778-.539-2.461.665,1.182,4.488,3.872,9.665,9.277,7.315,5.334-2.319,9.057-7.607,13.023-11.667C111.2,175.752,108.835,175.247,108.026,176.076Zm77.461,83.786c-2.815,2.883-5.4,5.983-8.461,8.619-1.352,1.167-3.144,2.585-5.029,2.5-2.746-.125-3.751-4.661-4.27-6.634-.317-1.2-2.778-.539-2.461.665,1.182,4.489,3.871,9.665,9.277,7.315,5.334-2.319,9.057-7.606,13.022-11.667C188.659,259.537,186.3,259.033,185.487,259.863Zm147.412,80c-2.815,2.883-5.4,5.983-8.461,8.619-1.353,1.167-3.144,2.585-5.03,2.5-2.745-.125-3.751-4.662-4.27-6.634-.317-1.2-2.778-.539-2.461.665,1.181,4.488,3.871,9.666,9.277,7.315,5.334-2.319,9.058-7.606,13.023-11.668C336.071,339.537,333.709,339.033,332.9,339.861Zm-151.168,4.26c-2.815,2.883-5.4,5.983-8.461,8.619-1.352,1.167-3.144,2.585-5.029,2.5-2.746-.125-3.751-4.662-4.27-6.635-.317-1.2-2.778-.539-2.461.665,1.181,4.489,3.871,9.666,9.277,7.316,5.334-2.319,9.057-7.607,13.022-11.668C184.9,343.8,182.541,343.292,181.732,344.121Zm1.039-164.929c-3.577,2.273-7.6,3.633-11.4,5.385a17.54,17.54,0,0,1-4.118-6.542c-.369-1.1-2.822-.409-2.461.665a18.82,18.82,0,0,0,4.365,6.974,22.882,22.882,0,0,0-6.015,4.425c-1.029,1.088,1.374,1.185,2,.52a21.025,21.025,0,0,1,5.108-3.863,51.459,51.459,0,0,0,9.838,6.828c.9.512,3.085-.732,1.906-1.4a51.063,51.063,0,0,1-9.549-6.556c3.936-1.866,8.189-3.215,11.882-5.562C185.748,179.168,183.636,178.643,182.771,179.192ZM254.6,257.772c-3.577,2.273-7.6,3.633-11.4,5.385a17.529,17.529,0,0,1-4.118-6.542c-.369-1.1-2.822-.409-2.461.665a18.808,18.808,0,0,0,4.365,6.974,22.868,22.868,0,0,0-6.015,4.425c-1.029,1.088,1.374,1.185,2,.52a21.068,21.068,0,0,1,5.108-3.863,51.4,51.4,0,0,0,9.839,6.827c.9.512,3.085-.732,1.906-1.4a51.027,51.027,0,0,1-9.549-6.555c3.937-1.866,8.19-3.215,11.882-5.562C257.576,257.748,255.464,257.222,254.6,257.772Zm8.263-80.886c-9.185-.037-18.357-.6-27.542-.63-1.111,0-2.545,1.693-.88,1.7,9.185.035,18.357.594,27.542.63C263.093,178.59,264.527,176.893,262.862,176.886ZM252.851,187h-14.4c-1.1,0-2.55,1.678-.886,1.678h14.4C253.06,188.674,254.515,187,252.851,187Zm-.36,10.1c-4.624-1.868-9.457-1.964-14.372-1.966-1.411,0-1.886,1.826-.216,1.827,4.524,0,8.914.1,13.169,1.82C252.119,199.2,253.947,197.682,252.491,197.094Zm87.364,61.212c-9.185-.037-18.357-.6-27.542-.631-1.111,0-2.545,1.693-.88,1.7,9.185.035,18.358.594,27.542.631C340.086,260.011,341.519,258.313,339.855,258.306Zm-10.012,10.109h-14.4c-1.1,0-2.55,1.678-.886,1.678h14.4C330.051,270.093,331.507,268.415,329.842,268.415Zm-.359,10.1c-4.624-1.868-9.458-1.964-14.372-1.966-1.411,0-1.886,1.826-.216,1.827,4.524,0,8.914.1,13.169,1.82C329.112,280.616,330.939,279.1,329.483,278.513ZM112.634,337.358c-9.185-.037-18.358-.6-27.543-.63-1.111,0-2.545,1.693-.88,1.7,9.185.035,18.358.594,27.543.63C112.865,339.062,114.3,337.365,112.634,337.358Zm-10.012,10.109h-14.4c-1.1,0-2.55,1.678-.886,1.678h14.4C102.832,349.146,104.286,347.468,102.622,347.468Zm-.359,10.1C97.638,355.7,92.805,355.6,87.89,355.6c-1.411,0-1.886,1.826-.216,1.827,4.524,0,8.914.1,13.169,1.82C101.891,359.668,103.718,358.152,102.263,357.565Zm229.619-186.63c3.908,6.682,7.913,13.559,10.642,20.828.1.269-.3.553-.481.649-4.535,2.423-9.326,3.269-14.049,5.185a1.888,1.888,0,0,1-.657.132,2.878,2.878,0,0,1-1.193.452,1.877,1.877,0,0,1-.684.219c-5.135.556-11.3-.334-13.874-5.328a.872.872,0,0,1-.709-.488c-1.389-3.271-2.78-6.547-4.033-9.874-.462-1.228-2.056-3.891-.781-5.018a1.263,1.263,0,0,1,.431-.242,1.443,1.443,0,0,1,.849-.433c7.789-1.656,15.478-4.2,23.16-6.311C330.926,170.589,331.618,170.484,331.882,170.935Zm-6.953,26.29c-.355-2.218-1.357-4.267-1.676-6.508a19.9,19.9,0,0,1-9.04,2C316.359,196.407,320.826,197.475,324.929,197.225Zm12.064-11.691c-2.278-4.544-4.713-9.011-7.268-13.4-7.184,2.007-14.377,4.336-21.658,5.913a.961.961,0,0,1-.4.683c.673-.594.342-.445.595.361.138.441.28.88.437,1.315q.635,1.767,1.33,3.508c1,2.521,2.045,5.024,3.1,7.521a.76.76,0,0,1,.522.218,14.078,14.078,0,0,0,9.8-2.085c.192-.122,2.136-.821,2.164-.328.145,2.569,1.37,4.839,1.769,7.326,3.025-1.169,6.252-1.69,9.228-2.9,2.325-.946,3.573-1.155,2.5-3.59C338.445,188.544,337.741,187.028,336.993,185.534ZM113.626,257.015c1.295,7.647,2.613,15.509,2.6,23.283,0,.624-.922.9-1.414.963-5.087.638-9.875-.294-14.96-.2-.43.008-.624-.075-.667-.2a3.573,3.573,0,0,1-1.193.1,1.059,1.059,0,0,1-.392,0c-4.861-1.27-10.261-4.342-10.706-9.879a.714.714,0,0,1-.473-.658c-.136-3.31-.313-6.63-.286-9.944.012-1.463-.328-3.514,1.373-4.07a1.293,1.293,0,0,1,.942-.007,2.068,2.068,0,0,1,.841-.2c7.355.7,15.871.345,23.6.5C113.094,256.7,113.577,256.723,113.626,257.015ZM98.048,279.377c.344-2.175.145-4.417.738-6.579a17.972,17.972,0,0,1-9.186-.888C90.636,275.743,94.3,278.167,98.048,279.377Zm15.7.749a125.765,125.765,0,0,0-1.718-16.917c-.259-1.742-.526-3.484-.816-5.222l-1.567-.031c-6.919-.136-14.007.153-20.917-.416-.575,1.3-.115,3.967-.085,5.242.054,2.291.144,4.581.236,6.87.225.033.381.119.417.267a15.75,15.75,0,0,0,11.029,1.875c.15-.032,1.095-.206.97.183-.829,2.6-.373,5.319-1.035,7.918a1.692,1.692,0,0,1,.57-.139C105.207,279.674,109.414,280.421,113.749,280.126Zm144,57.362c1.294,7.647,2.613,15.508,2.6,23.282,0,.624-.922.9-1.414.963-5.088.638-9.874-.293-14.961-.2-.431.008-.624-.076-.667-.2a3.572,3.572,0,0,1-1.193.1,1.06,1.06,0,0,1-.392,0c-4.861-1.27-10.26-4.341-10.706-9.877a.714.714,0,0,1-.474-.659c-.136-3.311-.313-6.63-.285-9.945.012-1.46-.329-3.515,1.373-4.07a1.3,1.3,0,0,1,.942-.006,2.088,2.088,0,0,1,.841-.2c7.357.689,15.87.345,23.6.5C257.219,337.172,257.7,337.2,257.751,337.488Zm-15.578,22.361c.345-2.175.146-4.417.738-6.578a17.972,17.972,0,0,1-9.186-.888C234.761,356.217,238.426,358.64,242.173,359.849Zm15.7.749a125.737,125.737,0,0,0-1.718-16.917c-.259-1.743-.526-3.484-.816-5.222l-1.567-.031c-6.921-.136-14.005.146-20.916-.416-.576,1.3-.115,3.967-.086,5.242.053,2.29.143,4.58.236,6.869.225.033.382.119.418.267a15.755,15.755,0,0,0,11.029,1.876c.15-.032,1.095-.206.97.183-.829,2.6-.373,5.318-1.035,7.918a1.686,1.686,0,0,1,.57-.139C249.333,360.147,253.54,360.894,257.875,360.6Z" transform="translate(0 0)" fill="#112743"/>
    </g>
  </g>
</svg>
