<svg xmlns="http://www.w3.org/2000/svg" xmlns:xlink="http://www.w3.org/1999/xlink" width="401.696" height="344.596" viewBox="0 0 401.696 344.596">
  <defs>
    <linearGradient id="linear-gradient" x1="0.5" x2="0.5" y2="1" gradientUnits="objectBoundingBox">
      <stop offset="0" stop-color="#e89c7b"/>
      <stop offset="1" stop-color="#ac75a6"/>
    </linearGradient>
  </defs>
  <path id="blob" d="M382.851,469.915c-18.884-.908-248.452,49.691-216.272-169.894,9.159-50.521,28.871-101.067,48.744-113.578,72.122-45.4,218.4-84.858,286.949-29.894C664.431,308.066,472.294,475.594,382.851,469.915Z" transform="translate(-163.492 -129.74)" fill="url(#linear-gradient)"/>
  <g id="_263-Cuddling-A-Cat" data-name="263-Cuddling-A-Cat" transform="translate(-121.722 -121.156)">
    <path id="color_x5F_2" d="M313.518,172.134l-.3-.178a1.694,1.694,0,0,0,1-.56c3.583-6.217,11.555-7.291,18.567-5.715l5.47,1.857a21.164,21.164,0,0,1,2.8,1.565,23.292,23.292,0,0,1,8.215,9.834,49.818,49.818,0,0,0-27.442-7.981,2.023,2.023,0,0,0-.72-.031C318.543,171.2,316.009,171.611,313.518,172.134Zm95.722,125.8c-.429.232-.851.475-1.269.731.606-.286,1.182-.533,1.727-.745C409.546,297.923,409.391,297.927,409.239,297.932Zm-30.667,16.875c-3.411,5.519-5.283,11.394-8.025,17.183-3.726,7.867-8.259,15.454-17.811,16.91-10.024,1.526-20.866.371-30.69-1.8-4.964-1.093-11.67-2.416-16.411-5.5a44.713,44.713,0,0,1,1.869,9.991c.08,1.259.152,2.551.189,3.856a1.86,1.86,0,0,1,.554-.06c4.242.508,7.794,2.945,11.472,4.842,2.575,1.327,6.618,3.74,9.775,2.731l2.548-1.495c.813-.623,1.586-1.3,2.359-1.941,2.748-2.268,8.927-7.848,13.218-5.657,8.258,4.215.447,15.025-4.393,18.3-9.342,6.324-21.046,3.875-30.2,10.341a6.114,6.114,0,0,1-2.666.455c1.029,4.505.287,9.156,1.295,13.631a72.052,72.052,0,0,0,9.592,4.644c6.13,2.525,12.464,4.975,18.819,6.945,9.023,2.8,19.523,1.845,28.635,4.376,2.945-11.041,6.536-21.907,9.83-32.857a.7.7,0,0,1,.323-.349c-.32-.1-.633-.206-.947-.309-1.191.607-3.229-.179-1.748-1.388-.624.509.152-1.512.266-2.115.326-1.726.613-3.457.883-5.193.7-4.51,1.346-9.032,2-13.549,1.15-7.891,1.856-16.149,4.146-23.836a.976.976,0,0,1,.219-.368c3.821-12.335,10.608-27.549,21.993-34.675a46.036,46.036,0,0,1-12.329-2C388.028,301.9,382.746,308.051,378.573,314.807Zm-70.854,42.145c0,.624,0,1.252-.019,1.878l4.616.046A23.167,23.167,0,0,0,307.719,356.951Z" transform="translate(-1 -2.46)" fill="#fff"/>
    <path id="color_x5F_1" d="M296.1,240.275c-.447-1.188,2.433-2.013,2.9-.776a86.984,86.984,0,0,1,2.7,8.376c.367,1.388.723,2.777,1.052,4.174.336,1.426-.734,1.749.743,1.526,1.977-.3,1.242,1.754-.294,1.985a4.375,4.375,0,0,1-2.249-.066.831.831,0,0,1-.6-.538A115.968,115.968,0,0,0,296.1,240.275Zm20.933,17.6c-.427.1-1.411.528-1.249,1.136s1.222.462,1.649.358c3.809-.915,7.018-3.491,6.656-7.7-.084-.985-2.994-.354-2.9.776C321.435,255.3,319.722,257.231,317.03,257.877ZM294.506,234.9a.819.819,0,0,0-.371-1.383c-3.386-.9-7.157-.333-8.791,3.126-.7,1.486,2.227,1.459,2.767.315.886-1.875,2.491-2,4.345-1.511A2.037,2.037,0,0,0,294.506,234.9Zm17.5-6.2c-.7,1.487,2.228,1.459,2.768.316.886-1.875,2.492-2,4.345-1.511a2.044,2.044,0,0,0,2.049-.55.819.819,0,0,0-.371-1.383C317.409,224.672,313.639,225.241,312.005,228.7Zm-4.614-8.507a9.738,9.738,0,0,1,8.9-4.246c1.057.067,3.1-1.45,1.146-1.574a14.4,14.4,0,0,0-12.735,5.8C303.96,221.217,306.868,220.927,307.391,220.193ZM289.7,226.23c1.388.2,2.968-1.762,1.019-2.049a9.246,9.246,0,0,0-7.9,2.166.8.8,0,0,0,.363,1.356,2.088,2.088,0,0,0,2.049-.549A5.189,5.189,0,0,1,289.7,226.23Zm127.7,66.047c13.834,1.017,14.034,20.923,13.637,31.553-.6,15.945-3.783,31.489-6.674,47.122.367.252.471.656-.02,1.165a23.422,23.422,0,0,1-6.454,4.712.387.387,0,0,1,.109.427c-5.063,17.476-8.467,35.662-16.013,52.316-4.651,10.266-11.895,25.944-25.59,25.454-7.361-.264-15.108-4.6-21.67-7.646a224.728,224.728,0,0,1-22.812-12.153q-7.729-4.737-15.086-10c-5.428,3.622-15.469,6.124-19.348-.349-1.844-3.076-2.7-6.567-4.167-9.818a15.583,15.583,0,0,0-3.588-5.6c-3.033-2.583-6.462-1.875-10.144-1.548-16.412,1.46-34.962,1.484-40.561-16.827-19.018,2.7-40.3,2.192-53.755-13.821-11.149-13.269-22.433-39.4-7.875-54.069a1.192,1.192,0,0,1,.21-.164c10.691-12.012,26.827-5.907,34.79,6.663a23.19,23.19,0,0,1,3.765,10.737c.286,5.466-1.17,11.009-.351,16.453.86,5.709,3.474,9.837,8.68,12.389,1.775.871,10.657,5.236,12.035,2.567a.248.248,0,0,1,0-.025c.082-.948.2-1.887.318-2.826-.312,0-.551-.074-.624-.254-4.818-12.061,5.149-24.855-2.348-35.737a.9.9,0,0,1-.645-.226c-6.23-6.886-13.217-14.67-15.4-23.988-1.216-5.193-.94-10.2-.261-15.447.528-4.082,1.722-13.7,6.127-16.677-3.549-6.95-8.45-19.448-1.745-25.893,5.034-4.838,12.469,4.453,16.451,7.043a48.579,48.579,0,0,1,18.916-9.977.364.364,0,0,1-.225-.4c.7-5.115,4.372-16.131,11.145-15.629,3.388.25,5.184,3.979,6.321,6.763,1.3,3.18,2.638,6.862,2.413,10.355a32.885,32.885,0,0,1,11.358,8.648c-6.009-10.271-9.154-22.358-10.985-34.013-4.981.522-13.112-1.6-13.4-12.466-.327-12.2,15.068-14.147,15.068-14.147l.384-.18a39.583,39.583,0,0,1,3.027-5.313c7.3-10.722,18.344-16.805,30.591-19.486a69.761,69.761,0,0,1,7.1-1.183,1.851,1.851,0,0,1,.673.031,45.051,45.051,0,0,1,25.649,7.8,22.557,22.557,0,0,0-7.678-9.617,19.66,19.66,0,0,0-2.616-1.529,24.18,24.18,0,0,0-5.113-1.816c-6.556-1.541-14.008-.492-17.355,5.588a1.571,1.571,0,0,1-.94.548c-.909.259-2.092.25-1.923-.056,2.693-4.89,8.781-7.288,14.75-7.836,0-.143,0-.3,0-.487-.844.318-1.993.372-2.016-.035-.95-17.19,21.249-23.15,34.8-23.144a29.506,29.506,0,0,1,8.351,1.218,23.352,23.352,0,0,1,9.155,4.421c11.234,7.819,18.046,22.528,17.088,36.1-.711,10.072-3.969,20.3-3.1,30.433,1.059,12.351,9.437,18.448,20.328,22.764,8.82,3.495,18.193,6.7,22.933,15.647,4.821,9.106,6.938,20.375,1.016,29.456C430.481,285.836,424.375,289.85,417.4,292.277Zm-107.459,25.8a31.527,31.527,0,0,1-10.911,2.859c1.694,3.835,3.424,7.643,4.874,11.527a1.052,1.052,0,0,1,.769.43c3.925,5.877,14.385,7.642,20.736,8.777,7.936,1.419,16.942,2.73,24.93.952,10.163-2.262,12.971-14.784,16.459-23.123,4.264-10.188,11.322-19.008,18.431-27.369-.582-.249-1.154-.509-1.7-.79a29.631,29.631,0,0,1-15.886-27.472c.235-6.225,3.706-11.856,3.556-18.069-.125-5.131-2.328-9.288-5.136-13.333-2.18,7.931-6.678,14.888-11.292,21.8.906,3.016,1.827,6.025,2.854,9,3.454,10.013,6.543,23.027,19.273,23.825.688.043.557.334.132.642.685-.081,1.282-.019,1.162.2-5.156,9.389-16.356,16.328-25.84,20.532-9.419,4.179-21.16,6.063-29.478-.855A36.2,36.2,0,0,1,309.937,318.079Zm-5.23,49.171c1.672,3.367,4.117,6.333,5.127,10.011.06.213.106.428.156.642,6.24-4.59,12.488-5.6,20-6.612,5.687-.768,12.952-5.566,14.59-11.437,1.289-4.62-.691-11.854-6.366-7.4-4.047,3.181-7.192,6.876-12.544,7.492-5.069.583-9.335-2.868-13.792-5.348a21.126,21.126,0,0,0-4.3-1.883c0,.611,0,1.225-.018,1.838C307.456,358.985,306.778,363.422,304.707,367.25ZM399.14,295a41.333,41.333,0,0,1-11.524-1.958c-4.968,5.839-9.9,11.857-13.807,18.465-3.188,5.4-4.938,11.143-7.5,16.8-3.483,7.693-7.72,15.113-16.648,16.537-9.369,1.492-19.5.363-28.686-1.756-4.64-1.069-10.908-2.363-15.339-5.38a45.538,45.538,0,0,1,1.747,9.771c.075,1.231.142,2.495.177,3.771a1.666,1.666,0,0,1,.518-.059c3.965.5,7.285,2.88,10.723,4.735,2.407,1.3,6.186,3.657,9.137,2.671a4,4,0,0,0,.628-.266,11.44,11.44,0,0,0,1.754-1.2c.76-.609,1.482-1.276,2.2-1.9,2.569-2.218,8.344-7.675,12.355-5.532,7.719,4.122.418,14.694-4.106,17.9-8.732,6.185-19.672,3.79-28.225,10.113a5.491,5.491,0,0,1-2.492.445c.962,4.406.268,8.954,1.21,13.33a66.118,66.118,0,0,0,8.966,4.542c5.73,2.469,11.65,4.865,17.59,6.792,8.434,2.735,18.248,1.8,26.765,4.279,2.753-10.8,6.109-21.424,9.188-32.132a.676.676,0,0,1,.3-.341c-.3-.1-.592-.2-.885-.3-1.113.594-3.018-.175-1.634-1.357-.583.5.142-1.479.249-2.068.3-1.688.573-3.381.825-5.078.656-4.411,1.258-8.833,1.872-13.25,1.075-7.717,1.735-15.793,3.875-23.31a.965.965,0,0,1,.2-.36C382.154,316.844,388.5,301.964,399.14,295ZM292.278,258.214c3.366,5.418,7.294,10.207,13.3,12.825a44.715,44.715,0,0,0,10.215,2.942c6.778-.218,16.226-1.292,20.593-6.287.587-.67,3.491-.9,2.688.021-3.762,4.3-10.218,6.285-16.538,7.185.3.047.786.184.8.532.185,3.84,1.649,7.167,1.169,11.061-.061.492-.638.859-1.264,1.014a18.434,18.434,0,0,1-2.462,1.591c2.452-.057,4.46,1.3,5.351,5.315a15.319,15.319,0,0,1-1.848,11c8.565,8.52,20.874,5.846,30.581.608,7.525-4.062,16.174-9.836,20.428-17.538a1.074,1.074,0,0,1-.222.017c-11.786-.738-15.4-10.579-18.857-20.208-1.515-4.218-2.841-8.491-4.146-12.771-.495-.1-.778-.387-.439-.9.038-.057.077-.113.114-.171-1.247-4.1-2.488-8.191-3.868-12.248-.136-.4.494-.8,1.2-1.01l-.063-.206a13.871,13.871,0,0,1-7.518.4c-1.906-.454-.524-2.583.972-2.226,4.489,1.072,9.755-.344,11.932-4.81,1.577-3.235,1.968-7.3-.5-10.226a10.891,10.891,0,0,0-8.118-3.881,10.091,10.091,0,0,0-5.341,2.451,7.911,7.911,0,0,0-1.314,2.324,1.571,1.571,0,0,1-1.33.879,11.877,11.877,0,0,0-.866,1.735s-3.291-.688-8.387-6.432a48.472,48.472,0,0,1-12.133-19.87c-2.888,5.116-8.347,9.137-13.014,12.058a80.489,80.489,0,0,1-23.055,10.067C282.317,235.643,285.7,247.634,292.278,258.214Zm-.119,5.142a23.637,23.637,0,0,1,2.273,6.863c1.576,9.839-3.291,18.779-10.769,24.76,2.967-.021,4.883.068,7.258,2.226a11.111,11.111,0,0,0,2.532,1.752c-.071-.063-.063-.153.066-.276,7.763-7.452,20.2-4.814,28.069-11.86,0-.014,0-.024,0-.038.1-.834-.051-9.987-1.675-10.176-2.308-.27-4.638-.567-6.933-1.011l-.165,0c-.434.006-.66-.07-.753-.188-.724-.154-1.443-.317-2.155-.512-5.808-1.582-11.543-4.2-15.567-8.841C293.58,265.182,292.858,264.277,292.159,263.356Zm4.006,35.189a4.151,4.151,0,0,1-2.569.479c4.835,2.308,9.451-.783,14.248-3.686,1.605-.972,3.634-2.376,5.76-3.607C307.38,293.333,300.813,294.084,296.165,298.545ZM266.54,246.453a.972.972,0,0,1,0,.143c.439,0,.879,0,1.313.019a23.894,23.894,0,0,1,6.225,1.2,26.021,26.021,0,0,0-3.208-10.678C267.925,239.4,266.029,242.6,266.54,246.453Zm-6.7.8a36.135,36.135,0,0,1,3.753-.543c-.419-4.735,2.09-8.688,5.941-11.365a.875.875,0,0,1,.079-.044,8.289,8.289,0,0,0-1.5-1.463c-3.731-2.7-7.767,10.4-8.148,13.17A.516.516,0,0,1,259.841,247.257ZM221.754,285.61c1.542-2.017,3.005-4.153,4.746-6.011a.411.411,0,0,1-.329-.491c.435-2.174-1.551-.9-2.137.146a16.583,16.583,0,0,0-1.209,2.651C222.4,283.123,222.058,284.361,221.754,285.61Zm16.091,77.106c1.291-6.742,3.066-13.364,4.068-20.191.625-4.257.907-8.7-.285-12.895-1.375-4.839-4.341-8.541-6.522-12.978-4.277-8.7-2.169-15.828,1.929-24.138a22.842,22.842,0,0,0,2-4.794c.847-3.706-3.3-2.006-4.559-.038a27.551,27.551,0,0,0-3.867,11.519c-.119.969-3.036,1.511-2.9.369.518-4.207,2.286-10.969,6.137-14.253-.315-.085-.46-.276-.233-.609.068-.1,1.771-3.147,1.1-3.1-.977.063-2.167,1.625-2.669,2.324-2.236,3.113-3.4,6.754-4.919,10.235-.387.89-3.242,1.211-2.888.4,1.925-4.417,3.414-10.1,7.563-13.006-.739.13-1.456.014-1.381-.515a7.564,7.564,0,0,0,.117-2.464c-.015-.076-.03-.172-.05-.269a16.137,16.137,0,0,0-1.925,2c-1.642,1.9-3.077,3.958-4.633,5.929a3.3,3.3,0,0,1-2.461.576c-.029.14-.071.275-.1.417a85.139,85.139,0,0,0-1.463,11.529c-.725,12.479,6.647,22.39,14.544,31.276a.878.878,0,0,1,.709.146C244.091,340.125,236.673,351.475,237.845,362.716Zm77.391,61.367a289.838,289.838,0,0,1-22.73-18.292,1.03,1.03,0,0,1-.578-.059c-9.426-4.825-20.771-4.588-29.229-11.483-5.9-4.813-13.244-12.063-12.965-20.293a.383.383,0,0,1,.063-.182,18.141,18.141,0,0,1-2.773-11.25c.045-.395.467-.711.976-.9a4.362,4.362,0,0,1,1.652-3.307,1.25,1.25,0,0,1,.325-.178c-.44-1.56-.007-3.026,2.2-4.063,3.763-1.764,7.273,1.786,9.7,4.218,5.813,5.833,11.676,12.415,20.741,12.314a2.353,2.353,0,0,1,.275.016c-.917-6.192-8.7-12.217-6.452-18.663a4.194,4.194,0,0,1,6.093-2.143c5.445,3.083,9.572,9.665,12.891,14.776a51.563,51.563,0,0,1,7.651,19.284,23.062,23.062,0,0,0,4.93,5.311c-.253-4.228.278-8.588-1.567-12.449-2.08-4.351-5.148-8.009-6.091-12.834-.243-1.242,2.663-1.978,2.9-.775.055.284.124.561.2.835,1.956-6.041,1.523-13.337.691-19.271-1.146-8.177-4.733-15.573-8.036-23.054-.085-.192.037-.395.27-.577-4.661.046-9.241-.883-12.527-3.151-1.251-.864,1.384-2.133,2.275-1.517,7.129,4.923,19.2,2.927,26.042-1.771,4.01-2.755,8.186-6.306,10.17-10.877,1.128-2.6,2.356-15.013-3.223-12.631-7.156,3.053-13.519,9.6-21.383,10.851-3.333.529-6.229-1-8.846-3.022-.563-.436-1.132-1.585-1.764-1.85-1.628-.682-4.161-.326-5.962-.28-.487.323-.977.643-1.479.941-8.369,4.983-20.813,9.153-30.242,4.808-.219-.1,1.986-1.3,2.738-.956,8.733,4.024,19.589,1.077,27.758-5.259.036-.475.859-1.155,1.608-1.322,7.917-6.892,12.721-17.041,9.319-26.719-2.6-7.388-8.7-14.927-16.192-18.438a.76.76,0,0,1-.482-.215,21.615,21.615,0,0,0-4.379-1.434,23.759,23.759,0,0,0-4.24-.462,1.806,1.806,0,0,1-1.573.01c-8.887.325-18.06,5.02-24.248,10.905a2.281,2.281,0,0,1-.9.364,2.516,2.516,0,0,1-2.315.529,44.335,44.335,0,0,1-6.457-4.939c-.293-.244-.623-.531-.974-.829a.686.686,0,0,1-.017.238c-.852,3.568-1.721,8.46-.065,11.905.167.349,1.992,2.821,2.385,2.113a9.981,9.981,0,0,0,.927-2.58,30.692,30.692,0,0,1,1.263-4.458c.43-1.063,3.336-1.24,2.742.226-1.223,3.021-1.958,11.583-7.537,8.366-4.963-2.862-3.752-10.616-2.636-15.3.181-.757,1.493-1.188,2.3-1.043a8.2,8.2,0,0,0-3.156-1.782c-2.425-.493-3.314,3.881-3.443,5.446-.54,6.539,1.741,13.065,4.674,18.838a6.883,6.883,0,0,1,2.632.529.4.4,0,0,1,.283.471c-.023.115-.046.231-.07.349a3.627,3.627,0,0,1,3.162-.592c1.445.6.937,2.938.771,4.1a.33.33,0,0,1-.018.053c1.163-.53,3.02-1.081,4-.235.923.793.35,2.13-.292,3.183a7.713,7.713,0,0,1,3.07-.145c2.955.433,2.165,3.422,1.3,5.505-1.892,4.551-4.836,8.8-5.639,13.74-1.232,7.581,2.166,12.437,5.707,18.781a28.149,28.149,0,0,1,3.919,14.635c-.339,11.859-4.874,23.287-5.926,35.127,0,.033-.007.066-.01.1s-.005.046-.007.069a.782.782,0,0,1-.355.523c-2.536,3.561-9.33,1.669-12.563.473-9.352-3.463-13.84-9.047-13.758-19.358.04-4.994,1.331-10.174-.015-15.089a28.536,28.536,0,0,0-6.591-11.986c-7.439-7.939-18.132-11.712-26.044-2.786.083.2.018.455-.289.765-13.72,13.83-2.688,40.853,8.805,52.793A45.471,45.471,0,0,0,221.584,390.5a144.805,144.805,0,0,0,16.979-1.36c.227-.958,2.639-1.5,2.892-.479.006.023.013.045.02.068.063-.01.126-.017.189-.025,1.693-.266,1.413,1.244.318,1.831,5.828,18.535,24.924,16.632,41.186,15.331,6.587-.527,10.5,2.343,13.043,8.417,1.179,2.82,1.9,7.086,3.947,9.416C304.18,428.268,310.726,427.484,315.236,424.083Zm99.729-46.01c-11.75,4.223-27.059.987-38.591-2.688-3.038,10.507-6.316,20.944-9.01,31.55-.077.3-.582.548-1.146.693a22.707,22.707,0,0,1,8,4.724c1,.921-1.739,2.1-2.66,1.251-6.251-5.771-15.192-5.839-23.187-6.638a69.224,69.224,0,0,1-17.561-4.248c-6.182-2.271-13.6-4.643-19.92-8.274-.777.317-1.814.289-2.043-.4q-.176-.523-.309-1.054a28.442,28.442,0,0,1-7.564-7.057c-.336-.031-.588-.15-.627-.39s-.1-.486-.139-.731c-.041-.065-.09-.124-.13-.19a.772.772,0,0,1-.05-.764c-2.219-11.041-7.933-20.006-15.2-28.625-1.25-1.482-2.791-3.323-4.624-4.1-1.926-.816-.579,5.552-.239,6.283,2.075,4.476,5.532,7.929,5.894,13.054.047.66-1.165,1.133-2.036,1.161a1.485,1.485,0,0,1-1.483,1.023c-10.794.119-16.748-7.275-23.945-13.9a17.954,17.954,0,0,0-2.952-2.393c-1.623-.938-3.482.127-2.248,2a25.3,25.3,0,0,0,3.629,4.254c4.108,3.969,7.2,8.9,11.708,12.448,1.288,1.016-1.274,2.4-2.244,1.634-3.373-2.66-5.814-5.982-8.627-9.188-1.724-1.966-3.747-3.658-5.434-5.651a17.167,17.167,0,0,1-1.273-1.689c-1.454,4.906,8.873,14.388,10.853,17.486.581.909-2.24,1.814-2.7,1.089-1.423-2.229-5.774-6.4-8.592-10.6,2.194,7.351,9.362,13.736,14.375,18.74.852.851-1.9,1.958-2.68,1.177-2.608-2.6-5.717-5.54-8.449-8.775,2.457,6.348,8.486,12,13.607,15.432,7.456,5,16.631,5.534,24.77,8.895A2.042,2.042,0,0,1,294,403.6a292.211,292.211,0,0,0,24.119,19.5c.334.071.573.209.582.421a220.444,220.444,0,0,0,50.96,27.736c5.354,2.008,10.2,3.1,15.289-.482a26.019,26.019,0,0,0,7.441-8.091,123.345,123.345,0,0,0,10.619-22.664C407.826,406.281,410.938,392.046,414.965,378.073Zm-1.31-84.668a51.545,51.545,0,0,1-10.752,1.581c-.143.006-.287.01-.43.015-.4.227-.8.466-1.186.716-11,7.071-17.277,23.536-20.534,35.418-1.986,7.96-2.662,16.408-3.783,24.482-.64,4.6-1.229,9.216-2.022,13.794-.137.79-.215,1.812-.447,2.75,13.035,4.513,35.448,10.471,46.86-.5,2.548-13.791,5.424-27.506,6.423-41.53.679-9.529,2.933-37.024-12.944-35.979C413.926,294.209,413.6,293.835,413.655,293.4ZM273.516,262.2a3.233,3.233,0,0,1,1.283-2.48c.787-.444,1.731.26,2.317.729,1.037.835,3.547-.641,2.225-1.7-3.532-2.841-8.155-.681-8.765,3.659C270.364,263.909,273.327,263.541,273.516,262.2Zm-21.43,12.514a3.234,3.234,0,0,1,1.283-2.479c.787-.444,1.731.26,2.317.729,1.037.835,3.547-.641,2.225-1.7-3.531-2.842-8.155-.683-8.765,3.657C248.934,276.425,251.9,276.057,252.086,274.709Zm13.033,12.124a5.411,5.411,0,0,0,6.627-2.971,11.392,11.392,0,0,0,1.169-6.5.389.389,0,0,1,.081-.259.312.312,0,0,1-.08-.25c-2.17.527-4.147-.8-5.707-2.456a.216.216,0,0,1-.025-.044c-.106-.09-.122-.22.063-.4A18.084,18.084,0,0,1,273.071,270c.357-.147,1.754-.565,1.97.018.665,1.794,1.229,4.378-.234,5.84a1.12,1.12,0,0,1,.911.192c1.042,1.114,2.6,2.375,4.254,2.067a4.668,4.668,0,0,0,2.8-2.315c1.655-2.825.323-5.588-2.618-6.684-1.083-.4,1.559-1.581,2.336-1.291,1.9.708,3.842,2.136,3.93,4.358a6.579,6.579,0,0,1-1.991,4.842,7.985,7.985,0,0,1-8.621,2c-.638,6.352-6.377,10.6-13.059,8.957C261.874,287.771,264.426,286.663,265.119,286.833Zm7.435-11.347a5.736,5.736,0,0,0-.1-3.767,15.767,15.767,0,0,0-2.316,1.871A7.413,7.413,0,0,0,272.554,275.486ZM167.008,327.615c-2.106,7.465-5.573,15.42-2.522,23.1.457,1.15,3.326.3,2.9-.775-2.986-7.521.48-15.324,2.54-22.624C170.263,326.112,167.321,326.507,167.008,327.615Zm-4.637-4.214c-1.963,3.74-4.281,7.255-4.78,11.545-.18,1.549,2.784,1.191,2.944-.189.473-4.07,2.76-7.421,4.622-10.966C165.941,322.3,163,322.206,162.371,323.4Zm58.235,24.993a16.329,16.329,0,0,0,1.024,12.521c.622,1.28,3.486.436,2.9-.775a15,15,0,0,1-1.146-11.4C223.92,347.138,221.023,347.151,220.606,348.394Z" fill="#112743"/>
  </g>
</svg>
