<svg xmlns="http://www.w3.org/2000/svg" xmlns:xlink="http://www.w3.org/1999/xlink" width="623.331" height="472.151" viewBox="0 0 623.331 472.151">
  <defs>
    <linearGradient id="linear-gradient" x1="0.5" x2="0.5" y2="1" gradientUnits="objectBoundingBox">
      <stop offset="0" stop-color="#e89c7b"/>
      <stop offset="1" stop-color="#ac75a6"/>
    </linearGradient>
  </defs>
  <path id="blob" d="M587.3,388.606c-43.461,60.878,10.422-8.686-33.3,43.341-43.652,51.941-119.155,36.662-227.61,39.136C256.646,472.673,150,481.614,89.655,450.209S-1,367.83-1.278,297.289,15.165,149.327,82.486,136.4c73.9-14.2,115.22-73.441,177.292-110.161S382.386-6.62,441.385,37.831,547.024,137.855,591.187,200.9c43.832,62.57,39.574,126.829-3.887,187.708Z" transform="translate(1.281 -1.318)" fill="url(#linear-gradient)"/>
  <g id="_198-Enjoying-Life" data-name="198-Enjoying-Life" transform="translate(55.205 -16.024)">
    <path id="color_x5F_2" d="M378.9,252.6a1.929,1.929,0,0,0-.634.041c-10.812,2.4-21.829,4.9-32.882,5.788a1.593,1.593,0,0,0-1.482,1.215.5.5,0,0,0-.09.255c-.114,8.186-1.75,16.348-3.146,24.485-4.153-7.548-7.115-15.817-7.9-23.8-.084-.859-3-.246-2.9.775.906,9.233,4.646,19.035,10.03,27.725-1.311,8.6-1.969,17.17.1,25.7-4.427-.65-10.807.81-12.837,1.19-.121.022-.242.048-.363.071-.456-.41-2.12-.04-2.637.529-3.27.686-6.546,1.478-9.829,2.33l-3.023.625-6.074,1.836c-15.33,4.241-30.813,8.639-46.5,7.779-5.074-.278-11.438-1.471-15.1-5.4-1.034-1.109,2.367-11.168,2.9-13.334,1.915-7.861,3.64-16.131,6.914-23.564,5.057-11.482,9.833-23.086,15.015-34.515a128.153,128.153,0,0,1,6.94-13.806c.28-.46-2.41-.278-2.868.475-1.258,2.066-2.425,4.2-3.535,6.359a37.739,37.739,0,0,1-18.822-14.645,61.041,61.041,0,0,1,3.068-10.381.887.887,0,0,0,.361-.883c3-7.18,7.533-13.738,13.847-18.15a6.417,6.417,0,0,0,1.08-.473c8.568,7.969,21.217,8.175,31.289,13.411.723.46,1.468.889,2.24,1.28.406.256.809.519,1.2.8a1.321,1.321,0,0,0,.923.154c.28.112.559.228.845.33a.748.748,0,0,0,.054.1c5.812,8.252,15.866,6.023,24.256,3.754a1.564,1.564,0,0,0,.983-.651.681.681,0,0,0,.214-.319,14.487,14.487,0,0,1,3.793-2.629l5.893-1.973c6.013-1.307,12.87-1.206,17.8-1.367a172.724,172.724,0,0,1,25.947.992,2.864,2.864,0,0,1,1.174.563C377.224,225.427,378.75,240.364,378.9,252.6Zm-41.415,63.5a38.458,38.458,0,0,0-10.377,1.019c.824,3.6,1.589,7.211,2.322,10.83a2.111,2.111,0,0,1,.685-.125c4.134.355,11.96-2.418,11.469-7.891-.279-.732-.529-1.466-.763-2.2A4.35,4.35,0,0,0,337.484,316.1Z" transform="translate(-40.784 -21.823)" fill="#f7f5f5"/>
    <path id="color_x5F_1" d="M269.262,149.441c-.067.032.1,0,.122-.008.007.005.129.032.164.046l.011,0,.027.02a1.288,1.288,0,0,1,.13.109c.739.942,2.961-.1,2.171-1.194-1.161-1.608-3.3-.972-4.645-.059a.9.9,0,0,0-.108,1.42,1.454,1.454,0,0,0,1.731-.132A2.7,2.7,0,0,1,269.262,149.441Zm.12-.015a.807.807,0,0,0,.081.016.55.55,0,0,0-.076-.01c.006,0-.009,0-.068,0Zm22.6,2.384c.42.232-.615.755-.7.79a1.953,1.953,0,0,1-1.558.113c-.6-.33-1.091-.9-1.684-1.2-.421-.211-1.962.265-2.567.377-.148.026-1.165.152-.978-.308s.993-.662,1.4-.737c1.16-.213,2.939-.84,4.117-.369A19.863,19.863,0,0,1,291.987,151.81Zm-21.4-8.415c.363-.131.724-.268,1.091-.385.037-.012.064-.019.092-.026.409.183.645.774.855,1.15.338.608,2.576-.388,2.406-.692-.408-.732-.738-1.4-1.6-1.475a9.191,9.191,0,0,0-3.661.908c-.087.032-1.084.464-.728.69C269.448,143.822,270.2,143.536,270.589,143.395Zm1.2-.417c.223-.058.127.023,0,0Zm10.737,1.582c4.292-1.623,7.728-1.663,11.434,1.445.392.329-1.729,1.342-2.265.892-2.723-2.283-5.019-2.953-8.325-1.7C282.44,145.547,280.911,145.172,282.528,144.56Zm-5.147,4.467a40.574,40.574,0,0,1-6.464,9.534,16.065,16.065,0,0,1,1.6,1.673c.547.87-1.787,1.719-2.236,1.007-.517-.819-1.3-1.126-1.824-1.957-.178-.281-.047-.491.154-.71a39.289,39.289,0,0,0,6.533-9.6C275.5,148.237,277.908,147.932,277.382,149.027Zm4.45,20.165a1.952,1.952,0,0,1,1.59-.7,5.81,5.81,0,0,0,4.039-1.439,2.012,2.012,0,0,1,1.7-.489c.508.108.59.534.224.9a10.035,10.035,0,0,1-6.906,2.474C282.1,169.942,281.507,169.688,281.831,169.191ZM134.6,240.8c-.859,10.665,9.122,22.477,17.266,26.8.656.348,2.877-.691,1.929-1.2-6.814-3.619-12.1-10.523-15.128-17.888a20.169,20.169,0,0,1-1.546-6.711,7.3,7.3,0,0,0,6.125-1.136c2.236-1.76,4.041-4.748,2.166-7.511-1.238-1.827-3.872-1.763-5.646-1.181-2.869.944-4.235,3.724-4.848,6.641a20.921,20.921,0,0,1-4.386-4.853c-4.269-6.276-1.563-15.4-1.429-22.524.013-.711-2.389-.262-2.406.69-.121,6.438-1.847,13.253,0,19.558C127.869,235.516,131.235,238.817,134.6,240.8Zm2.864-3.372c.6-2.833,3.22-6.052,5.7-3.286a3.332,3.332,0,0,1,.6,2.546c-.311,3.251-3.621,4.371-6.182,3.446-.155-.056-.3-.134-.454-.2A16.953,16.953,0,0,1,137.459,237.431ZM163.447,264.5c-2.8,7.03-1.765,12.851,4.267,17.627,7.251,5.742,13.292,1.949,20.318-1.911.458-.251.91-.854.551-1.4-4.632-7.07-11.915-18.561-21.4-15.355a1.23,1.23,0,0,0-.875.9c-.071-.1-.144-.2-.214-.3.017-.041.032-.082.051-.123.325-.737-.227-1.1-.882-1.111a102.191,102.191,0,0,1-5.254-9.408c-.5-.991-2.8-.049-2.206,1.126A96.54,96.54,0,0,0,163.447,264.5Zm8.514,9.113c.866.619,2.989-.662,1.86-1.469a31.208,31.208,0,0,1-6.735-6.722,1.382,1.382,0,0,0,.568-.076c7.743-2.617,14.243,7.716,18.21,13.834-1.762.994-3.506,2.022-5.3,2.948-3.985,2.056-7.425.941-11.009-1.55-5.067-3.521-6.013-8.438-4.46-13.77A32.392,32.392,0,0,0,171.961,273.61ZM376.435,282.2c-1.376.944.686,1.48,1.528.9a50.311,50.311,0,0,0,9.671-8.653c-.011.337.267.6.978.537,6.087-.573,12.205-2.524,15.279-8.643,3.3-6.568,1.677-15.552.66-22.5-.156-1.068-2.02-.234-2.337.268-3.27,5.173-27.931,22.59-15.376,28.4A47.922,47.922,0,0,1,376.435,282.2Zm26.008-35.571c.738,5.274,1.281,10.662.33,15.928-1.358,7.523-7.363,10.194-13.881,10.809a1.558,1.558,0,0,0-.424.1c.152-.183.3-.372.447-.558.664-.248,1.275-.822.95-1.218a69.5,69.5,0,0,0,7.923-13.749c.536-1.2-1.885-.981-2.262-.134a69.2,69.2,0,0,1-7.412,13.037C379.989,266.3,396.175,253.035,402.444,246.631ZM386.061,110.694c8.351.4,16.739-5.1,17.51-14.6.853-10.511-6.51-17.367-15.986-16.652a1.043,1.043,0,0,0-.1.017C370.627,79.722,367.882,109.824,386.061,110.694Zm.185-30.13a1.972,1.972,0,0,0,.316,0c18.122-1.367,19.692,28.062,1.64,29.011-7.241.38-11.88-5.523-12.37-12.8C375.388,90.179,379.027,80.538,386.246,80.563Zm1.6-13.255V54.923c0-.9,2.406-1.347,2.406-.69V66.619C390.255,67.52,387.848,67.964,387.848,67.309Zm2.407,56.663v12.386c0,.9-2.406,1.347-2.406.69V124.662C387.848,123.761,390.255,123.317,390.255,123.972ZM351.226,94.928h11.552c1.626,0-.07,1.427-.946,1.427H350.28C348.654,96.353,350.35,94.928,351.226,94.928Zm64.686-.2h11.552c1.635,0,1.126,1.83-.228,1.83H415.684C414.047,96.556,414.557,94.725,415.912,94.725ZM360.86,67.141c-.745-.8,1.54-1.8,2.22-1.071q4.085,4.378,8.169,8.757c.745.8-1.54,1.8-2.22,1.071Q364.945,71.52,360.86,67.141Zm48.217,48.248q4.083,4.38,8.168,8.76c.714.766-1.57,1.755-2.225,1.053q-4.084-4.379-8.168-8.76C406.137,115.676,408.422,114.687,409.077,115.39Zm-37.976.725q-4.084,4.379-8.168,8.758c-.542.58-2.911.667-1.922-.393q4.085-4.376,8.168-8.758C369.72,115.141,372.089,115.054,371.1,116.115Zm35.861-41.108q4.084-4.38,8.168-8.76c.731-.784,3.065-.42,2,.719q-4.085,4.378-8.168,8.758C408.235,76.507,405.9,76.143,406.962,75.006ZM114.743,471.267c-7.7,1.491-14.976,3.663-21.491,7.8a68.392,68.392,0,0,1,2.66-12.232c6.305,4.413,15.2-1.344,18.422-7.639a.634.634,0,0,0-.429-.909c-5.141-1.761-11.062-.226-15.871,2.51.47-1.2.954-2.389,1.466-3.562.541-1.242,1.13-2.511,1.763-3.78a1.193,1.193,0,0,0,.544-.723c.042-.187.079-.38.119-.571a39.59,39.59,0,0,1,8.133-11.079,4.235,4.235,0,0,0,.345,3.042c1.137,2.164,3.7,3,5.856,3.241a8.279,8.279,0,0,0,6.911-2.185c2.186-2.329,1.016-5.71-.351-8.132,0,0,0-.005-.007-.009.125-.082.252-.163.372-.25,2.16,1.986,4.818,3.366,7.712,2.443a7.611,7.611,0,0,0,4.714-5.435,7.464,7.464,0,0,0-1.278-6.871,6.143,6.143,0,0,0-4.927-1.847,5.882,5.882,0,0,0,2.039-3.827,5.654,5.654,0,0,0-2.773-4.928,6.594,6.594,0,0,0-6.085-.739,4.668,4.668,0,0,0-1.551,1.018,5.09,5.09,0,0,0-1.382-1.949c-1.9-1.648-4.78-1.1-6.852-.2a9.25,9.25,0,0,0-5.044,4.978,4.5,4.5,0,0,0,.984,4.692,6.975,6.975,0,0,0-1.59.273,7.76,7.76,0,0,0-4.962,5.108,6.446,6.446,0,0,0,1.277,6.409c2.091,2.208,5.424,2.338,8.27,1.976a11.587,11.587,0,0,0-.8,1.152,31.138,31.138,0,0,0-8.383,8.761c.33-4.7-.61-9.431-4.92-11.78a1.467,1.467,0,0,0-1.7.489c-3.356,5.345-5.323,16.385,2.435,18.352.035.009.07.011.1.016a75.017,75.017,0,0,0-7.756,25.941,42.013,42.013,0,0,0-4.039,3.4c-.493.472,1.753.184,2.173-.217,7.328-7.022,15.93-9.982,25.438-11.823C115.224,471.993,116.437,470.939,114.743,471.267Zm5.853-33.159c.983,1.742,2.183,4.548.716,6.394-1.036,1.3-2.876,1.383-4.342,1.217A5.592,5.592,0,0,1,112.7,443.2c-.934-1.611-.025-3.428,1.05-4.814.411-.234.831-.45,1.26-.651a7.385,7.385,0,0,0,5.577.342C120.59,438.09,120.591,438.1,120.6,438.108Zm-1.829-13.6a1.051,1.051,0,0,0,.918.246c3.1,1.284,4.711,6.895,3.132,10.186-1.851,3.856-6.422,2.291-8.2-.7a6.577,6.577,0,0,1,.3-7.069.685.685,0,0,0,.189-.265,7.389,7.389,0,0,1,1.009-1.126c.351-.316-.367-.354-1.089-.24,0-.007,0-.013,0-.019a2.755,2.755,0,0,0,.922-.245A4.21,4.21,0,0,1,118.767,424.505Zm4.7-7.612a2.882,2.882,0,0,1,1.434-.028,5.653,5.653,0,0,1,2,.894,4.584,4.584,0,0,1,2.126,3.618c-.012,2.095-1.818,3.5-3.391,4.387a1.3,1.3,0,0,0-.653.476.542.542,0,0,0-.038.74c.173.3.588.492,1.214.3,2.045-.613,4.478-.915,6.092.881a6.238,6.238,0,0,1,1.081,5.23,5.859,5.859,0,0,1-2.593,4.142c-2.006,1.067-4.413-.9-5.794-2.269a.656.656,0,0,0-.139-.1c2.042-2.869,1.179-7.09-.847-9.665a5.425,5.425,0,0,0-2.821-1.928c.125-.613.239-1.261.321-1.925a.722.722,0,0,0,.241-.5C121.718,419.529,122.081,417.51,123.465,416.893Zm-10.494-.568c1.475-.865,3.17-1.393,4.625-.378,2.1,1.466,1.66,5.066,1.2,7.436a10.551,10.551,0,0,0-4.443,1.567c-1.882-.652-4.6-1.91-4.453-4.446C110.007,418.625,111.638,417.107,112.971,416.325Zm-7.107,18.712a5.328,5.328,0,0,1-1.48-4.959A5.868,5.868,0,0,1,107,426.006c1.9-1.054,4.083.162,5.616,1.439a7.274,7.274,0,0,0,.517,8.758C110.716,436.621,107.871,436.8,105.864,435.037Zm-8.56,3.512c3.888,3.163,3.072,9.784,2.057,14.352,0,.02,0,.037-.006.056a1.482,1.482,0,0,0-.182-.062C93.62,451.485,95.161,442.983,97.3,438.549Zm14.377,21.117c-2.925,4.985-9.66,9.408-14.573,5.249a.853.853,0,0,0-.516-.179q.218-.643.446-1.282C101.126,460.517,106.748,458.385,111.682,459.665Zm31.26,10.27a46.061,46.061,0,0,1-9.8,14.507c-.729.7-3.089.385-1.991-.67a43.843,43.843,0,0,0,9.05-13.1c-9.842,2.323-18.373,5.865-25.112,14.507a1.215,1.215,0,0,1-.578.338,1.62,1.62,0,0,1-.873.173c-.524.056-.969.029-.917-.036s.128-.151.191-.232c-.262-.228-.341-.588-.019-1.061,6.36-9.36,14.267-17.173,22.705-24.336.964-.818,2.892.143,1.61,1.232a134.205,134.205,0,0,0-17.441,17.417c6.1-4.649,13.149-7.077,20.849-8.873a86.988,86.988,0,0,0,6.125-21.431c.176-1.081,2.63-1.454,2.43-.232a90.015,90.015,0,0,1-5.936,21.115C143.844,469.228,143.488,469.636,142.942,469.936Zm25.275-.049c-9.883,2.359-17.7,7.617-25.352,14.525a2.2,2.2,0,0,1-1.654.312c-.884.387-2.234.185-1.7-.748a74.6,74.6,0,0,1,23.462-25.206c.963-.635,2.972.212,1.584,1.129a71.914,71.914,0,0,0-21.154,21.7c7.354-6.258,15.007-11.016,24.425-13.265C169.3,467.985,169.709,469.53,168.217,469.887Zm-59.2,11.4a19,19,0,0,1-4.518,5.5,2.721,2.721,0,0,1-1.7.49c-.473-.032-.532-.336-.154-.616a17.122,17.122,0,0,0,3.994-4.934,2.059,2.059,0,0,1,1.4-.729C108.125,480.972,109.274,480.866,109.014,481.283ZM89.581,468.99c-.766,6.445-3.664,12.127-5.472,18.256-.3,1.018-2.751,1.341-2.427.243,1.8-6.116,4.709-11.829,5.472-18.256C87.28,468.178,89.726,467.771,89.581,468.99Zm85.645,14.157c-1.625.273-1.161-1.764.189-1.99,12.164-2.037,22.134-9.132,28.685-20.285.625-1.065,2.859-.57,2.033.836A43.323,43.323,0,0,1,175.226,483.147Zm56.231-20.424C218.042,465.568,206.725,474,195.553,482c-.885.634-2.912-.026-1.552-1,11.517-8.245,23.238-16.9,37.065-19.839C232.538,460.849,232.962,462.4,231.457,462.723Zm-.594,12.069a27.381,27.381,0,0,1-11.569,7.481c-1.464.447-1.843-1.1-.387-1.546a21.848,21.848,0,0,0,7.586-4.258,45.169,45.169,0,0,1-15.762,2.513c-1.63-.059.007-1.52.93-1.485A42.435,42.435,0,0,0,229.1,474a46.963,46.963,0,0,0,6.493-8.892c.486-.843,2.931-.959,2.273.183A52.709,52.709,0,0,1,233.32,472a40.7,40.7,0,0,0,12.174-9.633c.541-.652,2.881-.7,1.935.443A44.985,44.985,0,0,1,230.863,474.792Zm37.592-13.749c-12.919,3.459-21.412,15.343-32.014,23.107-.43.315-2.847.647-1.846-.087,11.223-8.219,19.959-20.168,33.657-23.835C269.657,459.853,269.869,460.666,268.455,461.043Zm8.58,6.137c-8.518,2.127-16.131,6.768-22.913,12.6-.626.538-3.03.468-1.941-.468,7.255-6.237,15.4-11.208,24.516-13.482C278.15,465.465,278.506,466.814,277.035,467.18Zm6.448-2.508c-2.724,6.624-5.339,13.286-11.568,16.888-1.176.68-2.489-.588-1.042-1.425,5.6-3.243,7.892-9.8,10.321-15.709C281.6,463.439,284.025,463.353,283.483,464.672Zm39.94,2c1.038-.927-1.367-.812-1.906-.329-6.892,6.163-12.841,12.9-20.867,15.729a75.394,75.394,0,0,1-1.967-7.866c7.252,1.222,12.776-7.006,13.351-14.175a82.217,82.217,0,0,0,20.021-5.768c.311-.134.97-.513.661-.958q-.263-.415-.527-.832c-5.833-10.669-9.681-22.752-13.619-34.32-5.292-15.549-10.1-31.289-14.673-47.1-3.4-11.781-6.816-23.627-9.436-35.645s-4.529-24.242-6.8-36.37c5.09,0,11.634-2.807,12.261-8.681a.262.262,0,0,0,.035-.226,3.188,3.188,0,0,0-.813-2.6c-1.952-6.982-1.864-14-1.071-21.046a58.849,58.849,0,0,0,11.988,13.644c3.856,3.116,8.665,5.246,13.518,5.149a10.853,10.853,0,0,0,2.338,3.024c8.246,7.436,23.119,6.746,33.1,5.65,3.848-.423,8.207-1.032,11.615-3.152,1.4-.873-.745-1.106-1.467-.657-7.106,4.42-36.591,4.78-43.246-5.09.447-.078.892-.17,1.336-.291,4.379-1.188,10.337-4.883,6.37-10.261-2.812-3.813-8.1-2.353-10.1,1.427a9.839,9.839,0,0,0-.558,7.946c-6.436-.348-12.116-5.442-16.338-10.2a69.52,69.52,0,0,1-8.036-11.219c1.171-8.18,2.929-16.39,3.185-24.617,8.971-.9,17.919-3.054,26.694-5.14a1.53,1.53,0,0,0,.438-.175c.673.356,2.07-.105,2.067-.859-.005-1.423-.04-2.91-.081-4.435l.007,0c18.72-6.982,36.3-17.682,56.208-19.786a1.014,1.014,0,0,0,.564.107c6.36-.121,12.771-2.1,18.71-4.4,4.859-1.878,11.829-4.888,13.667-10.634a.421.421,0,0,0-.248-.471,2.985,2.985,0,0,0-1.425-.476,12.559,12.559,0,0,0,1.934-2.044c.284-.378,1.9-2.568,1.033-3.066a2.993,2.993,0,0,0-2.487.111c.078-.1.168-.192.243-.3.573-.826,1.3-2.18.714-3.183a2.466,2.466,0,0,0-2.465-.811,3.538,3.538,0,0,0,1.02-3.4c-1.206-3.382-8.491.537-12.317,2.648,2.185-3.691,3.472-7.147.823-7.647-4.274-.806-10.115,4-13.346,6.4-5.1,3.793-9.933,8.739-15.783,11.077a13.458,13.458,0,0,0,3.595-6.965c.458-2.556-1.492-6.4-4.172-6.3a5.847,5.847,0,0,0-2.361.791c-2.73,1.38-5.055,2.313-8.183,2.025-4.278-.394-6.1-3.505-8.087-7.112-2.15-3.9-4.627-7.122-8.366-9.373-3.914-2.356-8.634-2.955-12.837-4.521-3.229-1.2-7.775-2.872-8.708-6.855-.784-3.345-.222-6.974-.989-10.4-4.165-18.592-23.138-23.5-38.719-23.6a2.651,2.651,0,0,0-1.512.727c-.012,0-.02,0-.034,0-18.549-.317-34.837,13.005-38.277,32.812-2.155,12.41.429,29.965,9.166,39.987-7.03-2.395-14.535-3.8-19.809-9.557-.571-.622-2.27-.015-2.357.68-.047.029-.091.061-.138.091-4.681-2.489-8.333-6.767-12.056-10.618-4.143-4.286-8.438-6.752-13.654-9.241-5.183-2.472-10.087-5.3-13.05-10.708-1.955-3.571-1.5-9.088-1.834-13.068-.318-3.753-2.347-13.4-7.825-8.554a5.717,5.717,0,0,0-1.8,3.959,60.14,60.14,0,0,0-9.295-7.876c-.473-.34-2.169-.026-2.321.667a8.7,8.7,0,0,0-.174,2.675,3.454,3.454,0,0,0-2.213-1.1c-1.592.043-2.94.65-3.239,2.441a8.34,8.34,0,0,0,.13,3.325,3.48,3.48,0,0,0-1.8-.059,2.411,2.411,0,0,0-1.868,2.694,9.6,9.6,0,0,0,1.153,3.976c-8.635,7.626,9.242,16.56,13.615,20.5,14.281,12.868,27.193,27.458,42.245,39.353a55.722,55.722,0,0,0-2.614,9.1.664.664,0,0,0-.167.845c-.022.118-.049.237-.07.354-.04.227.188.331.516.347a33.121,33.121,0,0,0,16.8,13.408c-2.582,5.641-4.793,11.523-7.1,17.235-3.345,8.3-7.163,16.535-9.613,25.2-2,7.079-3.587,14.3-5.141,21.508-.562,2.6-1.688,4.2.329,5.946a13.486,13.486,0,0,0,2.964,1.925c-3.316,20.135-6.379,40.341-7.046,60.808a606.418,606.418,0,0,0,1.457,63.336,10.031,10.031,0,0,0-2.827.042,9.367,9.367,0,0,0-6.6,3.893,4.566,4.566,0,0,0-.538,3.664,6.129,6.129,0,0,0-1.486-.251,7.414,7.414,0,0,0-6.053,3.12,6.191,6.191,0,0,0-.64,6.35c1.4,2.833,4.557,4.048,7.38,4.663a11.01,11.01,0,0,0-.944.687,34.607,34.607,0,0,0-12.332,6.079c2.161-4.629,3.045-10.013-.65-14.14a1.366,1.366,0,0,0-1.908-.053c-4.827,3.922-8.2,13.107-1.961,17.364a1.027,1.027,0,0,0,.527.161,67.333,67.333,0,0,0-14.939,20.831c-3.643,2.287-7.852,3.554-11.2,6.443-1.273,1.1.716,1.665,1.54.953,4.529-3.914,10.5-4.981,14.808-9.316.954-.961-.858-1.2-1.717-.753a61.879,61.879,0,0,1,4.934-7.973c4.49,6.257,14.491,5.3,19.628.406a.652.652,0,0,0-.052-1.018c-4.621-3.732-11.351-4.05-16.953-2.79.915-1.119,1.852-2.218,2.821-3.284,4.422-4.87,10.058-9.875,16.347-11.83a4.771,4.771,0,0,0-1.183,3.65c.253,2.4,2.531,4.2,4.418,5.106a7.752,7.752,0,0,0,7.307.057c1.871-1.115,2.457-3.121,2.45-5.2a7.827,7.827,0,0,0,3.733,3.062.725.725,0,0,0,.017.118,25.617,25.617,0,0,0,1.047,2.863c-.022.123.04.233.213.319a1.047,1.047,0,0,0,.817.3c7.285,2.551,16.093,1.143,23.455.088,8.28-1.186,17.5-2.747,24.922-7.1.447-.263.547-.493.447-.671a.3.3,0,0,0,0-.105c-4.284-17.961-7.925-35.933-9.5-54.27q.644,3.027,1.326,6.044c2.89,12.709,6.471,25.228,10.585,37.54,1.036,3.1,2.129,6.177,3.241,9.247.866,2.392,1.576,5.832,2.992,7.9,2.138,3.119,7.378,4.495,10.87,5.175,1.764,2.982,4.479,4.884,8.148,3.821.117,2.283.331,4.575.648,6.858-5.782,3.248-11.936,5.853-16.5,11.049-.98,1.117,1.374,1.1,1.939.461,4.089-4.658,9.536-7.165,14.78-10a76.717,76.717,0,0,0,2.584,11.045,24.331,24.331,0,0,1-6.3.657c-.835-.02-2.589,1.31-.965,1.348a31.779,31.779,0,0,0,7.66-.729q.546,1.634,1.165,3.224c.217.556,2.558-.3,2.406-.69-.41-1.049-.786-2.112-1.141-3.183a29.616,29.616,0,0,0,6.863-3.17C313.677,476.637,318.348,471.208,323.424,466.669Zm2.724-191.484c2.1-3.961,5.856.378,6.364,2.812.836,4-3.911,5.473-7.28,5.821C324.191,281.468,324.333,278.614,326.148,275.185ZM194.726,464.229c-4.45,3.581-11.87,3.172-15.124-1.831C184.469,461.1,190.425,461.212,194.726,464.229Zm-8.5-25.71c2.678,4.053,1.223,9.094-1.106,13.185C180.98,448.365,182.943,442.039,186.229,438.519Zm111.553,30.11q-.374-2.916-.576-5.845c-.035-.506-.066-1.018-.091-1.533,2.228.087,4.457.2,6.686.2A26.983,26.983,0,0,0,297.783,468.628Zm1.533,3.815a1.354,1.354,0,0,0-.92.191c-.056-.327-.119-.653-.172-.981a1.184,1.184,0,0,0,.624-.53c.288-.61.608-1.225.954-1.837a.5.5,0,0,0,.171-.292,22.767,22.767,0,0,1,6.895-7.62,1.341,1.341,0,0,0,1.065-.63,12.21,12.21,0,0,1,1.69-.74C309.219,465.728,305.34,473.63,299.315,472.444Zm30.469-19.281c.12.223.223.4.334.579a77.374,77.374,0,0,1-18.034,5.032c0-.032,0-.064,0-.1-.007-.8-.87-.781-1.412-.673a14.094,14.094,0,0,0-3.848,1.419c-3.205.18-6.41-.029-9.615-.142-.017,0-.035,0-.052,0a.92.92,0,0,0-.027-.208c-.029-.113-.064-.224-.094-.337-.091-5.579.5-11.424,2.66-16.445-.06,1.7.382,3.336,1.977,4.17,2.214,1.157,5.083.283,7.152-.823a10.205,10.205,0,0,0,5.183-5.792,5.328,5.328,0,0,0-1.463-5.242,7.088,7.088,0,0,0,4.691-1.964,6.812,6.812,0,0,0,1.5-6.151C321.857,435.645,325.23,444.832,329.784,453.162ZM292.37,430.3a14.008,14.008,0,0,0,3.691-.373c-.781,3.487.826,7.108,3.961,8.34a.8.8,0,0,0-.285.224c-.381.529-.727,1.077-1.056,1.634-1.612,1.168-3.55,2.107-5.415,1.37a5.743,5.743,0,0,1-3.1-4.237,7.735,7.735,0,0,1,.691-5.362A4.07,4.07,0,0,1,292.37,430.3Zm-2.04-3.47c-.768-1.735-.135-3.848.671-5.455a9.53,9.53,0,0,1,1.779-2.458,4.323,4.323,0,0,1,1.878-1.137l.037-.011.042-.005c.1-.016.2-.021.306-.028a2.333,2.333,0,0,1,.4.04,3.023,3.023,0,0,1,1,.476,7.136,7.136,0,0,1,2.159,3.087,19.736,19.736,0,0,1,.875,2.648.732.732,0,0,0,.508.515,9.065,9.065,0,0,0-3.837,3.7c-.038,0-.076,0-.114,0a9.646,9.646,0,0,0-2.626.3A3.133,3.133,0,0,1,290.329,426.828Zm11.154-5.281c-.779-1.569-1.324-3.447-.307-5.035a3.493,3.493,0,0,1,3.234-1.273,3.808,3.808,0,0,1,3.294,2.16c.894,2.079-.351,4.469-1.419,6.161a.526.526,0,0,0-.1.428c-.145.141-.287.282-.426.427-.2-.093-.406-.179-.611-.253a6.323,6.323,0,0,0-3.367-.267.742.742,0,0,0,.1-.6c-.117-.44-.252-.89-.4-1.34A.457.457,0,0,0,301.484,421.547Zm-3.334,6.662a.791.791,0,0,0,.283-.272c.657-1.219,1.668-2.8,3.107-2.952a5.376,5.376,0,0,1,3.472,1.2,7.627,7.627,0,0,1,3.185,6.182,4.453,4.453,0,0,1-.1.9.489.489,0,0,0-.109.388c0,.014,0,.029,0,.043a6.85,6.85,0,0,1-1.17,2.2,4.006,4.006,0,0,1-5.458.974c-2.929-1.591-3.763-5.248-2.636-8.355C298.8,428.3,298.532,428.207,298.15,428.208Zm4.507,10.714a.507.507,0,0,0,.017-.216,8.382,8.382,0,0,0,6.915-3.764,5.017,5.017,0,0,1,2.12,4.645c-.314,2.082-2.024,3.655-3.625,4.664-1.281.808-3.209,1.553-4.649.8C301.382,443.98,302.141,440.7,302.657,438.922Zm4.681-13.562a1.071,1.071,0,0,0,.3-.209c1.444-1.518,3.367-3.13,5.5-2.407,1.551.526,2.578,2.209,3.053,3.783a6.133,6.133,0,0,1-.5,4.975c-1.1,1.774-3.448,1.562-5.208,1.156.03-.154.066-.3.086-.462A7.565,7.565,0,0,0,307.338,425.36ZM228.745,299.039c-4.215-.248-9.5-1.31-12.539-4.807-.859-.988,1.966-9.946,2.405-11.875,1.591-7,3.023-14.366,5.743-20.986,4.2-10.226,8.168-20.56,12.472-30.738a117.576,117.576,0,0,1,5.765-12.3c.233-.41-2-.248-2.382.423-1.045,1.84-2.014,3.736-2.936,5.663a31.765,31.765,0,0,1-15.634-13.043,57.365,57.365,0,0,1,2.548-9.245.818.818,0,0,0,.3-.786c2.492-6.394,6.257-12.235,11.5-16.164a5.154,5.154,0,0,0,.9-.421c7.117,7.1,17.623,7.281,25.989,11.944a21.547,21.547,0,0,0,1.861,1.14c.337.228.672.462,1,.71a1.035,1.035,0,0,0,.767.137c.233.1.464.2.7.294a.682.682,0,0,0,.045.094c4.828,7.349,13.179,5.364,20.148,3.343a1.3,1.3,0,0,0,.816-.58.611.611,0,0,0,.178-.284,12.055,12.055,0,0,1,3.151-2.341l4.895-1.757c4.995-1.164,10.69-1.074,14.788-1.217a133.882,133.882,0,0,1,21.552.883,2.312,2.312,0,0,1,.975.5c-6.589,9.03-5.321,22.332-5.2,33.23a1.5,1.5,0,0,0-.527.037c-8.981,2.136-18.132,4.362-27.312,5.155a1.354,1.354,0,0,0-1.231,1.082.462.462,0,0,0-.075.227c-.095,7.29-1.454,14.559-2.613,21.806a59.36,59.36,0,0,1-6.56-21.192c-.07-.765-2.49-.219-2.406.69.753,8.223,3.859,16.952,8.331,24.691-1.089,7.659-1.635,15.291.083,22.892-3.677-.579-8.977.721-10.663,1.06-.1.02-.2.043-.3.063-.379-.365-1.761-.036-2.19.471-2.716.611-5.437,1.316-8.164,2.075-2.513.7-5.033,1.444-7.556,2.192C254.633,295.888,241.772,299.805,228.745,299.039Zm41.41-100.705c1.923-5.1,5.145-9.88,5.274-15.55.125-5.457-5.416-7.23-9.09-9.093-12.844-6.513-2.688-24.648,3.284-32.663a1.177,1.177,0,0,0,.483-.389c4.154-6.336,9.663-6.425,16.205-6.406,2.106,3.292,4.185,6.9,7.477,8.947,2.447,1.518,5.446,1.548,8.272,1.208-2.027,5.881-5.967,15.211,1.207,18.255a2.045,2.045,0,0,0,1.353-.227,1.572,1.572,0,0,0,.561-.217c5-3.821,5.939,3.772,5.6,6.432-.407,3.223-3.664,2.813-5.8,2.935-3.042.174-5.19,2.051-7.327,4.228-6.245,6.359-10.649,16.221-11.584,25.408-5.769,1.639-12.057,2.936-16.171-2.588A.645.645,0,0,0,270.155,198.334Zm17.876,99.515a1.649,1.649,0,0,0-.569.111c-.609-3.223-1.244-6.44-1.929-9.645a29.909,29.909,0,0,1,8.619-.908,3.537,3.537,0,0,1,2.771,1.455c.194.653.4,1.306.634,1.958C297.965,295.7,291.465,298.166,288.031,297.849ZM400.844,177.812c.774-.41,5.865-3.241,5.172-1.014a18.814,18.814,0,0,1-2.464,4.445c-2.043,3.135-4.34,6.076-6.221,9.329-.712,1.232,1.743,1.283,2.3.312.493-.852,2.764-3.732,4.865-6.889a1.555,1.555,0,0,0,.564-.132c1.858-.844,3.64-1.884,5.487-2.757.824-.389,5.9-3.023,5.479-.671-.393,2.161-3.744,4.036-5.286,5.115-1.568,1.1-3.21,2.056-4.822,3.075-1.4.888.664,1.5,1.539.948,2.357-1.491,4.733-2.916,6.952-4.643.423-.329,1-.766,1.577-1.276,2.7-.282,1.263,2.39.067,3.731-2.249,2.52-5.768,3.7-8.57,5.331-1.42.828.761.988,1.449.588,2.917-1.7,6.367-3.024,8.851-5.491a2.944,2.944,0,0,0,.841-.2c.964-.489.467.427.148,1.083a11.271,11.271,0,0,1-2.051,2.747c-2.484,2.6-6.391,3.266-9.531,4.562-1.6.663-.075.9.818.531,2.839-1.172,5.8-2.016,8.388-3.556a1.207,1.207,0,0,0,.77.1c.881-.093-1.476,2.954-1.346,2.808a16.058,16.058,0,0,1-2.93,2.418,39.48,39.48,0,0,1-8.412,4.137,53.538,53.538,0,0,1-12.762,3.394c-1.04.053-2.072.134-3.1.232H388.6c-20.511,1.949-38.516,12.632-57.737,19.92-.254-9.2-.487-19.659,4.352-27.041a9.142,9.142,0,0,0,1.129.987,2.943,2.943,0,0,0,2.6.362,57.583,57.583,0,0,1,8.116-1.17,38.062,38.062,0,0,0,7.553-.81c5.892-1.306,13.343-1.02,19.027-3.916C384.386,192.74,391.458,182.776,400.844,177.812ZM187.279,166.76a117.319,117.319,0,0,0-13.018-10.824c-3.159-2.3-10.49-7.557-7.051-11.844a15.155,15.155,0,0,0,3.519,3.626c.745.521,2.938-.611,1.892-1.341a14.3,14.3,0,0,1-4.739-6.6,5.526,5.526,0,0,1-.478-2.505c.121.047.239.1.346.15a11.786,11.786,0,0,1,2.123,1.348c1.391,2.478,3.473,4.7,4.946,6.847.54.786,2.86-.127,2.224-1.053-1.77-2.579-3.987-4.858-5.367-7.723a9.063,9.063,0,0,1-.755-4.761c.076-.891,1.376.623,1.572.8a6.656,6.656,0,0,0,1.607,1.123,1.175,1.175,0,0,0,.7.042,23.306,23.306,0,0,0,4.257,5.636c.487.523,2.722-.421,2.258-.92-2.316-2.487-4.774-5.139-4.979-8.586a47.468,47.468,0,0,1,8.8,8.2.78.78,0,0,0,.68.156c.44,3.959,1.9,8.4,1.087,11.354-.13.468,2.2.157,2.371-.471,1.454-5.255-1.851-11.145-.475-16.58,1.046-4.134,3.669,4.081,3.832,5.114.656,4.163.6,8.422,1.205,12.6,1.289,8.842,10.649,12.563,17.282,15.745,9.075,4.354,14.255,14.342,23.174,18.655a37.258,37.258,0,0,0-11.383,14.939C210.329,189.816,198.911,178.03,187.279,166.76Zm28.79,264.014c.444-1.3,1.28-2.983,2.674-2.893a4.926,4.926,0,0,1,3.25,2.214,4.977,4.977,0,0,1,.97,4.031c-.468,2.009-2.778,2.588-4.4,2.83a1.718,1.718,0,0,0-1.276.725,9.7,9.7,0,0,0-.2-1.11,5.871,5.871,0,0,0-2.319-3.529c.318-.556.645-1.166.944-1.812A.988.988,0,0,0,216.069,430.774Zm-10.261,11.51a6.67,6.67,0,0,1,.872-7.166,1.258,1.258,0,0,0,.612-.576,1.644,1.644,0,0,0,.6-.475,5.107,5.107,0,0,1,.821-.435c.556-.226.731-.427.689-.576,5.033-.167,7.118,6.7,4.3,10.973C211.5,447.359,207.282,445.241,205.809,442.284Zm-1.005-15.25c.731-1.835,2.661-2.634,4.329-3,1.439-.318,3.538-.232,4.639,1.254,1.433,1.934.167,4.856-.936,6.871a8.685,8.685,0,0,0-4.138-.025,2.222,2.222,0,0,0-1.209.764C205.878,431.549,203.874,429.367,204.8,427.034Zm-8.289,6.583a4.149,4.149,0,0,1,3.417-2.552c2.206-.02,3.885,1.99,4.987,3.831a7.139,7.139,0,0,0-1.778,7.31C199.37,441.308,194.146,438.539,196.515,433.617Zm12.11,19.611c-1.139.745-3.262.014-4.494-.64a6.283,6.283,0,0,1-3.371-3.908c-.4-1.78.8-3.095,2.14-3.989.223-.026.444-.064.669-.082a2.708,2.708,0,0,0,.679-.2,6.58,6.58,0,0,0,5.538,2.442.647.647,0,0,0,0,.223C210.174,449.026,210.51,452,208.625,453.228Zm4.946-7.189a.557.557,0,0,0-.072-.1c.108-.053.22-.1.325-.161a7.373,7.373,0,0,0,3.51-6.072c2.094.167,4.566.766,5.574,2.973a5.963,5.963,0,0,1-.537,5.286c-.749,1.348-2.157,2.729-3.71,2.719C216.235,450.666,214.582,448.08,213.571,446.04Zm67.314,9.205c-3.065-1.759-3.919-4.661-5.135-7.932-2.083-5.6-4-11.272-5.832-16.976-3.629-11.331-6.673-22.872-9.273-34.521q-2.184-9.792-3.843-19.707c0-.218-.009-.435-.01-.653a.2.2,0,0,0-.13-.17q-1.245-7.431-2.25-14.907c-.812-6.032-1.335-12.1-2.084-18.139-.88-7.093-2.263-14.028-1.356-21.209.17-1.346-2.291-1.013-2.441.183-.782,6.193.042,12.239.924,18.369.949,6.59,1.5,13.243,2.337,19.852q1.108,8.721,2.6,17.377c.164,24.324,4.631,47.832,10.217,71.318-6.447,3.59-14.438,4.825-21.495,5.958-7.235,1.161-16.41,2.819-23.518.087-.249-.612-.481-1.222-.693-1.842a7.985,7.985,0,0,0,5.317-3.5,7.516,7.516,0,0,0,1.165-6.674c-.87-2.382-3.12-3.462-5.374-3.92,2.094-.525,4.222-1.543,5.137-3.679a5.841,5.841,0,0,0-1.041-5.672,6.329,6.329,0,0,0-5.25-2.649,4.4,4.4,0,0,0-2.057.568,4.8,4.8,0,0,0-.818-2.633,4.178,4.178,0,0,0-1.24-1.17.368.368,0,0,0,.054-.2c-1.549-20.943-2.029-41.943-1.591-62.945.429-20.5,3.538-40.8,6.849-60.963a32.433,32.433,0,0,0,8.133,1.349c9.638.566,19.444-2.145,28.774-4.4,8.632-2.088,17.135-5.458,25.862-6.992l.26-.049c3.33,15.534,5.611,31.3,8.874,46.837,2.49,11.854,5.92,23.523,9.252,35.126,4.541,15.817,9.378,31.543,14.625,47.106q1.081,3.207,2.17,6.459a6.413,6.413,0,0,0-3.8-3.3,6.332,6.332,0,0,0-4.457.442,6.107,6.107,0,0,0,.227-5.066,5.545,5.545,0,0,0-4.839-2.816,7.25,7.25,0,0,0-5.779,2.177,4.311,4.311,0,0,0-.8,1.279,5.352,5.352,0,0,0-1.267-.8c-2.014-.863-4.343.056-5.939,1.444-2.567,2.231-5.662,8.018-2.585,11.137a4.675,4.675,0,0,0,1.7,1.092,7.687,7.687,0,0,0-2.707,8.03,6.549,6.549,0,0,0,4.523,5.163,7.616,7.616,0,0,0,5.166-.577,34.2,34.2,0,0,0-2.552,10.841c-1.99-3.525-5-6.091-9.339-5.888a1.366,1.366,0,0,0-1.316,1.08,20.413,20.413,0,0,0,1.263,8.587A20.028,20.028,0,0,1,280.884,455.245Zm13.555,6.211c-2.56.783-4.421-.7-5.684-2.989a.617.617,0,0,0-.3-.572,20.988,20.988,0,0,1-1.817-8.349c4.483.623,6.865,5.655,8.025,10.024q0,.752.022,1.494c0,.11.012.223.014.332A1.857,1.857,0,0,0,294.439,461.455Zm42.933,20.059c-.408.279-2.822.647-1.832-.029,9.2-6.288,17.255-14.745,20.179-26.266-12.513,3.8-22.531,16.017-31.064,25.854a2.109,2.109,0,0,1-1.719.407c-.046.044-.087.09-.133.132-.474.441-2.868.695-1.881-.224,6.385-5.941,8.781-14.5,10.083-23.16.109-.724,2.508-1.2,2.388-.4a50.714,50.714,0,0,1-4.729,16.006c8-8.9,17.2-17.691,28.3-20.382a1.091,1.091,0,0,1,1.163.228c.135.036.211.1.189.2C355.523,466.119,346.989,474.943,337.373,481.515Zm36.7-24.064c-10.007,5.9-17.369,15.361-25.881,23.3-.882.822-2.813.033-1.581-1.117,8.7-8.119,16.177-17.608,26.412-23.638C374.2,455.3,375.511,456.6,374.072,457.451Zm-3.121,14.022c-5.091,1.824-10.2,3.686-13.326,8.683-.366.587-2.745.936-2.208.077,3.391-5.425,9.109-7.588,14.646-9.57C371.059,470.307,372.568,470.9,370.951,471.474Zm10.626-2.272a32.705,32.705,0,0,1-3.642,3.206,48.122,48.122,0,0,1,4.4-10.247c5.156,5.6,14.862,4.449,19.275-1.741.216-.3.378-.8-.052-1.018-5.588-2.89-12.7-1.67-18.21,1.044,1.022-1.689,2.106-3.336,3.234-4.935,3.472-4.924,8.1-10.567,13.442-13.936a4.471,4.471,0,0,0-.272,3.2c.7,2.352,3.2,3.65,5.261,4.2,2.339.628,5.225.478,7.192-1.168a5.312,5.312,0,0,0,1.682-5.01,6.4,6.4,0,0,0,5.4,1.486,7.957,7.957,0,0,0,5.436-5.023,8.337,8.337,0,0,0-.2-7.193,5.757,5.757,0,0,0-4.308-2.728,6.489,6.489,0,0,0,3.4-4.111,5.668,5.668,0,0,0-2.062-5.213,6.537,6.537,0,0,0-5.761-1.63,4.434,4.434,0,0,0-1.817.845,4.957,4.957,0,0,0-1.054-2.126c-1.642-1.915-4.406-1.9-6.588-1.336A9.465,9.465,0,0,0,400.486,420a4.463,4.463,0,0,0,.3,4.872,6.522,6.522,0,0,0-1.526.082,7.85,7.85,0,0,0-5.538,4.256,6.516,6.516,0,0,0,.229,6.487c1.7,2.624,5.183,3.2,8.055,3.238a11.324,11.324,0,0,0-1.121,1.235,40.328,40.328,0,0,0-11.291,9.169c1.407-5.179,1.795-11.25-2.621-14.6a1.463,1.463,0,0,0-1.938.353c-3.881,4.633-7.324,15.33-.076,18.384a1.433,1.433,0,0,0,1.332-.248.085.085,0,0,0,.012.013c-4.928,6.18-9.207,13.279-11.152,21.127-2.719,1.782-5.578,3.341-8.386,5-1.4.826.821.7,1.394.365,2.923-1.724,5.9-3.351,8.74-5.2a1.086,1.086,0,0,0,.52-.346,38.411,38.411,0,0,0,6.336-5.154C384.287,468.479,382,468.766,381.578,469.2Zm29.11-22.348c-1.08,1.164-3.061.907-4.41.544a5.864,5.864,0,0,1-4.068-3.165c-.684-1.762.353-3.372,1.575-4.57.31-.119.62-.241.933-.343.108-.035.19-.072.279-.11a7.16,7.16,0,0,0,5.665,1.231C411.419,442.344,412.27,445.149,410.688,446.854Zm.241-19.875c.064.028.126.059.189.09,3.02,1.473,4.269,6.689,2.613,10.072-1.884,3.847-6.487,2.11-8.184-.932a6.544,6.544,0,0,1,.46-7.027c.5-.209.88-.559.775-.9a6.58,6.58,0,0,1,.919-.747c.468-.314.238-.443-.2-.461A4.324,4.324,0,0,1,410.928,426.978Zm11.264,5.992c1.1,1.6.946,3.841.419,5.635-.461,1.567-1.59,3.391-3.107,3.944-2.225.811-4.357-1.486-5.614-3.134a.717.717,0,0,0-.145-.139,6.63,6.63,0,0,0,1.083-.858,7.9,7.9,0,0,0,1.884-7.429C418.761,430.788,420.884,431.064,422.193,432.97Zm-6.023-13.083c.92-.228,2.518.591,3.395,1.406a4.807,4.807,0,0,1,1.683,3.911c-.223,2.072-2.284,3.186-3.913,3.789a2.791,2.791,0,0,0-.624.315c-.117.014-.235.028-.35.044a1.578,1.578,0,0,0-.173.038,8.886,8.886,0,0,0-.5-.995,5.618,5.618,0,0,0-2.586-2.37c.2-.593.407-1.232.58-1.9a.848.848,0,0,0,.306-.506C414.217,422.058,414.855,420.213,416.17,419.888Zm-13.807,1.475c.29-1.9,2.139-3.06,3.656-3.685a4.386,4.386,0,0,1,4.614.451c1.865,1.657,1.01,5.169.275,7.382a9.776,9.776,0,0,0-4.484.947c-.02.009-.034.018-.052.026C404.539,425.533,401.974,423.91,402.362,421.362Zm-6.709,8.787a5.375,5.375,0,0,1,3.2-3.638c1.993-.638,3.982.874,5.338,2.335a7.285,7.285,0,0,0-.738,8.535C399.419,437.347,394.112,435.6,395.653,430.15Zm-9.524,7.066c3.3,3.694,1.868,10.021.3,14.494-.034-.018-.061-.036-.1-.052C380.913,449.375,383.371,441.441,386.129,437.216Zm12.919,23.294a9.81,9.81,0,0,1-14.067,1C389.288,459.548,394.686,458.594,399.049,460.51ZM379.2,478.317c-1.462.346-1.85-1.107-.364-1.458,10.855-2.561,20.063-7.866,27.173-17.145.573-.748,2.891-.675,1.959.541C400.5,470.009,390.6,475.626,379.2,478.317Zm40.112-15.249c-6.679,5.354-12.331,12.64-20.334,15.8-1.158.459-2.57-.647-1-1.266,7.775-3.075,13.293-10.275,19.8-15.49C418.615,461.444,420.625,462.017,419.314,463.068Zm10.845,5.552a25.775,25.775,0,0,1-7.617,10.455c-.581.448-3.006.471-1.917-.369a23.811,23.811,0,0,0,6.9-9.221c-5.206,1.812-10.107,4.265-13.967,8.672-.408.466-2.72.772-2.187.164,4.518-5.161,10.463-7.906,16.635-9.942a47.916,47.916,0,0,0,2.716-9.526c.154-.837,2.573-1.278,2.4-.345a49.1,49.1,0,0,1-2.534,9.056l.618-.187c1.406-.417,1.617.445.215.861Q430.788,468.426,430.16,468.62Zm10.2-1.343c-2.487,5.136-6.369,8.822-10.694,12.155-.915.706-2.9-.059-1.573-1.084,4.046-3.119,7.652-6.506,9.98-11.313C438.534,466.087,440.973,466.016,440.362,467.277Z" transform="translate(0)" fill="#112743"/>
  </g>
</svg>
