<svg xmlns="http://www.w3.org/2000/svg" xmlns:xlink="http://www.w3.org/1999/xlink" width="565.232" height="394.931" viewBox="0 0 565.232 394.931">
  <defs>
    <linearGradient id="linear-gradient" x1="0.5" x2="0.5" y2="1" gradientUnits="objectBoundingBox">
      <stop offset="0" stop-color="#e89c7b"/>
      <stop offset="1" stop-color="#ac75a6"/>
    </linearGradient>
  </defs>
  <path id="blob" d="M634.242,422c-1.983,2.32-14.379,33.561-57.411,74.09-30.712,31.5-96.325,10.643-222.34,13.7C273.459,511.754,42.91,496.156,87.124,346.322S195.74,201.953,267.862,156.548s165.86-54.964,234.41,0S684.74,346.72,634.243,422Z" transform="translate(-81.543 -118.825)" fill="url(#linear-gradient)"/>
  <path id="color_x5F_2" d="M369.015,159.286a4.038,4.038,0,0,1,.1-2.534c9.909,1.038,11.143,11.889,10.906,21.009-.779-1.074-1.579-2.071-2.17-2.916C374.468,170.022,370.352,165.03,369.015,159.286Zm10.547-6.919a16.607,16.607,0,0,1,4.941,2.025A7.519,7.519,0,0,0,379.562,152.367Zm-1.727,40.193a63.247,63.247,0,0,1,20.985,3.8c8.616,3.291,16.793,8.843,21.622,16.388,3.929,6.138,4.394,13.978,4.385,21.381a29.857,29.857,0,0,0,1.939-4.357,25.984,25.984,0,0,0-1.552-21.057c-4.564-8.328-16.6-19.623-27.541-20.64l-1.552.407c-1.359.358-2.022-.046-1.817-.542-.668-.343,1.425-1.553,2.382-1.611a18.935,18.935,0,0,1,1.957-.011c4.617-1.184,9.239-2.34,13.754-3.844,5.931-1.976,14.527-4.448,18.012-9.82,5.687-8.757-9.011-13.894-15.931-12.741-12.871,2.141-17.836,15.528-24.558,24.507-.591.789-4.272,1.239-3.417.1.211-.281.414-.573.622-.859a.614.614,0,0,1-.469-.83c2.113-6.56,2.808-14.768-.453-21.121-1.984-3.865-5.459-7.13-10.326-7.32a11.557,11.557,0,0,0-5,.69c14.32,1.173,13.155,18.514,12.45,29.226-.035.536-.809.928-1.642,1.13a3.173,3.173,0,0,1-1.863.778c-9.066-.013-22.734,4.369-28.673,11.974a48.476,48.476,0,0,1,15.3-4.871A31.854,31.854,0,0,1,377.835,192.56Zm54.522,171.422a48.289,48.289,0,0,0,8.271,6.06l.578-.418Zm-16.978-15.8c-2.256-3.965-3.881-8.14-6.082-12.044l-4.279-6.028c-4.224-4.584-9.057-8.708-14.913-11.3-.177-.025-.353-.049-.528-.076-5.775-.945-12.159-2.222-16.98-5.556-4.859-3.362-8.281-9.042-13.677-11.565l-.206.084a35.161,35.161,0,0,0-4.309,5.386c8.417,8.739,3.871,17.793-7.708,19.879-13.47,2.426-26.733-8.655-32.608-18.906-.1-.17.161-.4.577-.623a71.382,71.382,0,0,1,.238-18.136,17.628,17.628,0,0,1-1.569,1.286,14.63,14.63,0,0,1-4.531,1.6c-6.417,2.22-13.26,2.484-20.108,4.644-10.906,3.444-19.964,10.145-29.129,16.457-5.619,3.871-10.942,8.056-16.118,12.4.4.034.8.059,1.218.069,1.822.04-1.661,1.409-2.424,1.392-.163,0-.328-.014-.492-.02-10.713,9.107-20.867,18.815-31.815,27.693a.985.985,0,0,1-.087.058c1.562.967,3.126,1.931,4.679,2.907a39.561,39.561,0,0,1,7.266,4.852,55.284,55.284,0,0,1,10.379,9.439c7.817,9.462,13.4,21.362,19.138,32.006,10.265,19.044,26.237,32.956,43.238,46.7,1.1.887-2.391,2.257-3.447,1.4-10.338-8.356-20.611-16.862-29.273-26.638,2.228,24.893-18.621,45.213-18.53,70.023,0,.637-.875,1.116-1.778,1.325l-.1,1.579h143.7c-3.068-11.1-7.813-21.783-10.25-33.019a56.942,56.942,0,0,1,.191-26.01l.036-1.605c-5.708,6.393-9.95,13.825-15.662,20.31-.773.875-4.527,1.119-3.47-.082,7.619-8.649,12.745-18.78,21.824-26.293a126.8,126.8,0,0,0,24.181-26.212q1.021-1.49,2.059-2.932c-.114-.486.3-.94.9-1.237,8.4-11.486,17.632-20.772,30.591-27.664.894-.647,1.736-1.254,2.481-1.791C428.371,366.534,420.557,357.285,415.379,348.181Zm-70.3-22.7a11.428,11.428,0,0,0,6.945-2.238A47.267,47.267,0,0,1,345.076,325.485ZM329.84,320.3a30.437,30.437,0,0,0,8.1,4.088Zm48.011-145.451c.592.845,1.391,1.842,2.17,2.916.238-9.119-1-19.971-10.906-21.008a4.014,4.014,0,0,0-.1,2.532C370.352,165.03,374.468,170.022,377.851,174.847Zm1.711-22.48a16.607,16.607,0,0,1,4.941,2.025A7.519,7.519,0,0,0,379.562,152.367Zm-1.727,40.193a63.247,63.247,0,0,1,20.985,3.8c8.616,3.291,16.793,8.843,21.622,16.388,3.929,6.138,4.394,13.978,4.385,21.381a29.857,29.857,0,0,0,1.939-4.357,25.984,25.984,0,0,0-1.552-21.057c-4.564-8.328-16.6-19.623-27.541-20.64l-1.552.407c-1.359.358-2.022-.046-1.817-.542-.668-.343,1.425-1.553,2.382-1.611a18.935,18.935,0,0,1,1.957-.011c4.617-1.184,9.239-2.34,13.754-3.844,5.931-1.976,14.527-4.448,18.012-9.82,5.687-8.757-9.011-13.894-15.931-12.741-12.871,2.141-17.836,15.528-24.558,24.507-.591.789-4.272,1.239-3.417.1.211-.281.414-.573.622-.859a.614.614,0,0,1-.469-.83c2.113-6.56,2.808-14.768-.453-21.121-1.984-3.865-5.459-7.13-10.326-7.32a11.557,11.557,0,0,0-5,.69c14.32,1.173,13.155,18.514,12.45,29.226-.035.536-.809.928-1.642,1.13a3.173,3.173,0,0,1-1.863.778c-9.066-.013-22.734,4.369-28.673,11.974a48.476,48.476,0,0,1,15.3-4.871A31.854,31.854,0,0,1,377.835,192.56Zm54.522,171.422a48.289,48.289,0,0,0,8.271,6.06l.578-.418Zm-16.978-15.8c-2.256-3.965-3.881-8.14-6.082-12.044l-4.279-6.028c-4.224-4.584-9.057-8.708-14.913-11.3-.177-.025-.353-.049-.528-.076-5.775-.945-12.159-2.222-16.98-5.556-4.859-3.362-8.281-9.042-13.677-11.565l-.206.084a35.161,35.161,0,0,0-4.309,5.386c8.417,8.739,3.871,17.793-7.708,19.879-13.47,2.426-26.733-8.655-32.608-18.906-.1-.17.161-.4.577-.623a71.382,71.382,0,0,1,.238-18.136,17.628,17.628,0,0,1-1.569,1.286,14.63,14.63,0,0,1-4.531,1.6c-6.417,2.22-13.26,2.484-20.108,4.644-10.906,3.444-19.964,10.145-29.129,16.457-5.619,3.871-10.942,8.056-16.118,12.4.4.034.8.059,1.218.069,1.822.04-1.661,1.409-2.424,1.392-.163,0-.328-.014-.492-.02-10.713,9.107-20.867,18.815-31.815,27.693a.985.985,0,0,1-.087.058c1.562.967,3.126,1.931,4.679,2.907a39.561,39.561,0,0,1,7.266,4.852,55.284,55.284,0,0,1,10.379,9.439c7.817,9.462,13.4,21.362,19.138,32.006,10.265,19.044,26.237,32.956,43.238,46.7,1.1.887-2.391,2.257-3.447,1.4-10.338-8.356-20.611-16.862-29.273-26.638,2.228,24.893-18.621,45.213-18.53,70.023,0,.637-.875,1.116-1.778,1.325l-.1,1.579h143.7c-3.068-11.1-7.813-21.783-10.25-33.019a56.942,56.942,0,0,1,.191-26.01l.036-1.605c-5.708,6.393-9.95,13.825-15.662,20.31-.773.875-4.527,1.119-3.47-.082,7.619-8.649,12.745-18.78,21.824-26.293a126.8,126.8,0,0,0,24.181-26.212q1.021-1.49,2.059-2.932c-.114-.486.3-.94.9-1.237,8.4-11.486,17.632-20.772,30.591-27.664.894-.647,1.736-1.254,2.481-1.791C428.371,366.534,420.557,357.285,415.379,348.181Zm-70.3-22.7a11.428,11.428,0,0,0,6.945-2.238A47.267,47.267,0,0,1,345.076,325.485ZM329.84,320.3a30.437,30.437,0,0,0,8.1,4.088Z" transform="translate(-48.089 -107.362)" fill="#fff"/>
  <path id="color_x5F_1" d="M173.614,234.989c.02.007.036.018.057.024l.021.007a2.051,2.051,0,0,0,.214.044,1.59,1.59,0,0,0,.168.034c.347.046.691.078,1.033.1,7.515,1.243,11.7,10.931,12.1,18.3q-.023.809-.026,1.608a.14.14,0,0,0,.049.1c-.009.311-.024.617-.049.911-.034.406,3.359.067,3.441-.922a20.311,20.311,0,0,0,.02-2.926c.114-6.012.955-16.714,8.042-16.651a4.448,4.448,0,0,0,1.27-.359c.375-.018.75-.039,1.12-.076,1.942-.192,2.635-2.806.291-2.573-10.745,1.066-11.629-9.937-11.667-18.067a1.143,1.143,0,0,0-.071-.39c.331-1.658-2.875-1.486-3.312-.159-2.162,6.574-1.049,20.026-11.019,18.7C173.794,232.5,172.058,234.443,173.614,234.989Zm11.879-4.663a16.653,16.653,0,0,0,1.8-4.508,20.133,20.133,0,0,0,1.635,4.28,9.654,9.654,0,0,0,7.019,4.893c-3.947,1.452-6.167,4.774-7.384,8.78-1.762-4.021-4.591-7.511-8.355-9.115A9.654,9.654,0,0,0,185.494,230.326ZM467.379,293.78c.017.006.027.013.046.019l.036.013c.059.019.133.027.2.042s.109.027.173.036c.349.046.694.078,1.037.106,7.511,1.246,11.7,10.931,12.092,18.294-.015.54-.025,1.076-.025,1.608a.142.142,0,0,0,.049.1c-.009.309-.025.615-.049.911-.033.406,3.359.067,3.441-.922a20.482,20.482,0,0,0,.021-2.926c.115-6.013.955-16.715,8.042-16.651a4.418,4.418,0,0,0,1.27-.36c.373-.017.75-.038,1.119-.075,1.943-.192,2.636-2.806.29-2.573-10.745,1.064-11.627-9.937-11.664-18.067a1.13,1.13,0,0,0-.072-.388c.331-1.658-2.876-1.487-3.313-.16-2.16,6.574-1.049,20.025-11.018,18.7C467.558,291.291,465.821,293.234,467.379,293.78Zm11.879-4.664a16.613,16.613,0,0,0,1.8-4.507,20.247,20.247,0,0,0,1.635,4.281,9.659,9.659,0,0,0,7.019,4.893c-3.947,1.452-6.167,4.773-7.385,8.778-1.76-4.02-4.589-7.511-8.352-9.115A9.652,9.652,0,0,0,479.258,289.116ZM374.122,271.66c.485-.752.243-1.291-.271-1.583-.025-.305-.257-.577-.791-.751a18.873,18.873,0,0,1-11.739-10.265c.011-.178.025-.356.03-.533a1.038,1.038,0,0,0-.669-1.038c-.652-1.491-3.912-.561-3.393,1.025.146.453.316.893.494,1.329-.588,5.814-4.184,14.208.46,18.721C363.947,284.106,371.1,276.327,374.122,271.66Zm-3.564-.122c-2.866,3.881-9.521,10.319-10.9,2.112-.5-3,.176-6.113.821-9.2A21.946,21.946,0,0,0,370.558,271.537Zm9.569-10.854c1.213-2.288,2.117-4.729,3.371-6.992.742-1.34,4.241-1.3,3.294.409-1.873,3.383-2.9,7.7-5.735,10.464-2.992,2.918-6.391,2.271-8.772-1-1.061-1.454,2.214-2.8,3.147-1.524.545.748,1.624,2.451,2.507,1.69A10.326,10.326,0,0,0,380.127,260.683Zm-19.215-25.121c2.578-1.354,6.284-2.518,9.033-.875,2.59,1.545,3.156,4.293,2.667,7.114-.2,1.177-3.677,1.772-3.441.429.32-1.841.248-4.1-1.313-5.412a4.111,4.111,0,0,0-4.806-.228,2.864,2.864,0,0,1-2.438.322C359.893,236.567,360.418,235.822,360.912,235.562Zm29.552,19.589c2.578-1.354,6.284-2.518,9.033-.877,2.59,1.547,3.156,4.294,2.667,7.116-.2,1.177-3.677,1.772-3.441.429.32-1.841.248-4.1-1.313-5.412a4.111,4.111,0,0,0-4.806-.228,2.864,2.864,0,0,1-2.438.322C389.445,256.155,389.97,255.41,390.464,255.151Zm-21.5-31.937a15.138,15.138,0,0,1,11.564,4.259c.524.552-2.642,1.8-3.242,1.168a13.349,13.349,0,0,0-9.818-4.057C365.2,224.721,368.068,223.266,368.965,223.214Zm30.556,19.47a3.188,3.188,0,0,1,2.434-.652c3.217.742,4.974,3.258,5.7,6.353.265,1.123-3.187,2.009-3.441.922-.56-2.372-1.807-4.927-4.4-5.526C399.149,243.627,398.945,243.157,399.521,242.684Zm161.821,112.6c-5.1-1.8-10.716.693-15.54,2.856,3.286-2.872,16.606-11.559,12.9-16.241-3.457-4.372-9.552.163-14.689,4.183,4.126-4.867,8.507-11.269,3.266-13.786-3.363-1.617-7.67,2.655-9.823,4.621-2.054,1.876-3.936,3.913-5.8,5.961.308-4.53-.9-9.291-6.366-5.85-8.924,5.618-4.31,19.952-12.411,26.6-.558.457-.4.7.048.8a1.715,1.715,0,0,0-.3.132c-16.793,10.049-41.849,7.185-58.394,17.787-5.135-3.449-10.85-5.96-15.965-9.44,1.88-1.087,3.8-2.113,5.771-3.064.518-.248,1.633-1.047.687-1.554-.645-.345-1.277-.718-1.905-1.1a44.925,44.925,0,0,1-7.648-5.979c-6.815-6.561-12.1-15.2-15.555-23.437-3.424-8.156-9.039-15.676-16.539-20.494a41.2,41.2,0,0,0,14.072-2.061,30.135,30.135,0,0,0,9.278-4.471c9.993-7.128,14.148-17.474,13.457-24.773a91.5,91.5,0,0,0-1.9-10.766,33.211,33.211,0,0,0-2.6-11.077,41.611,41.611,0,0,1-3.277-15.45c1.026-9.345,7.125-17.042,9.054-26.117,1.426-6.707-.518-13.5-3.8-19.337-4.107-7.3-12.729-16.582-21.319-19.357,2.844-.935,5.657-1.964,8.42-3.16,5.252-2.274,13.429-6.128,13.439-12.859.014-9.5-14.185-10.763-20.679-9.181-9.747,2.373-14.733,10.03-19.608,17.932.891-6.2.22-12.726-2.882-18.169a11.816,11.816,0,0,0-3.812-3.984,14.863,14.863,0,0,0-4.569-2,14.521,14.521,0,0,0-10.419,1.127c-7.15,3.959-1.488,11.934,3.753,19.16a58.873,58.873,0,0,0-10.8,2.086,38.388,38.388,0,0,0-11.447,4.541c-1.769.908-3.473,1.886-5.089,2.931-11.15,7.2-15.7,20.922-24.613,30.37-6.011,2.837-15.562,4.233-21.593,8.989-7.529,5.94-6.737,14.2-9.113,18.586s-40.628,9.185-52.983,32.72-.731,43.153,4.278,47.935a11,11,0,0,0,6.525,3.294c.093.03.179.068.273.1-9.4,8.637-18.331,17.84-27.952,26.162a1.207,1.207,0,0,0-.536,1.257c-.959.372-1.7,1.1-.851,1.661.751.5,1.491.992,2.231,1.487-4.433,3.2-8.73,6.578-13.129,9.821-16.33-11.889-42.585-8.46-59.787-18.756a2.356,2.356,0,0,0-1.694.048c-3.3-3.492-4.19-7.881-5.045-12.686-.78-4.386-2.144-10.2-6.206-12.751a4.676,4.676,0,0,0-5.466.986,7.249,7.249,0,0,0-1.349,4.678c-1.517-1.648-3.047-3.283-4.669-4.838-2.37-2.272-6.619-6.614-10.333-4.83-4.521,2.173-2.389,6.877.81,11.188-4.05-2.944-8.231-4.967-11.851-1.619-4.091,3.785,4.111,10.4,9.275,14.426-3.819-1.461-7.806-2.376-11.775-.973-.291.1-1.294.622-1.058,1.1,2.025,4.117,6.493,6.692,10.709,8.806-4.4.115-8.822,1.121-4.587,5.012,3.756,3.451,9.2,5.908,13.611,8.439,4.527,2.6,9.338,5.078,14.481,6.17.017.017.026.031.044.048,17.307,14.968,39.893,24.634,61.215,32.323,21.026,7.581,40.854,2.644,55.893-13.951a1.777,1.777,0,0,0,.17-.224c3.045,6,5.814,12.185,8.836,17.91a93.372,93.372,0,0,0,8.14,12.7c-.467.26-.786.613-.716,1.007,4.68,26.3-16.72,47.285-16.631,73.057,0,.52.914.6,1.8.384.835-.206,1.646-.677,1.644-1.308-.084-24.475,19.194-44.521,17.135-69.078,8.008,9.645,17.509,18.035,27.068,26.279.975.841,4.2-.511,3.187-1.385-15.721-13.558-30.49-27.283-39.982-46.07-5.3-10.5-10.469-22.239-17.7-31.575a52.484,52.484,0,0,0-9.6-9.312c-2.172-1.676-4.427-3.251-6.719-4.786-1.436-.965-2.882-1.914-4.326-2.868.026-.021.055-.036.081-.057,10.123-8.76,19.513-18.337,29.419-27.32.152.006.3.015.455.019.7.017,3.926-1.335,2.242-1.373-.384-.008-.758-.031-1.126-.068,4.786-4.282,9.708-8.414,14.9-12.232,8.476-6.227,16.852-12.838,26.935-16.235,6.332-2.134,12.66-2.392,18.593-4.583a12.916,12.916,0,0,0,4.19-1.579,16.615,16.615,0,0,0,1.45-1.268,75.076,75.076,0,0,0-.22,17.89c-.385.216-.624.447-.533.615,5.434,10.112,17.7,21.044,30.151,18.65,10.707-2.056,14.911-10.991,7.128-19.611a34.354,34.354,0,0,1,3.984-5.312c.037-.042.071-.086.108-.126.026.015.056.027.082.042,4.988,2.49,8.153,8.093,12.647,11.41,4.457,3.291,10.361,4.55,15.7,5.48.162.027.325.05.488.076,5.417,2.553,9.885,6.624,13.791,11.145.015.018.03.036.048.053a31.316,31.316,0,0,1,3.908,5.893c2.037,3.851,3.539,7.97,5.624,11.882,4.787,8.982,12.012,18.1,20.922,23.437.157.094.317.178.473.272q-1.413.727-2.767,1.5c-11.983,6.8-20.517,15.961-28.287,27.293-.56.292-.941.74-.835,1.22-.638.949-1.272,1.91-1.9,2.891a122.61,122.61,0,0,1-22.36,25.86c-8.4,7.41-13.137,17.4-20.18,25.938-.978,1.183,2.5.944,3.209.08,5.282-6.4,9.2-13.73,14.483-20.037.165-.2.33-.393.5-.588q-.289,1.087-.535,2.173a59.839,59.839,0,0,0-.177,25.66c2.252,11.085,6.642,21.621,9.478,32.573.292,1.132.587,2.263.842,3.406.341,1.519,3.787.621,3.441-.922-2.347-10.489-6.162-20.517-9.06-30.848-3.421-12.2-3.482-24.215.662-36.238a1.191,1.191,0,0,0,.062-.582c.014-.012.025-.025.04-.037a115.563,115.563,0,0,0,20.06-22.076c1.136-1.661,2.239-3.342,3.335-5.023,7.473,7.859,16.224,14.223,26.6,17.745,10.424,3.541,20.59,2.024,30.662-1.737,20.477-7.648,41.4-18.275,58.154-32.537.036-.006.064,0,.1-.007,9.812-1.955,19.7-8.441,27.834-14.053,1.14-.786,4.555-3.523,2.415-5.044-1.513-1.077-3.678-1.206-5.816-1.019,4.294-2.179,8.784-4.832,10.864-9.063C561.8,355.612,561.537,355.353,561.342,355.284ZM376.693,156.771c9.162,1.024,10.3,11.728,10.084,20.726-.72-1.06-1.46-2.043-2.006-2.877-3.129-4.76-6.934-9.685-8.171-15.352A4.217,4.217,0,0,1,376.693,156.771ZM335.94,243.218a33.376,33.376,0,0,0-1.257,4.195c-.173.636-.349,1.266-.511,1.91-3.11-1.025-6.3-2.651-7.183-6.051-.7-2.706.826-5.518,2.426-7.579a16.24,16.24,0,0,1,4.55-3.852,9.549,9.549,0,0,1,5.278,1.148,7.156,7.156,0,0,1,.213,1.5A75.127,75.127,0,0,0,335.94,243.218Zm68,27.333a2.564,2.564,0,0,0,.5-.118c2.014-.7,4.143-1.13,4.566,1.461.4,2.441-.992,5.21-2.2,7.229-1.19,2-3.134,4.4-5.327,5-2.425.669-4.322-3.043-5.1-5.1A94.4,94.4,0,0,0,403.942,270.551Zm-11.448-108.9c3.014,6.269,2.371,14.364.419,20.836a.612.612,0,0,0,.434.82c-.192.28-.38.569-.574.847-.791,1.126,2.612.682,3.159-.1,6.215-8.858,10.809-22.062,22.708-24.178,6.4-1.137,19.99,3.932,14.731,12.569-3.225,5.3-11.171,7.742-16.656,9.689-4.174,1.484-8.449,2.624-12.718,3.791a16.7,16.7,0,0,0-1.809.012c-.884.057-2.819,1.251-2.2,1.589-.19.489.423.887,1.68.533l1.435-.4c10.119,1,21.246,12.148,25.467,20.363A27.174,27.174,0,0,1,430,228.8a30.6,30.6,0,0,1-1.791,4.3c.007-7.3-.423-15.037-4.056-21.093-4.465-7.445-12.027-12.92-19.994-16.168a55.23,55.23,0,0,0-19.4-3.743,27.8,27.8,0,0,0-10.53.734,42.858,42.858,0,0,0-14.143,4.805c5.492-7.5,18.132-11.826,26.513-11.812a2.824,2.824,0,0,0,1.724-.767c.769-.2,1.486-.587,1.517-1.114.652-10.568,1.73-27.676-11.512-28.832a10.052,10.052,0,0,1,4.623-.682C387.447,154.615,390.66,157.835,392.494,161.648Zm-11.1,13.444-1.239-1.163c.125-.006.259-.024.384-.026Q380.969,174.5,381.39,175.092Zm-133.261,197.1a89.413,89.413,0,0,1,8.434,13.679,2.526,2.526,0,0,0-2.351.526c-7.562,8.343-16.816,14.419-28.118,16.017-10.741,1.519-20.928-2.49-30.732-6.309-18.331-7.139-37.334-15.849-52.385-28.755-.057-.05-.118-.1-.173-.146s-.107-.087-.158-.132a1.58,1.58,0,0,0-1.314-.283c-6.4-1.518-12.233-5.116-17.818-8.471-2.627-1.579-5.322-3.084-7.845-4.824-4.868-3.356,3.64-1.8,5.425-1.508,1.395.227,3.219-1.524,1.74-2.11,0-.146-.09-.285-.325-.4-4.353-2.179-10.2-4.577-12.871-8.956,3.846-.276,8.75,2.655,11.9,4.02.947.412,4.019-.963,2.806-1.568.66-.314,1.1-.734.777-1.045-4.2-4.023-11.984-7.874-13.377-13.959-.415-1.81.681-1.848,1.9-1.306a37.3,37.3,0,0,1,5.88,3.678c2.761,1.921,5.81,4.925,9.127,5.836.91.249,4-1.163,2.786-1.5-.061-.017-.122-.04-.183-.059a1.048,1.048,0,0,0-.234-.567c-1.775-2.277-3.793-4.357-5.582-6.629-.44-.56-5.846-8.327-3.83-8.637,1.125-.173,2.94,1.6,3.731,2.229a51.078,51.078,0,0,1,4.641,4.3c2.248,2.28,4.309,4.73,6.53,7.033-.279.16-.466.352-.467.569-.033,6.346-.344,12.512,2.376,18.413.369.8,3.69-.384,3.441-.921-2.623-5.691-2.427-11.63-2.381-17.737.622-.368.962-.93.53-1.481-.976-2.9-1.694-6.056-.624-9.023.166-.46,2.43,2.814,2.491,2.868a21.243,21.243,0,0,1,2.354,5.811c1.793,6.6,1.656,13,7.366,17.688.445.367,1.534.163,2.349-.2,20.959,10.842,54.037,4.455,66.736,27.786.577,1.062,3.879-.12,3.441-.921a31.326,31.326,0,0,0-7.723-9.38c4.454-3.235,8.781-6.639,13.224-9.887C236.508,360.6,242.889,365.427,248.128,372.193Zm106.335-48.965a18.166,18.166,0,0,1-4.944-.594c-.555-.139-1.106-.305-1.652-.492a27.506,27.506,0,0,1-7.493-4.032,40.418,40.418,0,0,1-10.7-12.249,1.176,1.176,0,0,0,.167-.754c-1.738-13.933,1.467-26.348,4.412-39.446,2.038,12.68,8.835,24.551,20.677,26.4.8.124,3.986-1.212,2.211-1.488C341.3,288.1,335.312,265.873,337.607,249.8c.682-2.977,1.454-5.915,2.422-8.819.158-.354.316-.708.486-1.041a.138.138,0,0,0-.052-.191c.561-1.583,1.169-3.16,1.875-4.727.094-.207.2-.4.3-.609a.831.831,0,0,0,.268-.544,53.469,53.469,0,0,1,3.6-6.31c7.61-2.019,17.322-6.523,22.246-13.34.807-.507,1.243-.754,1.243-.754s.5,3.822,8.909,6.594a41.378,41.378,0,0,0,6.517,1.492c4.146.8,8.463,1.263,11.89,2.245a8.279,8.279,0,0,1,.856.3,8.8,8.8,0,0,1,2.713,1.857c3.068,3.191,3.216,10.461,5.725,15.708,1.421,4.868,3.647,8.835,9.373,8.984-11.673,13.994-20.85,29.3-37.133,38.5-.238.134-.462.272-.7.406a33.486,33.486,0,0,1-13.116,3.193c-1.232-.008-3.687,1.85-1.361,1.865a33.553,33.553,0,0,0,8.242-1.1,45.094,45.094,0,0,0-11.972,12.1.565.565,0,0,0-.233.352,48.382,48.382,0,0,0-5.382,11.717c-.322,1.023,3.093.546,3.425-.5a60.853,60.853,0,0,1,3.6-9.022c3.291,4.876,2.859,10-.468,12.839A10.088,10.088,0,0,1,354.463,323.228Zm202.838,34.6c-2.754,3.75-8.01,5.881-12.053,7.9-.516.258-.708.476-.691.651-.707.757-.663,1.776.959,1.51.839-.138,9.55-1.379,7.717.739-1.983,2.29-5.435,3.649-8,5.207-5.548,3.372-11.361,7.054-17.716,8.718a2.049,2.049,0,0,0-2.567,0c-15.042,13.061-33.44,22.521-51.695,30.236-10.594,4.48-20.544,7.554-32.074,4.647-11.161-2.814-20.792-10.406-28.423-18.764a130.584,130.584,0,0,1,8.029-11.278,60.948,60.948,0,0,1,14.816-12.87c5.179,3.426,10.922,5.937,16.029,9.481a.823.823,0,0,0,.148.072,32.1,32.1,0,0,0-8.732,10.246c-.432.8,2.888.5,3.426-.494,12.859-23.627,47.726-16.18,68.228-28.447.979-.586.728-.936.107-1.07a2.14,2.14,0,0,0,.769-.322c5.387-4.421,6.031-10.384,7.351-16.838.342-1.67,3.711-11,5.1-8.356,1.285,2.44.459,5.792-.386,8.384a.212.212,0,0,0-.029.03c-.727.742-.36,1.295.344,1.548a.365.365,0,0,0-.017.071c.031,6.284.348,12.413-2.351,18.264-.221.479,2.995.228,3.39-.625,2.742-5.949,2.435-12.158,2.4-18.561,0-.09-.114-.147-.293-.177,1.934-2.025,3.769-4.146,5.709-6.167,1.113-1.162,6.556-7.553,8.517-6.827,4.031,1.492-7.414,13.674-8.793,15.444a1.178,1.178,0,0,0-.31.928c-.779.615-.225,1.355,1.358.921.039-.011.076-.027.115-.039a2.124,2.124,0,0,0,1.73-.663,46.466,46.466,0,0,0,6.921-4.623c2.154-1.53,7.931-7.08,9.326-3.041,1.037,3-4.408,7.251-6.218,8.868-2.306,2.059-4.872,3.843-7.1,5.981-.558.533.561.617,1.638.442-.042.018-.084.036-.125.055-2.212.959-.17,1.932,1.325,1.284,2-.868,3.991-1.759,6.035-2.539C552.259,357.353,559.145,355.315,557.3,357.823Z" transform="translate(-51.092 -106.963)" fill="#112743"/>
</svg>
