<svg xmlns="http://www.w3.org/2000/svg" xmlns:xlink="http://www.w3.org/1999/xlink" width="410.062" height="362.171" viewBox="0 0 410.062 362.171">
  <defs>
    <linearGradient id="linear-gradient" x1="0.5" x2="0.5" y2="1" gradientUnits="objectBoundingBox">
      <stop offset="0" stop-color="#e89c7b"/>
      <stop offset="1" stop-color="#ac75a6"/>
    </linearGradient>
  </defs>
  <path id="blob" d="M582.494,473.6c-18.5,17.134-88.573-.267-184.544-4.88C347.991,466.323,295.094,455.257,252,456.3c-81.032,1.967-56.257-254.35,15.865-299.755s165.86-54.964,234.41,0c47.848,38.365,103.566,141.977,109.056,226.116,2.369,36.31-13.584,68.208-28.834,90.941Z" transform="translate(-201.502 -118.825)" fill="url(#linear-gradient)"/>
  <g id="_276-Mindfulness" data-name="276-Mindfulness" transform="translate(-84.844 -88.128)">
    <path id="color_x5F_2" d="M235.9,364.56h3.828q-2.01.127-4.027.412C235.764,364.834,235.831,364.7,235.9,364.56Zm130.827,40.666a1.732,1.732,0,0,1-.407.178,31.55,31.55,0,0,1-9.887,4.619l-2.074,1.131s-.746-.245-1.815-.507a18.76,18.76,0,0,1-4.527-.226c-7.937-1.4-14.068-6.142-19.117-12.149q-1.775-1.563-3.568-3.1c-.39-.266-.745-.5-1.049-.707-13.034-4.225-23.982-12.8-38.156-13.064-2.006-.04-.252-2.02,1.068-1.994a37.474,37.474,0,0,1,4.04.316c-.6-5.858-4.507-10.2-6.158-15.732-.037,0-.072.012-.109.016-8.891.6-17.643,2.417-26.57,2.555-7.962.12-15.793-.781-23.712.471-8.435,16.662-22.533,36.307-12.1,54.944,10.491,18.738,37.023,23,56.438,24.532,3.708.293,7.422.475,11.137.578h14.79q5.166-.138,10.326-.431c11.276-.643,22.849-.964,34.014-2.708,1.32-.207,2.668-.448,4.023-.725.165-.034.336-.069.5-.106.1-.02.193-.044.29-.064q1.128-.254,2.2-.519c8.954-2.27,17.6-6.661,20.3-16.273C379.23,416.842,374.275,410.015,366.724,405.226ZM252.952,364.593l-.53-.033H251.7Q252.325,364.578,252.952,364.593Zm41.9,15.732-.591-.47c0,.051.009.1.01.149a.536.536,0,0,1-.038.2C294.433,380.248,294.644,380.28,294.847,380.325Zm-52.2-58.128,5.174,2,4.255.8c2.875.345,5.767.533,8.686.608l-1.593-3.5c-2.789-3.9-5.616-7.782-8.286-11.768-8.37-12.5-14.247-25.654-14.453-40.933-.007-.558.8-.97,1.574-1.121.338-2.2,1.846-8.9,7.9-11.028a15.634,15.634,0,0,1,8.976-.207,2.347,2.347,0,0,1,1.659-.769c13.447.656,19.906,14.806,23.626,25.912,2.173,6.487,3.839,13.115,5.409,19.769,3.347-5.927,6.227-12.442,6.783-19.151.712-8.6-2.255-14.837-8.9-20.279a106.555,106.555,0,0,1-9.793-8.957c-.017.005-.028.015-.046.021-6.112,1.879-13.045.471-19.235-.237-4.294-.492-10.656-1.7-15.933-.832a39,39,0,0,0-5.845,2.421,8.6,8.6,0,0,0-1.774,1.929,1.861,1.861,0,0,1-1.123.645,32.278,32.278,0,0,0-.8,3.7c-1.995,13.208,3.433,26.444,7.393,38.788A225.146,225.146,0,0,1,242.649,322.2Zm-17.137-56.665a1.905,1.905,0,0,1-.566.413c-1.1.492-.424,2.013.5,3.639A37.716,37.716,0,0,1,225.512,265.532Z" transform="translate(0 -4.177)" fill="#fff"/>
    <path id="color_x5F_1" d="M272.805,181.483a.739.739,0,0,1,.345,1.286c-2.343,2.417-3.944,5.172-7.6,5.612-.514.062-1.418-.151-1.312-.848s1.005-1.04,1.612-1.113C268.03,186.159,272.112,181.27,272.805,181.483Zm-2.457,16.449a4.073,4.073,0,0,0,4.643.684c.23-.1,1.285-.591.817-1-.386-.335-1.179-.194-1.685-.016-.1-.032-.193-.081-.275-.118a3.041,3.041,0,0,1-.79-.616C272.419,196.255,269.72,197.327,270.348,197.932Zm-9.937-17.13a2.247,2.247,0,0,0,1.9-.824,13.705,13.705,0,0,1,5.234-3.893c.4-.185,1.2-.751.743-1.276-.441-.508-1.411-.332-1.935-.093a17.621,17.621,0,0,0-6.766,5.107C259.145,180.4,259.969,180.777,260.411,180.8Zm8,262.106a120.356,120.356,0,0,1-20.643-4.342c-9.525-2.961-19.907-7.223-25.833-15.736-13.283-19.088-.23-38.637,8.838-56.418,0,0,0-.007,0-.011a9.988,9.988,0,0,1,1.979-3.994.122.122,0,0,1,.014-.028.658.658,0,0,1,.13-.175,32.477,32.477,0,0,0,2.136-3.14,46.677,46.677,0,0,0,5.351-15.779c2.021-15.643-3.5-31.674-8.268-46.357-2.816-8.667-6.455-18.269-6.8-27.713a36.908,36.908,0,0,1,.061-3.965,31.856,31.856,0,0,1,.463-3.724c1.274-6.69,4.74-12.792,6.685-19.313,2.009-6.735,3.881-13.835,3.487-20.922a.57.57,0,0,1,.287-.458c-.1-7.239-11.161-9.235-15.979-12.685a18,18,0,0,1-7.1-20.295c-2.879.64-6.069.2-6.752-3.16-.017-.082-.019-.156-.033-.237-3.2,7.083-.881,16.714.854,23.721,1.983,8.013,4.5,15.912,6.722,23.859,5.821,20.791,14.494,42.377,11.939,64.406-1.583,13.65-9.084,30.767-23.751,34.32-11.453,2.774-28.629-.51-29.935-14.721-.1-1.146,2.8-1.787,2.9-.777.025.281.073.549.113.819a1.172,1.172,0,0,1,.8.074c7.514,5.106,11.321-5.339,12.811-11.185,1.949-7.649,1.478-15.362.252-23.122a191.678,191.678,0,0,0-4.786-21.033c-1.594-4.877-3.423-9.9-5.475-14.833-8.761-21.059-17-50-4.167-75.333,9.147-18.059,25.831-12.659,34.659-8.068a25.291,25.291,0,0,1,6.51,2.667c2.567-2,5.864-1.078,8.1,2.13,3.3-5.083,5.813-11.421,11.381-14.229a21.1,21.1,0,0,1,4.707-1.666,14.549,14.549,0,0,1,7.321-.74c1.52.02,3.036.121,4.524.286,8.792.978,20.906,5.572,20.247,16.2a.8.8,0,0,1-.332.546,66.138,66.138,0,0,0,4.742,7.984c2.336,3.493,3.642,6.667,8.439,5.432.272-.07,1.469-.365,1.586.125.614,2.572-.484,4.385-1.232,6.8,1.422,4.019,4.864,8.925,3.324,13.389a14.216,14.216,0,0,1-6.672,7.576c-4.311,2.517-10.7,2.646-14.484,5.664-4.062,3.236-4.876,8.633-5.058,13.658a41.369,41.369,0,0,0,8.759,20.054c5.011,6.011,11.688,10.049,16.921,15.712,10.813,11.7,3.881,28.092-3.28,39.839,1.3,5.672,2.343,11.83,4.894,17.094,4.521,9.328,13.473,13.941,20.7,20.822,3.992,3.806,6.972,8.381,10.125,12.881q9.321,13.3,18.455,26.734a.7.7,0,0,1-.076.9c2.7,2.211,5.838,1.854,9.941.206a33.806,33.806,0,0,1,7.685-2.315,9.343,9.343,0,0,1,10.312,5.741c.938,2.315.88,4.632-.422,6.1,1.95-.145,4.791.127,4.024,2.6-.7,2.241-2.879,4.146-4.922,5.69,8.048,4.9,14.208,13.008,10.093,22.787-3.331,7.916-9.951,12.791-18.011,15.266-10.264,3.15-20.951,3.625-31.584,4.383C356.078,442.906,238.181,442.908,268.412,442.908Zm84.936-4.458c8.762-2.221,17.224-6.518,19.861-15.924,2.584-9.213-2.265-15.895-9.654-20.58a1.694,1.694,0,0,1-.4.174,30.874,30.874,0,0,1-9.675,4.52,21.329,21.329,0,0,1-3.807.611,18.357,18.357,0,0,1-4.43-.221c-7.767-1.367-13.766-6.01-18.707-11.889q-1.737-1.53-3.492-3.037c-.218-.188-.434-.379-.65-.564-.127-.04-.25-.087-.377-.128-12.755-4.134-23.468-12.521-37.338-12.784-1.963-.039-.247-1.977,1.045-1.951a36.664,36.664,0,0,1,3.953.309c-.583-5.732-4.41-9.98-6.026-15.395-.036,0-.07.012-.107.016-8.7.585-17.265,2.365-26,2.5-7.791.117-15.454-.764-23.2.461-8.254,16.3-22.05,35.529-11.843,53.766,10.266,18.336,36.229,22.506,55.228,24.006,3.629.287,7.263.465,10.9.566H303.1q5.055-.135,10.105-.422c11.034-.629,22.359-.943,33.285-2.65,1.292-.2,2.611-.438,3.937-.709.163-.033.324-.068.487-.1l.284-.063Q352.273,438.722,353.348,438.45Zm-36.13-51.325c-5.2-4.4-10.436-8.761-15.607-13.189-4.815-4.125-10.094-8.256-14.946-12.754,1.765,5.52,5.742,9.867,5.977,15.938,0,.049.009.1.01.145a.517.517,0,0,1-.037.2c.2.041.4.072.6.116C301.7,379.417,309.188,383.7,317.218,387.125Zm36.53,8.043c.979.6,2.464.129,3.467-.176,1.381-.419,2.712-.965,4.054-1.468a5.851,5.851,0,0,1-2.369-1.774c-.718-.787-1.3-1.716-2.071-2.453-1.355-1.3-1.4-.42-2.2,1.092-.18.341-.876.555-1.538.648C352.861,392.35,352.559,394.436,353.748,395.168ZM277.624,287.622c-3.318-11.136-8.878-28.829-22.949-29.516-1.083-.053-1.038-.646-.567-1.158a2.3,2.3,0,0,1,1.623-.753c13.159.642,19.479,14.489,23.12,25.357,2.126,6.348,3.757,12.834,5.293,19.346,3.275-5.8,6.094-12.176,6.638-18.741.7-8.413-2.207-14.519-8.7-19.844a104.277,104.277,0,0,1-9.583-8.765c-.017.005-.027.015-.045.021-5.981,1.839-12.765.461-18.823-.232-4.2-.481-10.428-1.659-15.591-.814a11.954,11.954,0,0,0-5.72,2.369,8.414,8.414,0,0,0-1.736,1.888,1.821,1.821,0,0,1-1.1.631,31.589,31.589,0,0,0-.785,3.618c-1.952,12.925,3.359,25.877,7.235,37.957a219.774,219.774,0,0,1,6.209,21.712c.073.346.135.691.205,1.038a65.089,65.089,0,0,0,9.022,1.7c2.813.337,5.643.521,8.5.594.286.007.573.008.859.014q-1.2-1.721-2.418-3.435c-2.729-3.819-5.5-7.615-8.108-11.517-8.191-12.233-13.942-25.1-14.143-40.055-.007-.546.783-.949,1.54-1.1.69-.135,1.353-.059,1.358.32.219,16.359,7.111,30.132,16.37,43.25,4.122,5.838,8.329,11.6,12.229,17.593,4.483,6.888,7.755,14.665,12.8,21.169,6.935,8.939,16.4,16.122,24.958,23.423,6.333,5.4,12.756,10.711,19.078,16.132a.7.7,0,0,1,.358.313c.875.752,1.739,1.514,2.608,2.27a.86.86,0,0,1,.7.215c.367.467.743.922,1.124,1.373.423.37.853.734,1.273,1.107a.293.293,0,0,1,.058.406c8.285,9.006,19.389,13.838,30.772,6.049-.183-.318-.11-.721.439-1.127a28.624,28.624,0,0,0,4.7-4.047c.611-.707,2.139-2.158.413-2.025-2.81.216-5.189,1.458-7.813,2.352-2.146.73-4.766,1.514-6.954.506-2.451-1.131-2.216-4.269-1.84-6.473.159-.933,1.558-1.386,2.375-1.113,1.394-1.844,3.785-3.789,5.925-2.188,1.766,1.32,2.788,3.874,4.746,4.855,2.923,1.465.207-6.565-.284-7.23-7.814-10.6-21.167,8.027-29.237-4.529-.076-.117.248-.354.706-.563q-7.934-11.605-15.978-23.138c-3.005-4.289-5.838-9.065-9.652-12.7-6.388-6.086-15.063-10.633-19.8-18.3C282.135,314.682,281.313,300,277.624,287.622Zm-72.165,40.411a45.114,45.114,0,0,1-10.253,2.153A24.3,24.3,0,0,0,205.459,328.033Zm11.27-144.6a20.29,20.29,0,0,0,4.752-13.185.98.98,0,0,1,.359-.758c-1.348-2.325-3.937-4.851-5.4-.952-.655,1.75-.833,3.738-1.623,5.436-1.511,3.242-6.781,5.94-5.464,9.944C210.527,187.474,215,185.553,216.729,183.43Zm14.012,70.075c4-2.892,9.582-3.213,14.5-2.979,8.061.383,17.784,3.467,25.8,1.444a45.864,45.864,0,0,1-10.672-19.141c-.481.031-.859-.043-.857-.252.006-1.115.033-2.223.089-3.315-.128-.732-.255-1.465-.351-2.222-.03-.235.222-.454.585-.627.72-6.068,2.944-11.32,9.511-13.846,5.435-2.09,13.772-2.787,16.028-9.322,1.835-5.317-1.248-9.579-2.935-14.4a.3.3,0,0,1,.056-.275c.641-2.057,1.6-3.819,1.273-5.98-2.262.5-4.791.728-6.479-1.1a53.362,53.362,0,0,1-8.585-13.369c-1.973-1.626-5.47-5.924-7.1-1.1-.519,1.534-.886,3.3-1.965,4.569-1.582,1.856-3.967,2.883-5.48,4.729a8.049,8.049,0,0,0-1.549,6.234c.178.035.29.1.286.207-.153,3.9,1.919,5.233,4.158,8.1,1.908,2.442,2.524,5.139.211,7.455-.515.516-3.3.833-2.637.167,3.05-3.054-.156-6.643-2.419-9.022-.23-.242-.438-.478-.628-.71-.861,2.269-1.984,4.448-2.917,6.823a4.608,4.608,0,0,1,1.481,2.188c.257.721-2.608,1.588-2.9.776a5.829,5.829,0,0,0-.972-1.9l-.958.765a10.8,10.8,0,0,0-2.771,2.64,8.724,8.724,0,0,0-.8,2.31,6.152,6.152,0,0,0,2.018,5.529,7.341,7.341,0,0,0,1.387.957c.71-.385,1.789-.337,2.135.213a4.326,4.326,0,0,0,1.721-1.921c.443-.781,3.18-1,2.872-.457a7.934,7.934,0,0,1-4.775,3.751,31.589,31.589,0,0,1-7.7,11.918,1.446,1.446,0,0,1-.474.289,62.948,62.948,0,0,1-3.085,17.473C234.524,244.583,232.385,249.006,230.741,253.505Zm6.706,105.87c-.454.79-1.181,1.729-1.882,2.71-.011.022-.021.045-.033.067-.064.134-.13.269-.2.4q1.974-.282,3.941-.4c3.912-.249,7.807-.109,11.715,0q.615.018,1.229.032c2.508.063,5.022.1,7.553-.016,7.893-.348,15.66-1.851,23.532-2.427a1.9,1.9,0,0,1,1.11-.7,61.524,61.524,0,0,1-8.623-10.314c-4.676-7.235-8.45-14.983-13.292-22.129-.085-.125-.175-.248-.261-.375-.054,0-.1.013-.161.013a87.087,87.087,0,0,1-19.271-1.983,56.664,56.664,0,0,1,.435,18.535A48.786,48.786,0,0,1,237.447,359.375Z" fill="#112743"/>
  </g>
</svg>
