<svg xmlns="http://www.w3.org/2000/svg" xmlns:xlink="http://www.w3.org/1999/xlink" width="623.331" height="472.151" viewBox="0 0 623.331 472.151">
  <defs>
    <linearGradient id="linear-gradient" x1="0.5" x2="0.5" y2="1" gradientUnits="objectBoundingBox">
      <stop offset="0" stop-color="#e89c7b"/>
      <stop offset="1" stop-color="#ac75a6"/>
    </linearGradient>
  </defs>
  <path id="blob" d="M587.3,388.606c-43.461,60.878,10.422-8.686-33.3,43.341-43.652,51.941-119.155,36.662-227.61,39.136C256.646,472.673,150,481.614,89.655,450.209S-1,367.83-1.278,297.289,15.165,149.327,82.486,136.4c73.9-14.2,115.22-73.441,177.292-110.161S382.386-6.62,441.385,37.831,547.024,137.855,591.187,200.9c43.832,62.57,39.574,126.829-3.887,187.708Z" transform="translate(1.281 -1.318)" fill="url(#linear-gradient)"/>
  <g id="_273-Freedom" data-name="273-Freedom" transform="translate(-5.84 -42.938)">
    <path id="color_x5F_2" d="M334.565,429.973a49.657,49.657,0,0,1,2.31,12.084c-1.708,12.181-4.234,33.963-5.568,45.691q-.622,2.116-1.32,4.2c-.159.169-.321.338-.482.506-.506.532-.458.953-.133,1.24-.239.685-.472,1.375-.723,2.053H193.276c4.252-10.036,7.732-20.409,11.812-30.477a177.448,177.448,0,0,1,21.281-38.911c4.717-5.8,10.183-12.74,15.191-19.284,5.249-6.348,10.555-12.656,15.638-19.129a39.281,39.281,0,0,0,8.841-26.478c-.242-9.949-1.53-19.85-1.933-29.793l.3-.187a2.382,2.382,0,0,0,1.925-.361c7.375-5.642,13.74-12.135,16.909-20.573,3.113-8.283,1.4-17.127-1.914-25.1.578-.242,1.158-.491,1.742-.731l2.66-.951a11.6,11.6,0,0,1,2.851-.474,4.947,4.947,0,0,0,1.257-.2c6.137,10.016.914,22.893-.2,33.539a.735.735,0,0,0,.072.411c-.125.22-.059.437.311.613,10.319,4.9,28.635,3.876,39.19-1.623,1.049.068,3.023-.421,3.023-1.2.013-8.856.373-19.131-4.6-26.976l-.3-2.254-4.577-4.3c.3.025.588.062.876.1a2.356,2.356,0,0,0,1.353.239c12.217,2.607,16.737,16.664,17.932,28.333-.129.171-.257.338-.386.51-.374.5-.057.765.512.853.087,1.095.148,2.16.185,3.19-.33.237-.508.52-.388.809.158.375.292.747.431,1.12,0,.022,0,.045,0,.067a.286.286,0,0,0,.106.212c5.872,16.418-7.535,29.8-17.43,42.426-5.073,6.476-8.673,13.095-10.421,20.958-2.129,9.583,1.69,18.25,6.143,26.731C325.8,414.728,331.727,421.531,334.565,429.973Z" transform="translate(4.905 4.862)" fill="#f7f5f5"/>
    <path id="color_x5F_1" d="M318.014,250.625c-.4-.717,2.721-1.821,3.264-.854,2.934,5.213,11.571,22.327-1.5,20.41-1.775-.261,1.162-1.685,2.048-1.555C327.088,269.4,319.215,252.759,318.014,250.625Zm-12.787,28.15c-4.026-.975-3.864-5.44-2.236-8.388a2.5,2.5,0,0,1,1.878-1,3.752,3.752,0,0,1,.848.021c.649-.16,1.309-.157,1.575.149a7.939,7.939,0,0,0,5.687,2.789c.368.01,1.049.152.974.554.885-.043,1.591.17.811.823-1.5,1.253-2.471,2.973-4.09,4.117A6.511,6.511,0,0,1,305.228,278.775Zm1.352-1.9c.482.291,1.377.758,1.836.389a11.643,11.643,0,0,0,1.5-1.5c.528-.614,1.067-1.215,1.642-1.784a10.465,10.465,0,0,1-6.116-2.115C304.911,273.705,304.887,275.86,306.58,276.876Zm-1.941-20.463c.877-2.276,3.051-2.8,4.888-1.145,1.081.975,3.913-.595,2.512-1.858-3.315-2.989-8.982-1.389-10.526,2.621C300.844,257.77,304.12,257.761,304.638,256.413Zm22.8-5.676a2.745,2.745,0,0,1,1.057-2.065c-.169.1.273.012.393.014a4.269,4.269,0,0,1,1.4.377,2.873,2.873,0,0,0,2.308-.315c.4-.227,1.033-.9.305-1.18-3.341-1.312-8.074-.4-8.716,3.6C323.993,252.347,327.275,251.771,327.441,250.738Zm89.691-106.686a10.585,10.585,0,0,1,.8-11.8,1.215,1.215,0,0,1,.344-.277,11.572,11.572,0,0,1,2-8.273c.444-.687,2.358-1.18,3.029-.621,8.307,6.922,19.261,10.53,28.375,16.329,5.156,3.281,11.483,7.775,13.466,13.558a12.7,12.7,0,0,1,7.379-3.97c-.255-.029-.394-.095-.329-.2,2.459-3.841,5.721-5.373,10.2-6.032,5-.735,9.523-.209,14.3-2.788,2.988-1.614,5.868-3.378,8.929-4.863.341-.165,2.39-.89,2.578-.2a6.27,6.27,0,0,1-2.2,6.562c.151.042.256.11.275.217.666,3.433-1.1,6.079-3.917,7.661.332.057.53.2.436.436-4.241,10.923-19.249,12.195-26.713,20.158a2.569,2.569,0,0,1-1.2.5,23,23,0,0,1-7.548,7.345c-3.74,2.138-7.775,3.492-12.158,2.908-5.026-.671-9.457-1.659-14.045,1.57-2.292,1.614-4.531,3.288-6.894,4.806a4.192,4.192,0,0,1-1.581.353,3,3,0,0,1-1.879.75c-1.283-.089-3.122-.184-3.862-1.407a2.077,2.077,0,0,1,.024-1.941h-.007c-2.708-.282-6.266-1.448-4.218-4.674a16.093,16.093,0,0,1,4.143-4.2.673.673,0,0,1-.446-.156c-7.342-7.956,11.678-8.987,15.623-10.3a3.572,3.572,0,0,1,.81-.155c-5.636-4-11.688-7.848-18.353-9.554-6.223-1.593-9.139-4.806-7.8-11.192A.943.943,0,0,1,417.132,144.052Zm56.9,4.838a6.991,6.991,0,0,1,3.169.648c1.743.871,3.989,2.928,6.015,2.229.9-.309,2.08-.085,2.161.318.4.054.6.215.328.527-3.544,4.036-5.8,9.214-8.5,14.023,7.8-5.131,18.9-7.661,22.308-16.307a1.2,1.2,0,0,1-.659-.134c-.5-.328.828-.855.972-.914a5.7,5.7,0,0,0,3.281-5.832,21.666,21.666,0,0,1-4.888,1.818c-1.909.458-2.2-.563-.282-1.025,3.721-.893,7.508-3.54,7.167-7.412-3.87,2.154-7.676,4.72-11.963,5.835-5.933,1.542-14.089-.12-17.731,5.578A2.249,2.249,0,0,1,474.033,148.89Zm-54.689-13.063c-1.127,4.437.864,9.658,5.727,11.012,1.893.527-.819,2.18-1.965,1.861a9.9,9.9,0,0,1-3.451-1.735c.182,6.768,7.885,6.66,13.679,9.628a123.952,123.952,0,0,1,16.176,10.152c.814.59-2.159,1.853-3.041,1.213-.908-.658-1.828-1.326-2.755-1.992a4.613,4.613,0,0,1-.565.225c-3.7,1.231-19.466,1.677-13.924,8.221l.018-.011a2.718,2.718,0,0,1,2.314-.3c.7.329.166,1-.284,1.257a17.389,17.389,0,0,0-4.77,3.841c-.489.6-1.383,1.61-1.117,2.461.338,1.084,1.811,1.239,2.791,1.341a31.243,31.243,0,0,1,5.02-4.592,3.058,3.058,0,0,1,2.309-.6c.65.117.833.653.3,1.073-1.546,1.207-9.226,7.176-3.74,7.555.047,0,.08.011.123.015,4.069-2.684,7.74-5.9,12.422-7.535,4.229-1.481,8.354-.05,12.631.286,14.117,1.11,17.9-17.077,24.906-25.8a6.356,6.356,0,0,1-3.866-.466c-1.25-.609-2.418-1.5-3.707-2-3.733-1.462-6.784,1.715-8.388,4.5a1.143,1.143,0,0,1-.442.385,11.614,11.614,0,0,1-.714,4.889c-.348.95-3.57,1.358-3.247.47,3.686-10.113-7.72-17.462-15.285-21.9-7.851-4.6-16.969-8.066-24.319-13.53-1.538,3.752-.6,7.173,1.239,11.041.373.785-2.8,1.827-3.264.854C419.848,137.03,419.58,136.422,419.344,135.826Zm54.938,19.046v-1.13c0-.434-3.265,0-3.265.854v1.13C471.015,156.162,474.282,155.727,474.282,154.872Zm61.8,319.543a.98.98,0,0,1,.082.487c-.592,8.011-1.486,15.83-4.138,23.472-.487,1.4-3.751,1.373-3.134-.407a75.917,75.917,0,0,0,3.528-17.779A38.062,38.062,0,0,1,516.672,492.7a2.321,2.321,0,0,1-.843.164c-.438.7-3.322.979-3.165.527,4.366-12.466,3.2-25.047,2.051-37.744-5.06,16.887-14.117,34.541-31.443,39.375-1.758.49-2.266-.75-.947-1.4-.525-.095-.93-.391-.923-.957.108-8.922,2-17.015,7-23.747-10.085,6.428-19.332,15.232-24.6,25.475-.634,1.231-3.941,1.264-3.118-.341.7-1.35,1.471-2.669,2.291-3.968.848-5.846.1-11.607-.542-17.395-2.328,9.332-5.257,18.379-14.514,23.548a1.719,1.719,0,0,1-1.952-.088.737.737,0,0,1-.389-.369c-3.688-8.815-.976-19,1.943-27.881-6.837,7.431-13.886,16.132-14.861,25.9-.089.9-3.3,1.17-3.264.854.028-.3.087-.585.126-.877-.4,0-.688-.073-.707-.252-.386-4.207-1-8.371-1.778-12.506-2.935,6.814-9.532,12.41-15.824,15.883-.888.489-3.315.284-2.428-.527a1.04,1.04,0,0,1-.779-.589c-7.864-19.1,2.138-39.856,12.351-57.13-15.358,16.374-29.488,37.338-29.9,59.327-.02,1.054-3.29,1.73-3.264.4.029-1.657.14-3.309.32-4.953a.982.982,0,0,1-.347-.788c.053-6.6.5-13.189.65-19.78-3.873,10.345-9.46,20.577-18.708,26.665-1.377.906-4.027-.346-2.191-1.555a35.806,35.806,0,0,0,8.472-7.973c-.816.459-2.23.723-2.549.283-4.483-6.246-3-14.889-1.059-21.787.223-.792.465-1.577.71-2.362-4.42,7.522-8.994,14.962-13.267,22.564-.2.563-.419,1.124-.653,1.682-.454,1.08-3.522,1.346-3.12-.067a.651.651,0,0,1,.034-.728c.23-.413.469-.82.7-1.23,4.179-11.833,1.349-24.82-2.852-36.773a48.231,48.231,0,0,1-3.983,20.44c-4.475,9.994-11.493,18.469-18.761,26.646-.27.841-.537,1.683-.827,2.516-.372,1.066-3.643,1.491-3.263.4.024-.067.043-.134.068-.2.224-.646.431-1.3.644-1.953-.29-.273-.332-.673.118-1.18l.429-.481q.62-1.987,1.176-4a141.428,141.428,0,0,0,4.414-24.447,117.72,117.72,0,0,0,.549-19.032,50.112,50.112,0,0,0-2.059-11.5c-2.528-8.033-7.815-14.508-11.494-21.991-3.968-8.071-7.372-16.318-5.475-25.437a50.308,50.308,0,0,1,9.288-19.943c8.819-12.02,20.769-24.749,15.535-40.373a.273.273,0,0,1-.095-.2c0-.021,0-.043,0-.064-.122-.355-.243-.71-.384-1.067-.109-.275.052-.543.346-.768-.032-.981-.086-2-.164-3.035-.507-.084-.79-.337-.456-.811l.344-.486c-1.063-11.1-5.094-24.48-15.981-26.961a1.969,1.969,0,0,1-1.206-.228c-.257-.039-.516-.072-.781-.1-.365-.036-.74-.055-1.119-.068a8.6,8.6,0,0,0,1.506,1.587.607.607,0,0,1,.254.127c.088.08.16.168.246.251.046.032.086.068.132.1a.247.247,0,0,1,.1.141,20.289,20.289,0,0,1,3.225,4.1c4.435,7.466,4.11,17.244,4.1,25.671,0,.743-1.76,1.209-2.7,1.144-9.407,5.232-25.731,6.2-34.929,1.545-.33-.167-.389-.375-.277-.584a.76.76,0,0,1-.064-.391c.993-10.132,5.647-22.385.178-31.915a4.169,4.169,0,0,1-1.12.19,9.785,9.785,0,0,0-2.541.451l-2.371.9c-.521.229-1.038.466-1.553.7,2.95,7.585,4.48,16,1.706,23.882-2.825,8.028-8.5,14.208-15.071,19.577a2.025,2.025,0,0,1-1.716.343,1.944,1.944,0,0,1-.282-.089c0,.089.008.178.011.268.359,9.461,1.507,18.882,1.723,28.35a39.041,39.041,0,0,1-7.88,25.2c-4.531,6.16-9.259,12.161-13.938,18.2-4.326,5.586-8.61,11.209-12.65,17.022-.308.443-.588.886-.89,1.328a172.7,172.7,0,0,0-18.967,37.027c-3.636,9.581-6.738,19.451-10.527,29-.725,1.825-1.465,3.644-2.249,5.441-.554,1.272-3.843,1.33-3.116-.34,2.194-5.03,4.11-10.19,5.957-15.379-.477,0-.834-.127-.829-.405.239-14.7-7.558-31.869-18.922-42.355,5.361,12.49,9.651,24.411,6.6,38.43a1.78,1.78,0,0,1-1.327,1.161,19.679,19.679,0,0,1,2.459,6.429c.124.731-3.169,1.428-3.264.853-1.051-6.216-6.169-10.2-8.148-15.98a61.464,61.464,0,0,1-3.007-12.819,36.252,36.252,0,0,0-1.869,18.974,25.827,25.827,0,0,1,4.15,11.792c.085,1.007-3.2,1.631-3.264.854a23.222,23.222,0,0,0-.565-3.483c-.535.023-1.006-.1-1.17-.47a34.024,34.024,0,0,1-2.408-7.764,46.038,46.038,0,0,0-13.056-12.761c3.769,5.3,5.312,12.841,5.432,18.541a.525.525,0,0,1-.206.382c1.042.847,2.124,1.675,3.289,2.474,1.58,1.082-1.221,2.794-2.495,1.921a40.371,40.371,0,0,1-13.4-14.563c-1.57,5.467-3,10.856-1.068,16.562a1.059,1.059,0,0,1-.562,1.246c.11,1.022-2.907,1.828-3.281.738-2.486-7.227-6.8-13.659-9.25-20.9-1.268-3.747-1.911-7.645-2.838-11.466-1.431,11.175-3.407,22.046.9,33.2.419,1.084-1.362,1.86-2.488,1.523-.66.635-2.963,1.07-3.09.461-1.549-7.449-6.34-13.7-8.612-20.761-.543,5.136-1.548,10.241-2,15.39-.035.4-.6.7-1.244.876.028.085.06.166.088.252.282.876-2.967,1.781-3.264.854-2.009-6.252-5.845-11.612-9.084-17.282-.205,5.5-.337,10.994.786,16.428.242,1.17-3.034,1.969-3.264.854-1.636-7.914-.655-15.954-.578-23.954.01-1.058,3.279-1.738,3.265-.4,0,.371-.017.743-.024,1.114a.732.732,0,0,1,.6.351c2.845,6.179,7.059,11.662,9.9,17.812.86-6.582,2.207-13.126,1.867-19.781-.044-.86,2.806-1.392,3.215-.962.865-.2,1.788-.194,1.785.107-.073,7.28,3.695,13.271,6.7,19.584-1.689-11.539,1.529-22.941,2.153-34.855.077-1.469,3.4-1.919,3.31-.232-.023.43-.059.858-.088,1.287a.578.578,0,0,1,.065.1c3,6.523,3.188,13.8,5.827,20.454,1.063,2.678,2.327,5.263,3.606,7.841a150.871,150.871,0,0,1,4.933-41.481c3.328-12.225,8.587-26.178,20.541-32.7a2.466,2.466,0,0,1,1.114-.239,6.266,6.266,0,0,1,2.076-4,1.5,1.5,0,0,1,.457-.252c-.332-.505.518-1.427,1.651-1.506,2.958-.209,6.107,1.124,7.041,4.1s-.91,5.432-3.71,6.534c-2.495.982-5.761,1.053-7.031-1.726a5.9,5.9,0,0,1-.393-1.253c-11.778,7.033-16.667,22.285-19.456,34.7a162.787,162.787,0,0,0-3.911,31.8c.446-1.583.906-3.176,1.31-4.786.366-1.453,3.715-1.816,3.314-.221-.018.07-.037.14-.055.21a1.206,1.206,0,0,1,.608.6,36.331,36.331,0,0,0,7.486,10.987c-.846-7.7-4.068-17.033-11.235-20.185-.178-.077.4-.459,1.125-.762.072-.593,2.255-1.345,2.895-1.024,6.22,3.133,12.811,7.456,17.778,12.9a41.639,41.639,0,0,1,5.288-19.942c0-.109-.009-.213-.01-.322-.009-.848,3.261-1.3,3.264-.854.065,6.446.692,13.074,3.414,19.042a55.614,55.614,0,0,0,4.027,6.827c2.594-14.834-3.061-27.291-8.971-40.83-.567-1.3,2.064-2.158,3.028-1.19a1.224,1.224,0,0,1,.705.162c12.563,8.79,22.037,25.988,23.571,41.519,1.5-4.3,3.007-8.6,4.624-12.832,4.96-12.992,10.424-24.686,18.371-36.207,8-11.6,16.488-22.8,25.3-33.818,7.4-9.247,10.939-18.128,10.4-29.912-.078-1.716-.18-3.431-.291-5.146-8.639,1.456-16.548-.968-25.225-1.291-6.906,4.924-13.958,9.661-20.658,14.857-3.565,2.764-6.809,5.78-10.95,7.69-9,4.153-18.637,6.995-28.089,9.983-7.015,2.22-14.628,4.065-21.518,6.993.373.4.078,1.078-1.123,1.336-6.328,1.362-8.064,11.215-10.336,16.169-1.414,3.086-4.343,7.074-7.5,8.674-1.7.864-6.72,1.88-5.994-1.795a14.852,14.852,0,0,1,.424-1.624,18,18,0,0,1-5,3.942c-.655.336-2.113.422-2.353-.5a10.607,10.607,0,0,1-.3-3.417.856.856,0,0,1-.356-.167c-2.534-2.222-2.228-5.1-.824-7.947a.28.28,0,0,1-.059-.142,10.506,10.506,0,0,1,1.024-5.694c-.87-11.793,13.276-14.375,22.308-17.638a2.525,2.525,0,0,1,1.122-.123c8.124-3.77,15.8-10.07,23.139-14.861,10.507-6.86,20.952-13.811,31.464-20.664,1.144-.746,2.3-1.483,3.46-2.221-1.474-.818-4.456-2.541-7.979-4.93-6.914-3.9-13.351-9.335-17.149-15.838-3.235-4.732-4.931-9.866-3.359-14.983a24.111,24.111,0,0,1,1.259-5.252,29.467,29.467,0,0,1,5.081-8.823,23.531,23.531,0,0,1,10.916-8.938c.347-.2.694-.392,1.048-.58,8.569-4.554,21.538-5.583,25.02-15.684,1.618-10.452,6.213-18.811,15.189-25.261,5.072-3.644,10.564-7.316,14.327-12.338,3.949-5.27,5.492-11.383,8.169-17.265,4.087-8.975,10.178-16.584,20.03-19.795,6.69-2.18,14.506-3.21,21.258-.962l.045-.021a8.683,8.683,0,0,1,3.59-.635c.042,0,.09,0,.137.008a2.874,2.874,0,0,1,1.395-.415c7.9.436,17.357-.808,23.831,4.7A24.143,24.143,0,0,1,340.62,223.7c1.361,5.094,1.6,10.769,3.811,15.61,4.331,9.483,16.134,10.858,20.784,19.614,4.407,8.3-.16,17.436-5.731,24.247,2.009-1.295,3.982-2.659,5.987-3.971,4.438-2.912,8.956-5.758,13.166-8.984,10.864-8.321,25.359-11.285,37.4-17.624a1.89,1.89,0,0,1,1.074-.219c5.785-4.9,5.742-12.117,9.375-18.46,1.6-2.79,4.273-4.859,7.489-4.569,2.277-2.4,5.014-3.959,8.7-2.419,2.677-2.278,5.687-3.473,8.685-1.078a4.864,4.864,0,0,1,3.762-.123c3.321,1.355-.464,8.017-1.656,9.5-3.1,3.857-7.352,7.064-9.883,11.336,3.7-1.081,5.637-4.947,10.139-4.931,3.486.012,5,2.075,3.422,5.353-4.645,9.682-16.71,6.662-23.662,13.213a1.246,1.246,0,0,1-.348.214c-10.3,7.447-21.522,13.908-31.4,21.889-3.614,2.919-8.052,4.957-12.259,6.925-5.69,2.663-11.147,5.7-16.778,8.461-6.561,3.22-13.065,6.3-18.183,11.591a122.828,122.828,0,0,0-11.889,14.983c.15,1.821.22,3.7.232,5.641,5.057,14.544-4.522,26.74-13.049,38.048-5.262,6.98-10.3,14.207-11.679,22.994-1.511,9.638,1.6,18.148,6.291,26.528,4.337,7.754,10.01,15.026,11.5,23.97a101.8,101.8,0,0,1,.685,27.461,157.086,157.086,0,0,1-4.2,23.552c5.153-6.013,10.014-12.377,13.216-19.531,4.538-10.137,5.292-20.526,3.413-31.38a1.059,1.059,0,0,1,.156-.748l-.156-.382c-.484-1.191,2.748-2.125,3.265-.854,5.012,12.326,10.312,26.472,8.959,40,6.852-11.573,14-22.985,19.656-35.182a2.444,2.444,0,0,1,2.366-.869c1-.24,2.165-.2,1.953.173a108.513,108.513,0,0,0-9.4,21.473c-2.224,7.352-4.86,17.1.069,23.967a.431.431,0,0,1,.057.129c5.785-7.729,9.245-17.516,11.873-26.318.394-1.316,3.155-1.45,3.227.1.253,5.286.084,10.564-.133,15.841,6.584-18.51,20.817-35.419,34.364-48.4l.14-.229c.665-1.083,3.983-1.2,3.092.258-11.259,18.363-26.272,42.386-17.279,64.339,7.176-4.509,14.228-11.952,14.1-20.548a.706.706,0,0,1,.161-.436c-.056-.231-.1-.464-.161-.694-.188-.757,3.085-1.58,3.265-.854a136.219,136.219,0,0,1,2.8,14.565,38.339,38.339,0,0,1,2.239-4.563c-.666.063-1.272-.125-1.367-.675-5.588-32.357,3.753-65,17.43-94.324a2.315,2.315,0,0,1,2.076-.9c0-.393.019-.784.057-1.17-3.789,3.873-10.054,7.7-12.046,2.058-1.6-4.518,3.028-7.5,7.838-8.431a8.594,8.594,0,0,1-5.847-3.841c-2.157-3.685.563-7.014,3.967-8.7,5.927-2.94,9.756,2.128,11.453,7.258a9.416,9.416,0,0,1,4.117-2.179c1.784-.386,3.851-.326,5.153,1.11a4.966,4.966,0,0,1,1.209,4.014c-.341,2.56-2.264,3.989-4.583,4.67a10.777,10.777,0,0,1,3.918,5.333c1.36,4.527-1.879,8.721-6.349,9.955-3.783,1.045-6.5-.638-7.794-4.228a19.334,19.334,0,0,1-.826-3.054c-12.92,28.156-21.678,59.393-16.7,90.349,3.8-5.723,8.779-10.918,13.142-15.558.646-.688,3.308-.7,3.211-.6-.187.2-.381.4-.57.6.441.062.722.257.6.625-2.99,8.872-6.5,19.428-3.467,28.694,9.69-6.805,10.4-20.166,13.482-30.617.39-1.325,3.725-1.72,3.3-.274-.054.184-.106.37-.16.556a.362.362,0,0,1,.143.283c.157,7.274,1.741,14.415,1.59,21.641,7.241-9.162,17.278-16.714,27.432-21.907.219-.182.425-.368.65-.546,1.211-.952,3.866-.009,2.136,1.353-.056.044-.1.09-.16.134a1.674,1.674,0,0,1-.773.67l-.068.035c-8.393,7.178-11.011,17-11.139,27.718a.882.882,0,0,1-.165.488c17.744-6.205,25.519-29.126,29.43-46.413q-.1-1.609-.175-3.218c-.013-.3.449-.562,1.029-.742.042-.206.087-.414.127-.617.221-1.092,3.513-1.625,3.265-.4-.294,1.444-.614,2.934-.96,4.451.987,15.079,3.731,30.013-.727,44.758,7.125-3.29,12.844-9.591,16.441-16.325C533.5,473.384,536.615,473.105,536.079,474.415Zm-76.911-92.692a14.85,14.85,0,0,1-2.567-.244.9.9,0,0,1-.453-.207c-2.152,3.663-1.23,12.4,3.139,14.15,2.208.884,4.684-3.108,4.825-4.917a7.8,7.8,0,0,0-1.2-4.89A14.311,14.311,0,0,0,459.167,381.723Zm-1.3-5.638c.092.46.169.911.225,1.344.059.452-.869.848-1.749,1.019a13.824,13.824,0,0,1,5.06,1.661c.066,0,.1,0,.085,0,.1-.01.2-.021.3-.035.05-.008.214-.039.257-.046s.113-.023.166-.038c.034-.011.108-.033.165-.053s.117-.041.173-.066l.044-.018c.086-.044.171-.089.256-.138.037-.023.064-.036.083-.048a.273.273,0,0,1,.037-.029c.077-.058.157-.116.23-.179.051-.043.1-.088.15-.132.033-.034.095-.1.109-.113a5.627,5.627,0,0,0,.535-.744,4.312,4.312,0,0,0,0-3.923,3.532,3.532,0,0,0-1.215-1.37c-.036-.023-.042-.027-.038-.027l-.091-.044c-.071-.035-.143-.069-.216-.1s-.321-.1-.35-.112a1.263,1.263,0,0,1-.273-.044c-.036,0-.071,0-.109,0l-.127.024-.327.119c-.056.036-.41.219-.484.264-.042.024-.071.043-.089.054s-.026.021-.051.036c-.115.08-.226.161-.336.246A13.738,13.738,0,0,0,457.869,376.085Zm-5.154,1.74c1.813-.279,1.207.5.224.937.094.017.188.034.278.053a6.037,6.037,0,0,1,1.422-.44c.077,0,.157,0,.233,0a.164.164,0,0,1-.045-.091c-.032-.252-.073-.525-.121-.807-.354-.1-.63-.328-.331-.734.049-.068.1-.133.153-.2-.763-3.667-2.655-8.784-6.209-9.615-1.545-.362-3.35,1.763-3.8,3.054a4.439,4.439,0,0,0,.268,3.766C446.289,376.3,449.634,378.3,452.715,377.825Zm1.251,3.242a6.6,6.6,0,0,1,2.078-.23.863.863,0,0,1,.284-.352,2.538,2.538,0,0,1,.258-.159,10.718,10.718,0,0,0-1.42-.449,3.1,3.1,0,0,1-2.9.986c-3.484-1.743-11.24.8-9.2,5.6,1.141,2.694,2.927,1.514,4.65-.021a14.276,14.276,0,0,0,3.651-4.424C451.654,381.381,453.088,381.008,453.966,381.067ZM179.432,410.545a1.21,1.21,0,0,1-.3.358,4.751,4.751,0,0,0-1.294,4.841c.439,1.436,1.618,2.9,3.244,1.895C184.005,415.837,182.332,411.41,179.432,410.545Zm-30.346,80.738c.065.132.13.263.194.4q.017-.2.037-.406C149.237,491.279,149.162,491.283,149.085,491.283ZM352,289.912c-4.62,1.828-9.541,1.615-14.319,2.744a75.2,75.2,0,0,0-10.88,3.63,14.583,14.583,0,0,1,8.185,6.112,41.6,41.6,0,0,1,7.215,18.155c6.542-8.832,13.477-16.309,23.821-21.577,5.646-2.876,11.208-5.968,16.944-8.669,5.614-2.645,11.471-5.059,16.442-8.8,10.307-7.745,21.312-14.577,31.76-22.138a1.66,1.66,0,0,1,.451-.222c5.2-4.259,12.182-3.668,17.854-6.986a9.491,9.491,0,0,0,4.753-5.627c1.037-4.041-3.636-2.586-5.794-.9a12.994,12.994,0,0,1-6.08,2.744,2.813,2.813,0,0,1-.736.046c-1.033.218-2.177-.012-1.714-.945,1.739-3.495,4.732-6.169,7.416-8.964,2.455-2.556,6.366-6.28,5.548-10.226-.285-1.372-.6-.584-1.7.373q-1.621,1.417-3.1,2.979c-1.665,1.753-3.218,3.609-4.923,5.324-.832.837-4.026.727-2.654-.654,1.866-1.877,4.918-6.287,8.256-8.887-.9-.844-1.923-1.442-3.119-.531a16.573,16.573,0,0,0-2.675,2.581c-1.335,1.6-2.5,3.33-3.865,4.907-.638.739-3.908,1.015-3.024-.006,1.218-1.408,2.791-3.555,4.584-5.484-.033-.012-.071-.02-.1-.034-3.521-1.665-6.125,4.1-7.785,6.312-.817,1.09-3.911.789-2.7-.826.838-1.121,1.707-2.361,2.645-3.526-3.445-.941-5.534,9.649-6.331,11.63-1.817,4.521-3.967,8.113-8.031,10.9.065.4-.158.86-.843,1.221C404.228,261.556,389.979,265.5,377.6,274.1,369.552,279.679,361.2,286.271,352,289.912Zm-46.021-81.083c.033.015.066.029.1.044a74.591,74.591,0,0,0,8.035-.141c-2.178-.085-4.409-.115-6.677-.24-.02,0-.033,0-.051-.006A3.563,3.563,0,0,1,305.977,208.829ZM282.962,324.745c2.281-7.644,1.035-15.175-1.786-22.488a3.008,3.008,0,0,1-1.841.875c-23.249.051-30.587,21.292-43.456,35.927-9.175,10.434-19.872,17.707-31.426,25.3-10.525,6.916-21.024,13.87-31.589,20.73-6.895,4.476-14.049,10.3-21.74,13.45a2.3,2.3,0,0,1-1.672.025c-6.353,2.028-14.3,4.026-16.991,9.542.362-.406.726-.808,1.086-1.206.59-.65,3.8-.988,2.994-.1a29.846,29.846,0,0,0-4.981,6.583c.009.115.027.238.041.356,1.023-1.2,2-2.268,2.7-3.122.622-.749,3.889-1.043,3.022,0-2.415,2.91-8.43,8.689-7.748,13.178,2.114-4.651,6.8-8.565,10.553-11.636,1.242-1.015,3.861.046,2.16,1.438-4.5,3.677-10.787,8.812-10.5,15.052,3.465-2.774,5.8-7.258,8.442-10.584a2.115,2.115,0,0,1,1.7-.623c.978-.647,3.418-.764,2.726.367-1.108,1.813-2.2,3.642-3.2,5.517-.525.99-3.075,4.71-2.472,6.074,1.021,2.305,3.936-1.942,4.889-3.112a19.408,19.408,0,0,0,2.895-5.07c1.893-4.636,3.547-10.481,7.445-13.847-.454-.115-.558-.374.285-.82,7.118-3.765,15.382-5.79,23.04-8.206,10.007-3.159,20.434-5.965,29.969-10.367,4.823-2.225,8.538-5.753,12.744-8.915,6.3-4.739,12.822-9.178,19.239-13.763.375-.268.762-.535,1.143-.8l.588-.415c1.651-1.157,3.332-2.323,5.013-3.513l15.83-14.659c1.192-1.507,2.371-3.023,3.564-4.525,0-.057,0-.115,0-.173,0-.531.47-.934,1.061-1.138a65.5,65.5,0,0,1,6.76-7.337c.631-.574,3.8-.864,2.986-.127a65.885,65.885,0,0,0-7.5,8.424c.007.686.032,1.372.047,2.057C274.942,338.2,280.728,332.231,282.962,324.745ZM319.285,300.5l-.006,0c-4.158-2.827-4.649-7.763-4.366-12.34a41.373,41.373,0,0,1-7.83-.579c-1.846-.313.989-1.882,2.006-1.71,11.084,1.88,22.152-1.752,26.667-12.557,2.614-6.258,2.082-12.677.79-19.064l-2.086-7.271a60.79,60.79,0,0,1-10.633-4.276,4.009,4.009,0,0,1-1.076.274,4.352,4.352,0,0,0-.456.369,3.529,3.529,0,0,1-2.177.795c-.322.017-1.365-.12-.806-.648a7.076,7.076,0,0,1,2.91-1.653c-4.355-2.455-8.362-5.585-10.716-9.308a40.36,40.36,0,0,1-4.2,12.581,4.607,4.607,0,0,1,.687-.057h3.468c.622,0,.7.337.176.642a4.758,4.758,0,0,1-2.309.6H306.6c-.4.641-.821,1.268-1.277,1.867-4.183,5.488-10.525,9.469-13.892,15.507.885.7-1.189,2.2-2.408,1.895-3.451-.875-4.874,2.888-4.291,5.672.861,4.1,4.373,5.924,8.468,5.668a2.87,2.87,0,0,1,.293,0c.763-.524,2.05-.671,2.59.056,4.8,6.45,2.64,13.665.08,20.514a1.471,1.471,0,0,1-.855.8c5.246,9.836.812,21.9-.219,32.281,8.449,4.057,23.618,3.143,31.405-1.96C326.538,318.956,326.652,307.692,319.285,300.5ZM113.178,272.655c-.02.645,3.233.178,3.264-.854a.265.265,0,0,1,0-.03c.514-.351.736-.731.054-.838a19.762,19.762,0,0,1,9.182-14.748c7.54-4.96,11.991,1.769,12.355,8.56.006.1.082.176.2.228a8,8,0,0,0-.767,1.279c-.359.76,2.809.437,3.243-.48.462-.977,1.366-2.741,2.7-2.643a5.4,5.4,0,0,1,3.434,1.963c2.246,2.5,1.535,5.722-.4,8.052h-.327c-1.048,0-3.534,1.552-1.34,1.552h31.8c1.048,0,3.534-1.552,1.34-1.552H149.379c2.766-3.219,3.008-7.854-.928-10.477a7.025,7.025,0,0,0-7.282-.218c-.937-7.12-5.907-11.321-13.608-8.6-7.525,2.657-13.263,9.312-14.238,17.053H95.831c-1.029,0-3.539,1.524-1.349,1.524H113.2C113.191,272.5,113.181,272.578,113.178,272.655Zm439.329,40.563h-25.4c9.517-11.31-3.734-24.707-15.938-26.4-12.736-1.76-26.956,6.24-33.15,17.24-1.988-3.463-6.657-3.334-10.729-1.571-5.623,2.433-10.831,7.551-11.286,13.743H426.889c-.64,0-3.7,1.235-2.135,1.235H455.98c0,.126,0,.25,0,.375.03.49,3.316-.041,3.265-.854-.3-4.728,2.387-8.758,5.923-11.759,4.245-3.6,9.652-3.753,10.465,2.445.019.143.261.2.6.2-.011.032-.024.064-.036.1-.46,1.266,2.849.875,3.286-.324,4.144-11.4,16.872-19.131,29.07-18.88,11.383.233,24.762,14.11,15.355,24.327-.038.042-.062.079-.092.119h-.8c-1.092,0-3.52,1.618-1.323,1.618h29.483C552.277,314.836,554.706,313.218,552.508,313.218Z" transform="translate(0 0)" fill="#112743"/>
  </g>
</svg>
