<svg xmlns="http://www.w3.org/2000/svg" xmlns:xlink="http://www.w3.org/1999/xlink" width="533.483" height="355.556" viewBox="0 0 533.483 355.556">
  <defs>
    <linearGradient id="linear-gradient" x1="0.5" x2="0.5" y2="1" gradientUnits="objectBoundingBox">
      <stop offset="0" stop-color="#e89c7b"/>
      <stop offset="1" stop-color="#ac75a6"/>
    </linearGradient>
  </defs>
  <path id="blob" d="M582.494,473.6c3.1-3.994-88.573-.267-184.544-4.88C347.991,466.323,295.094,455.257,252,456.3c-81.032,1.967-209.087,39.854-164.874-109.98S195.74,201.953,267.862,156.548s165.86-54.964,234.41,0c47.848,38.365,103.566,141.977,109.056,226.116,2.369,36.31-13.584,68.208-28.834,90.941Z" transform="translate(-78.081 -118.825)" fill="url(#linear-gradient)"/>
  <g id="_269-Winter-Holidays" data-name="269-Winter-Holidays" transform="translate(-8.562 -73.058)">
    <path id="color_x5F_2" d="M128.341,266.775c-1.466-3.545-3.037-7.107-4.467-10.714C125.453,259.441,127.1,263.22,128.341,266.775Zm-33.794,5.471c2.379,5.66,5.973,11,10.885,13.858a1.187,1.187,0,0,1,.9.379c.064.078.142.143.208.218a16.245,16.245,0,0,0,11.665.915c.663-.179,1.342-.4,2.02-.654-.039-.334.171-.71.779-1.018,5.594-2.83.005-15.307-1.544-19.182-2.224-5.562-5.261-10.911-7.15-16.589-.427-1.281,2.508-2.082,2.94-.775,2.469,7.421,6.64,14.206,9,21.7,1.114,3.534,2.7,8.667,1.472,12.5a8.252,8.252,0,0,0,2.447-4.678c.533-3.673-.91-6.818-2.265-10.142-3.035-7.438-6.7-14.951-8.523-22.793-.144-.617.571-1.114,1.333-1.292,9.564-8.049,20.344-14.811,32.3-17.961,6.465-2.408,10.46-2.271,12.48-1.854.728-.025,1.454-.058,2.189-.054a1.826,1.826,0,0,1,.628.009l.021,0c.025.007.053.014.074.022a.2.2,0,0,1,.069.037.306.306,0,0,1,.135.135c3.031,6.861,7.1,14.842,9.661,22.888,3.045-10.49-5.351-21.662-10.666-30.5-.1-.163.014-.351.242-.526.056-4.752-5.59-11.449-8.947-14.659-4.1-3.923-8.395-7.327-14.088-8.64a37.8,37.8,0,0,0-7.263-.925c-1.989.029-4.032.109-5.93.209a65.471,65.471,0,0,0-14.8,3.383q-2.1.721-4.193,1.53c-3.262,1.441-6.947,3.175-10.568,5.1a40.3,40.3,0,0,0-4.174,2.95c-5.335,4.33-9.54,9.159-10.8,16.078a49.051,49.051,0,0,0-.17,15.327A136.9,136.9,0,0,0,94.547,272.246Zm27.358,16.531s.326-.324.875-.924A26.614,26.614,0,0,1,119.7,289Zm-9.571,130.539q-3.876.891-7.791,1.479A24.275,24.275,0,0,0,112.334,419.316Zm36.653-15.231c3.012-1.708,6.82-3.457,9.768-5.691-.021-.086-.059-.158-.076-.248-.122-.588.879-1.078,1.75-1.183.139-.136.3-.263.427-.4a3.326,3.326,0,0,1,1.506-.509c-.406-7.37-5.669-13.568-9.653-19.494-4.491-6.681-8.512-13.569-14.278-19.259-11.376,4.124-22.752,8.64-32.846,15.329-1.048.693-3.54.036-1.882-1.063a119.175,119.175,0,0,1,18.742-9.9c-.586-7.226-3.533-13.893-5.4-20.841-.27-1,2.674-1.773,2.94-.775,1.822,6.8,4.675,13.336,5.345,20.385,2.824-1.164,5.676-2.267,8.536-3.329a.52.52,0,0,1-.137-.118,8.554,8.554,0,0,1-1.668-3.076c-.867-1.942-1.064-4.045,1.142-5.217.1-.051.2-.1.324-.166,4.084-4.6,14.528-7.192,18.922-8.12,4.813-1.017,10.486-1.576,15.295.063.242-.219.488-.438.736-.659-3.463-6.714-4.911-14.272-9.191-20.551l-1.6.6,1.373,2.909c-.7,2.156-2.674,4.425-7.465,5.668-9.281,2.41-18.619-2.89-21.207-4.531a2.386,2.386,0,0,1-1.881.222,26.167,26.167,0,0,0-5.186-2.459,118.958,118.958,0,0,0-12.084-1.81c-1.629-.17-3.212-.362-4.739-.569-10.025-.35-20.092-.395-27.879-7.791C66.313,317.869,65.6,333.549,65.7,345.665c.108,13.311-1.131,27.3,1,40.568.465-.039.826,0,.83.141a41.522,41.522,0,0,0,8.259,24.139c2.205,2.965,4.558,6.226,8.043,7.811a27.071,27.071,0,0,0,9.249,2.266l.229.019a36.858,36.858,0,0,0,5.791-.085,117.022,117.022,0,0,0,34.668-9.068A147.407,147.407,0,0,0,148.987,404.085ZM183.655,393.5a15.451,15.451,0,0,1-10.543,8.065c-3.94.813-11.477,2.1-13.834-1.892-3.087,2-6.67,3.7-9.538,5.235A168.054,168.054,0,0,1,132.2,413.04c-3.494,1.383-7.087,2.654-10.736,3.79,14-1.6,43.84-2.5,66.005-2.967-.007-.02-.021-.035-.021-.057C186.749,406.943,185.037,400.249,183.655,393.5Zm-14.03-49.063.028-.416c-.137-.092-.276-.179-.414-.267A5.608,5.608,0,0,1,169.625,344.434ZM166.335,315.5c-.139.363-.952.609-1.684.7l-.764,1.324-1.748.657c4.038,6.021,5.5,13.134,8.664,19.6,6.93-5.9,15.644-11.932,24.5-12.019a15.35,15.35,0,0,1,2.836.2,35.15,35.15,0,0,0-3.805-6.564c-.9-1.2,1.911-2.323,2.695-1.271a40.291,40.291,0,0,1,4.862,8.912.754.754,0,0,1-.191.845,5,5,0,0,1,.9,2.9,4.347,4.347,0,0,1-.337,1.74,23.689,23.689,0,0,1,15.237.728c-1.1-19.375-15.108-37.717-33.591-44.419l-2.546.184c-3.048,3.967-6.969,7.038-9.241,11.646C169.771,305.45,168.211,310.536,166.335,315.5ZM155.66,341.264c-.586.075-1.169.162-1.751.27-3.095.577-9.633,1.988-14.193,4.474A125.661,125.661,0,0,1,155.66,341.264Zm14.174.087.037-.539-.4.36c.067.033.139.06.207.094S169.782,341.324,169.833,341.351ZM213.552,373.8c1.687,8.528,5.669,16.426,5.941,25.231.034,1.067-2.916,1.624-2.94.775-.265-8.561-4.04-16.264-5.8-24.522-7.912,3.925-17.009,6.4-24.511,8.9a28.057,28.057,0,0,1-.551,3.737c1.418,8.4,3.837,16.62,4.7,25.106.032.317-.347.6-.843.79,11.376-.232,20.413-.349,23.721-.387,2.711-8.467,9.873-16.413,17.163-21.4.535-.367,3.491-.723,2.263.118-.721.494-1.439,1.025-2.149,1.576a18.046,18.046,0,0,1,4.481-1.449c-6.532-6.9-12.181-15.146-13.208-24.576A38.915,38.915,0,0,1,213.552,373.8Zm205-102.627-.029-.007a.96.96,0,0,1,0,.17c-.005.034-.013.069-.018.1l8.574-.031a33.173,33.173,0,0,0-7-.712A1.739,1.739,0,0,1,418.549,271.176Zm101.523,4.387a15.329,15.329,0,0,0-1.057-4.9c.207.662.4,1.329.561,2A22.985,22.985,0,0,1,520.072,275.564Zm-99.059-17.447c.864-.011,2.194-.411,2.221-1.054,0-.054.014-.1.017-.157.91-.44.788-1.1.236-1.486,1-3.787,4.872-6.166,9.546-7.7a197.184,197.184,0,0,1,20.228-3.156c11.684-.975,24-.969,35.478,1.337,14.193,2.849,27.887,18.672,28.662,32.746a18.237,18.237,0,0,1-2.594,9.974q-1.094,1.758-2.188,3.4a103.076,103.076,0,0,1-6.832,8.068c-5.177,5.774-9.811,11.774-11.027,19.584-.136.875,2.793.337,2.917-.457a23.928,23.928,0,0,1,1.677-5.724c3.81,4.042-.352,8.727-4.73,11.5-1.675,1.064.877,1.5,1.835.891.04-.025.081-.055.122-.079a11.026,11.026,0,0,1,.2,7.353l-.618,1.008c-.1.006-.216.016-.353.036-21.178,3.187-29.139-19.041-36.458-34.219-.133-.273-.271-.548-.4-.823l-.63-1.93-.965-1.271c-3.34-6.546-7.181-12.9-12.567-18.008-6.656-6.315-15.379-8.742-24.431-8.466a1.266,1.266,0,0,0-.79-.431C412.094,267.469,416.634,261.065,421.013,258.117Zm3.849.565c20.239.5,37.532,20.255,42.134,38.484.148.589,3.1-.162,2.941-.776-4.737-18.762-22.476-38.329-43.153-38.835C426.2,257.539,423.435,258.647,424.862,258.682ZM492.5,336.1h1.972a7.138,7.138,0,0,0,.927-.788c-.04.008-.08.02-.12.024a34.921,34.921,0,0,1-4.26.381C491.939,335.965,492.5,336.1,492.5,336.1Zm-76-65.536c-.3-.117-.581-.249-.858-.388.193.209.383.4.555.561A2.087,2.087,0,0,1,416.5,270.565ZM405.568,419.675q2.2-1.249,4.3-2.672C408.274,418.008,406.76,418.944,405.568,419.675ZM508.25,393.77l-.189-.541c-.078-.085-.161-.166-.24-.252C507.967,393.242,508.107,393.506,508.25,393.77Zm10.189,30.036a198.93,198.93,0,0,0-16.922-35.993c-.106-.177.026-.379.279-.563a17.438,17.438,0,0,0-5-4.668c-3.9-1.9-8.553-2.8-13.943-4.154-6.156-1.545-9.123-5.4-11.549-11.618-13.143,8.441-27.814,14.435-38.7,25.959a.9.9,0,0,1-.2.149,4.615,4.615,0,0,1,1.507,2.582c.392,2.793-1.895,4.557-4.211,5.847,8.637,7.709,17.7,14.975,25.348,23.684.145.164-2.369,1.431-2.941.775-7.524-8.572-16.455-15.726-24.964-23.306a1.544,1.544,0,0,1-.984-.267c-5.161,9.936-16.166,18.457-26.963,21.94l-1.244.958a5.819,5.819,0,0,1,1.921,1.413.989.989,0,0,1,.328.872H519.909l-1.146-3.31A.5.5,0,0,1,518.439,423.806Zm-87.487-26.673a1.6,1.6,0,0,0,.086-.546C431.011,396.769,430.982,396.952,430.952,397.133Z" transform="translate(0 0.044)" fill="#fff"/>
    <path id="color_x5F_1" d="M139.251,249.407a47.871,47.871,0,0,1,2.5,5c.313.634-2.487,1.613-2.9.776a47.871,47.871,0,0,0-2.5-5C136.021,249.666,138.724,248.589,139.251,249.407Zm19.916-10.071a47.871,47.871,0,0,1,2.5,5c.411.837,3.209-.142,2.9-.776a47.871,47.871,0,0,0-2.5-5C161.537,237.741,158.833,238.818,159.167,239.336ZM137.052,241.9c.5-.1,1.458-.291,1.686-.84.219-.527-.988-.4-1.184-.368a11.082,11.082,0,0,0-8.185,6.34c-.271.57,2.5.31,2.868-.473C133.168,244.592,134.764,242.341,137.052,241.9Zm17.393-8.2a3,3,0,0,0,1.931-.725,3.234,3.234,0,0,1,3.248-.58,3.049,3.049,0,0,0,2.034-.339c.26-.134.99-.7.323-.872-2.759-.712-6.228-.186-8.252,1.92C153.257,233.6,154.136,233.719,154.445,233.7Zm94.492-2.521c0,.009.006.018.008.027-.34.135-.6.309-.654.509a26.726,26.726,0,0,0-.938,3.38c-.158,1.232.788,2.157,1.667,2.853.6.477,2.406-.2,2.795-.749a4.776,4.776,0,0,0,1.044-3.306,21.632,21.632,0,0,0-1.024-3.491C251.662,229.767,248.765,230.544,248.937,231.183ZM287.2,236c0,.009.006.018.008.027-.341.135-.6.309-.654.509a26.726,26.726,0,0,0-.938,3.38c-.159,1.232.788,2.157,1.667,2.853.6.478,2.406-.2,2.794-.749a4.77,4.77,0,0,0,1.044-3.306,21.635,21.635,0,0,0-1.024-3.491C289.924,234.586,287.027,235.363,287.2,236ZM227.938,392.069c-7.181,4.991-14.233,12.938-16.9,21.407-.024.078-.055.155-.079.233-.191.627,2.631.255,2.861-.5,2.279-7.464,7.981-14.535,14.232-19.449.7-.551,1.407-1.082,2.117-1.576C231.376,391.346,228.466,391.7,227.938,392.069Zm191.5-133.375c19.934.5,36.966,20.259,41.5,38.491.146.589,3.051-.162,2.9-.776-4.666-18.766-22.137-38.336-42.5-38.842C420.755,257.551,418.033,258.659,419.438,258.694Zm113.086,118.6c-.354,9.083-5.533,19.034-15.121,21.165-6.593,1.465-12.015-.855-16.02-5.191-.078-.085-.16-.166-.237-.252.143.264.279.529.422.792A190.038,190.038,0,0,1,514.5,423.074c.24.711-1.757,1.415-2.578,1.078a.516.516,0,0,1-.319-.3,200.384,200.384,0,0,0-16.667-36c-.1-.177.026-.379.275-.563a17.282,17.282,0,0,0-4.924-4.669c-3.837-1.9-8.424-2.8-13.733-4.155-6.063-1.545-8.985-5.4-11.375-11.62-12.945,8.443-27.394,14.438-38.117,25.964a.89.89,0,0,1-.2.149,4.632,4.632,0,0,1,1.484,2.582c.386,2.794-1.866,4.558-4.147,5.848,8.507,7.71,17.436,14.977,24.965,23.688.143.163-2.333,1.431-2.9.775-7.41-8.574-16.207-15.729-24.587-23.31a1.5,1.5,0,0,1-.969-.267c-5.083,9.938-15.922,18.46-26.556,21.944-.816.267-1.632.513-2.442.719-4.2,1.067-8.947,1.485-12.56-1.42-3.993-3.213-6.613-7.866-9.3-12.2-7.8-2.661-11.652-10.138-7.071-17.132a2.526,2.526,0,0,1-1.881.281c-8.555-4.607-17.7-11.375-21.64-20.587-3.583-8.375-2.036-18.833,5.555-24.653,6.069-4.654,15.052-7.323,22.685-5.624,8.765,1.951,12.591,8.874,18.375,14.8,1.058-5.479,4.417-11.091,10.412-10.244a8.694,8.694,0,0,1,7.189,5.482c1.484-1.126,2.963-2.633,2.524-4.22a4.651,4.651,0,0,0-2.86-2.739,1.106,1.106,0,0,1-.916-.369l-.149-.056a29.54,29.54,0,0,0-13.882-1.29c-2,.306-1.032-1.452.379-1.668a33.573,33.573,0,0,1,12.963.542c-1-3.52-2.745-7.441-6.493-8.2-3.2-.651-6.462.773-9.373,1.935-1.436.573-3.1-.8-1.239-1.545,3.594-1.433,7.651-3.112,11.6-2.365a7.026,7.026,0,0,0-2.615-3.841c-.083.024-.165.053-.249.076-.232.064-1.448.388-1.563-.042-.071-.266.365-.492.765-.64a12.156,12.156,0,0,0-6.119-.772c-.9.461-1.763.871-2.551,1.228-1.26.569-2.592-.479-1.893-1.312a2.129,2.129,0,0,1,1.445-1.021c.228-.043.458-.082.688-.122,3.561-1.723,8.743-4.73,8.951-8.608.293-5.421-11.059-1.605-13.318-.523-9.994,4.785-12.062,15.337-17.132,24.224-.64,1.122-3.589,1.079-2.775-.348,2.733-4.791,4.494-10.455,7.338-15.3a.978.978,0,0,1-.063-.139c-4.492-14.975-15.781-33.131-31.069-39.033-.079.3-.151.6-.252.908-2.387,7.258-8.28,12.359-14.646,16.2-9.982,6.016-19.933,7.179-31.266,6.939-9.252-.193-38.457-1.793-42.414-13.734a45.529,45.529,0,0,0-23.518,42.282.609.609,0,0,1-.021.191,21.72,21.72,0,0,1,1.371,19.021,24.5,24.5,0,0,1-2.928,5.25c.257,11.54,7.571,21.8,15.641,29.52,8.322,7.959,18.171,14.938,29.076,18.854.838.3-1.748,1.335-2.385,1.105a82.409,82.409,0,0,1-29.423-18.979q-1.338-1.322-2.642-2.721c-6.433-6.9-12-15.149-13.009-24.581a38.4,38.4,0,0,1-8.137,6.1c1.662,8.53,5.583,16.429,5.851,25.236.033,1.067-2.872,1.624-2.9.775-.261-8.563-3.979-16.267-5.712-24.527-7.793,3.926-16.752,6.4-24.142,8.9a28.469,28.469,0,0,1-.543,3.738c1.4,8.4,3.779,16.623,4.627,25.111.032.317-.342.6-.83.79-.8.315-1.9.4-2.045.043-.007-.02-.021-.035-.021-.057-.687-6.868-2.372-13.562-3.733-20.315a15.252,15.252,0,0,1-10.384,8.066c-3.881.813-11.3,2.1-13.625-1.892-3.04,2.005-6.569,3.7-9.394,5.236a164.353,164.353,0,0,1-17.277,8.137c-3.441,1.383-6.98,2.655-10.574,3.791-2.963.937-5.964,1.778-8.991,2.484q-3.817.891-7.673,1.479c-1.771.272-3.543.51-5.316.673-8.721.8-17.708.1-23.559-7.143A45.792,45.792,0,0,1,65.4,394.446a.858.858,0,0,1-.125-.272c-2.638-9.877-2.578-20.038-2.429-30.186.106-7.248-.23-14.5-.067-21.742.275-12.284,2.291-26.058,14.069-32.4-10.716-12.427,3.727-27.455,15.688-31.421a1.9,1.9,0,0,1,1-.1c-3.427-5.949-5.414-13.094-7.269-19.183-3.415-11.209-7.044-25.139-4.388-36.915,3.935-17.433,23.542-26.392,39.565-29.917,8.689-1.912,18.6-2.749,26.862,1.278a34.788,34.788,0,0,1,12.718,10.658c2.563,3.63,6.312,7.741,6.231,12.4a.691.691,0,0,1-.085.3c6.1,10.248,15.389,23,8.487,34.74,1.78,7.19,2.044,14.3-1.005,20.574a.967.967,0,0,1,.259,0c7.705,1.433,9.572,7.912,6.445,14.052,20.743,6.272,36.493,26.726,36.816,48.426a16.01,16.01,0,0,1,1.563,1.041c.384.293.745.607,1.1.932.575-17.3,10.693-32.41,26.091-40.5a12.765,12.765,0,0,1,1.855-7.813c-4.566-3.494-1.927-9.864,1.432-14.025a37.261,37.261,0,0,1-3.832-4.3.729.729,0,0,1-.125-.26,59.46,59.46,0,0,1-20.685,7.318c-.879.118-1.719-.56-1.056-1.385,5.508-6.858,11.172-13.589,16.781-20.364-.521.077-.966.039-1.029-.2A62.594,62.594,0,0,1,237.945,238c-.812.52-2.227.613-2.344-.153-1.439-9.376-4.552-21.539-.223-30.624,4.276-8.973,14.572-12.587,23.452-15.25,1.75-.525,2.171,1.118.438,1.638-8.747,2.624-19.686,6.492-22.1,16.481-1.916,7.9-.375,16.421.927,24.419A49.784,49.784,0,0,1,248.268,207.7a29.638,29.638,0,0,0-4.281,2.327c-1.083.71-3.521-.066-1.875-1.146a33.763,33.763,0,0,1,8.439-3.985c.388-.445.782-.886,1.188-1.324.462-.5,3.207-.87,2.619-.235-.223.24-.435.483-.65.725,12.938-2.792,27.174,1.5,38.631,7.914,13.986,7.832,28.294,19.923,34.76,35.166.631-.819,2.774-1.028,2.743.175a31.348,31.348,0,0,1-.694,5.694c.005.019.012.038.017.057a.765.765,0,0,1-.183.707,37.491,37.491,0,0,1-6.535,13.639,1.86,1.86,0,0,1,.811-.126c14.843,2.148,16.369-12.711,13.01-23.443-.335-1.072,2.553-1.878,2.9-.776a40.8,40.8,0,0,1,1.2,4.8c1.324-3.38,3.012-6.655,2.492-10.328-1.078-7.626-5.576-14.211-10.306-20.114-7.891-9.847-17.837-19.827-29.623-24.853a86.679,86.679,0,0,0-29.245-6.963,53.65,53.65,0,0,0-11.152.439,2.855,2.855,0,0,1-1.032.182c-5.37,1.054-10.259,3.47-13.1,8.572-.444.8-3.346,1.143-2.69-.032,3.142-5.639,8.911-8.542,15.032-9.874,18.612-16.158,44.771-23.763,68.264-13.7,20.6,8.825,35.04,30.734,27.005,53.012,6.794,5.388,4.6,17.791-5.428,17a8.786,8.786,0,0,1-4.871-1.924,13.069,13.069,0,0,1-1.062,4.323c-1.461,3.361-2.972,6.347-2.813,10.123.02.438-.44.789-1,1a16.914,16.914,0,0,1-3.6,9.813,12.814,12.814,0,0,1-8.055,4.426c4.322,4.351,7.666,10,7.105,16.109a1.173,1.173,0,0,1,.264.057c15.686,5.45,27.365,22.917,32.565,38.369.258-.328.521-.65.8-.964a26.654,26.654,0,0,1,10.4-7.131c-5.285-6.7-4.119-12.273-.2-17.377,1.2-2.37,3.249-5.184,8.235-8.021,7.834-6.461,16.976-12.709,18.257-20.348.08-.479.979-.851,1.753-.932-1.2-1.3-1.631-3.064-.574-5.331a16.9,16.9,0,0,1,7.489-7.616c2.372-8.1,16.577-10.367,23.234-11.393a143.085,143.085,0,0,1,41.756-.486c13.9,2.016,27.669,13,31.9,26.766.2.662.4,1.329.553,2a22.951,22.951,0,0,1,.488,2.9c1.537,14.737-12.774,23.3-19.243,35.482,2.614,1.928,4.223,4.389,2.95,7.725a12.848,12.848,0,0,1-4.309,5.247c1.557,4.028,1.563,8.1-1.028,11.113a1.306,1.306,0,0,1,1.468.361C503.36,352.7,533.483,352.724,532.524,377.293Zm-178.5-151.275a2.213,2.213,0,0,1-.866.271c-3.663.15-7.267,4.176-6.928,7.915.306,3.374,4.328,6.789,7.843,5.19C359.18,237.071,357.388,229.507,354.023,226.018Zm-9.871,4.254c2.43-8.294,1.509-17.167,1.45-25.756-.007-1,2.894-1.5,2.9-.776.053,7.648.779,15.545-.728,23.058a11.768,11.768,0,0,1,4.777-1.977c-.7-.435.021-1.042.875-1.336,7.1-20.711-6.436-42.635-26.127-50.441-21.817-8.648-44.754-3.329-62.492,11.192,1.1-.123,2.191-.205,3.269-.25a85.945,85.945,0,0,1,32.7,5.459c12.828,4.694,23.661,13.81,32.33,24.245C337.1,218.5,341.81,224.159,344.152,230.272ZM173.92,273.667a25.187,25.187,0,0,1-6.729,7.434,58.615,58.615,0,0,1-8.17,5.1c.528.107.787.385.2.858-5.086,4.113-6.629,12.106-6.387,18.347a.858.858,0,0,1-.326.658c2.085,3.421,3.98,7,5.984,10.389a1.3,1.3,0,0,1,1.223.38c.339.452.657.912.964,1.377,3.977,6.023,5.414,13.136,8.533,19.6,6.825-5.9,15.408-11.935,24.134-12.022a14.9,14.9,0,0,1,2.793.2,35.325,35.325,0,0,0-3.748-6.565c-.882-1.2,1.882-2.322,2.654-1.271a40.494,40.494,0,0,1,4.789,8.914.762.762,0,0,1-.188.845,5.049,5.049,0,0,1,.886,2.9,4.415,4.415,0,0,1-.332,1.741,22.99,22.99,0,0,1,15.007.727c-1.08-19.379-14.88-37.724-33.084-44.427-.626-.23-1.256-.449-1.893-.652-.047.066-.083.134-.129.2-.156.219-.325.423-.486.636-3,3.968-6.864,7.039-9.1,11.648-2.317,4.776-3.854,9.864-5.7,14.831-.137.363-.938.609-1.659.7-.67.087-1.27.043-1.192-.165,1.833-4.929,3.231-10.17,5.7-14.831,2.256-4.253,5.421-6.966,8.345-10.636C180.743,284.658,182.165,276.08,173.92,273.667Zm2.668,84.612c-1.657-4.749-3.435-10.165-7.459-13.452-.342-.279-.692-.535-1.049-.78-.135-.092-.272-.179-.408-.267-3.958-2.542-8.709-3.092-13.375-2.487-.577.075-1.151.162-1.725.27-3.048.577-9.488,1.988-13.979,4.475-4.156,2.3-6.642,5.525-3.192,9.873a.426.426,0,0,1,.093.234l.826-.307c.4-.614,2.166-1.155,2.744-.61,6.622,6.25,10.967,14.181,16,21.667,3.854,5.733,8.709,11.968,8.77,19.18.008.94-2.009,1.481-2.679,1.105-.272.251-.557.5-.85.74,1.878,5.757,13.937,2.378,16.86-1.23a20.081,20.081,0,0,0,4.03-11.749C181.676,375.931,179.541,366.741,176.588,358.279Zm-62.027-68.314c3.086.217,6.263-.005,8.62-.019a70.912,70.912,0,0,1,9.757.134,13.707,13.707,0,0,1-5.022-4.012.658.658,0,0,1-.277-.342c-.011-.015-.022-.027-.033-.042s-.011-.048,0-.079a.716.716,0,0,1-.016-.163,15.557,15.557,0,0,1,.207-1.853,12.576,12.576,0,0,1-3.6,3.1,24.087,24.087,0,0,1-2.283,1.185,26.477,26.477,0,0,1-7.354,2.094ZM155.7,259.321a1.634,1.634,0,0,1,1.657,0,1.6,1.6,0,0,1,.459-.056c4.767.2,1.607-5.05.146-7.225a36.437,36.437,0,0,0-5.235-6.368c-1.011-.945,1.727-2.13,2.657-1.261,3.057,2.855,6.417,6.912,7.606,10.987,0,.015.006.028.01.043,3.331-.563,6.295-2.319,9.592-3.058.145-.225.275-.451.406-.677-2.354-8.961-7-17.213-10.7-25.664-16.5-.078-30.7,8.8-42.76,19.319a78.245,78.245,0,0,0,3.454,10.708c1.409,3.608,2.956,7.17,4.4,10.716.167.41.339.821.5,1.231a23.245,23.245,0,0,1,2.029,9.814C135.091,269.041,147.663,263.662,155.7,259.321Zm17.88-5.057c-.041.017-.08.035-.123.049.192,1.327.534,3.789.818,6.4A38.687,38.687,0,0,0,173.576,254.264Zm-2.891.742.438-.085.1-.073C171.042,254.9,170.862,254.949,170.685,255.006Zm-15.854,13.03a6.071,6.071,0,0,1-2.465.439c1.621,1.775,4.147,5.463,6.013,3.584a16.938,16.938,0,0,0,3.744-6.789A22.979,22.979,0,0,1,154.831,268.036Zm7.035-7.74c-.005-.066,0-.135,0-.2a5.643,5.643,0,0,1-2.1.96C160.947,261.134,161.923,261,161.866,260.3Zm-24.274,31.118c5.342,2.307,9.2,6.249,12.415,10.816.356-4.827,1.756-9.911,4.772-13.586a27.423,27.423,0,0,1-9.659,2.507A24.957,24.957,0,0,1,137.592,291.414ZM99.548,202.906a39.81,39.81,0,0,0-4.112,2.951c-5.253,4.331-9.395,9.161-10.637,16.081a49.811,49.811,0,0,0-.167,15.33,138.472,138.472,0,0,0,9.478,34.993c2.343,5.661,5.883,11,10.721,13.861a1.161,1.161,0,0,1,.887.379c.063.078.14.143.205.218a15.777,15.777,0,0,0,11.489.915c.653-.179,1.322-.4,1.99-.654-.038-.334.168-.71.767-1.018,5.51-2.831,0-15.31-1.521-19.186-2.19-5.563-5.182-10.913-7.042-16.592-.421-1.281,2.47-2.082,2.9-.775,2.432,7.422,6.54,14.209,8.865,21.705,1.1,3.535,2.662,8.669,1.45,12.506a8.3,8.3,0,0,0,2.41-4.679c.525-3.674-.9-6.819-2.231-10.144-2.989-7.439-6.6-14.954-8.394-22.8-.142-.617.562-1.114,1.313-1.292,9.42-8.05,20.037-14.814,31.816-17.964a54.732,54.732,0,0,1,12.292-1.854c.717-.025,1.432-.058,2.156-.054a1.772,1.772,0,0,1,.619.009l.021.005c.025.007.052.014.073.022a.2.2,0,0,1,.068.037.3.3,0,0,1,.133.135c2.985,6.862,7,14.845,9.515,22.892,3-10.492-5.27-21.666-10.505-30.5-.1-.163.014-.351.238-.526.055-4.753-5.506-11.451-8.812-14.662-4.039-3.924-8.268-7.328-13.875-8.642a36.7,36.7,0,0,0-7.153-.925,44.029,44.029,0,0,0-5.841.209,63.652,63.652,0,0,0-14.574,3.384q-2.068.722-4.13,1.53A61.713,61.713,0,0,0,99.548,202.906ZM158.994,397c.137-.136.291-.263.421-.4a3.244,3.244,0,0,1,1.483-.509c-.4-7.371-5.583-13.57-9.507-19.5-4.423-6.682-8.384-13.571-14.063-19.263-11.2,4.125-22.409,8.642-32.35,15.332-1.032.693-3.487.036-1.854-1.063a116.774,116.774,0,0,1,18.459-9.9c-.577-7.227-3.48-13.9-5.314-20.845-.266-1,2.634-1.773,2.9-.775,1.795,6.8,4.6,13.338,5.264,20.389,2.781-1.164,5.59-2.267,8.407-3.33a.514.514,0,0,1-.135-.118,8.619,8.619,0,0,1-1.644-3.077,5.62,5.62,0,0,1,1.445-5.383c4.022-4.6,14.309-7.193,18.636-8.122,4.74-1.017,10.328-1.576,15.064.063.238-.218.481-.438.725-.659-3.412-6.715-4.837-14.275-9.052-20.555-.175-.261-.346-.521-.53-.777a1.214,1.214,0,0,1-1.292-.413c-6.346-10.632-12.195-25.51-26.592-26.041-7.11-.262-19.968,2.186-25.725-3.579-.148-.071-.3-.131-.448-.207a23.9,23.9,0,0,1-9.34-9.224,1.6,1.6,0,0,1-1.045.788c-8.333,2.764-16.046,9.749-16.653,19.02-.479,7.339,4.4,11.827,10.362,15.212,13.464,7.639,29.979.311,43.26,8.716.581.367.178.84-.461,1.153a2.318,2.318,0,0,1-1.853.222,25.6,25.6,0,0,0-5.108-2.459c-5.22-1.863-10.887-2.177-16.57-2.377-9.874-.351-19.789-.4-27.458-7.792C66.3,317.89,65.6,333.573,65.7,345.691c.106,13.313-1.114,27.3.984,40.576.458-.039.814,0,.817.141a41.949,41.949,0,0,0,8.134,24.144c2.172,2.966,4.489,6.227,7.922,7.812a26.33,26.33,0,0,0,9.109,2.266c.076.006.15.014.226.019a35.749,35.749,0,0,0,5.7-.085,113.854,113.854,0,0,0,34.145-9.07,142.541,142.541,0,0,0,14.984-7.366c2.967-1.708,6.717-3.458,9.621-5.692-.021-.086-.058-.158-.076-.248C157.15,397.6,158.138,397.105,158.994,397Zm63.455-52.95c-3.1-7.588-14.875-13.876-22.809-9.41a2.027,2.027,0,0,1-.891.217c-1.818,2.075-4.6,3.81-6.243,5.021-.547.4-3.454.727-2.241-.167,2.4-1.773,6.435-4.064,7.146-7.2,1.038-4.575-3.2-6.058-7.069-5.238-7.723,1.638-14.664,6.929-20.559,12.217a1.608,1.608,0,0,1-1.009.913c-.162.146-.32.294-.479.44l-.392.36c.066.033.137.06.2.094s.1.058.151.084c6.058,3.161,8.784,9.12,10.948,15.321,2.558,7.33,5.535,16.932,5.3,25.708,7.693-2.571,16.492-4.989,23.948-9.084a2.208,2.208,0,0,1,.938-.529,34.586,34.586,0,0,0,9.237-7.464c.222-.261.43-.534.639-.807v-.008c0-.177.142-.332.354-.465C223.65,358.45,225.1,350.542,222.449,344.05Zm38.323-86.529a1.976,1.976,0,0,1,1.8-.215c5.827-5.544-3.048-16.811-10.391-11.743a1.454,1.454,0,0,1-.358.154.817.817,0,0,1-.232.8C243.966,256,236.051,265.246,228.4,274.7,240.352,272.334,251.344,264.846,260.772,257.521Zm65.457-3.815c-4.489-16.308-18.718-29.789-32.816-38.227-12-7.183-27.854-13.217-41.7-9.042-10.768,13.531-13.152,30.14-8.795,47q3.156-3.826,6.27-7.69a1.607,1.607,0,0,1,.922-.5c4.632-3.093,11.275-3.479,15.072,1.224,3.7,4.583,2.514,9.834-2.605,12.586a2.078,2.078,0,0,1-.552.174q-1.459,1.123-2.959,2.236c1.053.22,2.125.436,3.208.636v-1.129c0-.961,2.9-1.583,2.9-.358v1.964a40,40,0,0,0,6.077.441,19.277,19.277,0,0,0-.975-2.505c-.551-1.156,2.31-2.012,2.9-.776a19.079,19.079,0,0,1,1.138,3.075,21.692,21.692,0,0,0,2.579-.484,29.156,29.156,0,0,0,6.764-2.719,16.272,16.272,0,0,1-1.927-2.861c-.672-1.3,2.108-2.313,2.662-1.243a16.072,16.072,0,0,0,1.74,2.638,60.331,60.331,0,0,0,5.324-3.923c1.028-.838,3.4-.1,1.875,1.146a64.068,64.068,0,0,1-5.83,4.282,15.554,15.554,0,0,0,2.018,1.674c1.324.9-1.259,2.287-2.251,1.609a17.949,17.949,0,0,1-2.215-1.823,28.657,28.657,0,0,1-9.23,3.313c-.365.059-.729.088-1.094.134a27.188,27.188,0,0,1,.464,4.785c.017,1.253-2.911,1.728-2.932.239a23.748,23.748,0,0,0-.53-4.774,44.3,44.3,0,0,1-6.555-.257v.065c0,.961-2.9,1.583-2.9.358v-.81c-1.846-.287-3.685-.636-5.52-1.02-2.658,1.893-5.411,3.708-8.248,5.384a.921.921,0,0,1,.55.322C268.605,294.584,319.646,285.978,326.229,253.706Zm.161,16.381a.573.573,0,0,1-.047-.833,27.808,27.808,0,0,1-4.83-.29,1.561,1.561,0,0,1-.228-.051c-6.518,7.971-15.994,13.793-25.723,15.506-15.264,2.688-31.985,1.462-43.775-8.625-2.493,3.718-4.132,8.755-.28,11.549a.682.682,0,0,1,.3.227,8.361,8.361,0,0,0,1.084.585c.871.393-.728,1.213-1.756,1.326-8.437,17.589,27.739,19.7,37.83,19.979,9.326.252,17.867-.009,26.418-4.2,6.839-3.349,14.614-8.451,17.131-16.1C334.949,281.745,331.636,275.309,326.39,270.087Zm101.095-22.359c-4.6,1.536-8.421,3.915-9.4,7.7.544.383.664,1.046-.232,1.486,0,.053-.015.1-.017.157-.024.643-1.336,1.043-2.187,1.054-4.313,2.95-8.784,9.354-1.432,10.939a1.232,1.232,0,0,1,.779.431c8.913-.276,17.506,2.152,24.062,8.468,5.3,5.11,9.087,11.463,12.377,18.011.533,1.064,1.059,2.13,1.57,3.2.132.274.268.548.4.823,7.209,15.18,15.05,37.413,35.908,34.225.135-.021.245-.029.348-.036.043,0,.087-.007.126-.008a6.526,6.526,0,0,0,.483-1,11.19,11.19,0,0,0-.193-7.354c-.04.024-.081.054-.12.079-.941.606-3.457.175-1.807-.891,4.313-2.779,8.411-7.464,4.659-11.507a24.015,24.015,0,0,0-1.652,5.725c-.122.794-3.007,1.331-2.873.456,1.2-7.811,5.764-13.812,10.861-19.587a102.952,102.952,0,0,0,6.729-8.069,33.6,33.6,0,0,0,2.155-3.4,18.457,18.457,0,0,0,2.555-9.976c-.765-14.077-14.252-29.9-28.229-32.752-11.312-2.306-23.437-2.312-34.943-1.337-.568.048-1.138.1-1.7.149C441.718,245.093,433.85,245.6,427.485,247.728Zm58.569,88.4H488a7.059,7.059,0,0,0,.913-.788c-.039.008-.079.02-.118.024a33.883,33.883,0,0,1-4.2.381C485.5,335.992,486.054,336.128,486.054,336.128ZM409.3,270.145l1.362.744a1.85,1.85,0,0,1,.235-.136,2.048,2.048,0,0,1,.3-.173c-.293-.117-.572-.249-.845-.388a8.41,8.41,0,0,1-.94-.553C409.38,269.809,409.346,269.978,409.3,270.145Zm-7.026,48.468c3.014,14.844,17.5,18.221,30.605,19.79,1.956.233.434,2.292-1,2.12a76.307,76.307,0,0,1-16.037-3.336c-1.791,5.687-1.531,12.2-.545,18.11,7.434-8.563,16.894-15.8,27.447-18.724a8.37,8.37,0,0,1-.919-2.05c-3.44-11.8,3.616-22.618,8.444-32.854a1.027,1.027,0,0,1,.423-.406c-6.539-13.463-14.519-26.679-29.083-29.835a32.192,32.192,0,0,0-6.9-.712,1.7,1.7,0,0,1-1.5.477l-.028-.007a.974.974,0,0,1,0,.17c-.005.034-.013.069-.018.1-1.361,9.426-6.171,18.561-9.113,27.887-.432,1.526-.844,3.011-1.219,4.373A34.178,34.178,0,0,0,402.278,318.613Zm-1.966,6.624a3.71,3.71,0,0,1,.745-.251c-.066-.151-.129-.307-.192-.46Zm3.791,30.146c1.583,5.51.577,12.882.416,17.636,2.895-.74,6.182-.291,7.721,2.616,1.344,2.538,1.463,5.354,2.548,7.966,1.046,2.518,2.768,3.66,5.03,4.98,1.338.781,3.682,1.823,5.579,3.161,11.274-11.542,26.041-17.527,39.2-26.472-.743-2.115-1.454-4.463-2.216-7.068-.9-3.088-1.44-5.458-1.858-7.318a11.732,11.732,0,0,0-1.965-2.681c-3.373-3.377-7.255-5.068-11.261-7.47a15.477,15.477,0,0,1-3.395-2.65,1.962,1.962,0,0,1-.613.285c-10.725,2.953-20.291,10.91-27.5,19.919a1.123,1.123,0,0,1-.509.649,80.922,80.922,0,0,0-5.526,7.979c-.6.993-3.548,1.079-2.747-.244a83.125,83.125,0,0,1,5.809-8.365c-1.42-7.083-1.91-15.185.55-22.081-5.034-2.156-9.377-5.374-11.87-10.309-1.029.663-2.087,1.3-3.172,1.87l-1.3,1.676a8.764,8.764,0,0,1,2.145,4.276c.07.325-.165.62-.528.841,3.688,2,5.333,6.369,6.308,10.467.233.106.48.194.706.31,1.622.827,3.715,2.308,3.279,4.438C408.427,352.261,406.152,354.008,404.1,355.383Zm-40.672,37.892a16.125,16.125,0,0,1,1.056-1.255c4.1-4.384,11.112-5.548,16.621-7.093,4.6-1.291,9.021-2.732,12.973-5.5,2.481-1.734,4.956-3.592,7.53-5.189.133-5.524,1.832-12.831-.366-18.208-.261-.125-.383-.318-.25-.566-.128-.27-.255-.54-.4-.8A11.748,11.748,0,0,0,396.2,350c-2.828-1.366-4.921.921-6.042,3.324a17.811,17.811,0,0,0-1.66,9.748c.093.8-2.829,1.378-2.9.775a16.622,16.622,0,0,1-.048-3,1.428,1.428,0,0,1-1.185-.167c-4.817-4.568-8.452-11.946-14.915-14.44-9.243-3.567-21.691-.427-26.6,8.618-8.863,16.317,7.07,31.07,20.366,38.231A.659.659,0,0,1,363.431,393.275Zm62.09,3.35a1.908,1.908,0,0,0-.461-1.132,12.709,12.709,0,0,0-3.421-2.822c-2.438-1.492-5.417-2.715-7.481-4.729-2.309-2.253-2.611-5.2-3.472-8.176-1.182-4.083-4.148-6.319-8.248-3.441-1.479,1.038-2.868,2.212-4.364,3.223a45.29,45.29,0,0,1-10.666,5.683c-5,1.707-10.358,2.588-15.235,4.638-4.523,1.9-9.85,6.134-8.52,11.816a10.111,10.111,0,0,0,6.651,7.26c.641-.183,1.308-.217,1.529.131.1.149.192.3.288.453.249.063.5.125.755.18,1.211.261,1.086,1.184.461,1.75,5.1,8.159,10.354,16.463,21.534,11.163,1.877-.891,3.741-1.854,5.563-2.9q2.169-1.25,4.234-2.672c6.148-4.229,11.408-9.625,14.281-16.678.318-.781,3.112-1.082,2.867-.479-.054.133-.123.262-.179.394,1.3-.654,3.367-1.755,3.8-3.109A1.7,1.7,0,0,0,425.521,396.625Zm93.916-.824q-.786.34-1.55.619A11.476,11.476,0,0,0,519.437,395.8ZM418.278,293.682c-2.208,3.717-11.727,13.574-5.067,17.073.7.368,3.386-.709,2.347-1.255-5.671-2.98,3.711-13.083,5.6-16.26C421.49,292.677,418.747,292.892,418.278,293.682Zm7.18,21.25c.9-.555,2.854-.137,2.317.65a.535.535,0,0,1,.062.38c-.731,4.38-3.894,8.268-8.563,8.534-4.42.253-6.217-3.431-6.343-7.229-.339-.117-.68-.244-1.019-.381-1.267-.509,1.1-1.807,2.156-1.549.819-.23,1.775-.117,1.766.605A11.377,11.377,0,0,0,425.458,314.932Zm-.737,2.362a15.581,15.581,0,0,1-8.766.785c.338,2.352,1.427,5,4.039,4.673C422.654,322.417,424.105,319.725,424.721,317.294Zm5.7-15.942a3.434,3.434,0,0,0,1.941-.682c.237-.233.482-.458.739-.67.019.015.028.021.049.04.785.686.956,2.193,1.121,3.142.1.561,3.018-.091,2.9-.775-.229-1.32-.544-3.423-2.139-3.746-1.948-.4-3.979.978-5.284,2.257C429.281,301.371,430.151,301.377,430.417,301.352Zm-20.608-9.115a2.452,2.452,0,0,0,1.918-.772c.339-.518.635-1.063.972-1.582.08.035.159.072.237.11v3.189c0,.821,2.9.3,2.9-.776v-3.333a.461.461,0,0,0-.289-.286,4.617,4.617,0,0,0-4.351-.1c-1.063.527-1.542,1.834-2.151,2.767C408.674,292.021,409.354,292.236,409.809,292.237Zm4.829-10.269c2.031-1.424,3.685-.338,5.074,1.417.685.863,3.47-.183,2.679-1.182-2.518-3.177-6.3-3.553-9.594-1.249C411.185,282.085,413.641,282.666,414.638,281.968Zm16.929,9.809c3.053-.453,5.446.462,6.7,3.406.516,1.21,3.383.362,2.9-.776-1.68-3.939-5.222-5.2-9.3-4.594-.608.09-1.5.393-1.611,1.114C430.15,291.613,431.052,291.854,431.567,291.777Zm-38.633,133.4a2.56,2.56,0,0,0-.73-.163,1.842,1.842,0,0,0-1.88.913.976.976,0,0,0,.909,1.316.67.67,0,0,0,.1,0l.093.041c-.1-.039.279.207.249.184a8.788,8.788,0,0,1,.934.866c.517.516,1.6.237,2.085-.15a1.135,1.135,0,0,0,.453-.722,1,1,0,0,0-.323-.872A5.807,5.807,0,0,0,392.934,425.175Z" fill="#112743"/>
  </g>
</svg>
