<?xml version="1.0" standalone="no"?>
<svg version="1.1" id="Layer_1" xmlns="http://www.w3.org/2000/svg" xmlns:xlink="http://www.w3.org/1999/xlink" x="0px" y="0px" width="595.279px" height="595.281px" viewBox="0 0 595.279 595.281" enable-background="new 0 0 595.279 595.281" xml:space="preserve">
<path id="color_x5F_2" fill="#FBC02D" d="M313.003,171.977l-0.282-0.174c0.434-0.123,0.807-0.307,0.939-0.548
	c3.349-6.08,10.8-7.13,17.355-5.589l5.113,1.816c0.941,0.461,1.823,0.974,2.616,1.53c3.222,2.258,6.108,5.772,7.679,9.617
	c-7.55-5.052-16.522-7.958-25.65-7.805c-0.177-0.046-0.396-0.063-0.673-0.03C317.7,171.066,315.332,171.466,313.003,171.977z
	 M402.474,295c-0.401,0.227-0.795,0.465-1.186,0.715c0.566-0.28,1.105-0.521,1.614-0.729
	C402.761,294.992,402.616,294.996,402.474,295z M373.81,311.503c-3.188,5.397-4.938,11.143-7.501,16.804
	c-3.483,7.693-7.72,15.113-16.648,16.537c-9.369,1.492-19.503,0.363-28.686-1.756c-4.64-1.069-10.908-2.363-15.339-5.38
	c0.901,3.158,1.542,6.396,1.747,9.771c0.075,1.231,0.142,2.495,0.177,3.771c0.211-0.05,0.394-0.073,0.518-0.059
	c3.965,0.497,7.285,2.88,10.723,4.735c2.407,1.298,6.186,3.657,9.137,2.671l2.382-1.462c0.76-0.609,1.482-1.276,2.205-1.898
	c2.569-2.218,8.344-7.675,12.355-5.532c7.719,4.122,0.418,14.694-4.106,17.899c-8.732,6.185-19.672,3.79-28.225,10.113
	c-0.4,0.296-1.928,0.52-2.492,0.445c0.962,4.406,0.268,8.954,1.21,13.33c2.874,1.801,5.99,3.261,8.966,4.542
	c5.73,2.469,11.65,4.865,17.59,6.792c8.434,2.735,18.248,1.804,26.765,4.279c2.753-10.797,6.109-21.424,9.188-32.132
	c0.036-0.125,0.147-0.239,0.302-0.341c-0.299-0.102-0.592-0.201-0.885-0.302c-1.113,0.594-3.018-0.175-1.634-1.357
	c-0.583,0.498,0.142-1.479,0.249-2.068c0.305-1.688,0.573-3.381,0.825-5.078c0.656-4.411,1.258-8.833,1.872-13.25
	c1.075-7.717,1.735-15.793,3.875-23.31c0.037-0.131,0.111-0.25,0.205-0.36c3.571-12.063,9.915-26.941,20.557-33.91
	c-4.077-0.142-8.01-0.788-11.524-1.958C382.648,298.877,377.711,304.896,373.81,311.503z M307.583,352.718
	c0.004,0.61-0.003,1.224-0.018,1.837l4.315,0.045C310.48,353.82,309.056,353.15,307.583,352.718z"></path>
<path id="color_x5F_1" d="M296.097,240.275c-0.447-1.188,2.433-2.013,2.897-0.776c1.033,2.749,1.949,5.537,2.699,8.376
	c0.367,1.388,0.723,2.777,1.052,4.174c0.336,1.426-0.734,1.749,0.743,1.526c1.977-0.297,1.242,1.754-0.294,1.985
	c-0.884,0.133-1.382,0.193-2.249-0.066c-0.254-0.076-0.535-0.26-0.599-0.538C299.191,249.978,297.897,245.064,296.097,240.275z
	 M317.03,257.877c-0.427,0.104-1.411,0.528-1.249,1.136c0.167,0.622,1.222,0.462,1.649,0.358c3.809-0.915,7.018-3.491,6.656-7.704
	c-0.084-0.985-2.994-0.354-2.896,0.776C321.435,255.297,319.722,257.231,317.03,257.877z M294.506,234.895
	c0.417-0.481,0.294-1.206-0.371-1.383c-3.386-0.901-7.157-0.333-8.791,3.126c-0.703,1.486,2.227,1.459,2.767,0.315
	c0.886-1.875,2.491-2.004,4.345-1.511C293.168,235.633,294.006,235.47,294.506,234.895z M312.005,228.7
	c-0.702,1.487,2.228,1.459,2.768,0.316c0.886-1.875,2.492-2.004,4.345-1.511c0.711,0.188,1.549,0.025,2.049-0.55
	c0.417-0.479,0.294-1.206-0.371-1.383C317.409,224.672,313.639,225.241,312.005,228.7z M307.391,220.193
	c2.126-2.995,5.238-4.479,8.901-4.246c1.057,0.067,3.103-1.45,1.146-1.574c-4.935-0.314-9.843,1.727-12.735,5.799
	C303.96,221.217,306.868,220.927,307.391,220.193z M289.696,226.23c1.388,0.204,2.968-1.762,1.019-2.049
	c-2.891-0.426-5.722,0.145-7.897,2.166c-0.504,0.468-0.223,1.161,0.363,1.356c0.734,0.245,1.509-0.047,2.049-0.549
	C286.456,226.016,288.135,226,289.696,226.23z M417.396,292.277c13.834,1.017,14.034,20.923,13.637,31.553
	c-0.595,15.945-3.783,31.489-6.674,47.122c0.367,0.252,0.471,0.656-0.02,1.165c-1.911,1.985-4.089,3.529-6.454,4.712
	c0.113,0.102,0.163,0.24,0.109,0.427c-5.063,17.476-8.467,35.662-16.013,52.316c-4.651,10.266-11.895,25.944-25.59,25.454
	c-7.361-0.264-15.108-4.601-21.67-7.646c-7.818-3.629-15.459-7.648-22.812-12.153c-5.153-3.158-10.176-6.501-15.086-9.999
	c-5.428,3.622-15.469,6.124-19.348-0.349c-1.844-3.076-2.703-6.567-4.167-9.818c-0.881-1.958-1.908-4.162-3.588-5.595
	c-3.033-2.583-6.462-1.875-10.144-1.548c-16.412,1.46-34.962,1.484-40.561-16.827c-19.018,2.701-40.299,2.192-53.755-13.821
	c-11.149-13.269-22.433-39.396-7.875-54.069c0.061-0.061,0.132-0.115,0.21-0.164c10.691-12.012,26.827-5.907,34.79,6.663
	c1.986,3.136,3.568,6.992,3.765,10.737c0.286,5.466-1.17,11.009-0.351,16.453c0.86,5.709,3.474,9.837,8.68,12.389
	c1.775,0.871,10.657,5.236,12.035,2.567c0-0.01-0.003-0.017-0.002-0.025c0.082-0.948,0.2-1.887,0.318-2.826
	c-0.312-0.001-0.551-0.074-0.624-0.254c-4.818-12.061,5.149-24.855-2.348-35.737c-0.275-0.01-0.51-0.076-0.645-0.226
	c-6.23-6.886-13.217-14.67-15.398-23.988c-1.216-5.193-0.94-10.202-0.261-15.447c0.528-4.082,1.722-13.696,6.127-16.677
	c-3.549-6.95-8.45-19.448-1.745-25.893c5.034-4.838,12.469,4.453,16.451,7.043c5.09-4.434,11.928-8.133,18.916-9.977
	c-0.16-0.081-0.251-0.21-0.225-0.396c0.704-5.115,4.372-16.131,11.145-15.629c3.388,0.25,5.184,3.979,6.321,6.763
	c1.298,3.18,2.638,6.862,2.413,10.355c4.287,1.946,8.263,4.982,11.358,8.648c-6.009-10.271-9.154-22.358-10.985-34.013
	c-4.981,0.522-13.112-1.595-13.403-12.466c-0.327-12.197,15.068-14.147,15.068-14.147l0.384-0.18
	c0.891-1.881,1.907-3.667,3.027-5.313c7.3-10.722,18.344-16.805,30.591-19.486c2.329-0.511,4.697-0.911,7.098-1.183
	c0.276-0.031,0.496-0.015,0.673,0.031c9.128-0.155,18.101,2.752,25.649,7.804c-1.568-3.844-4.457-7.358-7.678-9.617
	c-0.793-0.556-1.675-1.067-2.616-1.529c-1.566-0.77-3.305-1.392-5.113-1.816c-6.556-1.541-14.008-0.492-17.355,5.588
	c-0.133,0.242-0.506,0.425-0.94,0.548c-0.909,0.259-2.092,0.25-1.923-0.056c2.693-4.89,8.781-7.288,14.75-7.836
	c-0.001-0.143-0.002-0.304-0.002-0.487c-0.844,0.318-1.993,0.372-2.016-0.035c-0.95-17.19,21.249-23.15,34.797-23.144
	c2.912,0.001,5.701,0.438,8.351,1.218c3.598,0.854,6.608,2.418,9.155,4.421c11.234,7.819,18.046,22.528,17.088,36.105
	c-0.711,10.072-3.969,20.3-3.101,30.433c1.059,12.351,9.437,18.448,20.328,22.764c8.82,3.495,18.193,6.695,22.933,15.647
	c4.821,9.106,6.938,20.375,1.016,29.456C430.481,285.836,424.375,289.85,417.396,292.277z M309.937,318.079
	c-3.007,1.487-6.904,2.509-10.911,2.859c1.694,3.835,3.424,7.643,4.874,11.527c0.317,0.042,0.599,0.175,0.769,0.43
	c3.925,5.877,14.385,7.642,20.736,8.777c7.936,1.419,16.942,2.73,24.93,0.952c10.163-2.262,12.971-14.784,16.459-23.123
	c4.264-10.188,11.322-19.008,18.431-27.369c-0.582-0.249-1.154-0.509-1.705-0.79c-10.128-5.177-16.317-16.016-15.886-27.472
	c0.235-6.225,3.706-11.856,3.556-18.069c-0.125-5.131-2.328-9.288-5.136-13.333c-2.18,7.931-6.678,14.888-11.292,21.796
	c0.906,3.016,1.827,6.025,2.854,9.004c3.454,10.013,6.543,23.027,19.273,23.825c0.688,0.043,0.557,0.334,0.132,0.642
	c0.685-0.081,1.282-0.019,1.162,0.201c-5.156,9.389-16.356,16.328-25.84,20.532c-9.419,4.179-21.16,6.063-29.478-0.855
	C319.577,312.145,314.548,315.797,309.937,318.079z M304.707,367.25c1.672,3.367,4.117,6.333,5.127,10.011
	c0.06,0.213,0.106,0.428,0.156,0.642c6.24-4.59,12.488-5.596,20.003-6.612c5.687-0.768,12.952-5.566,14.59-11.437
	c1.289-4.62-0.691-11.854-6.366-7.396c-4.047,3.181-7.192,6.876-12.544,7.492c-5.069,0.583-9.335-2.868-13.792-5.348
	c-1.401-0.781-2.826-1.451-4.299-1.883c0.004,0.611-0.003,1.225-0.018,1.838C307.456,358.985,306.778,363.422,304.707,367.25z
	 M399.14,294.998c-4.077-0.142-8.01-0.789-11.524-1.958c-4.968,5.839-9.904,11.857-13.807,18.465
	c-3.188,5.397-4.938,11.143-7.501,16.804c-3.483,7.693-7.72,15.113-16.648,16.537c-9.369,1.492-19.503,0.363-28.686-1.756
	c-4.64-1.069-10.908-2.363-15.339-5.38c0.901,3.158,1.542,6.396,1.747,9.771c0.075,1.231,0.142,2.495,0.177,3.771
	c0.211-0.05,0.394-0.073,0.518-0.059c3.965,0.497,7.285,2.88,10.723,4.735c2.407,1.298,6.186,3.657,9.137,2.671
	c0.214-0.071,0.424-0.157,0.628-0.266c0.621-0.329,1.195-0.75,1.754-1.196c0.76-0.609,1.482-1.276,2.205-1.898
	c2.569-2.218,8.344-7.675,12.355-5.532c7.719,4.122,0.418,14.694-4.106,17.899c-8.732,6.185-19.672,3.79-28.225,10.113
	c-0.4,0.296-1.928,0.52-2.492,0.445c0.962,4.406,0.268,8.954,1.21,13.33c2.874,1.801,5.99,3.261,8.966,4.542
	c5.73,2.469,11.65,4.865,17.59,6.792c8.434,2.735,18.248,1.804,26.765,4.279c2.753-10.797,6.109-21.424,9.188-32.132
	c0.036-0.125,0.147-0.239,0.302-0.341c-0.299-0.102-0.592-0.201-0.885-0.302c-1.113,0.594-3.018-0.175-1.634-1.357
	c-0.583,0.498,0.142-1.479,0.249-2.068c0.305-1.688,0.573-3.381,0.825-5.078c0.656-4.411,1.258-8.833,1.872-13.25
	c1.075-7.717,1.735-15.793,3.875-23.31c0.037-0.131,0.111-0.25,0.205-0.36C382.154,316.844,388.499,301.964,399.14,294.998z
	 M292.278,258.214c3.366,5.418,7.294,10.207,13.296,12.825c3.296,1.438,6.722,2.327,10.215,2.942
	c6.778-0.218,16.226-1.292,20.593-6.287c0.587-0.67,3.491-0.898,2.688,0.021c-3.762,4.302-10.218,6.285-16.538,7.185
	c0.304,0.047,0.786,0.184,0.802,0.532c0.185,3.84,1.649,7.167,1.169,11.061c-0.061,0.492-0.638,0.859-1.264,1.014
	c-0.786,0.604-1.609,1.129-2.462,1.591c2.452-0.057,4.46,1.296,5.351,5.315c0.874,3.945,0.017,7.666-1.848,10.999
	c8.565,8.52,20.874,5.846,30.581,0.608c7.525-4.062,16.174-9.836,20.428-17.538c-0.083,0.013-0.16,0.021-0.222,0.017
	c-11.786-0.738-15.399-10.579-18.857-20.208c-1.515-4.218-2.841-8.491-4.146-12.771c-0.495-0.103-0.778-0.387-0.439-0.895
	c0.038-0.057,0.077-0.113,0.114-0.171c-1.247-4.096-2.488-8.191-3.868-12.248c-0.136-0.397,0.494-0.804,1.203-1.01l-0.063-0.206
	c-2.408,0.788-5.016,0.992-7.518,0.395c-1.906-0.454-0.524-2.583,0.972-2.226c4.489,1.072,9.755-0.344,11.932-4.81
	c1.577-3.235,1.968-7.299-0.499-10.226c-2.046-2.428-5.192-3.906-8.118-3.881c-2.252,0.307-4.009,1.288-5.341,2.451
	c-0.525,0.64-0.977,1.403-1.314,2.324c-0.188,0.51-0.751,0.804-1.33,0.879c-0.594,1.001-0.866,1.735-0.866,1.735
	s-3.291-0.688-8.387-6.432c-5.471-5.403-10.083-12.812-12.133-19.87c-2.888,5.116-8.347,9.137-13.014,12.058
	c-7.125,4.459-14.882,8.028-23.055,10.067C282.317,235.643,285.705,247.634,292.278,258.214z M292.159,263.356
	c1.107,2.2,1.896,4.509,2.273,6.863c1.576,9.839-3.291,18.779-10.769,24.76c2.967-0.021,4.883,0.068,7.258,2.226
	c0.852,0.774,1.695,1.335,2.532,1.752c-0.071-0.063-0.063-0.153,0.066-0.276c7.763-7.452,20.196-4.814,28.069-11.86
	c0.001-0.014-0.002-0.024,0-0.038c0.104-0.834-0.051-9.987-1.675-10.176c-2.308-0.27-4.638-0.567-6.933-1.011
	c-0.054,0.001-0.111,0.003-0.165,0.003c-0.434,0.006-0.66-0.07-0.753-0.188c-0.724-0.154-1.443-0.317-2.155-0.512
	c-5.808-1.582-11.543-4.205-15.567-8.841C293.58,265.182,292.858,264.277,292.159,263.356z M296.165,298.545
	c-0.399,0.384-2.018,0.639-2.569,0.479c4.835,2.308,9.451-0.783,14.248-3.686c1.605-0.972,3.634-2.376,5.76-3.607
	C307.38,293.333,300.813,294.084,296.165,298.545z M266.54,246.453c0.006,0.049,0.001,0.095,0,0.143
	c0.439,0.001,0.879-0.004,1.313,0.019c2.077,0.104,4.17,0.522,6.225,1.195c-0.179-3.229-1.372-7.529-3.208-10.678
	C267.925,239.396,266.029,242.595,266.54,246.453z M259.841,247.257c1.256-0.247,2.51-0.432,3.753-0.543
	c-0.419-4.735,2.09-8.688,5.941-11.365c0.025-0.018,0.053-0.029,0.079-0.044c-0.475-0.578-0.975-1.081-1.503-1.463
	c-3.731-2.702-7.767,10.399-8.148,13.17C259.951,247.098,259.904,247.179,259.841,247.257z M221.754,285.61
	c1.542-2.017,3.005-4.153,4.746-6.011c-0.24-0.083-0.379-0.241-0.329-0.491c0.435-2.174-1.551-0.903-2.137,0.146
	c-0.474,0.851-0.891,1.73-1.209,2.651C222.403,283.123,222.058,284.361,221.754,285.61z M237.845,362.716
	c1.291-6.742,3.066-13.364,4.068-20.191c0.625-4.257,0.907-8.699-0.285-12.895c-1.375-4.839-4.341-8.541-6.522-12.978
	c-4.277-8.704-2.169-15.828,1.929-24.138c0.746-1.514,1.619-3.134,1.998-4.794c0.847-3.706-3.301-2.006-4.559-0.038
	c-2.206,3.448-3.369,7.476-3.867,11.519c-0.119,0.969-3.036,1.511-2.896,0.369c0.518-4.207,2.286-10.969,6.137-14.253
	c-0.315-0.085-0.46-0.276-0.233-0.609c0.068-0.101,1.771-3.147,1.099-3.104c-0.977,0.063-2.167,1.625-2.669,2.324
	c-2.236,3.113-3.401,6.754-4.919,10.235c-0.387,0.89-3.242,1.211-2.888,0.399c1.925-4.417,3.414-10.104,7.563-13.006
	c-0.739,0.13-1.456,0.014-1.381-0.515c0.114-0.795,0.273-1.663,0.117-2.464c-0.015-0.076-0.03-0.172-0.05-0.269
	c-0.716,0.585-1.341,1.324-1.925,2.002c-1.642,1.903-3.077,3.958-4.633,5.929c-0.36,0.457-1.8,0.736-2.461,0.576
	c-0.029,0.14-0.071,0.275-0.099,0.417c-0.75,3.802-1.238,7.659-1.463,11.529c-0.725,12.479,6.647,22.39,14.544,31.276
	c0.319-0.029,0.585,0.008,0.709,0.146C244.091,340.125,236.673,351.475,237.845,362.716z M315.236,424.083
	c-7.879-5.698-15.448-11.817-22.73-18.292c-0.231,0.027-0.435,0.016-0.578-0.059c-9.426-4.825-20.771-4.588-29.229-11.483
	c-5.904-4.813-13.244-12.063-12.965-20.293c0.002-0.063,0.028-0.124,0.063-0.182c-2.025-3.486-3.229-7.245-2.773-11.25
	c0.045-0.395,0.467-0.711,0.976-0.896c0.046-1.24,0.534-2.369,1.652-3.307c0.078-0.064,0.191-0.125,0.325-0.178
	c-0.44-1.56-0.007-3.026,2.204-4.063c3.763-1.764,7.273,1.786,9.696,4.218c5.813,5.833,11.676,12.415,20.741,12.314
	c0.1-0.001,0.188,0.007,0.275,0.016c-0.917-6.192-8.7-12.217-6.452-18.663c0.86-2.467,3.777-3.454,6.093-2.143
	c5.445,3.083,9.572,9.665,12.891,14.776c3.898,6.003,6.379,12.277,7.651,19.284c1.332,2.031,3.021,3.781,4.93,5.311
	c-0.253-4.228,0.278-8.588-1.567-12.449c-2.08-4.351-5.148-8.009-6.091-12.834c-0.243-1.242,2.663-1.978,2.896-0.775
	c0.055,0.284,0.124,0.561,0.196,0.835c1.956-6.041,1.523-13.337,0.691-19.271c-1.146-8.177-4.733-15.573-8.036-23.054
	c-0.085-0.192,0.037-0.395,0.27-0.577c-4.661,0.046-9.241-0.883-12.527-3.151c-1.251-0.864,1.384-2.133,2.275-1.517
	c7.129,4.923,19.204,2.927,26.042-1.771c4.01-2.755,8.186-6.306,10.17-10.877c1.128-2.601,2.356-15.013-3.223-12.631
	c-7.156,3.053-13.519,9.603-21.383,10.851c-3.333,0.529-6.229-1.001-8.846-3.022c-0.563-0.436-1.132-1.585-1.764-1.85
	c-1.628-0.682-4.161-0.326-5.962-0.28c-0.487,0.323-0.977,0.643-1.479,0.941c-8.369,4.983-20.813,9.153-30.242,4.808
	c-0.219-0.101,1.986-1.303,2.738-0.956c8.733,4.024,19.589,1.077,27.758-5.259c0.036-0.475,0.859-1.155,1.608-1.322
	c7.917-6.892,12.721-17.041,9.319-26.719c-2.597-7.388-8.704-14.927-16.192-18.438c-0.212-0.03-0.384-0.099-0.482-0.215
	c-1.419-0.627-2.879-1.126-4.379-1.434c-1.391-0.286-2.81-0.429-4.24-0.462c-0.545,0.228-1.186,0.261-1.573,0.01
	c-8.887,0.325-18.06,5.02-24.248,10.905c-0.146,0.139-0.497,0.267-0.899,0.364c-0.562,0.491-1.748,0.849-2.315,0.529
	c-2.392-1.343-4.359-3.194-6.457-4.939c-0.293-0.244-0.623-0.531-0.974-0.829c0.008,0.072,0.004,0.15-0.017,0.238
	c-0.852,3.568-1.721,8.46-0.065,11.905c0.167,0.349,1.992,2.821,2.385,2.113c0.451-0.812,0.712-1.679,0.927-2.58
	c0.36-1.508,0.679-3.016,1.263-4.458c0.43-1.063,3.336-1.24,2.742,0.226c-1.223,3.021-1.958,11.583-7.537,8.366
	c-4.963-2.862-3.752-10.616-2.636-15.296c0.181-0.757,1.493-1.188,2.303-1.043c-0.991-0.799-2.104-1.568-3.156-1.782
	c-2.425-0.493-3.314,3.881-3.443,5.446c-0.54,6.539,1.741,13.065,4.674,18.838c0.803-0.009,1.675,0.149,2.632,0.529
	c0.209,0.083,0.328,0.244,0.283,0.471c-0.023,0.115-0.046,0.231-0.07,0.349c0.984-0.594,2.15-1.012,3.162-0.592
	c1.445,0.599,0.937,2.938,0.771,4.103c-0.002,0.019-0.013,0.035-0.018,0.053c1.163-0.53,3.02-1.081,4.002-0.235
	c0.923,0.793,0.35,2.13-0.292,3.183c0.938-0.241,1.958-0.308,3.07-0.145c2.955,0.433,2.165,3.422,1.299,5.505
	c-1.892,4.551-4.836,8.804-5.639,13.74c-1.232,7.581,2.166,12.437,5.707,18.781c2.528,4.53,4.069,9.4,3.919,14.635
	c-0.339,11.859-4.874,23.287-5.926,35.127c-0.003,0.033-0.007,0.066-0.01,0.101c-0.002,0.022-0.005,0.046-0.007,0.069
	c-0.017,0.194-0.154,0.373-0.355,0.523c-2.536,3.561-9.33,1.669-12.563,0.473c-9.352-3.463-13.84-9.047-13.758-19.358
	c0.04-4.994,1.331-10.174-0.015-15.089c-1.214-4.438-3.432-8.614-6.591-11.986c-7.439-7.939-18.132-11.712-26.044-2.786
	c0.083,0.2,0.018,0.455-0.289,0.765c-13.72,13.83-2.688,40.853,8.805,52.793c8.456,8.786,20.801,13.935,32.981,13.716
	c5.672-0.103,11.352-0.59,16.979-1.36c0.227-0.958,2.639-1.498,2.892-0.479c0.006,0.023,0.013,0.045,0.02,0.068
	c0.063-0.01,0.126-0.017,0.189-0.025c1.693-0.266,1.413,1.244,0.318,1.831c5.828,18.535,24.924,16.632,41.186,15.331
	c6.587-0.527,10.503,2.343,13.043,8.417c1.179,2.82,1.897,7.086,3.947,9.416C304.18,428.268,310.726,427.484,315.236,424.083z
	 M414.965,378.073c-11.75,4.223-27.059,0.987-38.591-2.688c-3.038,10.507-6.316,20.944-9.01,31.55
	c-0.077,0.301-0.582,0.548-1.146,0.693c2.879,1.018,5.583,2.492,8,4.724c0.997,0.921-1.739,2.101-2.66,1.251
	c-6.251-5.771-15.192-5.839-23.187-6.638c-6.255-0.625-11.687-2.091-17.561-4.248c-6.182-2.271-13.599-4.643-19.92-8.274
	c-0.777,0.317-1.814,0.289-2.043-0.396c-0.117-0.349-0.22-0.7-0.309-1.054c-2.958-1.959-5.568-4.266-7.564-7.057
	c-0.336-0.031-0.588-0.15-0.627-0.39c-0.041-0.246-0.095-0.486-0.139-0.731c-0.041-0.065-0.09-0.124-0.13-0.19
	c-0.165-0.271-0.158-0.53-0.05-0.764c-2.219-11.041-7.933-20.006-15.202-28.625c-1.25-1.482-2.791-3.323-4.624-4.1
	c-1.926-0.816-0.579,5.552-0.239,6.283c2.075,4.476,5.532,7.929,5.894,13.054c0.047,0.66-1.165,1.133-2.036,1.161
	c-0.119,0.508-0.678,1.016-1.483,1.023c-10.794,0.119-16.748-7.275-23.945-13.902c-0.891-0.82-1.882-1.774-2.952-2.393
	c-1.623-0.938-3.482,0.127-2.248,2.002c1.034,1.571,2.278,2.948,3.629,4.254c4.108,3.969,7.205,8.896,11.708,12.448
	c1.288,1.016-1.274,2.399-2.244,1.634c-3.373-2.66-5.814-5.982-8.627-9.188c-1.724-1.966-3.747-3.658-5.434-5.651
	c-0.462-0.545-0.898-1.115-1.273-1.689c-1.454,4.906,8.873,14.388,10.853,17.486c0.581,0.909-2.24,1.814-2.703,1.089
	c-1.423-2.229-5.774-6.399-8.592-10.6c2.194,7.351,9.362,13.736,14.375,18.74c0.852,0.851-1.897,1.958-2.68,1.177
	c-2.608-2.604-5.717-5.54-8.449-8.775c2.457,6.348,8.486,11.998,13.607,15.432c7.456,4.999,16.631,5.534,24.77,8.895
	c0.666-0.262,1.496-0.352,1.872-0.014c7.675,6.893,15.724,13.437,24.119,19.5c0.334,0.071,0.573,0.209,0.582,0.421
	c15.77,11.324,32.775,20.918,50.96,27.736c5.354,2.008,10.195,3.099,15.289-0.482c3.09-2.174,5.506-4.86,7.441-8.091
	c4.301-7.181,7.854-14.761,10.619-22.664C407.826,406.281,410.938,392.046,414.965,378.073z M413.655,293.405
	c-3.507,0.905-7.149,1.436-10.752,1.581c-0.143,0.006-0.287,0.01-0.43,0.015c-0.401,0.227-0.795,0.466-1.186,0.716
	c-11,7.071-17.277,23.536-20.534,35.418c-1.986,7.96-2.662,16.408-3.783,24.482c-0.64,4.602-1.229,9.216-2.022,13.794
	c-0.137,0.79-0.215,1.812-0.447,2.75c13.035,4.513,35.448,10.471,46.86-0.5c2.548-13.791,5.424-27.506,6.423-41.53
	c0.679-9.529,2.933-37.024-12.944-35.979C413.926,294.209,413.598,293.835,413.655,293.405z M273.516,262.195
	c0.127-0.904,0.422-1.997,1.283-2.48c0.787-0.444,1.731,0.26,2.317,0.729c1.037,0.835,3.547-0.641,2.225-1.705
	c-3.532-2.841-8.155-0.681-8.765,3.659C270.364,263.909,273.327,263.541,273.516,262.195z M252.086,274.709
	c0.127-0.903,0.422-1.995,1.283-2.479c0.787-0.444,1.731,0.26,2.317,0.729c1.037,0.835,3.547-0.641,2.225-1.704
	c-3.531-2.842-8.155-0.683-8.765,3.657C248.934,276.425,251.897,276.057,252.086,274.709z M265.119,286.833
	c2.898,0.715,5.247-0.277,6.627-2.971c1.05-2.048,1.4-4.21,1.169-6.497c-0.009-0.09,0.024-0.176,0.081-0.259
	c-0.066-0.08-0.093-0.164-0.08-0.25c-2.17,0.527-4.147-0.804-5.707-2.456c-0.013-0.014-0.016-0.029-0.025-0.044
	c-0.106-0.09-0.122-0.22,0.063-0.401c1.712-1.689,3.596-3.027,5.824-3.952c0.357-0.147,1.754-0.565,1.97,0.018
	c0.665,1.794,1.229,4.378-0.234,5.84c0.39-0.04,0.737,0.006,0.911,0.192c1.042,1.114,2.603,2.375,4.254,2.067
	c1.184-0.22,2.214-1.322,2.796-2.315c1.655-2.825,0.323-5.588-2.618-6.684c-1.083-0.402,1.559-1.581,2.336-1.291
	c1.901,0.708,3.842,2.136,3.93,4.358c0.073,1.852-0.717,3.523-1.991,4.842c-2.329,2.407-5.741,3.122-8.621,1.996
	c-0.638,6.352-6.377,10.604-13.059,8.957C261.874,287.771,264.426,286.663,265.119,286.833z M272.554,275.486
	c0.477-1.191,0.271-2.538-0.102-3.767c-0.831,0.542-1.597,1.178-2.316,1.871C270.827,274.317,271.624,275.117,272.554,275.486z
	 M167.008,327.615c-2.106,7.465-5.573,15.42-2.522,23.101c0.457,1.15,3.326,0.303,2.897-0.775c-2.986-7.521,0.48-15.324,2.54-22.624
	C170.263,326.112,167.321,326.507,167.008,327.615z M162.371,323.401c-1.963,3.74-4.281,7.255-4.78,11.545
	c-0.18,1.549,2.784,1.191,2.944-0.189c0.473-4.07,2.76-7.421,4.622-10.966C165.941,322.297,162.999,322.206,162.371,323.401z
	 M220.606,348.394c-1.414,4.212-0.904,8.552,1.024,12.521c0.622,1.28,3.486,0.436,2.897-0.775
	c-1.732-3.567-2.432-7.565-1.146-11.397C223.92,347.138,221.023,347.151,220.606,348.394z" fill="#0984E3"></path>
</svg>