<?xml version="1.0" standalone="no"?>
<svg version="1.1" id="Layer_1" xmlns="http://www.w3.org/2000/svg" xmlns:xlink="http://www.w3.org/1999/xlink" x="0px" y="0px" width="595.28px" height="595.28px" viewBox="0 0 595.28 595.28" enable-background="new 0 0 595.28 595.28" xml:space="preserve">
<path id="color_x5F_2" fill="#FBC02D" d="M378.899,252.601c-0.189-0.021-0.401-0.011-0.634,0.041
	c-10.812,2.398-21.829,4.898-32.882,5.788c-0.834,0.067-1.391,0.663-1.482,1.215c-0.052,0.081-0.088,0.165-0.09,0.255
	c-0.114,8.186-1.75,16.348-3.146,24.485c-4.153-7.548-7.115-15.817-7.898-23.796c-0.084-0.859-2.998-0.246-2.897,0.775
	c0.906,9.233,4.646,19.035,10.03,27.725c-1.311,8.6-1.969,17.17,0.1,25.705c-4.427-0.65-10.807,0.81-12.837,1.19
	c-0.121,0.022-0.242,0.048-0.363,0.071c-0.456-0.41-2.12-0.04-2.637,0.529c-3.27,0.686-6.546,1.478-9.829,2.33l-3.023,0.625
	l-6.074,1.836c-15.33,4.241-30.813,8.639-46.496,7.779c-5.074-0.278-11.438-1.471-15.096-5.398
	c-1.034-1.109,2.367-11.168,2.896-13.334c1.915-7.861,3.64-16.131,6.914-23.564c5.057-11.482,9.833-23.086,15.015-34.515
	c2.122-4.68,4.265-9.41,6.94-13.806c0.28-0.46-2.41-0.278-2.868,0.475c-1.258,2.066-2.425,4.195-3.535,6.359
	c-7.848-2.909-14.118-7.65-18.822-14.645c0.706-3.477,1.718-6.987,3.068-10.381c0.291-0.257,0.447-0.572,0.361-0.883
	c3-7.18,7.533-13.738,13.847-18.15c0.396-0.13,0.784-0.308,1.08-0.473c8.568,7.969,21.217,8.175,31.289,13.411
	c0.723,0.46,1.468,0.889,2.24,1.28c0.406,0.256,0.809,0.519,1.204,0.797c0.229,0.162,0.566,0.201,0.923,0.154
	c0.28,0.112,0.559,0.228,0.845,0.33c0.018,0.035,0.029,0.07,0.054,0.105c5.812,8.252,15.866,6.023,24.256,3.754
	c0.519-0.141,0.825-0.388,0.983-0.651c0.109-0.099,0.184-0.206,0.214-0.319c1.077-1.062,2.364-1.923,3.793-2.629l5.893-1.973
	c6.013-1.307,12.87-1.206,17.804-1.367c8.629-0.281,17.369-0.029,25.947,0.992c0.343,0.041,0.748,0.263,1.174,0.563
	C377.224,225.427,378.75,240.364,378.899,252.601z M337.484,316.096c-3.505-0.288-6.946,0.363-10.377,1.019
	c0.824,3.599,1.589,7.211,2.322,10.83c0.281-0.086,0.533-0.139,0.685-0.125c4.134,0.355,11.96-2.418,11.469-7.891
	c-0.279-0.732-0.529-1.466-0.763-2.199C340.12,316.765,338.976,316.218,337.484,316.096z"></path>
<path id="color_x5F_1" d="M307.519,161.177c-0.081,0.036,0.117,0.003,0.147-0.009c0.008,0.006,0.155,0.036,0.197,0.052
	c0.006,0.002,0.007,0.002,0.013,0.005c0.01,0.007,0.016,0.012,0.032,0.022c0.056,0.036,0.106,0.079,0.157,0.122
	c0.89,1.058,3.565-0.114,2.614-1.341c-1.398-1.806-3.977-1.091-5.592-0.066c-0.557,0.354-0.684,1.187-0.13,1.594
	c0.645,0.476,1.476,0.237,2.084-0.148C307.188,161.313,307.359,161.247,307.519,161.177z M307.664,161.16
	c0.02,0.005,0.05,0.011,0.098,0.018c-0.058-0.009-0.08-0.011-0.092-0.011c0.007-0.004-0.011-0.004-0.082,0.004
	C307.623,161.167,307.642,161.163,307.664,161.16z M334.877,163.837c0.506,0.26-0.74,0.848-0.847,0.887
	c-0.547,0.203-1.322,0.413-1.876,0.127c-0.72-0.37-1.313-1.016-2.027-1.353c-0.507-0.237-2.362,0.298-3.09,0.423
	c-0.178,0.029-1.402,0.171-1.177-0.346c0.231-0.533,1.195-0.743,1.688-0.828c1.397-0.239,3.538-0.943,4.956-0.414
	C333.365,162.653,334.053,163.411,334.877,163.837z M309.116,154.388c0.437-0.147,0.872-0.301,1.313-0.432
	c0.044-0.014,0.077-0.021,0.111-0.029c0.492,0.205,0.777,0.869,1.029,1.291c0.407,0.683,3.101-0.436,2.897-0.777
	c-0.491-0.822-0.889-1.572-1.924-1.656c-1.476-0.119-3.04,0.561-4.407,1.02c-0.105,0.036-1.305,0.521-0.877,0.775
	C307.743,154.868,308.645,154.546,309.116,154.388z M310.564,153.92C310.833,153.855,310.717,153.946,310.564,153.92L310.564,153.92
	z M323.49,155.696c5.167-1.822,9.304-1.867,13.766,1.623c0.472,0.369-2.081,1.507-2.727,1.002
	c-3.278-2.564-6.043-3.316-10.023-1.912C323.384,156.805,321.543,156.384,323.49,155.696z M317.294,160.712
	c-2.049,3.975-4.695,7.494-7.782,10.705c0.604,0.684,1.375,1.069,1.923,1.879c0.659,0.977-2.152,1.93-2.692,1.131
	c-0.622-0.92-1.565-1.264-2.196-2.197c-0.214-0.316-0.057-0.551,0.186-0.797c3.157-3.207,5.802-6.773,7.865-10.775
	C315.027,159.825,317.928,159.482,317.294,160.712z M322.651,183.354c0.403-0.574,1.258-0.775,1.914-0.786
	c1.71-0.03,3.576-0.423,4.863-1.616c0.502-0.465,1.385-0.68,2.049-0.549c0.611,0.121,0.71,0.6,0.27,1.008
	c-2.179,2.02-5.425,2.729-8.314,2.778C322.979,184.197,322.261,183.911,322.651,183.354z M145.391,263.763
	c-1.034,11.975,10.982,25.238,20.787,30.096c0.79,0.391,3.464-0.776,2.322-1.342c-8.203-4.064-14.564-11.816-18.213-20.086
	c-1.072-2.43-1.729-4.962-1.861-7.536c2.529,0.538,5.325,0.228,7.374-1.276c2.692-1.976,4.865-5.331,2.608-8.434
	c-1.491-2.051-4.661-1.98-6.797-1.326c-3.454,1.06-5.099,4.182-5.836,7.457c-2.074-1.477-3.85-3.488-5.28-5.449
	c-5.14-7.047-1.882-17.294-1.721-25.291c0.016-0.798-2.876-0.294-2.897,0.775c-0.146,7.229-2.224,14.881,0,21.961
	C137.293,257.827,141.346,261.534,145.391,263.763z M148.839,259.977c0.722-3.181,3.877-6.795,6.868-3.69
	c0.727,0.754,0.827,1.885,0.727,2.859c-0.375,3.65-4.359,4.908-7.443,3.869c-0.187-0.063-0.363-0.151-0.546-0.225
	C148.505,261.854,148.626,260.916,148.839,259.977z M180.126,290.368c-3.373,7.894-2.125,14.43,5.137,19.793
	c8.729,6.447,16.002,2.188,24.461-2.146c0.551-0.282,1.095-0.959,0.663-1.575c-5.577-7.939-14.345-20.841-25.764-17.241
	c-0.632,0.199-0.964,0.6-1.053,1.006c-0.086-0.113-0.173-0.227-0.258-0.341c0.021-0.046,0.039-0.092,0.061-0.138
	c0.391-0.828-0.273-1.236-1.062-1.248c-2.329-3.335-4.342-6.934-6.325-10.564c-0.607-1.113-3.376-0.055-2.656,1.264
	C175.442,283.044,177.603,286.858,180.126,290.368z M190.376,300.601c1.042,0.695,3.599-0.743,2.239-1.65
	c-3.18-2.123-5.807-4.7-8.108-7.548c0.202,0.017,0.428-0.005,0.684-0.085c9.322-2.938,17.147,8.664,21.923,15.534
	c-2.121,1.116-4.221,2.271-6.382,3.31c-4.798,2.309-8.939,1.057-13.254-1.74c-6.1-3.953-7.239-9.475-5.369-15.462
	C184.465,295.839,187.147,298.444,190.376,300.601z M436.546,310.249c-1.657,1.06,0.826,1.662,1.84,1.014
	c4.462-2.854,8.288-6.098,11.643-9.716c-0.013,0.378,0.321,0.678,1.177,0.603c7.328-0.643,14.694-2.834,18.394-9.705
	c3.972-7.375,2.019-17.463,0.794-25.268c-0.188-1.199-2.432-0.263-2.813,0.301c-3.937,5.809-33.626,25.365-18.511,31.891
	C445.548,303.473,441.456,307.108,436.546,310.249z M467.858,270.308c0.888,5.922,1.542,11.972,0.397,17.885
	c-1.635,8.447-8.864,11.446-16.712,12.137c-0.182,0.016-0.353,0.059-0.511,0.117c0.183-0.206,0.358-0.418,0.538-0.627
	c0.8-0.279,1.535-0.923,1.144-1.368c3.723-4.598,6.82-9.741,9.539-15.438c0.645-1.351-2.269-1.102-2.723-0.15
	c-2.565,5.375-5.458,10.255-8.923,14.639C440.825,292.399,460.311,277.499,467.858,270.308z M448.135,117.669
	c10.054,0.449,20.152-5.726,21.081-16.392c1.027-11.802-7.837-19.501-19.246-18.698c-0.038,0.003-0.082,0.011-0.126,0.019
	C429.554,82.892,426.249,116.692,448.135,117.669z M448.358,83.837c0.104,0.008,0.223,0.009,0.38-0.002
	c21.817-1.535,23.707,31.51,1.975,32.575c-8.717,0.427-14.303-6.202-14.893-14.368C435.285,94.634,439.666,83.808,448.358,83.837z
	 M450.286,68.954c0-4.636,0-9.271,0-13.908c0-1.013,2.897-1.512,2.897-0.775c0,4.636,0,9.271,0,13.908
	C453.184,69.191,450.286,69.69,450.286,68.954z M453.184,132.579c0,4.636,0,9.271,0,13.908c0,1.013-2.897,1.512-2.897,0.775
	c0-4.636,0-9.271,0-13.908C450.286,132.342,453.184,131.843,453.184,132.579z M406.196,99.966c4.636,0,9.272,0,13.908,0
	c1.958,0-0.084,1.602-1.139,1.602c-4.636,0-9.272,0-13.908,0C403.1,101.567,405.142,99.966,406.196,99.966z M484.073,99.739
	c4.636,0,9.272,0,13.908,0c1.969,0,1.356,2.055-0.275,2.055c-4.636,0-9.272,0-13.908,0
	C481.828,101.794,482.441,99.739,484.073,99.739z M417.795,68.766c-0.897-0.896,1.854-2.021,2.673-1.203
	c3.279,3.277,6.556,6.556,9.835,9.833c0.897,0.896-1.854,2.021-2.673,1.203C424.352,75.321,421.074,72.042,417.795,68.766z
	 M475.844,122.942c3.277,3.279,6.556,6.557,9.834,9.836c0.86,0.86-1.89,1.971-2.679,1.182c-3.278-3.278-6.557-6.557-9.834-9.836
	C472.305,123.264,475.055,122.153,475.844,122.942z M430.124,123.756c-3.278,3.278-6.555,6.557-9.834,9.834
	c-0.652,0.651-3.505,0.749-2.314-0.441c3.279-3.276,6.556-6.556,9.834-9.834C428.462,122.663,431.314,122.565,430.124,123.756z
	 M473.298,77.597c3.278-3.279,6.555-6.559,9.834-9.836c0.88-0.88,3.69-0.472,2.412,0.807c-3.279,3.277-6.556,6.556-9.834,9.834
	C474.83,79.282,472.021,78.874,473.298,77.597z M121.491,522.543c-9.266,1.674-18.03,4.113-25.873,8.758
	c0.594-4.671,1.711-9.261,3.202-13.735c7.591,4.955,18.297-1.509,22.178-8.577c0.259-0.472-0.061-0.876-0.516-1.021
	c-6.189-1.977-13.318-0.254-19.107,2.818c0.566-1.346,1.149-2.683,1.765-4c0.651-1.395,1.361-2.819,2.123-4.244
	c0.323-0.197,0.574-0.471,0.655-0.812c0.05-0.21,0.095-0.427,0.143-0.641c2.592-4.603,5.797-9.096,9.791-12.44
	c-0.286,1.118-0.226,2.279,0.415,3.416c1.369,2.43,4.455,3.366,7.05,3.639c2.874,0.303,6.212-0.359,8.32-2.453
	c2.632-2.615,1.223-6.411-0.423-9.131c-0.002-0.004-0.006-0.006-0.008-0.01c0.151-0.092,0.303-0.183,0.448-0.281
	c2.601,2.23,5.801,3.779,9.285,2.743c2.888-0.858,4.822-3.305,5.675-6.103c0.791-2.596,0.387-5.715-1.539-7.715
	c-1.562-1.621-3.732-2.123-5.932-2.074c1.302-1.135,2.306-2.543,2.455-4.297c0.2-2.36-1.454-4.344-3.338-5.533
	c-2.151-1.358-4.937-1.724-7.326-0.83c-0.734,0.274-1.349,0.668-1.867,1.143c-0.364-0.826-0.9-1.573-1.664-2.189
	c-2.292-1.85-5.755-1.235-8.249-0.229c-2.5,1.009-5.085,3.004-6.073,5.59c-0.787,2.061-0.141,3.877,1.185,5.268
	c-0.63,0.039-1.266,0.123-1.914,0.307c-2.833,0.802-4.996,2.998-5.974,5.736c-0.887,2.484-0.354,5.336,1.538,7.197
	c2.517,2.479,6.53,2.625,9.956,2.219c-0.345,0.41-0.674,0.842-0.967,1.294c-4.021,2.49-7.307,5.97-10.093,9.837
	c0.397-5.281-0.734-10.59-5.923-13.227c-0.604-0.308-1.674-0.008-2.049,0.549c-4.04,6.002-6.409,18.398,2.932,20.607
	c0.042,0.01,0.084,0.012,0.126,0.018c-4.829,8.904-8.257,19.045-9.337,29.128c-1.668,1.155-3.294,2.413-4.863,3.815
	c-0.593,0.53,2.111,0.207,2.616-0.244c8.822-7.885,19.178-11.209,30.625-13.276C122.07,523.358,123.53,522.175,121.491,522.543z
	 M128.537,485.31c1.184,1.956,2.628,5.107,0.862,7.18c-1.247,1.463-3.463,1.553-5.227,1.367c-1.968-0.207-4.067-1.094-5.143-2.824
	c-1.124-1.809-0.03-3.849,1.264-5.405c0.495-0.263,1.001-0.505,1.517-0.731c1.997,0.984,4.459,1.031,6.714,0.384
	C128.53,485.29,128.531,485.3,128.537,485.31z M126.335,470.036c0.213,0.24,0.643,0.322,1.105,0.276
	c3.738,1.442,5.672,7.742,3.771,11.437c-2.229,4.33-7.731,2.573-9.875-0.786c-1.654-2.591-1.285-5.626,0.366-7.938
	c0.11-0.096,0.19-0.197,0.227-0.298c0.357-0.455,0.761-0.882,1.215-1.264c0.423-0.355-0.442-0.397-1.311-0.269
	c0-0.008,0.002-0.015,0.002-0.021c0.47-0.059,0.92-0.16,1.11-0.275C124.158,470.165,125.299,469.92,126.335,470.036z
	 M131.991,461.489c0.275-0.113,1.007-0.172,1.727-0.031c0.871,0.171,1.666,0.532,2.413,1.004c1.365,0.861,2.571,2.381,2.56,4.063
	c-0.015,2.352-2.189,3.928-4.083,4.926c-0.374,0.133-0.638,0.32-0.786,0.535c-0.271,0.307-0.247,0.606-0.046,0.831
	c0.208,0.341,0.708,0.552,1.462,0.341c2.462-0.688,5.391-1.028,7.334,0.989c1.484,1.542,1.683,3.869,1.301,5.873
	c-0.348,1.821-1.404,3.8-3.122,4.651c-2.415,1.198-5.313-1.014-6.976-2.548c-0.049-0.046-0.106-0.083-0.167-0.116
	c2.458-3.221,1.42-7.961-1.02-10.853c-0.966-1.146-2.135-1.83-3.396-2.165c0.151-0.688,0.288-1.416,0.386-2.162
	c0.176-0.161,0.287-0.353,0.29-0.564C129.888,464.448,130.325,462.181,131.991,461.489z M119.357,460.851
	c1.776-0.971,3.817-1.564,5.568-0.424c2.53,1.646,1.999,5.689,1.439,8.35c-1.861,0.158-3.742,0.84-5.349,1.76
	c-2.266-0.732-5.542-2.145-5.361-4.992C115.789,463.433,117.752,461.729,119.357,460.851z M110.801,481.862
	c-1.659-1.361-2.152-3.529-1.782-5.568c0.329-1.811,1.481-3.71,3.15-4.573c2.286-1.183,4.916,0.182,6.761,1.616
	c-2.131,3.045-1.964,7.03,0.622,9.834C116.643,483.64,113.217,483.845,110.801,481.862z M100.496,485.805
	c4.681,3.552,3.699,10.986,2.477,16.115c-0.005,0.022-0.003,0.042-0.007,0.063c-0.07-0.025-0.137-0.051-0.219-0.07
	C96.06,500.331,97.915,490.784,100.496,485.805z M117.805,509.516c-3.521,5.597-11.63,10.564-17.545,5.894
	c-0.163-0.129-0.381-0.189-0.621-0.201c0.175-0.481,0.354-0.961,0.537-1.439C105.097,510.472,111.865,508.078,117.805,509.516z
	 M155.44,521.048c-2.969,6.174-6.819,11.83-11.797,16.289c-0.878,0.787-3.719,0.432-2.397-0.752
	c4.536-4.063,8.094-9.152,10.896-14.715c-11.849,2.608-22.12,6.586-30.233,16.289c-0.136,0.163-0.392,0.287-0.696,0.38
	c-0.317,0.157-0.695,0.22-1.051,0.194c-0.631,0.063-1.167,0.033-1.104-0.041c0.075-0.09,0.154-0.17,0.23-0.26
	c-0.315-0.256-0.411-0.66-0.023-1.191c7.657-10.51,17.176-19.283,27.335-27.326c1.161-0.918,3.482,0.16,1.938,1.383
	c-7.54,5.969-14.701,12.346-20.998,19.557c7.348-5.22,15.83-7.947,25.101-9.963c3.691-7.642,5.982-16.114,7.374-24.064
	c0.212-1.214,3.166-1.633,2.926-0.26c-1.369,7.822-3.614,16.129-7.146,23.709C156.526,520.253,156.097,520.712,155.44,521.048z
	 M185.869,520.993c-11.898,2.649-21.308,8.553-30.522,16.309c-0.42,0.354-1.337,0.464-1.991,0.35
	c-1.064,0.434-2.689,0.208-2.043-0.84c7.079-11.5,16.743-21.221,28.246-28.303c1.159-0.713,3.578,0.238,1.907,1.268
	c-10.128,6.234-18.819,14.539-25.468,24.371c8.853-7.027,18.067-12.369,29.406-14.895
	C187.173,518.858,187.665,520.593,185.869,520.993z M114.594,533.789c-1.544,2.315-3.122,4.563-5.439,6.171
	c-0.557,0.387-1.375,0.593-2.049,0.55c-0.569-0.036-0.641-0.377-0.186-0.692c2.05-1.424,3.444-3.493,4.809-5.54
	c0.345-0.518,1.114-0.722,1.691-0.819C113.523,533.44,114.906,533.321,114.594,533.789z M91.198,519.986
	c-0.922,7.237-4.411,13.617-6.588,20.499c-0.362,1.143-3.312,1.506-2.922,0.273c2.173-6.867,5.669-13.282,6.588-20.499
	C88.427,519.075,91.372,518.617,91.198,519.986z M194.307,535.882c-1.956,0.307-1.398-1.981,0.227-2.234
	c14.645-2.287,26.647-10.254,34.534-22.777c0.753-1.196,3.442-0.64,2.447,0.939C223.042,525.265,209.942,533.442,194.307,535.882z
	 M262.004,512.949c-16.15,3.195-29.775,12.665-43.225,21.646c-1.066,0.712-3.506-0.029-1.868-1.123
	c13.866-9.258,27.976-18.982,44.623-22.276C263.306,510.845,263.816,512.591,262.004,512.949z M261.289,526.501
	c-3.958,3.827-8.592,6.882-13.928,8.4c-1.763,0.502-2.219-1.238-0.466-1.736c3.348-0.953,6.39-2.643,9.133-4.781
	c-6.394,2.004-12.974,3.029-18.976,2.822c-1.962-0.066,0.008-1.707,1.12-1.668c6.656,0.229,14.055-1.223,21-3.924
	c3.049-2.992,5.658-6.485,7.817-9.984c0.585-0.947,3.529-1.077,2.737,0.205c-1.609,2.607-3.435,5.164-5.478,7.535
	c5.695-2.836,10.842-6.516,14.657-10.816c0.651-0.732,3.469-0.787,2.329,0.498C276.216,518.708,269.065,523.331,261.289,526.501z
	 M306.547,511.063c-15.553,3.884-25.778,17.228-38.542,25.946c-0.518,0.354-3.427,0.726-2.223-0.098
	c13.512-9.229,24.029-22.646,40.52-26.763C307.994,509.727,308.249,510.639,306.547,511.063z M316.877,517.954
	c-10.255,2.388-19.42,7.599-27.585,14.146c-0.754,0.604-3.648,0.526-2.337-0.525c8.734-7.003,18.546-12.585,29.515-15.138
	C318.219,516.028,318.647,517.543,316.877,517.954z M324.64,515.138c-3.28,7.438-6.428,14.918-13.927,18.963
	c-1.416,0.764-2.997-0.66-1.255-1.6c6.747-3.641,9.501-11.004,12.426-17.639C322.373,513.753,325.292,513.657,324.64,515.138z
	 M372.725,517.38c1.25-1.041-1.646-0.912-2.295-0.369c-8.297,6.92-15.459,14.484-25.122,17.661
	c-0.959-2.894-1.745-5.845-2.368-8.832c8.731,1.372,15.381-7.867,16.073-15.917c8.29-1.221,16.324-3.328,24.104-6.477
	c0.374-0.15,1.168-0.576,0.796-1.076c-0.211-0.311-0.423-0.622-0.634-0.934c-7.022-11.98-11.655-25.547-16.396-38.537
	c-6.371-17.459-12.164-35.133-17.665-52.884c-4.099-13.229-8.206-26.53-11.36-40.024c-3.156-13.504-5.453-27.22-8.181-40.839
	c6.128,0.003,14.006-3.152,14.761-9.747c0.055-0.086,0.073-0.172,0.042-0.254c0.109-1.285-0.272-2.229-0.979-2.914
	c-2.35-7.84-2.244-15.722-1.289-23.632c4.189,6.015,9.145,11.333,14.433,15.32c4.642,3.499,10.432,5.891,16.274,5.782
	c0.71,1.264,1.657,2.422,2.815,3.396c9.928,8.35,27.833,7.575,39.846,6.344c4.633-0.475,9.881-1.159,13.983-3.539
	c1.69-0.98-0.897-1.242-1.766-0.738c-8.555,4.963-44.053,5.367-52.065-5.715c0.538-0.088,1.074-0.191,1.609-0.327
	c5.272-1.334,12.445-5.483,7.669-11.522c-3.386-4.281-9.747-2.642-12.156,1.602c-1.65,2.907-1.737,6.096-0.672,8.922
	c-7.748-0.391-14.587-6.111-19.67-11.448c-3.48-3.654-6.784-7.946-9.675-12.597c1.41-9.185,3.526-18.404,3.834-27.642
	c10.8-1.007,21.573-3.429,32.137-5.772c0.208-0.046,0.38-0.115,0.527-0.197c0.81,0.4,2.492-0.118,2.489-0.965
	c-0.006-1.598-0.048-3.267-0.098-4.98c0.003,0,0.005-0.001,0.008-0.002c22.537-7.84,43.706-19.854,67.67-22.217
	c0.128,0.078,0.341,0.126,0.679,0.12c7.657-0.136,15.375-2.354,22.525-4.935c5.85-2.109,14.241-5.488,16.454-11.941
	c0.08-0.231-0.112-0.436-0.298-0.529c-0.762-0.381-1.169-0.519-1.716-0.535c0.835-0.659,1.617-1.414,2.328-2.295
	c0.342-0.424,2.287-2.883,1.243-3.443c-0.841-0.451-1.956-0.242-2.994,0.125c0.094-0.116,0.202-0.216,0.292-0.336
	c0.69-0.928,1.566-2.448,0.859-3.574c-0.561-0.893-1.817-0.997-2.968-0.911c1.043-1.169,1.731-2.497,1.228-3.815
	c-1.452-3.798-10.222,0.603-14.829,2.973c2.631-4.144,4.18-8.025,0.991-8.586c-5.145-0.905-12.177,4.486-16.067,7.187
	c-6.136,4.259-11.959,9.813-19.001,12.438c2.174-2.117,3.738-4.759,4.328-7.821c0.552-2.87-1.796-7.187-5.023-7.069
	c-1.013,0.036-1.945,0.465-2.842,0.888c-3.287,1.549-6.086,2.597-9.852,2.274c-5.15-0.442-7.338-3.936-9.736-7.986
	c-2.588-4.375-5.57-7.997-10.072-10.525c-4.712-2.646-10.394-3.318-15.455-5.076c-3.888-1.35-9.36-3.225-10.484-7.697
	c-0.944-3.756-0.267-7.831-1.191-11.68c-5.014-20.876-27.856-26.382-46.615-26.502c-0.515-0.004-1.455,0.435-1.82,0.816
	c-0.015,0-0.024-0.003-0.041-0.003c-22.331-0.356-41.941,14.603-46.082,36.843c-2.594,13.935,0.516,33.646,11.035,44.9
	c-8.464-2.689-17.499-4.27-23.849-10.731c-0.687-0.698-2.733-0.017-2.838,0.763c-0.056,0.033-0.11,0.068-0.166,0.102
	c-5.636-2.795-10.032-7.598-14.514-11.922c-4.988-4.813-10.159-7.582-16.438-10.376c-6.24-2.776-12.144-5.95-15.711-12.024
	c-2.354-4.01-1.801-10.205-2.208-14.674c-0.383-4.214-2.825-15.041-9.421-9.605c-1.385,1.142-1.991,2.688-2.162,4.445
	c-3.353-3.384-7.226-6.191-11.19-8.844c-0.57-0.382-2.611-0.029-2.794,0.749c-0.249,1.062-0.303,2.058-0.21,3.004
	c-0.833-0.681-1.708-1.264-2.664-1.239c-1.917,0.048-3.539,0.73-3.899,2.741c-0.234,1.31-0.142,2.548,0.157,3.733
	c-0.708-0.181-1.435-0.239-2.166-0.066c-1.576,0.372-2.303,1.469-2.249,3.025c0.051,1.461,0.582,3,1.388,4.465
	c-10.396,8.563,11.126,18.595,16.391,23.02c17.193,14.449,32.738,30.832,50.86,44.188c-1.365,3.309-2.406,6.752-3.147,10.221
	c-0.291,0.269-0.413,0.603-0.201,0.949c-0.026,0.133-0.059,0.266-0.084,0.398c-0.048,0.255,0.226,0.372,0.621,0.39
	c5.048,7.32,11.824,12.104,20.225,15.055c-3.109,6.334-5.77,12.939-8.542,19.353c-4.027,9.317-8.624,18.567-11.573,28.298
	c-2.409,7.949-4.318,16.062-6.189,24.151c-0.677,2.925-2.032,4.72,0.396,6.677c1.086,0.876,2.291,1.585,3.569,2.162
	c-3.992,22.609-7.68,45.297-8.483,68.279c-0.828,23.686-0.075,47.492,1.754,71.117c-1.166-0.146-2.358-0.105-3.404,0.047
	c-2.981,0.436-6.222,1.777-7.947,4.371c-0.906,1.361-1.017,2.777-0.648,4.114c-0.571-0.151-1.16-0.263-1.789-0.282
	c-2.837-0.09-5.535,1.326-7.287,3.503c-1.617,2.007-1.981,4.845-0.77,7.13c1.687,3.181,5.486,4.545,8.885,5.236
	c-0.391,0.238-0.773,0.494-1.137,0.771c-5.225,1.192-10.228,3.611-14.847,6.826c2.602-5.198,3.666-11.243-0.783-15.877
	c-0.616-0.642-1.61-0.579-2.297-0.059c-5.811,4.404-9.875,14.717-2.361,19.497c0.183,0.116,0.403,0.169,0.634,0.181
	c-7.698,6.63-13.993,15.257-17.985,23.39c-4.386,2.568-9.453,3.991-13.478,7.235c-1.532,1.235,0.862,1.87,1.854,1.07
	c5.452-4.395,12.645-5.593,17.827-10.461c1.148-1.079-1.033-1.345-2.067-0.845c1.734-3.141,3.739-6.119,5.94-8.952
	c5.406,7.026,17.446,5.952,23.631,0.456c0.394-0.35,0.328-0.848-0.063-1.143c-5.563-4.191-13.666-4.548-20.41-3.133
	c1.102-1.257,2.23-2.49,3.396-3.687c5.324-5.468,12.109-11.088,19.68-13.284c-0.992,1.113-1.609,2.465-1.424,4.098
	c0.305,2.695,3.047,4.711,5.319,5.733c2.745,1.235,6.088,1.569,8.797,0.064c2.252-1.252,2.958-3.505,2.949-5.841
	c1.176,1.563,2.667,2.854,4.494,3.438c0.006,0.045,0.006,0.088,0.02,0.133c0.332,1.121,0.795,2.148,1.261,3.215
	c-0.027,0.138,0.048,0.262,0.257,0.358c0.255,0.247,0.612,0.351,0.983,0.336c8.77,2.864,19.375,1.284,28.238,0.099
	c9.969-1.332,21.068-3.084,30.004-7.971c0.538-0.295,0.658-0.553,0.538-0.753c0.005-0.039,0.008-0.079-0.002-0.118
	c-5.157-20.168-9.541-40.348-11.438-60.938c0.517,2.266,1.045,4.529,1.596,6.787c3.479,14.27,7.79,28.328,12.743,42.152
	c1.247,3.48,2.563,6.936,3.902,10.383c1.043,2.686,1.897,6.549,3.602,8.869c2.574,3.502,8.883,5.047,13.086,5.811
	c2.124,3.348,5.392,5.484,9.81,4.291c0.141,2.563,0.399,5.137,0.78,7.701c-6.961,3.647-14.37,6.572-19.864,12.406
	c-1.18,1.254,1.654,1.24,2.335,0.518c4.923-5.23,11.48-8.045,17.794-11.229c0.712,4.215,1.755,8.379,3.111,12.402
	c-2.36,0.527-4.87,0.799-7.582,0.738c-1.005-0.023-3.117,1.471-1.162,1.514c3.187,0.07,6.249-0.205,9.222-0.819
	c0.438,1.223,0.905,2.431,1.403,3.62c0.261,0.624,3.08-0.341,2.897-0.775c-0.494-1.178-0.946-2.371-1.374-3.574
	c2.831-0.832,5.582-1.993,8.263-3.559C360.99,528.573,366.614,522.477,372.725,517.38z M376.005,302.37
	c2.524-4.448,7.05,0.425,7.662,3.158c1.006,4.491-4.709,6.145-8.764,6.536C373.648,309.425,373.819,306.22,376.005,302.37z
	 M217.783,514.64c-5.357,4.021-14.291,3.562-18.208-2.056C205.435,511.124,212.605,511.253,217.783,514.64z M207.554,485.771
	c3.224,4.551,1.472,10.211-1.332,14.805C201.234,496.827,203.598,489.724,207.554,485.771z M341.855,519.58
	c-0.3-2.183-0.531-4.374-0.693-6.563c-0.042-0.568-0.079-1.143-0.11-1.721c2.682,0.098,5.366,0.225,8.049,0.229
	C346.216,513.726,343.739,516.585,341.855,519.58z M343.7,523.864c-0.371-0.068-0.769,0.031-1.108,0.214
	c-0.068-0.367-0.143-0.733-0.207-1.101c0.338-0.136,0.621-0.338,0.751-0.595c0.347-0.685,0.732-1.375,1.149-2.063
	c0.13-0.12,0.196-0.229,0.206-0.328c2.07-3.316,4.926-6.516,8.301-8.556c0.591-0.035,1.036-0.338,1.282-0.707
	c0.662-0.328,1.341-0.604,2.035-0.831C355.623,516.323,350.953,525.196,343.7,523.864z M380.382,502.214
	c0.145,0.25,0.269,0.451,0.402,0.65c-7.027,2.73-14.243,4.572-21.712,5.65c0-0.036,0.002-0.072,0.002-0.107
	c-0.009-0.9-1.047-0.877-1.7-0.756c-1.606,0.301-3.154,0.857-4.633,1.593c-3.859,0.202-7.717-0.033-11.576-0.159
	c-0.021,0-0.042,0.004-0.063,0.004c-0.002-0.076-0.011-0.154-0.033-0.234c-0.035-0.127-0.077-0.252-0.113-0.378
	c-0.11-6.265,0.598-12.828,3.202-18.466c-0.072,1.912,0.46,3.746,2.38,4.682c2.666,1.299,6.119,0.318,8.61-0.924
	c2.714-1.354,5.291-3.537,6.24-6.504c0.738-2.308-0.229-4.313-1.761-5.886c2.053-0.109,4.026-0.734,5.647-2.205
	c1.899-1.724,2.31-4.491,1.811-6.907C370.839,482.544,374.899,492.86,380.382,502.214z M335.338,476.54
	c1.506,0.083,3.067-0.143,4.444-0.419c-0.94,3.915,0.995,7.981,4.769,9.365c-0.146,0.071-0.267,0.153-0.343,0.251
	c-0.459,0.594-0.875,1.209-1.271,1.835c-1.941,1.312-4.274,2.366-6.519,1.538c-2.042-0.754-3.231-2.742-3.736-4.758
	c-0.504-2.012-0.212-4.232,0.832-6.021C333.996,477.506,334.625,476.935,335.338,476.54z M332.882,472.644
	c-0.924-1.948-0.162-4.321,0.808-6.125c0.558-1.037,1.273-1.943,2.142-2.76c0.7-0.658,1.546-1.104,2.261-1.277
	c0.021-0.006,0.029-0.008,0.044-0.012c0.017-0.002,0.025-0.002,0.05-0.006c0.122-0.018,0.245-0.024,0.368-0.031
	c0.037-0.002,0.162-0.001,0.487,0.045c0.254,0.037,0.778,0.256,1.202,0.534c1.208,0.793,2.014,2.182,2.599,3.466
	c0.437,0.957,0.764,1.963,1.053,2.973c0.086,0.303,0.318,0.486,0.612,0.578c-1.894,0.86-3.527,2.346-4.62,4.15
	c-0.046,0-0.092-0.002-0.137,0c-1.09-0.02-2.155,0.089-3.161,0.334C335.022,474.483,333.543,474.036,332.882,472.644z
	 M346.311,466.714c-0.938-1.762-1.594-3.871-0.37-5.654c0.833-1.214,2.535-1.512,3.894-1.429c1.601,0.097,3.271,0.917,3.966,2.425
	c1.076,2.334-0.423,5.018-1.708,6.918c-0.133,0.196-0.158,0.354-0.119,0.481c-0.175,0.158-0.346,0.317-0.513,0.479
	c-0.244-0.104-0.489-0.201-0.735-0.284c-1.362-0.461-2.739-0.532-4.053-0.3c0.134-0.199,0.19-0.427,0.12-0.675
	c-0.141-0.494-0.304-0.999-0.479-1.505C346.383,467.024,346.395,466.87,346.311,466.714z M342.297,474.194
	c0.152-0.09,0.274-0.189,0.341-0.305c0.791-1.369,2.008-3.139,3.741-3.315c1.479-0.151,2.98,0.56,4.18,1.343
	c2.332,1.521,3.836,4.161,3.835,6.941c0,0.342-0.044,0.68-0.117,1.01c-0.113,0.143-0.162,0.291-0.131,0.436
	c0,0.016-0.002,0.032-0.001,0.048c-0.292,0.907-0.811,1.749-1.409,2.466c-1.767,2.119-4.248,2.271-6.571,1.094
	c-3.526-1.787-4.53-5.893-3.173-9.381C343.082,474.297,342.757,474.193,342.297,474.194z M347.723,486.224
	c0.029-0.092,0.03-0.17,0.02-0.242c3.227-0.053,6.57-1.573,8.325-4.226c1.641,1.278,2.912,2.993,2.552,5.216
	c-0.378,2.338-2.437,4.104-4.364,5.237c-1.542,0.907-3.863,1.744-5.597,0.899C346.188,491.903,347.102,488.222,347.723,486.224z
	 M353.359,470.996c0.139-0.065,0.263-0.142,0.358-0.235c1.739-1.705,4.053-3.514,6.62-2.703c1.867,0.591,3.104,2.48,3.676,4.248
	c0.601,1.856,0.493,3.939-0.602,5.586c-1.324,1.992-4.151,1.754-6.27,1.298c0.036-0.173,0.08-0.341,0.104-0.519
	C357.672,475.581,355.843,472.741,353.359,470.996z M258.74,329.155c-5.074-0.278-11.438-1.471-15.096-5.398
	c-1.034-1.109,2.367-11.168,2.896-13.334c1.915-7.861,3.64-16.131,6.914-23.564c5.057-11.482,9.833-23.086,15.015-34.515
	c2.122-4.68,4.265-9.41,6.94-13.806c0.28-0.46-2.41-0.278-2.868,0.475c-1.258,2.066-2.425,4.195-3.535,6.359
	c-7.848-2.909-14.118-7.65-18.822-14.645c0.706-3.477,1.718-6.987,3.068-10.381c0.291-0.257,0.447-0.572,0.361-0.883
	c3-7.18,7.533-13.738,13.847-18.15c0.396-0.13,0.784-0.308,1.08-0.473c8.568,7.969,21.217,8.175,31.289,13.411
	c0.723,0.46,1.468,0.889,2.24,1.28c0.406,0.256,0.809,0.519,1.204,0.797c0.229,0.162,0.566,0.201,0.923,0.154
	c0.28,0.112,0.559,0.228,0.845,0.33c0.018,0.035,0.029,0.07,0.054,0.105c5.812,8.252,15.866,6.023,24.256,3.754
	c0.519-0.141,0.825-0.388,0.983-0.651c0.109-0.099,0.184-0.206,0.214-0.319c1.077-1.062,2.364-1.923,3.793-2.629l5.893-1.973
	c6.013-1.307,12.87-1.206,17.804-1.367c8.629-0.281,17.369-0.029,25.947,0.992c0.343,0.041,0.748,0.263,1.174,0.563
	c-7.933,10.139-6.406,25.076-6.258,37.313c-0.189-0.021-0.401-0.011-0.634,0.041c-10.812,2.398-21.829,4.898-32.882,5.788
	c-0.834,0.067-1.391,0.663-1.482,1.215c-0.052,0.081-0.088,0.165-0.09,0.255c-0.114,8.186-1.75,16.348-3.146,24.485
	c-4.153-7.548-7.115-15.817-7.898-23.796c-0.084-0.859-2.998-0.246-2.897,0.775c0.906,9.233,4.646,19.035,10.03,27.725
	c-1.311,8.6-1.969,17.17,0.1,25.705c-4.427-0.65-10.807,0.81-12.837,1.19c-0.121,0.022-0.242,0.048-0.363,0.071
	c-0.456-0.41-2.12-0.04-2.637,0.529c-3.27,0.686-6.546,1.478-9.829,2.33c-3.026,0.786-6.059,1.621-9.097,2.461
	C289.906,325.617,274.423,330.015,258.74,329.155z M308.594,216.077c2.315-5.73,6.194-11.094,6.35-17.46
	c0.15-6.128-6.52-8.118-10.943-10.21c-15.463-7.313-3.236-27.676,3.954-36.676c0.248-0.111,0.456-0.258,0.582-0.437
	c5.001-7.114,11.634-7.214,19.51-7.193c2.535,3.697,5.038,7.753,9.002,10.046c2.946,1.704,6.557,1.738,9.959,1.356
	c-2.44,6.603-7.184,17.08,1.453,20.498c0.356,0.141,1.047-0.007,1.629-0.255c0.286-0.061,0.534-0.143,0.676-0.244
	c6.023-4.29,7.15,4.236,6.746,7.222c-0.49,3.619-4.411,3.159-6.98,3.296c-3.662,0.195-6.248,2.303-8.821,4.747
	c-7.519,7.14-12.821,18.214-13.946,28.53c-6.945,1.84-14.516,3.297-19.469-2.906C308.438,216.298,308.547,216.194,308.594,216.077z
	 M330.115,327.819c-0.152-0.014-0.404,0.039-0.685,0.125c-0.733-3.619-1.498-7.231-2.322-10.83
	c3.431-0.655,6.872-1.307,10.377-1.019c1.492,0.122,2.636,0.669,3.336,1.634c0.234,0.733,0.483,1.467,0.763,2.199
	C342.075,325.401,334.249,328.175,330.115,327.819z M465.932,193.034c0.932-0.46,7.061-3.639,6.227-1.138
	c-0.604,1.81-1.89,3.45-2.967,4.991c-2.459,3.52-5.225,6.822-7.49,10.475c-0.857,1.383,2.099,1.441,2.775,0.35
	c0.594-0.957,3.327-4.191,5.857-7.735c0.223-0.01,0.454-0.054,0.679-0.148c2.237-0.948,4.382-2.116,6.606-3.096
	c0.992-0.437,7.109-3.394,6.596-0.754c-0.473,2.427-4.508,4.532-6.364,5.743c-1.888,1.231-3.865,2.309-5.805,3.453
	c-1.691,0.997,0.8,1.686,1.853,1.064c2.838-1.674,5.698-3.274,8.37-5.214c0.509-0.37,1.198-0.86,1.899-1.433
	c3.255-0.317,1.521,2.684,0.081,4.189c-2.707,2.83-6.944,4.154-10.318,5.986c-1.71,0.93,0.916,1.109,1.744,0.66
	c3.512-1.907,7.665-3.396,10.656-6.166c0.407-0.045,0.809-0.129,1.012-0.225c1.161-0.549,0.562,0.48,0.178,1.216
	c-0.607,1.161-1.541,2.178-2.469,3.084c-2.991,2.919-7.694,3.667-11.474,5.122c-1.931,0.744-0.09,1.01,0.985,0.596
	c3.418-1.316,6.986-2.264,10.099-3.993c0.179,0.107,0.474,0.162,0.927,0.117c1.061-0.105-1.777,3.317-1.621,3.153
	c-1.025,1.076-2.289,1.912-3.528,2.715c-3.114,2.02-6.652,3.391-10.127,4.645c-4.839,1.746-10.133,3.234-15.365,3.811
	c-1.252,0.059-2.494,0.15-3.73,0.26c-0.004,0-0.008,0.001-0.013,0.001c-0.002,0-0.005,0.001-0.008,0.001
	c-24.693,2.188-46.37,14.184-69.51,22.367c-0.306-10.332-0.586-22.074,5.239-30.363c0.509,0.459,0.985,0.88,1.359,1.108
	c1.188,0.727,1.828,0.598,3.13,0.406c3.301-0.485,6.365-1.257,9.771-1.314c3.054-0.052,6.1-0.291,9.093-0.909
	c7.094-1.467,16.064-1.145,22.907-4.397C446.118,209.796,454.632,198.608,465.932,193.034z M208.818,180.624
	c-5.07-4.58-10.05-8.336-15.673-12.154c-3.803-2.582-12.629-8.485-8.489-13.299c1.263,1.679,2.8,3.135,4.237,4.072
	c0.897,0.585,3.537-0.686,2.278-1.506c-2.6-1.695-4.552-4.57-5.705-7.41c-0.347-0.854-0.697-1.869-0.575-2.813
	c0.146,0.053,0.288,0.113,0.417,0.168c0.909,0.385,1.746,0.949,2.556,1.514c1.675,2.782,4.181,5.277,5.955,7.688
	c0.65,0.883,3.443-0.143,2.678-1.182c-2.131-2.896-4.8-5.455-6.461-8.672c-0.861-1.668-1.078-3.496-0.909-5.346
	c0.091-1,1.657,0.699,1.892,0.901c0.604,0.517,1.211,0.931,1.935,1.261c0.216,0.099,0.521,0.102,0.844,0.047
	c1.177,2.334,3.166,4.365,5.125,6.328c0.586,0.587,3.277-0.473,2.718-1.033c-2.788-2.793-5.748-5.77-5.994-9.641
	c3.848,2.696,7.524,5.623,10.596,9.211c0.143,0.167,0.456,0.209,0.819,0.175c0.53,4.445,2.293,9.431,1.309,12.749
	c-0.156,0.525,2.644,0.176,2.854-0.529c1.751-5.901-2.228-12.514-0.572-18.617c1.259-4.642,4.417,4.582,4.613,5.742
	c0.79,4.675,0.719,9.457,1.451,14.143c1.552,9.928,12.821,14.106,20.806,17.679c10.926,4.889,17.162,16.104,27.9,20.947
	c-6.027,4.219-10.555,10.136-13.704,16.774C236.568,206.513,222.822,193.278,208.818,180.624z M243.479,477.075
	c0.535-1.465,1.541-3.35,3.219-3.249c1.571,0.095,2.984,1.316,3.913,2.486c1.008,1.269,1.568,2.926,1.168,4.526
	c-0.563,2.256-3.344,2.906-5.302,3.178c-0.507,0.069-1.264,0.303-1.536,0.814c-0.057-0.421-0.134-0.838-0.242-1.246
	c-0.482-1.823-1.492-3.113-2.792-3.963c0.383-0.624,0.777-1.309,1.136-2.035C243.249,477.443,243.407,477.271,243.479,477.075z
	 M231.126,489.999c-1.424-2.662-0.883-5.946,1.05-8.046c0.344-0.165,0.625-0.39,0.737-0.647c0.301-0.136,0.561-0.322,0.728-0.533
	c0.313-0.186,0.638-0.355,0.989-0.488c0.669-0.254,0.88-0.479,0.83-0.647c6.059-0.188,8.569,7.527,5.172,12.321
	C237.983,495.698,232.9,493.319,231.126,489.999z M229.916,472.875c0.88-2.06,3.204-2.958,5.212-3.372
	c1.733-0.357,4.26-0.26,5.585,1.408c1.725,2.172,0.201,5.453-1.127,7.715c-1.567-0.395-3.305-0.381-4.982-0.028
	c-0.596,0.125-1.228,0.535-1.455,0.858C231.209,477.945,228.797,475.495,229.916,472.875z M219.937,480.267
	c0.787-1.524,2.333-2.852,4.114-2.865c2.656-0.023,4.677,2.234,6.004,4.302c-2.209,2.104-3.205,5.087-2.141,8.208
	C223.374,488.903,217.085,485.794,219.937,480.267z M234.517,502.288c-1.371,0.837-3.927,0.016-5.41-0.719
	c-1.793-0.887-3.568-2.369-4.058-4.388c-0.485-1.999,0.964-3.475,2.576-4.479c0.269-0.029,0.535-0.072,0.805-0.092
	c0.184-0.014,0.496-0.105,0.818-0.229c1.611,1.973,4.126,2.799,6.667,2.742c-0.013,0.082-0.016,0.164,0.002,0.25
	C236.382,497.569,236.786,500.904,234.517,502.288z M240.471,494.216c-0.023-0.044-0.056-0.08-0.087-0.116
	c0.13-0.06,0.265-0.116,0.391-0.181c2.622-1.344,3.992-4.019,4.226-6.818c2.521,0.188,5.497,0.86,6.711,3.338
	c0.947,1.932,0.403,4.174-0.647,5.936c-0.902,1.514-2.597,3.064-4.466,3.053C243.679,499.411,241.689,496.507,240.471,494.216z
	 M321.511,504.552c-3.69-1.975-4.718-5.234-6.182-8.907c-2.508-6.291-4.821-12.657-7.021-19.062
	c-4.369-12.723-8.034-25.682-11.164-38.762c-1.753-7.33-3.28-14.713-4.627-22.128c-0.002-0.245-0.011-0.488-0.012-0.733
	c0-0.084-0.06-0.146-0.156-0.191c-0.999-5.563-1.901-11.145-2.709-16.738c-0.978-6.773-1.607-13.586-2.509-20.367
	c-1.06-7.965-2.724-15.751-1.632-23.815c0.205-1.511-2.758-1.138-2.939,0.205c-0.942,6.954,0.051,13.743,1.113,20.626
	c1.142,7.4,1.802,14.87,2.813,22.291c0.889,6.528,1.943,13.033,3.135,19.512c0.198,27.313,5.575,53.709,12.3,80.08
	c-7.762,4.031-17.382,5.418-25.878,6.69c-8.71,1.304-19.756,3.165-28.314,0.098c-0.3-0.687-0.579-1.372-0.834-2.068
	c2.563-0.338,4.864-1.851,6.401-3.931c1.559-2.11,2.393-4.964,1.402-7.494c-1.048-2.675-3.756-3.887-6.47-4.402
	c2.521-0.59,5.083-1.733,6.185-4.131c0.999-2.174,0.154-4.597-1.253-6.369c-1.542-1.94-3.858-3.031-6.321-2.975
	c-0.918,0.021-1.741,0.256-2.477,0.638c-0.033-1.04-0.316-2.048-0.985-2.956c-0.406-0.551-0.919-0.977-1.493-1.314
	c0.043-0.074,0.072-0.15,0.065-0.23c-1.865-23.516-2.443-47.096-1.915-70.678c0.516-23.023,4.259-45.816,8.246-68.453
	c3.191,0.977,6.638,1.342,9.791,1.515c11.603,0.636,23.409-2.408,34.641-4.941c10.392-2.344,20.629-6.129,31.136-7.851
	c0.104-0.018,0.209-0.037,0.313-0.055c4.009,17.442,6.755,35.148,10.684,52.591c2.998,13.31,7.127,26.413,11.139,39.442
	c5.467,17.76,11.29,35.418,17.607,52.894c0.868,2.401,1.734,4.823,2.613,7.252c-0.982-1.767-2.591-3.161-4.576-3.702
	c-1.848-0.504-3.673-0.217-5.366,0.496c0.826-1.832,1.219-3.865,0.273-5.689c-1.106-2.133-3.552-3.023-5.826-3.162
	c-2.476-0.15-5.203,0.639-6.958,2.445c-0.432,0.444-0.744,0.929-0.966,1.436c-0.463-0.352-0.958-0.669-1.525-0.896
	c-2.425-0.969-5.229,0.063-7.15,1.621c-3.09,2.505-6.817,9.003-3.112,12.505c0.604,0.57,1.301,0.963,2.05,1.226
	c-2.629,1.865-4.134,4.981-3.259,9.017c0.611,2.82,2.652,5.065,5.445,5.797c2.094,0.547,4.223,0.172,6.219-0.648
	c-1.786,3.775-2.678,7.95-3.072,12.173c-2.396-3.958-6.024-6.839-11.243-6.611c-0.656,0.028-1.517,0.481-1.585,1.213
	c-0.271,2.884,0.237,6.493,1.52,9.642C325.155,506.194,323.332,505.526,321.511,504.552z M337.83,511.526
	c-3.082,0.879-5.323-0.781-6.843-3.356c0.013-0.247-0.088-0.478-0.356-0.642c-1.494-2.889-2.177-6.662-2.188-9.375
	c5.397,0.699,8.265,6.35,9.662,11.256c0.004,0.563,0.013,1.122,0.026,1.678c0.003,0.124,0.014,0.25,0.017,0.373
	C338.047,511.474,337.94,511.495,337.83,511.526z M389.518,534.05c-0.491,0.313-3.397,0.727-2.205-0.033
	c11.078-7.061,20.773-16.557,24.294-29.493c-15.065,4.272-27.125,17.985-37.399,29.03c-0.375,0.402-1.421,0.59-2.07,0.457
	c-0.055,0.049-0.105,0.101-0.16,0.148c-0.571,0.495-3.453,0.78-2.264-0.252c7.687-6.671,10.572-16.285,12.139-26.005
	c0.131-0.813,3.02-1.345,2.875-0.447c-1.028,6.376-2.653,12.548-5.693,17.972c9.634-9.997,20.708-19.864,34.07-22.886
	c0.709-0.161,1.185-0.005,1.4,0.256c0.162,0.041,0.254,0.113,0.227,0.226C411.37,516.763,401.095,526.671,389.518,534.05z
	 M433.701,507.03c-12.048,6.621-20.911,17.248-31.158,26.165c-1.062,0.923-3.387,0.037-1.903-1.254
	c10.476-9.116,19.476-19.771,31.798-26.542C433.86,504.618,435.433,506.079,433.701,507.03z M429.944,522.775
	c-6.129,2.048-12.282,4.139-16.043,9.75c-0.441,0.659-3.305,1.051-2.658,0.086c4.083-6.092,10.967-8.52,17.632-10.746
	C430.074,521.465,431.89,522.126,429.944,522.775z M442.737,520.224c-1.378,1.326-2.853,2.507-4.385,3.6
	c1.261-4.05,3.103-7.879,5.302-11.506c6.208,6.293,17.893,4.996,23.205-1.955c0.26-0.34,0.455-0.893-0.063-1.143
	c-6.727-3.245-15.29-1.875-21.923,1.172c1.231-1.896,2.536-3.746,3.893-5.541c4.18-5.529,9.752-11.865,16.183-15.648
	c-0.536,1.1-0.737,2.307-0.328,3.596c0.837,2.641,3.855,4.099,6.334,4.719c2.816,0.705,6.291,0.537,8.659-1.311
	c1.879-1.465,2.303-3.531,2.025-5.626c1.857,1.371,4.04,2.147,6.499,1.669c3.013-0.586,5.344-2.895,6.545-5.64
	c1.131-2.585,1.248-5.618-0.239-8.077c-1.127-1.863-3.088-2.736-5.187-3.063c1.904-1.02,3.57-2.459,4.093-4.616
	c0.542-2.231-0.827-4.48-2.482-5.854c-1.966-1.631-4.424-2.313-6.936-1.83c-0.84,0.162-1.56,0.501-2.187,0.949
	c-0.22-0.869-0.62-1.682-1.269-2.387c-1.977-2.15-5.305-2.133-7.931-1.5c-2.758,0.663-5.539,2.285-7.044,4.744
	c-1.177,1.922-0.775,3.866,0.363,5.471c-0.6-0.028-1.209-0.016-1.837,0.092c-2.823,0.484-5.312,2.253-6.667,4.779
	c-1.251,2.332-1.249,5.092,0.276,7.284c2.048,2.946,6.24,3.595,9.698,3.636c-0.479,0.429-0.939,0.892-1.349,1.387
	c-5.139,2.448-9.649,6.203-13.593,10.296c1.694-5.815,2.161-12.632-3.155-16.396c-0.724-0.513-1.778-0.222-2.333,0.396
	c-4.672,5.202-8.818,17.214-0.091,20.643c0.508,0.199,1.132,0.034,1.604-0.279c0.004,0.006,0.01,0.009,0.015,0.014
	c-5.933,6.939-11.084,14.91-13.426,23.723c-3.274,2.001-6.716,3.752-10.096,5.611c-1.686,0.928,0.988,0.789,1.678,0.41
	c3.519-1.936,7.106-3.763,10.522-5.844c0.291-0.106,0.524-0.238,0.626-0.389c2.705-1.686,5.295-3.543,7.628-5.787
	C445.999,519.412,443.245,519.735,442.737,520.224z M477.783,495.13c-1.3,1.307-3.685,1.018-5.309,0.611
	c-1.927-0.482-4.095-1.625-4.897-3.554c-0.823-1.979,0.425-3.786,1.896-5.131c0.373-0.134,0.746-0.271,1.123-0.385
	c0.13-0.039,0.229-0.081,0.336-0.123c1.842,1.374,4.403,1.769,6.82,1.382C478.664,490.066,479.688,493.216,477.783,495.13z
	 M478.073,472.813c0.077,0.031,0.152,0.066,0.228,0.101c3.636,1.654,5.14,7.511,3.146,11.31c-2.268,4.32-7.81,2.369-9.853-1.047
	c-1.567-2.619-1.157-5.669,0.554-7.89c0.599-0.235,1.06-0.628,0.933-1.011c0.34-0.308,0.708-0.59,1.106-0.839
	c0.563-0.353,0.286-0.497-0.241-0.518C475.504,472.319,476.895,472.347,478.073,472.813z M491.634,479.541
	c1.325,1.8,1.139,4.313,0.504,6.327c-0.555,1.76-1.914,3.808-3.74,4.429c-2.679,0.911-5.245-1.669-6.759-3.519
	c-0.05-0.061-0.11-0.111-0.175-0.156c0.475-0.283,0.914-0.605,1.304-0.963c2.346-2.154,2.991-5.387,2.268-8.342
	C487.503,477.091,490.059,477.4,491.634,479.541z M484.383,464.851c1.108-0.256,3.032,0.664,4.087,1.579
	c1.254,1.089,2.223,2.682,2.026,4.392c-0.269,2.326-2.75,3.578-4.711,4.254c-0.207,0.071-0.5,0.189-0.751,0.354
	c-0.141,0.016-0.283,0.031-0.421,0.049c-0.071,0.01-0.14,0.026-0.208,0.043c-0.176-0.383-0.371-0.759-0.596-1.117
	c-0.818-1.305-1.898-2.154-3.113-2.661c0.246-0.666,0.49-1.383,0.698-2.13c0.197-0.16,0.335-0.352,0.369-0.568
	C482.032,467.288,482.8,465.216,484.383,464.851z M467.76,466.507c0.349-2.137,2.575-3.436,4.401-4.138
	c1.632-0.628,3.909-0.859,5.555,0.506c2.245,1.861,1.216,5.804,0.331,8.289c-1.802-0.089-3.699,0.339-5.398,1.063
	c-0.024,0.01-0.041,0.02-0.063,0.029C470.381,471.19,467.293,469.368,467.76,466.507z M459.683,476.374
	c0.546-1.8,2.024-3.538,3.856-4.085c2.4-0.716,4.794,0.981,6.426,2.622c-2.432,2.674-2.901,6.449-0.889,9.584
	C464.216,484.456,457.827,482.491,459.683,476.374z M448.217,484.308c3.976,4.148,2.249,11.252,0.365,16.275
	c-0.041-0.02-0.073-0.041-0.118-0.059C441.937,497.961,444.896,489.052,448.217,484.308z M463.771,510.464
	c-4.336,4.695-12.122,5.366-16.935,1.119C452.02,509.384,458.519,508.313,463.771,510.464z M439.877,530.459
	c-1.76,0.388-2.227-1.243-0.438-1.637c13.068-2.876,24.154-8.833,32.714-19.251c0.69-0.84,3.481-0.758,2.359,0.607
	C465.515,521.13,453.601,527.438,439.877,530.459z M488.169,513.337c-8.041,6.012-14.846,14.193-24.481,17.746
	c-1.394,0.515-3.094-0.727-1.207-1.422c9.361-3.453,16.004-11.537,23.835-17.393C487.327,511.513,489.747,512.157,488.169,513.337z
	 M501.226,519.571c-2.12,4.615-5.086,8.802-9.17,11.739c-0.7,0.503-3.619,0.529-2.308-0.414c3.649-2.624,6.333-6.289,8.305-10.354
	c-6.268,2.035-12.168,4.789-16.815,9.738c-0.491,0.523-3.275,0.867-2.633,0.184c5.439-5.795,12.597-8.877,20.027-11.164
	c1.524-3.451,2.57-7.138,3.27-10.696c0.185-0.94,3.098-1.435,2.892-0.387c-0.665,3.378-1.655,6.862-3.051,10.169
	c0.248-0.07,0.496-0.141,0.744-0.21c1.693-0.468,1.947,0.5,0.259,0.967C502.237,519.283,501.73,519.426,501.226,519.571z
	 M513.509,518.063c-2.994,5.767-7.668,9.906-12.875,13.648c-1.102,0.793-3.495-0.066-1.894-1.217
	c4.871-3.502,9.212-7.305,12.015-12.703C511.308,516.727,514.244,516.647,513.509,518.063z" fill="#0984E3"></path>
</svg>