<?xml version="1.0" standalone="no"?>
<svg version="1.1" id="Layer_1" xmlns="http://www.w3.org/2000/svg" xmlns:xlink="http://www.w3.org/1999/xlink" x="0px" y="0px" width="600px" height="600px" viewBox="0 0 600 600" enable-background="new 0 0 600 600" xml:space="preserve">
<path id="color_x5F_2" fill="#FBC02D" d="M200.69,463.33c0.49,0.76,0.75,1.939,0.85,3.32H80.69c0.18-1.16,0.36-2.33,0.54-3.48
	c0.42-0.18,0.75-0.45,0.82-0.78c3.54-15.779,10.23-30.439,18.22-44.42c1.45,0.65,3.03,1.101,4.77,1.311
	c14.55,1.779,30.43-2.79,44.59-5.57c7.81-1.53,15.64-3.13,23.55-4.1c2.69-0.33,11.37-2.07,12.94,1.35c0.2,3.02,2.24,4.14,4.68,4.42
	c0.83,0.28,1.79,0.22,2.67,0.03c0.33-0.021,0.66-0.05,0.99-0.09c-3.01,8.72-0.59,17.58-1.53,26.58c-0.02,0.05-0.02,0.09-0.03,0.14
	c-0.01,0.03-0.01,0.06-0.02,0.09c0,0.01,0,0.01,0,0.021c0,0.02,0,0.04,0,0.06c0,0.03-0.01,0.05-0.01,0.07
	C192.32,449.9,192.59,459.91,200.69,463.33z M210.85,387.83c0.14-0.689,0.3-1.27,0.31-2c0-0.07,0.03-0.141,0.08-0.21l-0.1-0.2
	c-3.51,0.939-7.02,1.891-10.52,2.82c-0.41,0.109-1.45,0.279-1.63-0.301c-5.07-16.229-10.18-32.299-10.09-49.479
	c0.04-8.34,0.91-16.88,4.05-24.649V313.8c0.71-16.75-6.38-29.94-13.8-44.54c-0.03-0.05-0.04-0.11-0.05-0.16
	c-2.19-1.03-4.39-2.02-6.6-2.98c7.29,14.35,14.04,28.17,13.37,44.739c-0.01,0.15-0.08,0.291-0.18,0.41
	c0.31,0.211,0.32,0.53-0.36,0.931c-7.46,4.36-16.8,5.909-25.29,6.69c-8.62,0.799-18.05,1.25-26.3-1.83
	c-0.3-0.11-0.37-0.271-0.31-0.451c-1-16.179-3.65-33.64-15.52-45.54c-1.61,1.04-3.33,2-5.15,2.87c0.03,0.04,0.05,0.07,0.07,0.12
	c9.55,13.12,13.14,28.959,14.03,45.02c0.64,11.5-1.4,26.82-11.38,34.29c2.4,10.729,4.79,21.47,7.19,32.2
	c7.75-0.881,16.43,0.55,23.03,1.32c17.69,2.049,35.34,5.289,53.19,5.399c0.25,0,0.43,0.03,0.57,0.09c2.6-0.59,5.3-1.11,8.04-1.489
	l4.14-1.07C211.41,389.33,210.73,388.43,210.85,387.83z M104.8,417.14c1.76,0.38,3.61,0.5,5.55,0.49L104.8,417.14z M196.24,307.4
	c-0.11-0.301-0.24-0.641-0.37-1.01c0.03,0.52,0.04,1.039,0.05,1.549C196.03,307.76,196.13,307.58,196.24,307.4z M383.08,295.4
	c-1.82-0.2-3.76-1.35-5.75-3.7c-3.18-3.76-5.67-8.29-7.95-12.81c-0.24-0.05-0.439-0.16-0.55-0.35c-0.63-1.15-1.16-2.62-1.71-4.16
	c-0.15-0.3-0.3-0.61-0.45-0.91c-0.06-0.12-0.05-0.24,0-0.36c-0.96-2.62-2.09-5.22-4.01-6.59l-1.141,0.12
	c-3.119,11.53-0.97,26.7,4.5,37.15C371.69,301.49,378.26,299.26,383.08,295.4z M384.96,293.64h-1.47c0.069,0.03,0.13,0.07,0.2,0.1
	C384.11,293.93,384.54,293.86,384.96,293.64z M411.39,263.83c0.061-3.76,0.341-9.16-2.04-12.43l-11.689-5.09
	c-0.41,5.86-0.98,11.71-1.68,17.54c-0.98,8.13-1.7,17.01-4.91,24.63c-0.82,1.95-1.811,3.54-2.92,4.72
	c4.35,1.95,9.119,2.73,13.47,4.63C408.06,288.34,411.22,274.96,411.39,263.83z M202.43,353.88c-0.1,1.261,0.03,2.54,0.45,3.729
	L202.43,353.88z M256.99,434.85c-1.92,0.311-4.01,0.061-5.47-1.33c-0.59-0.569-1.02-1.22-1.33-1.93
	c-7.18,4.851-12.54,12.07-6.7,19.771c2.28-2.46,4.8-4.4,7.66-6.311c3.81-2.55,5.16-5.62,5.84-10.09
	C256.98,434.92,256.99,434.88,256.99,434.85z M183.88,407.36c-1.06-0.62-2.18-0.86-3.27-0.42c-0.2,0.079-0.59,0.189-1.15,0.319
	c0.31-0.01,0.62-0.02,0.93-0.029C181.4,407.24,182.64,407.22,183.88,407.36z M485.85,297.47c-1.51-2.22-3.13-4.46-4.899-6.73
	c-4.73-6.06-7.641-9.92-9.351-12.29c-1.109-1.04-2.27-2-3.46-2.88l-13.25-7.16c-4.47-2.08-9.01-4.01-13.52-5.91
	c-6.55-2.76-13.561-5.99-20.69-8.06l-7.1-1.36c1.14,3.57,0.85,8.29,0.66,11.31c-0.74,11.63-3.721,25.01-10.851,34.49
	c-0.47,0.63-2.069,1.14-2.79,0.75c-4.25-2.26-9.069-3.07-13.55-4.77c-5.66,5.53-14.2,8.201-21.29,11.21
	c-0.5,0.209-1.609,0.439-1.96-0.19c-5.99-10.82-8.37-26.62-5.21-38.94l-0.89,0.09c0,0-1.74,0.05-4.391,0.59
	c-10.649,3.85-18.79,11.62-24.869,21.11c-5.801,12.299-12.74,31.92-16.851,44.02c-0.91,3.939-1.68,7.9-2.31,11.82
	c-1.12,7.109-2.021,14.25-2.84,21.399c-0.221,1.89-0.431,3.79-0.641,5.681c0.4,0.08,0.79,0.16,1.19,0.229
	c11.6,2.261,23.71,5.3,35.58,5.649c0.939-18.129,3.67-36.189,3.76-54.35c0.01-1.08,2.9-1.609,2.9-0.779
	c-0.11,23.42-4.62,46.689-4.021,70.119c7.28-1.42,14.03-4.24,17.82-11.24c3.42-6.319,5.67-12.579,5.899-19.76
	c0.12-3.77,5.21-4.74,8.08-3.58c2.521,1.021,1.62,6.15,0.92,10.07c3.38-2.279,8.44-3.33,11.49-2.26c0.5,0.061,0.86,0.22,1.05,0.5
	c1.03,0.67,1.62,1.73,1.521,3.23c1.52,0.619,3.21,1.379,4.08,2.819c0.54,0.89,0.52,1.86,0.26,2.8c0.17,0.12,0.83,0.601,1.29,1.45
	c0.56,0.38,1.02,0.94,1.29,1.75c0.55,1.65,0.32,3.341-0.72,4.61c3.54,2.9,1.79,7.21-0.86,10.359c-2.67,3.181-6.86,5.171-10.19,1.86
	c-2.34,1.58-4.87,2.81-7.62,2.99c-3.569,0.24-5.649,2.76-8.26,4.92c-2.75,2.28-5.45,4.62-8.12,7.01
	c-5.59,4.99-11.399,10.59-17.97,14.58c0.09,0.06,0.15,0.15,0.15,0.271c0,12.479,0.02,24.949-0.051,37.43
	c0,0.55-0.75,0.95-1.479,1.109l-0.01,2.851l0.6,0.35h68.67c0.17-0.77,0.48-2.069,0.92-3.739c-0.739,0.13-1.47,0.1-1.399-0.171
	c6.359-23.989,25.699-49.979,51.25-48.109c4.31,0.02,7.02,0.76,8.689,1.569c-2.91-4.779-9.97-6.21-15.149-7.84
	c-6.271-1.97-12.841-4.26-16.561-10.04c-4.149-6.45-1.439-15.45,1.061-21.96c2.159-5.609,5.12-11.06,7.319-16.709
	c-0.41-0.341-0.89-0.75-1.42-1.23c-1.38-0.59-3.359-2.1-6.14-5.48c-7-8.5-0.67-19.83,5.17-22.76c0.74-0.37,1.46-0.58,2.15-0.67
	c-0.08-0.939-0.171-1.87-0.23-2.76c-0.28-4.25-0.6-8.53-1.39-12.721c-0.221-1.149,2.689-1.88,2.899-0.779
	c0.851,4.52,1.2,9.14,1.45,13.72c0.05,0.95,0.14,1.94,0.22,2.93c1.181,0.46,2.19,1.22,2.98,1.98l0,0l0,0
	c0.76,0.72,1.32,1.44,1.649,1.899c2.021-2.31,4.841-3.279,8.431-1.26c0.09,0.051,0.149,0.11,0.2,0.17
	c1.729-2.51,4.369-3.93,7.77-3.14c0.01,0,0.01,0,0.01,0c0.04,0.01,0.08,0.01,0.12,0.021c0.42,0.1,0.58,0.279,0.58,0.479
	c0.19,0.45,0.34,0.94,0.44,1.45l0.81,0.459c1.561-0.85,3.36-0.689,4.86,0.361l1.21,0.01l0.01-0.01c0.92-1.631,2.4-2.75,4.89-2.771
	c0.221,0,0.391,0.021,0.521,0.06c0.729-0.199,1.55-0.13,1.689,0.42c0.45,1.711,0.61,3.561,0.46,5.34
	c0.271-0.31,0.721-0.569,1.271-0.6c3.97-0.21,7.66,0.35,11.04,1.53c-0.891-12.46-6.811-24.92-13.01-35.511
	C487.19,299.72,486.53,298.6,485.85,297.47z M458.88,333.96l2.93-0.46C460.64,333.09,459.67,333.311,458.88,333.96z M380.33,367.93
	c1.07-0.39,2.28-0.82,3.51-1.189c-0.05,0.01-0.1,0.01-0.149,0.02C382.49,366.939,381.33,367.33,380.33,367.93z M255.29,444.54
	c0.04-0.021,0.08-0.04,0.12-0.05c1.54-0.65,2.28-1.92,2.6-3.311C257.34,442.44,256.47,443.57,255.29,444.54z M503.22,337.061
	c-0.06,0.039-0.13,0.08-0.189,0.119c0.08,0.041,0.16,0.07,0.239,0.11C503.25,337.221,503.23,337.141,503.22,337.061z M451.14,417.11
	c-4.42,1.319-8.529,3.59-12.279,6.54C443.02,420.78,447.16,418.6,451.14,417.11z M263.1,430.41c-0.68,1.5-1.81,2.76-3.42,3.58
	c0.13,0.1,0.22,0.24,0.24,0.42c1.83,6.14,6.82,12.8,12.58,16.189C272.6,442.62,269.71,435.07,263.1,430.41z M260.12,422.8
	c-1.76,0.51-3.55,0.95-5.35,1.311l-2.22,0.729c0.03,0.08,0.05,0.17,0.04,0.28c-0.42,2.95,0.37,9.57,5.02,8.03
	C261.9,431.73,261.47,426.18,260.12,422.8z M263.16,405.07c-6.93,3.25-11.04,5.38-19.87,5.38c-6.68,0-11.27-1.61-13.11-2.4
	c-0.55,0.86-1.2,1.69-1.94,2.49c-0.3,0.33-1.31,0.56-2.02,0.57c-0.24,0.38-0.5,0.75-0.78,1.1c2.33,0.88,8.31,3.01,13.61,3.81
	c9.54,1.44,19.22-0.93,27.19-5.069c6.99-3.62,19.87-18.86,22.95-22.57c-2.29-0.69-4.61-1.37-6.95-2
	C280.9,388.221,271.32,401.24,263.16,405.07z"></path>
<path id="color_x5F_1" fill="#0984E3" d="M522.95,426.43c-4.771-8.66-14.87-8.319-23.4-9.62c-0.17-3.47-0.75-6.77-1.87-10.069
	c3.45-0.811,6.641-2.45,8.65-4.891c0.26-0.01,0.53-0.069,0.79-0.199c25.71-12.75,19.49-53.721-3.86-64.351
	c-0.08-0.04-0.16-0.069-0.239-0.11c0.069-0.039,0.13-0.08,0.189-0.119c0.34-0.23,0.57-0.541,0.55-0.91
	c-0.739-12.92-6.97-25.51-13.279-36.55c-5.591-9.78-13.12-21.76-23.171-27.57c-8.17-4.73-17.189-8.34-25.88-11.98
	c-9.14-3.82-19.04-8.32-29.01-9.38c-0.28-0.4-0.58-0.77-0.93-1.08c-3.811-3.41-9.521-4.25-13.88-6.76
	c-0.37-0.21-1.17-0.01-1.811,0.27c-1.35-1.58-2.7-3.19-3.99-4.85c0.011-0.01,0.021-0.01,0.021-0.02
	c15.18-13.83,12.37-36.29,6.37-53.89s-17.99-36.47-38.33-37.89c-11.65-0.82-21.28,5.88-32.45,7.56c-9.11,1.37-18.36-1.2-27.42,1
	c-7.45,1.81-17.39,5.42-20.85,12.81c-3.15,6.74-1.75,14.53,5.53,17.49c0.21,0.06,0.41,0.13,0.62,0.19
	c-5.04,3.15-9.79,6.82-11.96,11.58c-1.15,2-1.73,4.12-1.26,6.24c0.02,0.08,0.04,0.15,0.06,0.22c0.09,1.43,0.39,2.94,0.95,4.54
	c2.88,8.18,12.18,7.62,19.05,6.09c0.5-0.11,1-0.23,1.49-0.36c1.11,7.43,5.71,13.83,9.57,20.31c-6.15,0.95-8.75,5.86-5.73,11.44
	c2.87,5.32,8.771,8.84,14.51,5.67c2.82,5.28,5.99,10.31,10.311,14.93c5.43,5.81,13.51,6.09,20.76,4.56
	c-14.29,9.21-22.79,25.48-28.479,42.299c-6.58,19.451-9.67,39.211-11.82,59.551c-0.04,0.369,0.24,0.67,0.6,0.75
	c1.23,0.25,2.471,0.5,3.71,0.76c-0.06,0.08-0.1,0.17-0.1,0.27c-0.23,7.86-3.521,15.551-3.83,23.41c-2.36-2.459-5.03-4.67-8.04-6.529
	c0.23-0.721,0.46-1.43,0.66-2.16c0.08-0.29-0.05-0.471-0.29-0.58c0.04-0.141-0.04-0.25-0.28-0.33c-11.63-3.641-23.95-7.05-36.2-7.35
	c0.48-1.03,2.06-4.4,2.85-5.98c0.19,0.2,0.52,0.311,1.05,0.23c10.94-1.631,22.17-1.961,33.21-1.541
	c0.91,0.031,2.03-0.389,1.94-1.469c-0.67-8.381-1.55-16.75-2.56-25.091c-1.39-11.55-2.42-24.03-7.06-34.819
	c-11.75-27.351-48.89-36.9-73.86-22.84c-1.93-1.82-3.93-3.57-6.02-5.24c-9.25-16.38,0.54-37.89,6.71-53.65
	c3.81-9.74,7.86-19.42,10.66-29.51c2.15-7.77,3.53-16.27,1.17-24.15c2.98-13.14-1.24-26.33-12-34.67
	c-9.14-7.09-21.42-8.11-31.77-3.36c-6.5-3.71-14.84-2.66-21.66-0.58c-7.85,2.4-16.7,6.88-22.4,12.89
	c-3.46,3.65-6.29,7.95-9.05,12.14c-18.65,28.4-33.76,59.771-47.3,90.87c-3,6.9-5.88,13.86-8.37,20.97
	c-1.33,3.8-2.94,7.99-3.14,12.08c-2.42,6.27-2.81,13.77-3.03,19.839c-0.44,12.25,1.34,24.07,3.79,36.021
	c1.05,5.12,1.42,10.931,5.22,13.63c-0.01,0.07-0.02,0.141-0.01,0.21c1.41,11.74,3.73,23.47,6.97,34.83
	c2.5,8.78,5.81,20.18,13.75,25.23c-8.32,14.43-15.34,29.579-18.99,45.899c-0.18,0.811,1.16,0.851,2.08,0.45
	c0.42-0.18,0.75-0.45,0.82-0.78c3.54-15.779,10.23-30.439,18.22-44.42c1.45,0.65,3.03,1.101,4.77,1.311
	c14.55,1.779,30.43-2.79,44.59-5.57c7.82-1.53,15.64-3.13,23.55-4.1c2.69-0.33,11.37-2.07,12.94,1.35c0.2,3.02,2.24,4.14,4.68,4.42
	c0.86,0.1,1.77,0.09,2.67,0.03c0.33-0.021,0.66-0.05,0.99-0.09c-3.01,8.72-0.59,17.59-1.53,26.579
	c-0.02,0.051-0.02,0.101-0.03,0.141c-0.01,0.03-0.02,0.06-0.02,0.09c0,0.01,0,0.01,0,0.02c0,0.021,0,0.04,0,0.061
	c0,0.02,0,0.05-0.01,0.07c-0.54,7.609-0.27,17.619,7.83,21.04c0.11,0.05,0.21,0.109,0.33,0.149c5.27,2.05,11.49,0.28,16.73-1.649
	c0,0.3-0.01,0.6-0.01,0.899c-0.01,0.48,2.88,0.08,2.9-0.78c0.08-5.619,0.18-11.25,0.26-16.88c0.04-0.16,0.05-0.31,0.01-0.46
	c0.05-3.85,0.09-7.689,0.09-11.54c0-0.489-2.9-0.069-2.9,0.78c-0.01,3.44-0.04,6.87-0.08,10.31c-7.73,1.58-15.52,2.471-22.18-2.68
	c0.93-8.979-1.48-17.96,1.56-26.66c2.64-0.529,5.22-1.319,7.8-2.069c5.76-1.67,6.53,5.189,8.47,9.069c0.14,0.29,0.55,0.37,1.01,0.33
	c0.09,1.24,2.49,1.19,2.83-0.02c0.09-0.32,0.18-0.65,0.27-0.99c0.33-0.1,0.61-0.25,0.75-0.43c9.69,4.189,20.85,5.51,31.66,4.13
	c-0.27,0.17-0.47,0.38-0.5,0.62c-0.19,1.33-0.27,2.75-0.07,4.109c-8.95,5.53-16.41,14.91-7.67,24.351c0.6,0.649,2.01,0.39,2.53-0.25
	c3.08-3.82,6.84-6.03,10.62-8.971c0.07-0.06,0.13-0.119,0.19-0.18c1.18-0.97,2.05-2.1,2.72-3.359c0.29-0.54,0.53-1.11,0.74-1.69
	c3.02,6.03,8.35,11.53,14.26,14.02c0.67,0.28,2.25-0.17,2.32-1.04c0.79-9.899-2.69-19.46-11.51-24.63
	c0.25-1.939-0.05-4.029-0.85-5.949c14.01-4.79,26-14.44,31.38-28.461c9.1,6.391,14.78,15.99,17.88,26.65
	c0.04,0.13,0.21,0.18,0.46,0.19c-0.84,3.34-1.6,6.689-2.29,10.06c-0.07,0.04-0.14,0.08-0.21,0.14c-4.66,3.7-8.8,3.83-14.55,3.45
	c-0.1-0.01-0.2,0-0.3,0.021c-0.58-2.99-1.09-6-1.48-9.03c-0.11-0.87-3.02-0.23-2.9,0.78c1.63,12.75,5.31,25.069,8.2,37.56
	c0.21,0.91,3.12,0.17,2.9-0.78c-0.78-3.39-1.63-6.77-2.47-10.149c5.041,7.02,12.41,12.76,21.041,7.79
	c6.949-4.01,9.729-14.74,11.27-21.93c0.62-2.881,1-5.801,1.25-8.74c3.28-0.62,6.36-1.76,9.28-3.26c0,12.31,0.01,24.619-0.05,36.939
	c0,0.41,0.699,0.49,1.409,0.33c0.73-0.16,1.48-0.56,1.48-1.11c0.07-12.479,0.05-24.949,0.05-37.43c0-0.12-0.06-0.2-0.149-0.27
	c6.569-3.99,12.38-9.591,17.97-14.58c2.67-2.38,5.359-4.73,8.12-7.011c2.6-2.159,4.689-4.68,8.26-4.92
	c2.75-0.189,5.28-1.409,7.62-2.989c3.33,3.31,7.52,1.31,10.189-1.86c2.65-3.149,4.4-7.46,0.86-10.36
	c1.03-1.27,1.26-2.959,0.72-4.609c-0.27-0.811-0.729-1.37-1.29-1.75c-0.47-0.32-1.01-0.521-1.59-0.58
	c0.12-0.28,0.22-0.57,0.311-0.87c0.26-0.94,0.279-1.91-0.261-2.8c-0.88-1.44-2.56-2.19-4.08-2.82c0.091-1.5-0.5-2.561-1.52-3.23
	c-0.31-0.199-0.66-0.369-1.05-0.5c-3.05-1.069-8.11-0.02-11.49,2.261c0.71-3.921,1.61-9.06-0.92-10.07
	c-2.87-1.149-7.96-0.19-8.08,3.58c-0.229,7.181-2.479,13.44-5.9,19.76c-3.79,7-10.54,9.83-17.819,11.24
	c-0.61-23.44,3.899-46.7,4.02-70.12c0.01-0.83-2.89-0.311-2.899,0.78c-0.091,18.159-2.82,36.229-3.761,54.35
	c-11.869-0.35-23.979-3.39-35.58-5.649c-0.399-0.08-0.8-0.15-1.189-0.23c0.2-1.9,0.42-3.79,0.64-5.68
	c0.82-7.15,1.721-14.29,2.84-21.4c0.62-3.93,1.4-7.88,2.311-11.82c2.63-11.42,6.42-22.779,11.11-33.279
	c1.659-3.73,3.579-7.34,5.75-10.74c6.079-9.49,14.229-17.26,24.869-21.11c1.78-0.65,3.631-1.19,5.551-1.6
	c-0.091,0.31-0.19,0.6-0.271,0.92c-3.16,12.32-0.78,28.12,5.21,38.94c0.351,0.63,1.46,0.41,1.96,0.189
	c7.09-3.01,15.63-5.68,21.29-11.21c4.48,1.71,9.3,2.51,13.55,4.77c0.73,0.39,2.32-0.12,2.79-0.75
	c7.13-9.49,10.12-22.86,10.851-34.49c0.189-3.03,0.479-7.74-0.66-11.31c-0.03-0.09-0.05-0.17-0.08-0.26c2.4,0.38,4.8,0.93,7.19,1.62
	c7.13,2.07,14.14,5.3,20.689,8.06c4.5,1.9,9.05,3.83,13.521,5.91c3.449,1.61,6.859,3.3,10.159,5.15
	c1.061,0.59,2.091,1.28,3.091,2.01c1.189,0.87,2.35,1.84,3.46,2.88c5.689,5.32,10.369,12.51,14.25,19.02
	c0.68,1.14,1.34,2.25,1.97,3.33c6.2,10.6,12.12,23.05,13.01,35.51c-3.38-1.17-7.07-1.74-11.04-1.529c-0.55,0.029-1,0.289-1.27,0.6
	c0.149-1.79-0.011-3.641-0.46-5.34c-0.15-0.551-0.96-0.621-1.69-0.42c-0.13-0.041-0.3-0.061-0.52-0.061
	c-2.49,0.03-3.971,1.141-4.891,2.77c-0.13,0.24-0.26,0.48-0.37,0.74c-0.27-0.279-0.56-0.529-0.859-0.74
	c-1.5-1.06-3.3-1.22-4.86-0.359c-0.229,0.12-0.45,0.27-0.66,0.439c-0.04-0.31-0.08-0.6-0.14-0.899c-0.11-0.511-0.25-1-0.44-1.45
	c0-0.2-0.16-0.37-0.58-0.48c-0.04-0.01-0.079-0.01-0.119-0.02c-0.011,0-0.011,0-0.011,0c-3.399-0.79-6.04,0.62-7.77,3.141
	c-0.04-0.061-0.101-0.121-0.2-0.17c-3.59-2.021-6.42-1.051-8.43,1.26c-0.33-0.461-0.891-1.181-1.65-1.9l0,0
	c-0.79-0.76-1.8-1.52-2.979-1.98c-0.08-1-0.171-1.99-0.221-2.93c-0.26-4.58-0.6-9.199-1.45-13.72c-0.21-1.101-3.109-0.38-2.899,0.78
	c0.79,4.189,1.11,8.47,1.39,12.72c0.061,0.89,0.15,1.819,0.23,2.76c-0.69,0.08-1.4,0.29-2.15,0.67
	c-5.83,2.931-12.17,14.261-5.17,22.761c2.78,3.379,4.76,4.879,6.141,5.479c0.76,0.33,1.34,0.38,1.77,0.3
	c-0.11,0.311-0.23,0.62-0.35,0.92c-2.2,5.65-5.16,11.1-7.32,16.711c-2.5,6.51-5.21,15.51-1.061,21.959
	c3.721,5.78,10.301,8.07,16.561,10.04c5.18,1.63,12.24,3.061,15.149,7.84c0.03,0.051,0.051,0.101,0.08,0.141
	c-2.989-0.94-5.92-1.5-8.77-1.71c-25.55-1.87-44.89,24.12-51.25,48.109c-0.07,0.28,0.66,0.311,1.399,0.171
	c0.681-0.12,1.37-0.381,1.45-0.71c3.7-13.961,11.88-29.471,23.45-38.561c3.75-2.95,7.86-5.21,12.28-6.54
	c6.76-2.02,14.26-1.84,22.38,1.53c0.02,0.08,0.03,0.16,0.05,0.24c-0.66,12.51,17.82,5.359,24.71,0.43
	c0.54-0.09,1.05-0.37,1.24-0.811c3.939,0.5,7.92,0.78,11.75,1.851c5.61,1.57,8.65,5.97,10.83,11.08
	c4.17,9.79,3.52,21.29,3.58,31.689c0,0.75,2.899,0.24,2.899-0.779C528.51,450.21,528.98,437.39,522.95,426.43z M264.57,371.58
	l-0.99,0.66c0.74-0.93,1.53-1.82,2.34-2.69c0.25-0.271,0.5-0.53,0.75-0.8C265.4,370.35,264.57,371.58,264.57,371.58z M271.09,363.95
	c-0.05,0.04-0.1,0.09-0.15,0.14c0.67-0.79,1.3-1.609,1.89-2.449C272.38,362.5,271.81,363.311,271.09,363.95z M214.32,351.561
	c0.02,0.02,0.03,0.029,0.05,0.049l0,0c0.54,0.781,2.8,0.17,2.81-0.789c0-0.051,0-0.11-0.02-0.16c0-0.01,0-0.02-0.01-0.03
	c-1.42-5.42-2-10.851-2.04-16.31c6.84-1.76,13.68-3.57,20.39-5.76c0.22-0.07,0.41-0.17,0.56-0.271c0.48-0.24,0.81-0.61,0.65-1
	c-1.1-2.78-1.53-5.71-1.77-8.67c-0.14-1.65-0.41-4.511,0.02-6.78c3.08,4.49,5.53,8.9,6.87,14.42c0.21,0.85,1.47,0.84,2.26,0.381
	c6.79-1.101,13.51-2.82,20.13-4.671c2.34,5.65,4.34,11.37,5.41,17.591c0.01,0.06,0.05,0.109,0.1,0.159
	c0.51,0.81,2.79,0.271,2.81-0.7c0.05-2.41,1.2-4.459,3.62-5.14c3.26-0.92,6.33,1.96,8.06,4.31c5.1,6.94-1.17,13.98-8.24,14.92
	c0.02-0.539,0.01-1.1-0.04-1.67c-0.08-0.799-2.99-0.199-2.9,0.78c1.25,12.83-16.32,17.65-16.83,29.921c0,0.01,0.01,0.01,0.02,0.02
	c-2.32,4.439-5.59,6.72-10.84,5.51c-3.07-0.71-5.87-2.4-8.46-4.17c0.19-0.13,0.3-0.26,0.26-0.38c-1.4-4.28-5.18-6.9-8.69-9.4
	c-5.18-3.69-10.23-7.34-12.86-13.35c-0.29-0.66-3.1,0.319-2.9,0.78c0.19,0.43,0.4,0.83,0.61,1.229c-3.11,0.41-6.39,0.181-8.78-2.09
	c-0.79-0.75-1.33-1.67-1.69-2.66c-0.42-1.18-0.56-2.47-0.45-3.729c0.02-0.291,0.06-0.57,0.1-0.851c0.37-2.159,1.6-4.569,3.7-5.46
	C209.13,346.33,212.59,349.67,214.32,351.561z M212.43,290.96c-6.44,4.49-12.08,9.78-16.2,16.44c-0.11,0.18-0.21,0.359-0.32,0.55
	c-0.01-0.521-0.03-1.04-0.05-1.55c-0.21-4.2-0.82-8.34-2.1-12.47c-2.45-7.89-6.49-15.35-10.31-22.7
	C194.09,276.57,204.13,282.96,212.43,290.96z M141.63,151.55c2.23-2.42,5.01-4.6,8.08-6.49c-4.81,3.83-9.05,8.08-12.38,11.77
	C138.68,154.99,140.09,153.21,141.63,151.55z M144.5,236.77c5.73-11.75,11.26-23.6,17.41-35.15c2.92-5.49,6-10.92,9.51-16.05
	c1.15-1.69,5.32-8.45,8.14-7.71c8.65,10.53,21.77,12.41,34.63,13.41c-2.05,14.21-5.74,28.55-13.31,40.88
	c-3.87,6.3-9.17,11.74-15.83,15.04c-4.2,2.08-8.72,2.88-13.28,2.82c-3.5-0.46-7.66-1.06-10.55-1.49c-0.66-0.17-1.33-0.35-1.98-0.54
	c0.26-0.99-1.93-1.35-2.76-0.47c-6.12,6.5-4.39,13.8-5.59,21.94c0,0.03,0,0.05,0,0.08c-0.26,4.47-5.75,1.68-7.9,0.25
	c-4.82-3.22-7.43-8.8-8.32-14.36c-0.05-0.32-0.26-0.52-0.55-0.63C138.15,249.06,141.54,242.83,144.5,236.77z M132.04,257.63
	c1.46,6.72,5.48,12.75,11.93,15.59c3.74,1.65,9.56,1.13,9.85-3.89c0-0.02,0.01-0.03,0.02-0.05c0.52-3.5,0.42-6.9,0.73-10.13
	c0.27,0.08,0.56,0.17,0.9,0.27c4.24,1.55,8.55,3.19,12.85,4.96c7.67,15.08,15.36,29.48,14.65,46.82c0,0.13,0.03,0.229,0.07,0.319
	c-6.74,3.771-15.09,4.881-22.63,5.681c-7.74,0.819-16.62,1.21-24.09-1.48c-1.03-16.49-3.84-34.2-16.2-46.15
	C124.63,266.25,128.57,262.15,132.04,257.63z M112.77,273.96c1.81-0.87,3.53-1.83,5.15-2.87c11.87,11.91,14.52,29.37,15.52,45.54
	c-0.06,0.181,0.01,0.341,0.31,0.45c8.25,3.07,17.68,2.63,26.3,1.83c8.49-0.79,17.82-2.33,25.29-6.689
	c0.68-0.4,0.67-0.721,0.36-0.931c0.1-0.13,0.17-0.261,0.18-0.41c0.67-16.56-6.08-30.39-13.37-44.74c2.21,0.96,4.42,1.95,6.6,2.98
	c0.01,0.05,0.02,0.11,0.05,0.16c7.43,14.6,14.51,27.79,13.81,44.54v0.01c-3.15,7.77-4.01,16.311-4.05,24.65
	c-0.09,17.18,5.02,33.25,10.09,49.479c0.18,0.58,1.22,0.41,1.63,0.3c3.5-0.93,7.01-1.88,10.52-2.82c0.22-0.06,0.45-0.119,0.67-0.18
	c-0.26,0.1-0.46,0.23-0.57,0.381c-0.05,0.069-0.08,0.14-0.08,0.209c-0.01,0.73-0.18,1.311-0.31,2c-0.12,0.601,0.56,1.5,0.81,1.99
	l0.01,0.01c0.33,0.66,3.09-0.39,2.9-0.779c-0.2-0.41-0.95-1.5-0.82-1.93c0.2-0.701,0.31-1.33,0.32-2.07c0-0.17-0.61-0.18-1.27-0.07
	c6.48-1.72,12.98-3.359,19.52-4.74c0.66,0.85,1.23,1.771,1.66,2.78c-6.5,2.431-13.58,3.06-19.67,6.58c-0.55,0.31-0.64,0.55-0.5,0.71
	c-2.1,0.08-4.2,0.279-6.29,0.57c-2.74,0.38-5.45,0.91-8.04,1.49c-0.14-0.051-0.33-0.091-0.57-0.091
	c-17.86-0.1-35.5-3.35-53.19-5.399c-6.59-0.76-15.27-2.19-23.03-1.32c-2.4-10.73-4.79-21.471-7.19-32.2
	c9.98-7.46,12.02-22.79,11.38-34.29c-0.89-16.061-4.48-31.89-14.03-45.02c-0.03-0.04-0.06-0.08-0.08-0.11
	C112.76,273.96,112.76,273.96,112.77,273.96z M77.04,275.91c1.96-5.85,4.29-11.58,6.69-17.27c-2.91,7.54-5.66,14.81-7.66,20.16
	C76.4,277.82,76.73,276.85,77.04,275.91z M76.92,350.48c-2.05-7.271-3.5-15-4.5-22.49c-1.16-8.66-1.46-17.471-0.84-26.18
	c0.3-4.201,0.8-9.351,2.34-13.911c0.23-0.17,0.38-0.37,0.38-0.59c0-0.17,0.02-0.35,0.03-0.53c1.09-2.82,2.64-5.34,4.83-7.2
	c9.69,1.2,21.23-0.41,30.9-4.41c8.56,11.7,12.26,25.59,13.58,39.91c1.03,11.2,0.63,27.22-8.33,35.7
	c-0.4-13.96-0.8-27.921-1.19-41.87c-0.04-1.36-2.94-0.78-2.91,0.3c0.31,10.72,0.61,21.44,0.92,32.16
	c0.11,3.851,0.22,7.69,0.33,11.54c-0.48,0.189-0.96,0.38-1.44,0.54c-2.65,0.93-5.4,1.58-8.16,2.08
	c-5.35,0.979-10.9,0.69-16.32,0.739C81.28,356.34,78.44,355.88,76.92,350.48z M217.98,446.32c-0.06,4.399-0.13,8.8-0.2,13.199
	c-4.51,1.711-9.68,3.37-14.47,2.141c-7.15-1.82-7.89-10.55-7.64-17.061C202.46,448.65,210.3,447.85,217.98,446.32z M212.1,404.83
	c-1.51-0.29-2.9,1.86-0.97,2.229c4.92,0.95,5.08,6.881,4.31,11.471c-1.83-4.391-3.42-8.78-9.2-7.34c-1.93,0.479-5.58,1.89-9.02,2.56
	c-0.48-0.12-1.31,0-1.9,0.29c-3.21,0.33-5.88-0.33-6.27-3.521c0.02-0.109,0.01-0.22-0.04-0.34c-0.03-0.069-0.07-0.12-0.1-0.189
	c-0.93-1.771-2.96-2.42-5.03-2.65c-1.23-0.14-2.48-0.12-3.5-0.12c-0.31,0-0.62,0.021-0.93,0.03c-6.24,0.15-12.48,1.35-18.6,2.47
	c-16,2.92-32.05,7.13-48.36,7.84c-0.72,0.03-1.43,0.051-2.14,0.051c-1.94,0.01-3.8-0.11-5.55-0.49c-2.97-0.64-5.66-2.01-7.93-4.73
	c-4.99-5.979-7.44-14.239-9.59-21.579c-3.14-10.721-5.31-21.851-6.72-32.951c0.42,0.08,0.87,0.15,1.35,0.19
	c10.09,0.761,21.25,0.33,30.82-3.34c2.33,10.44,4.66,20.89,6.99,31.33c-3.09,0.63-5.96,1.71-8.37,3.489
	c-1.59,1.171,0.82,1.921,1.87,1.15c4.41-3.229,10.74-3.109,15.95-3.039c7.08,0.1,14.16,1,21.18,1.879
	c15.78,1.98,31.56,4.621,47.5,4.711c0.43,0,0.91-0.221,1.29-0.511c5.62-1.28,11.44-1.93,17.19-1.88c3.65,0.04,8.68,0.391,11.15,3.45
	c2.87,3.54,2.45,8.05,0.54,11.79c1.23-4.16,0.78-8.75-2.56-11.189c-0.8-0.591-3.44,0.569-2.7,1.109c4.38,3.19,3.43,11.43-0.17,15.48
	c1.57-4.891,1.74-10.15-2.8-12.131c-0.66-0.29-3.31,0.761-2.37,1.17c4.97,2.171,3.52,9.021,1.19,14.33
	C218.91,410.9,217.62,405.9,212.1,404.83z M256.99,434.96c-0.68,4.47-2.03,7.54-5.84,10.09c-2.86,1.91-5.38,3.86-7.66,6.311
	c-5.84-7.71-0.48-14.931,6.7-19.771c0.31,0.7,0.74,1.36,1.33,1.93c1.46,1.391,3.55,1.641,5.47,1.33
	C256.99,434.88,256.98,434.92,256.99,434.96z M257.61,433.15c-4.65,1.54-5.45-5.08-5.02-8.03c0.02-0.11,0-0.2-0.04-0.28
	c-0.05-0.12-0.15-0.21-0.29-0.27c0.84-0.13,1.67-0.29,2.5-0.46c1.8-0.36,3.59-0.801,5.35-1.311
	C261.47,426.18,261.9,431.73,257.61,433.15z M263.1,430.41c6.61,4.66,9.5,12.21,9.4,20.18c-5.76-3.39-10.75-10.05-12.58-16.189
	c0-0.011-0.01-0.03-0.01-0.04l0,0c-0.03-0.15-0.1-0.28-0.22-0.37C261.29,433.17,262.42,431.91,263.1,430.41z M220.18,419.01
	c-0.14-0.06-0.31-0.08-0.5-0.069c0.66-1.12,1.34-2.44,1.94-3.86c0.34-0.03,0.66-0.1,0.88-0.23c1.08-0.619,2.07-1.529,2.92-2.64
	c0.27-0.35,0.53-0.71,0.78-1.1c0.71-0.011,1.72-0.24,2.02-0.57c0.73-0.8,1.38-1.63,1.94-2.49c2.37-3.66,2.97-7.8,1.03-12.18
	c-1.57-3.53-5.16-4.41-8.67-5.03c-2.07-0.369-4.2-0.529-6.37-0.55c5.5-3.149,12-3.819,17.96-5.87c8.32,5.52,18.93,7.65,24.56-2
	c7.88,0.28,15.82,1.88,23.55,3.96c2.34,0.63,4.66,1.3,6.95,2c1.23,0.37,2.45,0.75,3.66,1.12
	C284.76,419.44,246.8,430.93,220.18,419.01z M297.84,445.32c-0.75-3.09-1.45-6.181-2.09-9.29c5.3,0.279,9.67-0.061,14.04-2.71
	c-0.64,3.42-1.2,6.85-1.62,10.319c-0.02,0.13,0.021,0.24,0.08,0.33C304.891,445.04,301.37,445.3,297.84,445.32z M331.76,409.09
	c-0.59,0.16-1.09,0.42-1.09,0.75c0,0.11,0,0.22,0,0.34c-0.13,0.12-0.24,0.24-0.37,0.351c-0.38,0.33,0.021,0.479,0.37,0.54
	c0.03,13.84,0.1,27.88-5.979,40.649c-1.421,2.99-3.08,5.69-5.61,7.891c-3.28,2.84-7.19,0.819-10.021-1.08
	c-3.97-2.66-6.859-6.86-9.2-11.021c3.72-0.18,7.34-0.75,10.88-2.1c1.24-0.47,0.91-1.391,0.1-1.78c0.12-0.109,0.2-0.24,0.22-0.38
	c1.591-12.93,4.87-25.51,8.5-38c0.261-0.88-2.17-0.59-2.77,0.18c-1.73-1.029-3.14-2.5-3.8-4.479c-0.96-2.88,1.56-5.671,4.37-6
	c1.569-0.19,3.18,0.771,3.81,2.189c0.25,0.58,0.22,1.21-0.02,1.78c-0.471,1.11-1.931,0.63-2.84,0.46
	c-0.681-0.13-3.181,0.96-2.381,1.11c2.521,0.47,6.601,0.52,8.08-2.09c1.32-2.341-1.72-4.28-3.609-4.57
	c-0.94-0.15-1.96-0.109-2.98,0.07c0.11-0.11,0.17-0.23,0.15-0.351c-0.71-4.35-1.66-9.81,0.239-13.96
	c1.631-3.58,3.761,1.57,4.091,2.95c0.5,2.12,0.569,4.479,0.3,6.64c-0.101,0.78,2.77,0.23,2.859-0.49
	c0.061-0.5,0.11-1.039,0.141-1.609c0.22-0.15,0.37-0.33,0.37-0.53c0.02-1.819,0.1-4.17,1.38-5.63c0.069,0.01,0.14,0.02,0.18,0.04
	c0.61,0.2,1.13,0.67,1.58,1.11c2.4,2.35,2.81,6.199,1.62,9.22c-0.15,0.09-0.29,0.19-0.4,0.31c-0.479,0.5-0.26,1.021,0.33,1.25
	c1.71,0.66,3.471,1.471,5,2.621c0.05,0.039,0.26,0.209,0.3,0.239c0.101,0.09,0.2,0.181,0.301,0.271c0.22,0.21,0.42,0.43,0.609,0.67
	c0.15,0.189,0.271,0.38,0.391,0.59c0.02,0.05,0.04,0.09,0.06,0.14c0.05,0.11,0.09,0.22,0.12,0.34c0.05,0.16,0.07,0.33,0.09,0.5
	c0,0.05,0,0.11,0,0.141c-0.01,0.1-0.02,0.21-0.04,0.31c-0.02,0.09-0.04,0.18-0.07,0.26l0,0c-0.01,0.011-0.01,0.021-0.02,0.04
	c-0.08,0.181-0.18,0.36-0.29,0.521c-0.01,0.01-0.01,0.02-0.03,0.03c-0.06,0.079-0.13,0.149-0.2,0.22
	c-0.069,0.07-0.14,0.14-0.22,0.21c-0.02,0.01-0.02,0.02-0.03,0.03c-0.01,0.01-0.02,0.01-0.029,0.02c-0.17,0.14-0.351,0.26-0.53,0.38
	c-0.04,0.03-0.08,0.05-0.12,0.07c-0.07,0.04-0.189,0.109-0.25,0.14c-0.21,0.11-0.43,0.2-0.649,0.29
	c-0.051,0.021-0.091,0.04-0.141,0.05c-0.08,0.03-0.22,0.08-0.29,0.101c-0.24,0.069-0.479,0.14-0.72,0.2
	c-0.11,0.029-0.23,0.05-0.34,0.069c-0.04,0.011-0.08,0.011-0.12,0.021c-0.25,0.04-0.49,0.069-0.74,0.09
	c-0.12,0.01-0.25,0.02-0.37,0.02c-0.05,0-0.1,0-0.149,0.011c-0.23,0-0.46-0.011-0.69-0.03c-0.12-0.01-0.229-0.021-0.35-0.04
	c-0.051,0-0.101-0.01-0.15-0.021c-0.21-0.039-0.42-0.09-0.62-0.159c-0.1-0.03-0.21-0.07-0.31-0.101c-0.03-0.01-0.04-0.02-0.061-0.02
	c-0.01-0.01-0.029-0.01-0.05-0.03c-0.189-0.09-0.359-0.19-0.53-0.3c-0.069-0.05-0.149-0.101-0.21-0.16
	c-0.04-0.04-0.079-0.07-0.119-0.11c-0.141-0.14-0.261-0.29-0.37-0.46c-0.021-0.029-0.07-0.109-0.101-0.16
	c-0.04-0.079-0.08-0.159-0.109-0.239c-0.08-0.2-0.13-0.41-0.16-0.62c-0.021-0.11-0.03-0.23-0.04-0.34c0-0.08,0-0.16,0-0.24
	c0.01-0.32,0.05-0.63,0.12-0.94c0.04-0.17,0.08-0.34,0.13-0.51c0.02-0.08,0.04-0.149,0.07-0.229c0.01-0.021,0.039-0.12,0.06-0.181
	c0.32-0.86,0.75-1.68,1.229-2.47c0.37-0.609-0.319-1.02-0.84-1.061c-0.689-0.06-1.52,0.23-1.899,0.851
	c-1.28,2.09-2.641,5.06-1.12,7.38c1.21,1.86,3.84,2.18,5.859,2.12c1.29-0.04,3.12-0.44,4.761-1.17
	C335.06,404.69,333.65,407.06,331.76,409.09z M333.03,401.31C332.96,401.33,332.92,401.33,333.03,401.31L333.03,401.31z
	 M345.19,393.75c3.939-0.77,7.829-1.87,11.39-3.59c5.18-2.5,7.95-6.551,10.53-11.6c2.46-4.83,4.68-10.381,4.699-15.871
	c-0.04-0.859,0-1.729,0.131-2.58c2.119-1.149,3.3-0.949,3.529,0.58c0.45,1.42-0.01,3.221-0.229,4.66
	c-0.38,2.49-0.94,4.93-0.73,7.471c0.04,0.55,1.721,0.359,2.51-0.17c0.07-0.051,0.131-0.09,0.181-0.15
	c0.05-0.04,0.08-0.08,0.109-0.13c0.021-0.03,0.04-0.07,0.051-0.101c0.01-0.02,0.029-0.039,0.029-0.069
	c0.271-1.95,1.42-3.351,2.94-4.261c1-0.6,2.16-0.989,3.36-1.17c0.05-0.01,0.1-0.01,0.149-0.02c2.41-0.311,5.55,0.6,5.24,3.5
	c-0.09,0.25-0.04,0.51,0.29,0.65c1.32,0.539,2.78,1.1,3.729,2.209c0.98,1.15,0.261,2.701-0.38,3.811
	c-0.239,0.41-0.1,0.67,0.21,0.811c0.311,0.18,0.74,0.16,1.12,0.08c0.141-0.031,0.26-0.061,0.38-0.101
	c0.101-0.03,0.221-0.04,0.311-0.08c0,0,0,0,0.01,0c0.22,0.04,0.41,0.229,0.56,0.37c0.44,0.41,0.65,0.99,0.811,1.55
	c0.22,0.81,0.27,2.21-0.3,3c-0.78,0.37-1.301,1.06-0.511,1.58c2.99,1.979,2.03,4.61,0.48,7.12c-1.35,2.18-3.81,4.99-6.18,2.49
	c-0.08-0.08-0.181-0.15-0.29-0.2c1.55-1.22,3.02-2.511,4.41-3.65c1.52-1.25-0.801-2.26-1.931-1.34c-1.77,1.45-3.51,2.92-5.34,4.3
	c-3.13,2.36-5.96,2.521-9.54,3.48c-4.36,1.17-8.43,6.02-11.71,8.859c-9.32,8.021-19.25,19.73-31.91,22.16
	c0.38-5.84,0.271-11.739,0.26-17.55c2.671-2.53,4.511-5.71,5.98-9.07c0.09-0.21-0.2-0.31-0.63-0.319c1.13-1.16,1.59-2.641,0.59-4.42
	c-0.25-0.45-0.59-0.84-0.97-1.211c1.25-0.149,2.51-0.319,3.779-0.51c0,0.03,0,0.051,0,0.08
	C342.34,395.141,344.91,394.689,345.19,393.75z M342.46,379.46c-0.2,4.521-0.28,9.04-0.17,13.569c-1.71,0.25-3.42,0.451-5.12,0.621
	c-0.06-0.041-0.11-0.08-0.17-0.121c-1.27-0.869-2.69-1.529-4.12-2.109c0.07-0.061,0.13-0.13,0.16-0.21
	c1.65-3.67,0.87-9.239-3.06-11.22c-1.62-0.82-3.721-0.45-5.16,0.59c-0.11,0.08-0.19,0.17-0.28,0.26c-0.84-2.52-2.6-4.25-5.94-3.4
	c-6.779,1.74-4.77,11.851-3.949,16.891c0.02,0.141,0.18,0.22,0.409,0.25c-1.84,0.74-3.51,1.92-4.51,3.36
	c-2.79,4.02,2.271,8.13,5.601,9.46c-0.78,2.72-1.54,5.439-2.271,8.18c-1.93-5.36-4.57-10.37-8.03-14.75
	c0.181-0.14,0.29-0.3,0.271-0.47c-0.72-8.671,3.16-17.11,3.71-25.73C320.57,376.891,331.65,379.279,342.46,379.46z M310.2,250.13
	c-7,3.89-16.48-12.79-7.25-14.19c0.43-0.06,0.8-0.27,1.069-0.53c0.66,1.14,1.28,2.28,1.851,3.43c1.86,3.78,3.61,7.48,5.479,11.08
	C310.93,249.9,310.5,249.96,310.2,250.13z M366.02,303.79c-5.47-10.45-7.619-25.62-4.5-37.15c0.061-0.22,0.131-0.44,0.19-0.66
	c0.34,0.15,0.65,0.33,0.95,0.54c1.92,1.37,3.05,3.98,4.01,6.59c-0.05,0.12-0.06,0.24,0,0.36c0.15,0.3,0.3,0.6,0.45,0.91
	c0.55,1.54,1.08,3.01,1.71,4.16c0.11,0.19,0.3,0.3,0.55,0.35c2.29,4.52,4.771,9.04,7.95,12.81c1.99,2.35,3.93,3.5,5.75,3.7
	C378.26,299.26,371.69,301.49,366.02,303.79z M385.78,292.98c-0.13,0.07-0.25,0.15-0.34,0.25c-0.091,0.1-0.19,0.19-0.28,0.29
	c-0.061,0.04-0.13,0.08-0.19,0.12c-0.42,0.23-0.84,0.29-1.279,0.1c-0.07-0.03-0.131-0.07-0.2-0.1c-1.73-0.84-3.26-2.76-4.391-4.24
	c-3.84-5-6.649-10.97-9.47-16.59c-1.57-4.14-3.32-8.32-7.79-8.81c-0.09-0.1-0.24-0.18-0.47-0.2c-0.48-0.12-1.11-0.04-1.561,0.22
	c-11.01,1.23-20.119,9.83-31.439,3.67c-4.78-2.6-8.351-8.27-11.18-12.73c-3.101-4.88-5.49-10.21-7.82-15.48
	c-3.9-8.84-11.33-16.66-12.79-26.44c9.14-2.62,18.12-6.89,26.47-11.11c1.351-0.68,2.69-1.39,4.03-2.11
	c0.64-0.27,1.189-0.51,1.609-0.68c1.391-0.59,3.271-1.81,5.32-3.32c4.72-2.93,9.21-6.21,13.29-9.94c0.13,3.82,1.01,7.09,3.88,9.91
	c3.17,3.12,5.681,5.39,7.38,9.64c2.771,6.92,5.561,13.54,14.181,11.12c0.069-0.02,0.109-0.04,0.17-0.07
	c0.02,0.01,0.02,0.02,0.02,0.02s0-0.02,0-0.03c0.45-0.16,0.73-0.36,0.851-0.56c0.37-0.19,0.64-0.44,0.63-0.72
	c-0.25-7.31,8.27-14.9,14.729-8.94c6.011,5.54,1.841,17.11-4.93,20.17c-0.83,0.09-1.95,0.54-2.02,0.9
	c-0.351,0.34-0.24,0.69,0.25,0.76c2.55,6.82,7.72,12.54,12.359,18.01c-0.77,11.26-1.91,22.59-4.08,33.68
	c-0.56,2.87-1.25,5.73-2.29,8.47C388.12,289.05,387.07,291.62,385.78,292.98z M411.39,263.84c-0.17,11.13-3.33,24.5-9.76,34
	c-4.35-1.91-9.12-2.69-13.47-4.63c1.109-1.18,2.1-2.77,2.92-4.72c3.21-7.62,3.93-16.5,4.91-24.63c0.7-5.83,1.26-11.68,1.68-17.54
	c0.021-0.26,0.04-0.52,0.061-0.78c0.01-0.13-0.021-0.24-0.08-0.33c3.21,1.48,6.6,2.6,9.68,4.37c0.83,0.48,1.5,1.11,2.03,1.84
	C411.73,254.68,411.45,260.07,411.39,263.84z M484.75,331.311c0.16,0,0.33-0.041,0.51-0.101c0.76,3.29,0.76,8.87-2.37,10.72
	c-0.149-0.119-0.29-0.279-0.439-0.479c-0.11-0.16-0.2-0.29-0.3-0.431C482.3,337.46,482.63,331.33,484.75,331.311z M474.19,338.04
	c0.22-1.64,0.72-3.271,1.55-4.7c0.16-0.26,0.35-0.5,0.55-0.73c0.02,0.011,0.03,0.011,0.05,0.021c0.87,0.37,1.5,1.271,2.021,2.011
	c0.42,3.909,0,7.899-2.07,11.049c-0.01,0-0.021,0.011-0.03,0.011c-0.729,0.03-1.39-0.45-1.93-1.07
	C473.85,342.48,473.9,340.18,474.19,338.04z M465.92,338.17c0.38-2.65,1.6-7.37,4.94-6.96c0.79,2.31,0.239,5.271-0.16,7.56
	c-0.16,0.91-1.37,5.801-2.851,7.011c-0.72-0.181-1.42-0.72-2.05-1.38C465.24,342.51,465.7,339.71,465.92,338.17z M458.88,333.96
	c0.79-0.649,1.76-0.87,2.93-0.46c0.261,0.09,0.53,0.2,0.811,0.359c0.06,0.031,0.13,0.051,0.21,0.07c-0.29,0.19-0.49,0.43-0.5,0.7
	c-0.08,3.341-1.25,6.83-3.53,9.229c-0.7,0.171-1.41,0.121-1.97-0.459c-0.4-0.41-0.68-0.851-0.89-1.271
	C456.22,338.99,457.1,335.42,458.88,333.96z M476.51,419.89c0.12-0.159,0.19-0.34,0.17-0.54c-0.04-0.449-0.12-0.869-0.21-1.279
	c0.011-0.08,0-0.16,0.011-0.25c0-0.04-0.03-0.08-0.091-0.11c-1.18-4.479-5.18-6.91-9.54-8.52c-7.069-2.61-15.149-3.79-20.92-8.99
	c-6.97-6.29-3.93-16.64-1.17-24.181c2.73-7.43,7.04-14.439,9.11-22.109c0.07,0,0.14,0,0.22-0.01
	c12.561-1.061,22.61,7.449,33.15,12.88c0.21,0.11,0.54,0.11,0.89,0.05c-3.1,8.22-1.42,20.7,6.57,23.88
	c0.03,0.011,0.069,0.021,0.1,0.03c0.65,0.27,1.73,0.22,2.26-0.311c3.681-3.689,7.21-0.33,8.28,3.67
	c1.69,6.29-3.93,9.99-9.399,10.771c-0.62,0.09-1.891,0.62-1.561,1.5c1.47,3.91,2.18,7.729,2.271,11.92c0,0.15,0.04,0.27,0.09,0.38
	C491.71,422.99,477.6,428.76,476.51,419.89z M245.56,356.01c-0.11-0.42,1.11-0.73,1.34-0.8c4.3-1.319,2.58-5.22,0.57-7.8
	c-0.18-0.23,2.37-1.45,2.9-0.78c1.19,1.53,2.95,3.96,1.98,6.021c-0.94,1.99-3.27,2.779-5.22,3.38
	C246.9,356.109,245.67,356.42,245.56,356.01z M261.44,340.52c1.09-0.189,4.68-0.72,4.86,1.08c0.11,1.061-2.8,1.7-2.9,0.78
	c-0.1-1.01-3.97-0.39-4.08,0.62c-0.1,0.939-3.01,1.51-2.89,0.38C256.63,341.49,260.01,340.76,261.44,340.52z M227.81,348.26
	c0.19-1.91,3.57-2.609,5.05-2.869c0.99-0.17,4.64-0.801,4.81,0.899c0.09,0.84-2.83,1.41-2.9,0.78c-0.12-1.19-3.96-0.67-4.07,0.42
	C230.61,348.41,227.76,348.74,227.81,348.26z M241.83,363.439c-0.32-0.629,2.46-1.619,2.9-0.779c1.68,3.29,7.53,2.22,7.7-1.551
	c0.04-0.979,2.93-1.409,2.9-0.779c-0.15,3.24-3.1,4.96-6.05,5.42C246.79,366.15,243.15,366.02,241.83,363.439z M255.32,332.529
	c1.26-1.149,3.15-1.34,4.78-1.34c0.41,0,1.18,0.211,0.76,0.761c-0.41,0.54-1.28,0.771-1.92,0.771c-0.34,0-0.71,0.01-0.92,0.029
	c-0.11,0.01-0.22,0.029-0.33,0.05c0.09-0.01,0.1-0.01,0.02,0.011c-0.01,0.01-0.03,0.039-0.1,0.09c-0.5,0.449-1.4,0.66-2.05,0.55
	C254.96,333.359,254.89,332.92,255.32,332.529z M228.37,337.38c1.33-1.21,3.25-1.479,4.98-1.479c0.3,0,1.18,0.07,0.71,0.57
	c-0.44,0.459-1.31,0.719-1.93,0.719c-0.37,0-0.75,0-1.12,0.041c0,0,0,0-0.01,0c0,0,0.01,0,0,0c-0.51,0.459-1.26,0.68-1.93,0.72
	C228.81,337.96,227.86,337.84,228.37,337.38z M187.68,227.57c0.94-1.23,1.64-2.6,2.21-4.04c1.15-2.92,1.93-5.96,3.01-8.91
	c0.33-0.9,3.21-1.27,2.89-0.4c-1.59,4.35-2.35,9.71-5.42,13.35c-2.84,3.36-6.82,3.56-10.35,1.14c-0.7-0.48,1.9-1.64,2.7-1.1
	C184.5,228.83,186.19,229.54,187.68,227.57z M168.47,227.02c0.15-0.84,2.94-1,2.9-0.78c-0.67,3.8,0.94,6.79,4.5,8.3
	c0.44,0.19-0.82,0.73-0.88,0.75c-0.52,0.18-1.31,0.44-1.85,0.2C169.52,233.96,167.78,230.9,168.47,227.02z M173.05,205.64
	c-0.18-0.67,0.71-1.12,1.21-1.27c2.96-0.86,5.72,0,8.24,1.63c1.3,0.84-1.31,2.17-2.27,1.56c-1.66-1.07-3.49-2.01-5.5-1.43
	C174.23,206.28,173.22,206.3,173.05,205.64z M199.12,212.92c0.42-0.51,1.29-0.75,1.92-0.75c1.78,0,3.52,0.08,5.16,0.84
	c0.6,0.28,0.07,0.77-0.29,0.98c-0.53,0.29-1.45,0.59-2.04,0.31c-1.3-0.6-2.59-0.68-4-0.68
	C199.49,213.61,198.68,213.45,199.12,212.92z M181.1,195.42c2.49,0.83,4.92,1.72,7.14,3.15c1.21,0.78-1.45,2-2.29,1.45
	c-2.06-1.33-4.29-2.19-6.6-2.96C177.7,196.51,180.13,195.09,181.1,195.42z M200.51,203.85c0.09-0.67,0.99-1.14,1.61-1.14
	c2.02,0,4.17-0.03,6.05,0.83c1.66,0.76-0.54,2.41-1.69,1.88c-1.45-0.66-3.07-0.69-4.64-0.69
	C201.3,204.74,200.41,204.6,200.51,203.85z M381.39,216.55c0.36-3.17,1.12-6.45,4.45-7.63c0.57-0.2,1.54-0.04,1.72,0.64
	c0.2,0.74-0.6,1.21-1.17,1.41c-1.71,0.61-1.89,3.91-2.05,5.37C384.18,217.7,381.22,218.07,381.39,216.55z M336.5,249.88
	c-6.43,7.54-11.3-7.21-12.71-11.41c-0.271-0.81,2.6-1.65,2.9-0.78c0.79,2.37,1.619,4.74,2.689,7c0.64,1.36,1.32,2.77,2.26,3.95
	c0.561,0.7,1.511,2.1,2.19,1.3C334.37,249.31,337.24,249.01,336.5,249.88z M359.13,240.36c-0.03,2.63-1.13,4.42-3.58,5.46
	c-0.47,0.2-1.45,0.45-1.899,0.05c-0.471-0.42,0.56-0.92,0.81-1.03c1.42-0.6,1.75-2.32,1.771-3.7
	C356.25,240.12,359.14,239.64,359.13,240.36z M347.26,216.63c-3.229,0.31-6.51,0.32-8.58,3.18c-0.79,1.09-3.52,0.63-2.43-0.87
	c2.69-3.72,7.04-4.05,11.26-4.45C349.48,214.3,348.88,216.47,347.26,216.63z M316.52,231.34c-0.59,0.26-1.369,0.51-2.02,0.4
	c-0.07-0.01-0.14-0.021-0.21-0.03c-0.13,0.09-0.271,0.18-0.39,0.3c-0.44,0.46-0.74,1.02-0.98,1.6c-0.2,0.47-1.3,0.66-1.71,0.74
	c-0.14,0.03-1.32,0.24-1.14-0.2c1.1-2.6,4.069-3.94,6.819-3.47C317.55,230.79,316.72,231.26,316.52,231.34z M327.29,205.84
	c2.62-4.97,7.3-8.03,12.96-8.16c1.97-0.05,1.43,2.14-0.24,2.18c-4.45,0.1-7.88,2.44-9.939,6.34
	C329.46,207.36,326.51,207.31,327.29,205.84z M310.18,215.24c-2.41-0.21-4.229,1.28-5.72,3.02c-0.46,0.54-1.2,0.81-1.91,0.79
	c-0.39-0.01-1.26-0.31-0.79-0.86c2.42-2.82,5.69-4.94,9.54-4.61C313.26,213.76,311.29,215.34,310.18,215.24z M452.21,381.91
	c-0.58,0.01-1.87-0.07-1.96,0.76c-0.12,1.061,0.52,2.02,1.11,2.84c0.909,1.24-1.851,2.4-2.65,1.29c-0.99-1.37-1.96-3.21-1.1-4.89
	c0.88-1.71,3.09-2.17,4.83-2.2C454.42,379.68,453.89,381.88,452.21,381.91z M464.9,376.721c0.14-0.141,0.29-0.281,0.42-0.431
	c-0.12,0.13,0.01-0.11,0.02-0.069c0.04-0.191,0.04-0.391,0.04-0.58c0-0.631,1.19-0.971,1.64-1.021c0.53-0.06,1.271,0.021,1.271,0.69
	c0,0.89-0.43,1.359-1.04,1.97c-0.49,0.489-1.39,0.71-2.05,0.55C464.57,377.67,464.46,377.15,464.9,376.721z M450.76,374.75
	c0.141-0.141,0.29-0.279,0.42-0.43c0.021-0.021,0.011-0.01,0.021-0.03c0.01-0.011,0.01-0.021,0.02-0.021
	c-0.01-0.029,0.03-0.18,0.03-0.22c0-0.11,0-0.229,0-0.34c0-0.67,1.13-1.03,1.62-1.08c0.57-0.06,1.29,0.101,1.29,0.78
	c0,0.89-0.42,1.39-1.03,2.01c-0.5,0.5-1.36,0.74-2.05,0.551C450.48,375.8,450.31,375.21,450.76,374.75z M472.6,390.311
	c-4.58,5.01-11.909,5.149-18.08,3.6c-1.71-0.43,0.631-2.051,1.721-1.77c4.77,1.199,10.399,1.42,13.979-2.5
	C471,388.79,473.81,388.99,472.6,390.311z M466.27,364.08c0.431-0.48,1.301-0.73,1.931-0.73c1.02,0,2.03,0,3.05,0
	c0.32,0,1.18,0.101,0.72,0.61c-0.43,0.479-1.3,0.729-1.93,0.729c-1.021,0-2.03,0-3.05,0C466.67,364.689,465.81,364.59,466.27,364.08
	z M452.59,364.08c0.43-0.48,1.3-0.73,1.93-0.73c0.25,0,0.511,0,0.761,0c0.319,0,1.18,0.101,0.72,0.61
	c-0.43,0.479-1.3,0.729-1.93,0.729c-0.25,0-0.511,0-0.761,0C452.99,364.689,452.13,364.59,452.59,364.08z M496.16,395.87
	c1.06-2.899,5.17-4.05,7.04-1.25c0.68,1.01-2.13,1.979-2.69,1.149c-0.21-0.319-0.59-0.879-1.029-1.039
	c-0.011,0.01-0.011,0.01-0.021,0.02c-0.17,0.25-0.31,0.48-0.41,0.77c-0.229,0.641-1.02,0.931-1.64,1
	C497.1,396.56,495.93,396.51,496.16,395.87z M204.3,353.779c2.3-2.43,6.32-2.309,8.68-0.09c0.52,0.49-2.13,1.57-2.72,1.021
	c-0.53-0.489-1.13-0.979-1.82-1.22c-0.7-0.23-0.99-0.41-1.5,0.119c-0.45,0.48-1.3,0.67-1.93,0.711
	C204.69,354.35,203.84,354.26,204.3,353.779z M275.66,343.62c0.02-1.31,0.52-2.521,1.58-3.32c1.14-0.85,2.77-0.989,4.02-0.319
	c0.61,0.319,0.18,0.92-0.24,1.189c-0.54,0.34-1.42,0.57-2.03,0.26c-0.01,0.01-0.01,0.021-0.02,0.03c-0.31,0.55-0.4,1.2-0.41,1.819
	c-0.01,0.631-1.19,0.961-1.64,1.011C276.41,344.35,275.65,344.279,275.66,343.62z"></path>
</svg>