<?xml version="1.0" standalone="no"?>
<svg version="1.1" id="Layer_1" xmlns="http://www.w3.org/2000/svg" xmlns:xlink="http://www.w3.org/1999/xlink" x="0px" y="0px" width="595.279px" height="595.281px" viewBox="0 0 595.279 595.281" enable-background="new 0 0 595.279 595.281" xml:space="preserve">
<path id="color_x5F_2" fill="#FBC02D" d="M305.035,409.799c1.025,3.329,1.578,6.856,1.827,10.444
	c-1.351,10.528-3.349,29.354-4.404,39.491c-0.328,1.219-0.677,2.431-1.044,3.634c-0.126,0.146-0.254,0.292-0.381,0.437
	c-0.4,0.46-0.362,0.824-0.105,1.072c-0.189,0.592-0.373,1.188-0.572,1.774h-107.08c3.363-8.674,6.116-17.639,9.343-26.341
	c4.51-12.16,9.689-22.89,16.833-33.631c3.731-5.017,8.055-11.011,12.016-16.667c4.152-5.487,8.349-10.939,12.37-16.533
	c5.027-6.995,7.184-14.313,6.993-22.885c-0.191-8.599-1.21-17.156-1.529-25.75c0.073-0.049,0.153-0.104,0.239-0.162
	c0.495,0.119,1.092,0.05,1.523-0.312c5.834-4.876,10.868-10.488,13.375-17.781c2.462-7.159,1.104-14.803-1.514-21.691
	c0.457-0.209,0.916-0.424,1.378-0.632l2.104-0.822c0.731-0.227,1.479-0.386,2.255-0.41c0.308-0.009,0.662-0.064,0.994-0.173
	c4.854,8.657,0.723,19.786-0.158,28.988c-0.013,0.14,0.012,0.255,0.057,0.355c-0.099,0.19-0.047,0.378,0.246,0.53
	c8.162,4.231,22.65,3.35,30.999-1.403c0.83,0.059,2.391-0.364,2.391-1.039c0.01-7.654,0.295-16.535-3.64-23.315l-0.239-1.948
	l-3.62-3.72c0.235,0.022,0.465,0.054,0.693,0.088c0.291,0.169,0.67,0.256,1.07,0.207c9.664,2.253,13.239,14.403,14.184,24.488
	c-0.102,0.148-0.203,0.292-0.305,0.441c-0.296,0.432-0.045,0.661,0.405,0.737c0.069,0.946,0.117,1.867,0.146,2.757
	c-0.261,0.205-0.402,0.449-0.307,0.699c0.125,0.324,0.231,0.646,0.341,0.968c0,0.019,0.001,0.039,0.001,0.058
	c0,0.074,0.034,0.132,0.084,0.183c4.645,14.19-5.96,25.753-13.787,36.669c-4.013,5.597-6.86,11.318-8.243,18.114
	c-1.684,8.283,1.337,15.773,4.859,23.104C298.099,396.623,302.79,402.503,305.035,409.799z"></path>
<path id="color_x5F_1" d="M292.767,238.904c-0.358-0.651,2.415-1.654,2.897-0.776c2.604,4.735,10.269,20.279-1.332,18.538
	c-1.575-0.237,1.031-1.53,1.818-1.412C300.82,255.954,293.833,240.842,292.767,238.904z M281.419,264.472
	c-3.573-0.886-3.429-4.941-1.984-7.619c0.311-0.577,1.055-0.819,1.667-0.908c0.09-0.013,0.443-0.029,0.753,0.019
	c0.576-0.145,1.162-0.143,1.398,0.135c1.251,1.474,3.089,2.482,5.047,2.533c0.327,0.009,0.931,0.138,0.864,0.503
	c0.785-0.039,1.412,0.154,0.72,0.748c-1.327,1.138-2.193,2.7-3.63,3.739C284.802,264.672,283.116,264.892,281.419,264.472z
	 M282.619,262.747c0.428,0.264,1.222,0.688,1.629,0.353c0.494-0.408,0.921-0.87,1.333-1.36c0.469-0.558,0.947-1.104,1.457-1.62
	c-1.972-0.069-3.903-0.696-5.428-1.921C281.138,259.867,281.117,261.824,282.619,262.747z M280.896,244.161
	c0.778-2.067,2.708-2.545,4.338-1.04c0.959,0.886,3.473-0.54,2.229-1.688c-2.942-2.715-7.971-1.262-9.342,2.381
	C277.528,245.393,280.436,245.385,280.896,244.161z M301.133,239.006c0.107-0.69,0.297-1.485,0.938-1.876
	c-0.15,0.092,0.242,0.011,0.349,0.013c0.424,0.01,0.854,0.187,1.241,0.342c0.641,0.258,1.477,0.049,2.048-0.286
	c0.353-0.206,0.917-0.813,0.271-1.072c-2.965-1.192-7.166-0.36-7.735,3.267C298.073,240.468,300.986,239.945,301.133,239.006z
	 M380.733,142.106c-1.819-3.236-1.752-7.542,0.709-10.719c0.072-0.094,0.18-0.177,0.305-0.252c-0.349-2.495,0.125-4.89,1.774-7.514
	c0.394-0.624,2.093-1.072,2.688-0.564c7.372,6.287,17.094,9.564,25.183,14.831c4.576,2.98,10.191,7.062,11.951,12.314
	c1.724-1.864,3.939-3.21,6.549-3.606c-0.226-0.026-0.35-0.086-0.292-0.179c2.182-3.489,5.077-4.88,9.053-5.479
	c4.434-0.668,8.452-0.19,12.688-2.532c2.652-1.466,5.208-3.068,7.924-4.417c0.303-0.15,2.121-0.808,2.288-0.183
	c0.653,2.456-0.313,4.435-1.954,5.96c0.134,0.038,0.227,0.1,0.244,0.197c0.591,3.118-0.973,5.521-3.476,6.958
	c0.295,0.052,0.47,0.178,0.387,0.396c-3.764,9.921-17.083,11.076-23.708,18.309c-0.178,0.194-0.602,0.354-1.065,0.455
	c-1.76,2.648-3.849,5.002-6.699,6.671c-3.319,1.942-6.9,3.172-10.79,2.641c-4.461-0.609-8.393-1.507-12.465,1.426
	c-2.034,1.466-4.021,2.986-6.118,4.365c-0.242,0.159-0.843,0.281-1.403,0.321c-0.406,0.376-1.151,0.718-1.668,0.681
	c-1.139-0.081-2.771-0.167-3.427-1.278c-0.324-0.548-0.225-1.184,0.021-1.763c-0.002,0-0.004,0-0.006,0
	c-2.403-0.256-5.561-1.315-3.743-4.245c0.908-1.464,2.238-2.744,3.677-3.818c-0.175-0.013-0.315-0.054-0.396-0.142
	c-6.516-7.226,10.364-8.163,13.865-9.356c0.221-0.075,0.473-0.12,0.719-0.141c-5.002-3.629-10.373-7.128-16.288-8.678
	c-5.523-1.447-8.111-4.365-6.926-10.165C380.371,142.415,380.522,142.248,380.733,142.106z M431.232,146.5
	c0.973-0.005,1.95,0.148,2.813,0.589c1.547,0.791,3.54,2.659,5.338,2.025c0.799-0.281,1.846-0.077,1.918,0.289
	c0.355,0.049,0.534,0.195,0.291,0.479c-3.145,3.666-5.151,8.369-7.54,12.737c6.925-4.66,16.772-6.958,19.798-14.811
	c-0.224,0.002-0.434-0.021-0.585-0.122c-0.446-0.298,0.735-0.777,0.863-0.83c2.117-0.865,3.038-3.152,2.912-5.297
	c-1.422,0.763-2.967,1.314-4.338,1.651c-1.694,0.416-1.955-0.511-0.25-0.931c3.302-0.811,6.663-3.215,6.361-6.732
	c-3.435,1.956-6.812,4.287-10.617,5.3c-5.265,1.401-12.504-0.109-15.736,5.066C432.284,146.197,431.774,146.391,431.232,146.5z
	 M382.696,134.635c-1,4.03,0.767,8.772,5.083,10.002c1.68,0.479-0.727,1.98-1.744,1.69c-1.165-0.332-2.188-0.878-3.063-1.576
	c0.162,6.147,6.998,6.049,12.14,8.745c5.04,2.643,9.793,5.831,14.356,9.221c0.722,0.536-1.916,1.683-2.699,1.102
	c-0.806-0.598-1.622-1.204-2.445-1.809c-0.129,0.064-0.289,0.132-0.501,0.204c-3.281,1.118-17.276,1.523-12.357,7.467
	c0.005-0.003,0.011-0.007,0.016-0.01c0.564-0.331,1.425-0.572,2.054-0.269c0.618,0.299,0.147,0.907-0.252,1.142
	c-1.538,0.901-3.116,2.09-4.233,3.489c-0.434,0.543-1.227,1.462-0.991,2.235c0.3,0.985,1.607,1.125,2.477,1.218
	c1.272-1.584,2.88-2.913,4.455-4.171c0.546-0.438,1.354-0.678,2.049-0.549c0.577,0.106,0.739,0.593,0.262,0.975
	c-1.372,1.096-8.188,6.518-3.319,6.862c0.042,0.003,0.071,0.01,0.109,0.014c3.611-2.438,6.869-5.355,11.024-6.844
	c3.753-1.345,7.414-0.045,11.21,0.26c12.529,1.008,15.888-15.511,22.104-23.431c-1.152,0.187-2.322,0.13-3.431-0.423
	c-1.109-0.553-2.146-1.359-3.29-1.818c-3.313-1.328-6.021,1.558-7.444,4.087c-0.075,0.133-0.216,0.249-0.392,0.35
	c0.102,1.406-0.08,2.886-0.634,4.441c-0.309,0.863-3.168,1.233-2.882,0.427c3.271-9.185-6.851-15.86-13.565-19.89
	c-6.968-4.181-15.06-7.326-21.583-12.289c-1.365,3.408-0.534,6.515,1.1,10.028c0.331,0.713-2.487,1.659-2.897,0.776
	C383.143,135.728,382.906,135.176,382.696,134.635z M431.453,151.934c0-0.342,0-0.684,0-1.026c0-0.394-2.898,0-2.898,0.776
	c0,0.342,0,0.684,0,1.026C428.554,153.105,431.453,152.71,431.453,151.934z M486.297,442.167c0.055,0.125,0.086,0.271,0.073,0.442
	c-0.525,7.276-1.319,14.378-3.672,21.319c-0.432,1.27-3.329,1.247-2.781-0.37c1.791-5.284,2.612-10.669,3.131-16.148
	c-3.609,4.902-8.42,9.06-13.974,11.361c-0.246,0.102-0.503,0.146-0.748,0.149c-0.389,0.637-2.948,0.889-2.809,0.479
	c3.875-11.323,2.84-22.75,1.82-34.282c-4.491,15.338-12.529,31.373-27.905,35.763c-1.56,0.445-2.011-0.681-0.84-1.273
	c-0.466-0.086-0.825-0.355-0.819-0.869c0.096-8.104,1.778-15.454,6.214-21.569c-8.95,5.838-17.157,13.835-21.836,23.138
	c-0.563,1.118-3.498,1.148-2.767-0.31c0.617-1.226,1.306-2.424,2.033-3.604c0.753-5.31,0.091-10.542-0.481-15.799
	c-2.066,8.476-4.666,16.693-12.881,21.388c-0.665,0.38-1.36,0.256-1.732-0.08c-0.156-0.074-0.28-0.181-0.345-0.335
	c-3.273-8.006-0.866-17.256,1.724-25.324c-6.068,6.749-12.324,14.652-13.189,23.521c-0.079,0.813-2.926,1.063-2.897,0.776
	c0.025-0.268,0.077-0.531,0.112-0.797c-0.354,0.002-0.611-0.066-0.627-0.229c-0.343-3.821-0.885-7.603-1.578-11.359
	c-2.605,6.189-8.46,11.272-14.044,14.426c-0.788,0.444-2.942,0.258-2.155-0.479c-0.315-0.075-0.574-0.244-0.691-0.535
	c-6.979-17.352,1.897-36.2,10.961-51.89c-13.63,14.872-26.17,33.913-26.532,53.885c-0.018,0.957-2.92,1.571-2.897,0.362
	c0.026-1.505,0.124-3.005,0.284-4.499c-0.188-0.166-0.311-0.398-0.308-0.716c0.047-5.994,0.445-11.979,0.577-17.966
	c-3.437,9.396-8.396,18.69-16.603,24.219c-1.222,0.823-3.574-0.314-1.945-1.412c2.916-1.965,5.385-4.448,7.519-7.242
	c-0.724,0.417-1.979,0.657-2.262,0.257c-3.979-5.673-2.666-13.523-0.94-19.789c0.198-0.719,0.413-1.432,0.63-2.145
	c-3.923,6.832-7.982,13.59-11.774,20.494c-0.181,0.511-0.372,1.021-0.58,1.528c-0.403,0.981-3.126,1.223-2.769-0.061
	c-0.111-0.16-0.123-0.376,0.03-0.661c0.204-0.375,0.416-0.745,0.622-1.117c3.709-10.748,1.197-22.543-2.531-33.4
	c0.069,6.339-0.939,12.631-3.535,18.565c-3.972,9.077-10.2,16.775-16.65,24.202c-0.24,0.764-0.477,1.529-0.734,2.285
	c-0.33,0.968-3.233,1.354-2.896,0.365c0.021-0.061,0.038-0.122,0.06-0.183c0.199-0.587,0.383-1.183,0.572-1.774
	c-0.257-0.248-0.295-0.611,0.105-1.072c0.127-0.145,0.255-0.292,0.381-0.437c0.367-1.203,0.716-2.415,1.044-3.634
	c1.96-7.269,3.247-14.798,3.917-22.205c0.5-5.526,0.892-11.484,0.487-17.286c-0.249-3.587-0.802-7.115-1.827-10.444
	c-2.244-7.296-6.936-13.177-10.201-19.974c-3.522-7.331-6.543-14.821-4.859-23.104c1.381-6.796,4.23-12.518,8.243-18.114
	c7.827-10.917,18.432-22.479,13.787-36.67c-0.05-0.05-0.084-0.107-0.084-0.182c0-0.019-0.001-0.039-0.001-0.058
	c-0.108-0.322-0.216-0.645-0.341-0.969c-0.097-0.25,0.046-0.493,0.307-0.698c-0.028-0.891-0.076-1.812-0.146-2.757
	c-0.45-0.076-0.701-0.306-0.405-0.737c0.102-0.148,0.203-0.293,0.305-0.441c-0.943-10.085-4.521-22.235-14.183-24.488
	c-0.4,0.05-0.779-0.037-1.07-0.207c-0.228-0.035-0.458-0.065-0.693-0.088c-0.324-0.033-0.657-0.05-0.993-0.062
	c0.374,0.52,0.813,1.005,1.337,1.441c0.089,0.025,0.168,0.061,0.225,0.115c0.078,0.073,0.142,0.153,0.218,0.228
	c0.041,0.029,0.076,0.062,0.117,0.09c0.055,0.038,0.08,0.083,0.093,0.128c1.137,1.146,2.087,2.393,2.862,3.728
	c3.936,6.781,3.648,15.662,3.641,23.316c-0.002,0.675-1.562,1.098-2.392,1.039c-8.349,4.752-22.836,5.635-30.999,1.403
	c-0.293-0.152-0.345-0.341-0.246-0.53c-0.044-0.103-0.07-0.216-0.057-0.355c0.881-9.203,5.012-20.332,0.158-28.988
	c-0.333,0.109-0.687,0.164-0.994,0.173c-0.776,0.024-1.524,0.184-2.255,0.41l-2.104,0.822c-0.462,0.208-0.921,0.423-1.378,0.632
	c2.618,6.889,3.976,14.532,1.514,21.691c-2.507,7.292-7.541,12.905-13.375,17.781c-0.431,0.359-1.028,0.431-1.523,0.312
	c-0.087-0.021-0.17-0.048-0.25-0.081c0.003,0.081,0.007,0.162,0.01,0.243c0.319,8.593,1.337,17.15,1.529,25.75
	c0.191,8.573-1.966,15.89-6.993,22.884c-4.021,5.595-8.217,11.046-12.37,16.534c-3.839,5.074-7.641,10.181-11.227,15.461
	c-0.273,0.402-0.522,0.805-0.79,1.206c-7.144,10.742-12.323,21.472-16.833,33.631c-3.227,8.702-5.98,17.667-9.343,26.341
	c-0.643,1.658-1.3,3.31-1.996,4.942c-0.492,1.155-3.411,1.208-2.765-0.309c1.947-4.569,3.648-9.255,5.287-13.968
	c-0.423-0.003-0.74-0.115-0.736-0.368c0.212-13.352-6.708-28.946-16.793-38.47c4.758,11.344,8.565,22.172,5.861,34.905
	c-0.11,0.517-0.615,0.881-1.178,1.054c1.007,1.82,1.832,3.721,2.182,5.839c0.11,0.664-2.812,1.297-2.897,0.775
	c-0.933-5.646-5.475-9.263-7.231-14.514c-1.322-3.954-2.211-7.709-2.669-11.643c-2.002,5.595-2.673,11.45-1.659,17.234
	c2.016,3.233,3.363,6.808,3.683,10.71c0.075,0.915-2.84,1.481-2.897,0.776c-0.088-1.08-0.26-2.134-0.501-3.164
	c-0.475,0.021-0.893-0.095-1.038-0.427c-1.018-2.328-1.711-4.686-2.137-7.052c-2.858-4.567-7.062-8.452-11.587-11.591
	c3.345,4.813,4.714,11.663,4.821,16.84c0.002,0.125-0.069,0.24-0.183,0.347c0.925,0.769,1.885,1.521,2.919,2.247
	c1.402,0.983-1.084,2.538-2.214,1.745c-5.227-3.668-9.033-7.795-11.888-13.227c-1.393,4.966-2.666,9.86-0.948,15.043
	c0.155,0.467-0.093,0.864-0.499,1.132c0.098,0.928-2.58,1.66-2.912,0.67c-2.206-6.564-6.037-12.406-8.209-18.982
	c-1.125-3.403-1.696-6.944-2.519-10.414c-1.27,10.15-3.024,20.024,0.799,30.159c0.372,0.985-1.209,1.689-2.208,1.383
	c-0.586,0.577-2.63,0.972-2.742,0.419c-1.375-6.766-5.627-12.439-7.643-18.857c-0.482,4.665-1.374,9.302-1.773,13.978
	c-0.031,0.365-0.53,0.635-1.104,0.796c0.025,0.077,0.053,0.151,0.078,0.229c0.25,0.796-2.633,1.618-2.897,0.776
	c-1.783-5.679-5.187-10.547-8.062-15.697c-0.182,4.995-0.299,9.986,0.698,14.921c0.215,1.063-2.693,1.788-2.897,0.776
	c-1.452-7.188-0.581-14.491-0.513-21.757c0.009-0.961,2.91-1.579,2.898-0.359c-0.003,0.337-0.015,0.675-0.021,1.012
	c0.252,0.039,0.451,0.137,0.533,0.319c2.525,5.612,6.265,10.592,8.785,16.178c0.763-5.978,1.959-11.922,1.657-17.967
	c-0.039-0.781,2.49-1.264,2.853-0.874c0.768-0.183,1.587-0.176,1.584,0.097c-0.065,6.612,3.279,12.054,5.945,17.788
	c-1.499-10.481,1.357-20.837,1.911-31.658c0.068-1.334,3.017-1.743,2.938-0.211c-0.02,0.391-0.052,0.779-0.078,1.169
	c0.02,0.028,0.043,0.054,0.058,0.087c2.662,5.925,2.829,12.537,5.171,18.578c0.943,2.432,2.065,4.78,3.2,7.122
	c-0.176-12.599,1.142-25.511,4.378-37.676c2.954-11.104,7.621-23.777,18.23-29.704c0.264-0.146,0.625-0.214,0.989-0.217
	c0.15-1.37,0.784-2.68,1.842-3.635c0.1-0.09,0.242-0.166,0.406-0.229c-0.295-0.459,0.46-1.296,1.465-1.368
	c2.625-0.19,5.42,1.021,6.249,3.728c0.826,2.7-0.808,4.934-3.293,5.935c-2.214,0.892-5.113,0.956-6.24-1.568
	c-0.165-0.37-0.27-0.752-0.349-1.138c-10.453,6.388-14.792,20.241-17.267,31.52c-2.076,9.465-3.25,19.176-3.471,28.882
	c0.396-1.438,0.804-2.885,1.163-4.347c0.325-1.32,3.297-1.649,2.941-0.201c-0.016,0.064-0.033,0.127-0.049,0.191
	c0.235,0.112,0.428,0.292,0.54,0.547c1.721,3.931,3.901,7.15,6.644,9.979c-0.751-6.99-3.61-15.471-9.971-18.334
	c-0.158-0.07,0.355-0.417,0.998-0.692c0.064-0.539,2.001-1.222,2.569-0.93c5.52,2.846,11.37,6.772,15.778,11.714
	c-0.049-6.19,1.674-12.345,4.693-18.113c-0.001-0.099-0.008-0.193-0.009-0.292c-0.008-0.77,2.894-1.177,2.897-0.776
	c0.058,5.855,0.614,11.875,3.03,17.295c0.971,2.179,2.305,4.179,3.574,6.201c2.302-13.473-2.717-24.788-7.962-37.085
	c-0.503-1.179,1.832-1.96,2.687-1.081c0.253-0.003,0.475,0.039,0.626,0.147c11.15,7.984,19.558,23.604,20.919,37.711
	c1.333-3.905,2.669-7.808,4.104-11.655c4.402-11.8,9.251-22.422,16.304-32.886c7.1-10.535,14.633-20.711,22.452-30.716
	c6.565-8.399,9.708-16.465,9.234-27.168c-0.069-1.559-0.16-3.116-0.258-4.674c-7.667,1.322-14.686-0.879-22.387-1.173
	c-6.129,4.472-12.388,8.775-18.334,13.494c-3.164,2.51-6.043,5.25-9.718,6.985c-7.989,3.772-16.54,6.353-24.929,9.067
	c-6.226,2.016-12.982,3.692-19.097,6.352c0.331,0.367,0.069,0.979-0.997,1.213c-5.616,1.237-7.157,10.186-9.173,14.686
	c-1.255,2.803-3.854,6.425-6.652,7.878c-1.511,0.785-5.964,1.708-5.32-1.63c0.095-0.494,0.224-0.985,0.376-1.475
	c-1.281,1.422-2.713,2.675-4.438,3.58c-0.581,0.305-1.875,0.383-2.088-0.457c-0.27-1.066-0.336-2.1-0.269-3.104
	c-0.125-0.032-0.235-0.08-0.316-0.152c-2.249-2.018-1.977-4.629-0.731-7.218c-0.028-0.038-0.047-0.08-0.052-0.129
	c-0.202-1.885,0.188-3.59,0.909-5.172c-0.772-10.711,11.782-13.056,19.798-16.02c0.328-0.121,0.68-0.148,0.996-0.112
	c7.21-3.424,14.022-9.146,20.536-13.498c9.325-6.231,18.595-12.544,27.924-18.769c1.015-0.678,2.042-1.347,3.071-2.017
	c-1.308-0.743-3.955-2.308-7.081-4.478c-6.136-3.543-11.849-8.479-15.22-14.385c-2.871-4.298-4.376-8.961-2.981-13.609
	c0.186-1.56,0.548-3.15,1.117-4.77c1.043-2.973,2.593-5.64,4.509-8.014c2.961-4.444,6.214-6.608,9.688-8.118
	c0.308-0.178,0.616-0.356,0.93-0.527c7.605-4.136,19.115-5.071,22.205-14.245c1.436-9.493,5.514-17.086,13.48-22.944
	c4.501-3.31,9.375-6.645,12.715-11.206c3.505-4.787,4.874-10.339,7.25-15.681c3.627-8.152,9.033-15.063,17.776-17.979
	c5.937-1.98,12.874-2.916,18.866-0.874c0.012-0.005,0.029-0.014,0.04-0.019c1.005-0.461,2.093-0.576,3.186-0.577
	c0.037,0,0.08,0.003,0.122,0.007c0.398-0.229,0.88-0.396,1.238-0.377c7.014,0.396,15.404-0.734,21.15,4.271
	c3.438,2.994,5.979,6.643,7.14,11.092c1.208,4.627,1.42,9.781,3.382,14.178c3.844,8.613,14.319,9.862,18.446,17.815
	c3.911,7.54-0.142,15.837-5.086,22.023c1.783-1.176,3.534-2.415,5.313-3.607c3.939-2.645,7.948-5.23,11.685-8.16
	c9.642-7.558,22.506-10.25,33.193-16.007c0.326-0.176,0.655-0.229,0.953-0.199c5.134-4.453,5.096-11.006,8.32-16.767
	c1.419-2.534,3.792-4.413,6.646-4.15c2.021-2.184,4.45-3.596,7.724-2.197c2.376-2.069,5.047-3.154,7.708-0.979
	c1.119-0.463,2.245-0.568,3.339-0.112c2.947,1.231-0.412,7.282-1.47,8.626c-2.754,3.503-6.525,6.416-8.771,10.296
	c3.287-0.982,5.003-4.493,8.998-4.479c3.094,0.011,4.433,1.885,3.037,4.862c-4.122,8.794-14.83,6.051-21,12.001
	c-0.074,0.072-0.183,0.137-0.309,0.194c-9.142,6.764-19.101,12.632-27.864,19.881c-3.207,2.651-7.146,4.502-10.88,6.29
	c-5.05,2.419-9.893,5.175-14.89,7.685c-5.823,2.925-11.595,5.719-16.137,10.528c-3.966,4.201-7.289,8.863-10.551,13.609
	c0.133,1.654,0.195,3.358,0.206,5.124c4.488,13.21-4.013,24.287-11.581,34.558c-4.67,6.34-9.143,12.904-10.365,20.885
	c-1.341,8.754,1.423,16.483,5.583,24.095c3.849,7.043,8.884,13.648,10.208,21.771c1.343,8.238,1.467,16.642,0.608,24.942
	c-0.738,7.153-1.918,14.374-3.729,21.392c4.573-5.461,8.887-11.242,11.729-17.74c4.027-9.207,4.697-18.643,3.029-28.502
	c-0.042-0.25,0.018-0.479,0.138-0.679c-0.046-0.115-0.092-0.232-0.138-0.347c-0.43-1.082,2.439-1.93,2.898-0.776
	c4.448,11.195,9.152,24.044,7.951,36.334c6.081-10.511,12.427-20.877,17.445-31.955c0.272-0.602,1.354-0.908,2.1-0.789
	c0.89-0.218,1.921-0.184,1.733,0.157c-3.389,6.179-6.346,12.737-8.346,19.503c-1.974,6.678-4.313,15.536,0.061,21.769
	c0.026,0.039,0.04,0.078,0.051,0.117c5.134-7.02,8.205-15.909,10.537-23.904c0.35-1.195,2.8-1.317,2.864,0.095
	c0.225,4.801,0.075,9.595-0.118,14.388c5.843-16.812,18.475-32.17,30.498-43.958c0.041-0.069,0.083-0.139,0.124-0.208
	c0.59-0.984,3.535-1.086,2.744,0.234c-9.992,16.679-23.316,38.498-15.335,58.438c6.369-4.095,12.627-10.856,12.514-18.663
	c-0.002-0.143,0.053-0.273,0.143-0.396c-0.05-0.21-0.091-0.421-0.143-0.63c-0.167-0.688,2.738-1.435,2.898-0.776
	c1.065,4.375,1.891,8.78,2.483,13.229c0.564-1.411,1.229-2.792,1.987-4.144c-0.591,0.057-1.129-0.114-1.213-0.613
	c-4.959-29.389,3.331-59.041,15.469-85.672c0.245-0.539,1.125-0.838,1.842-0.813c0.001-0.357,0.017-0.712,0.051-1.063
	c-3.363,3.518-8.923,6.993-10.691,1.869c-1.416-4.104,2.687-6.813,6.956-7.658c-2.121-0.454-4.09-1.566-5.189-3.489
	c-1.914-3.347,0.5-6.371,3.521-7.905c5.26-2.67,8.658,1.933,10.164,6.592c1.063-0.934,2.272-1.674,3.654-1.979
	c1.583-0.351,3.418-0.296,4.573,1.008c0.883,0.996,1.244,2.334,1.073,3.646c-0.303,2.325-2.009,3.623-4.067,4.242
	c1.634,1.273,2.918,2.94,3.477,4.844c1.207,4.112-1.668,7.921-5.635,9.042c-3.357,0.949-5.77-0.579-6.917-3.84
	c-0.297-0.842-0.557-1.789-0.733-2.774c-11.466,25.573-19.239,53.945-14.817,82.062c3.372-5.198,7.791-9.917,11.663-14.131
	c0.573-0.625,2.936-0.637,2.85-0.543c-0.166,0.181-0.338,0.367-0.506,0.549c0.391,0.056,0.641,0.233,0.529,0.568
	c-2.654,8.058-5.772,17.646-3.077,26.062c8.6-6.181,9.233-18.316,11.965-27.809c0.346-1.203,3.306-1.562,2.928-0.249
	c-0.048,0.167-0.094,0.336-0.142,0.505c0.078,0.064,0.125,0.15,0.127,0.257c0.139,6.607,1.545,13.093,1.411,19.656
	c6.426-8.322,15.334-15.181,24.346-19.898c0.194-0.165,0.377-0.334,0.577-0.496c1.075-0.865,3.431-0.008,1.896,1.229
	c-0.05,0.04-0.093,0.082-0.142,0.122c-0.109,0.212-0.323,0.423-0.686,0.609c-0.02,0.011-0.04,0.021-0.06,0.032
	c-7.449,6.52-9.772,15.438-9.886,25.176c-0.002,0.162-0.058,0.311-0.146,0.443c15.748-5.636,22.648-26.454,26.119-42.156
	c-0.062-0.974-0.114-1.947-0.155-2.923c-0.012-0.274,0.398-0.51,0.913-0.674c0.037-0.187,0.077-0.376,0.113-0.56
	c0.196-0.992,3.118-1.476,2.898-0.361c-0.261,1.312-0.545,2.665-0.852,4.043c0.876,13.696,3.311,27.26-0.645,40.653
	c6.323-2.988,11.399-8.711,14.591-14.828C484.008,441.23,486.773,440.977,486.297,442.167z M418.039,357.977
	c-0.808-0.009-1.586-0.088-2.278-0.222c-0.181-0.035-0.313-0.103-0.402-0.188c-1.91,3.327-1.092,11.263,2.786,12.852
	c1.96,0.803,4.157-2.823,4.282-4.466c0.118-1.562-0.221-3.106-1.066-4.441C420.512,360.17,419.37,358.934,418.039,357.977z
	 M416.887,352.856c0.082,0.418,0.15,0.827,0.2,1.221c0.052,0.411-0.771,0.77-1.552,0.926c1.527,0.181,3.083,0.708,4.491,1.509
	c0.059-0.003,0.093-0.004,0.075-0.001c0.089-0.009,0.179-0.019,0.268-0.032c0.044-0.007,0.19-0.035,0.228-0.042
	c0.049-0.012,0.1-0.021,0.147-0.035c0.03-0.01,0.096-0.03,0.146-0.048c0.052-0.02,0.104-0.037,0.154-0.06
	c0.02-0.008,0.026-0.011,0.039-0.016c0.076-0.04,0.152-0.081,0.227-0.125c0.033-0.021,0.057-0.033,0.074-0.044
	c0.007-0.007,0.016-0.014,0.033-0.026c0.068-0.053,0.139-0.105,0.204-0.163c0.045-0.039,0.089-0.08,0.133-0.12
	c0.029-0.031,0.084-0.088,0.097-0.103c0.183-0.211,0.435-0.593,0.475-0.676c0.549-1.147,0.565-2.403-0.003-3.563
	c-0.218-0.443-0.578-0.915-1.078-1.244c-0.032-0.021-0.037-0.025-0.034-0.025c-0.013-0.007-0.034-0.017-0.081-0.04
	c-0.063-0.032-0.127-0.063-0.192-0.091c-0.057-0.022-0.285-0.088-0.311-0.102c-0.12-0.017-0.285-0.036-0.242-0.04
	c-0.032,0-0.063-0.002-0.097-0.001c-0.034,0.006-0.075,0.014-0.113,0.022c-0.065,0.024-0.193,0.071-0.29,0.108
	c-0.05,0.033-0.364,0.199-0.43,0.24c-0.037,0.022-0.063,0.039-0.079,0.049c-0.015,0.011-0.023,0.019-0.045,0.033
	c-0.102,0.073-0.201,0.146-0.298,0.223C418.209,351.241,417.519,352.024,416.887,352.856z M412.313,354.436
	c1.609-0.253,1.071,0.451,0.199,0.851c0.083,0.015,0.167,0.031,0.247,0.048c0.502-0.212,1.045-0.391,1.262-0.4
	c0.068-0.003,0.139,0.003,0.207,0.001c-0.021-0.023-0.036-0.051-0.04-0.083c-0.028-0.229-0.065-0.477-0.107-0.733
	c-0.314-0.095-0.559-0.298-0.294-0.667c0.043-0.062,0.092-0.121,0.136-0.183c-0.677-3.331-2.356-7.978-5.51-8.733
	c-1.371-0.329-2.973,1.601-3.37,2.774c-0.386,1.137-0.371,2.355,0.238,3.421C406.61,353.054,409.578,354.868,412.313,354.436z
	 M413.423,357.381c0.622-0.188,1.433-0.246,1.844-0.209c0.04-0.104,0.119-0.213,0.252-0.32c0.066-0.054,0.152-0.096,0.229-0.144
	c-0.411-0.166-0.831-0.302-1.26-0.408c-0.215,0.578-1.954,1.213-2.575,0.896c-3.092-1.583-9.975,0.723-8.166,5.089
	c1.013,2.447,2.598,1.375,4.127-0.019c1.23-1.121,2.557-2.468,3.24-4.018C411.371,357.666,412.644,357.327,413.423,357.381z
	 M169.776,384.155c-0.048,0.097-0.127,0.204-0.262,0.325c-1.178,1.063-1.602,2.882-1.148,4.397c0.39,1.304,1.436,2.633,2.879,1.721
	C173.835,388.962,172.35,384.941,169.776,384.155z M142.844,457.487c0.058,0.12,0.115,0.239,0.172,0.359
	c0.01-0.123,0.021-0.246,0.033-0.369C142.979,457.484,142.912,457.487,142.844,457.487z M322.927,274.587
	c-4.1,1.66-8.468,1.467-12.708,2.492c-3.334,0.806-6.507,1.995-9.656,3.297c2.812,0.822,5.213,2.527,7.264,5.551
	c3.644,5.376,5.547,10.671,6.403,16.49c5.806-8.022,11.961-14.813,21.141-19.598c5.011-2.612,9.947-5.421,15.038-7.874
	c4.982-2.402,10.18-4.595,14.592-7.989c9.147-7.035,18.914-13.24,28.187-20.107c0.113-0.084,0.25-0.151,0.4-0.202
	c4.615-3.868,10.811-3.332,15.845-6.345c1.952-1.168,3.646-2.824,4.218-5.111c0.92-3.67-3.227-2.349-5.142-0.819
	c-1.669,1.333-3.301,2.119-5.396,2.492c-0.276,0.049-0.488,0.058-0.653,0.042c-0.917,0.198-1.932-0.011-1.521-0.858
	c1.543-3.174,4.2-5.603,6.582-8.142c2.179-2.322,5.65-5.704,4.924-9.288c-0.253-1.246-0.534-0.53-1.507,0.339
	c-0.959,0.858-1.873,1.762-2.748,2.706c-1.478,1.592-2.856,3.278-4.369,4.836c-0.738,0.76-3.573,0.66-2.355-0.594
	c1.656-1.705,4.365-5.71,7.327-8.072c-0.799-0.767-1.707-1.31-2.768-0.482c-0.884,0.69-1.665,1.475-2.374,2.344
	c-1.185,1.453-2.22,3.025-3.43,4.457c-0.566,0.671-3.468,0.922-2.684-0.005c1.081-1.279,2.477-3.229,4.068-4.981
	c-0.029-0.011-0.063-0.018-0.092-0.031c-3.125-1.512-5.436,3.72-6.909,5.733c-0.725,0.99-3.471,0.717-2.396-0.75
	c0.744-1.018,1.515-2.144,2.347-3.203c-3.057-0.855-4.911,8.764-5.619,10.563c-1.613,4.106-3.521,7.369-7.127,9.899
	c0.058,0.367-0.14,0.781-0.748,1.109c-11.78,6.346-24.426,9.931-35.416,17.737C338.506,265.293,331.096,271.28,322.927,274.587z
	 M282.084,200.941c0.029,0.014,0.059,0.026,0.087,0.04c1.72,0.125,4.523,0.023,7.131-0.128c-1.933-0.077-3.913-0.104-5.926-0.218
	c-0.018-0.001-0.029-0.004-0.045-0.005C282.938,200.826,282.48,200.929,282.084,200.941z M261.658,306.225
	c2.024-6.943,0.919-13.783-1.585-20.425c-0.396,0.409-1.094,0.793-1.634,0.795c-20.633,0.046-27.146,19.339-38.567,32.632
	c-8.143,9.477-17.636,16.083-27.89,22.979c-9.341,6.282-18.659,12.598-28.035,18.829c-6.119,4.065-12.468,9.357-19.294,12.216
	c-0.519,0.217-1.086,0.187-1.484,0.023c-5.638,1.842-12.687,3.657-15.079,8.667c0.321-0.369,0.644-0.734,0.964-1.095
	c0.524-0.59,3.374-0.897,2.657-0.093c-1.633,1.837-3.37,3.778-4.421,5.979c0.008,0.104,0.024,0.216,0.036,0.323
	c0.908-1.089,1.771-2.06,2.4-2.836c0.552-0.68,3.451-0.947,2.682,0.001c-2.143,2.643-7.482,7.892-6.876,11.969
	c1.876-4.224,6.032-7.779,9.366-10.569c1.102-0.922,3.427,0.042,1.917,1.306c-3.991,3.34-9.573,8.004-9.32,13.671
	c3.075-2.52,5.146-6.592,7.492-9.613c0.318-0.41,0.942-0.587,1.509-0.566c0.868-0.588,3.033-0.694,2.419,0.333
	c-0.983,1.647-1.954,3.308-2.837,5.011c-0.466,0.899-2.729,4.278-2.194,5.517c0.906,2.094,3.493-1.764,4.339-2.827
	c1.121-1.408,1.899-2.927,2.569-4.605c1.68-4.211,3.148-9.52,6.607-12.577c-0.403-0.104-0.495-0.34,0.253-0.745
	c6.317-3.42,13.651-5.259,20.448-7.453c8.881-2.869,18.135-5.418,26.597-9.416c4.28-2.021,7.577-5.225,11.31-8.097
	c5.593-4.304,11.379-8.336,17.074-12.501c0.333-0.243,0.676-0.486,1.014-0.73c0.174-0.125,0.348-0.251,0.522-0.377
	c1.465-1.051,2.957-2.11,4.449-3.191l14.049-13.314c1.058-1.369,2.104-2.746,3.163-4.11c0-0.052-0.003-0.104-0.003-0.157
	c-0.004-0.482,0.417-0.848,0.942-1.034c1.856-2.341,3.792-4.613,5.999-6.664c0.56-0.521,3.372-0.785,2.65-0.115
	c-2.503,2.325-4.607,4.966-6.657,7.651c0.006,0.623,0.028,1.246,0.042,1.868C254.541,318.445,259.676,313.024,261.658,306.225z
	 M293.895,284.205c-0.001-0.001-0.004-0.001-0.005-0.002c-3.69-2.568-4.126-7.051-3.875-11.208
	c-2.336,0.055-4.683-0.133-6.949-0.526c-1.638-0.284,0.878-1.709,1.78-1.553c9.837,1.708,19.66-1.591,23.667-11.405
	c2.32-5.684,1.848-11.514,0.701-17.315l-1.851-6.604c-2.807-0.842-6.177-2.151-9.437-3.884c-0.31,0.131-0.639,0.213-0.955,0.249
	c-0.142,0.105-0.276,0.21-0.405,0.335c-0.49,0.473-1.267,0.688-1.932,0.722c-0.286,0.015-1.211-0.109-0.715-0.589
	c0.734-0.708,1.62-1.219,2.583-1.501c-3.865-2.23-7.421-5.073-9.51-8.454c-0.689,3.98-1.838,7.964-3.727,11.427
	c0.206-0.032,0.411-0.052,0.61-0.052c1.026,0,2.052,0,3.078,0c0.552,0,0.619,0.306,0.156,0.583
	c-0.595,0.355-1.358,0.549-2.049,0.549c-0.807,0-1.614,0-2.421,0c-0.356,0.582-0.729,1.152-1.133,1.696
	c-3.712,4.985-9.341,8.6-12.329,14.085c0.785,0.638-1.055,2.001-2.137,1.721c-3.063-0.795-4.326,2.623-3.808,5.152
	c0.764,3.726,3.881,5.381,7.515,5.148c0.094-0.006,0.177-0.002,0.26,0.001c0.677-0.476,1.819-0.609,2.299,0.051
	c4.263,5.858,2.343,12.412,0.071,18.632c-0.122,0.334-0.411,0.575-0.759,0.724c4.656,8.934,0.721,19.888-0.194,29.32
	c7.498,3.685,20.961,2.855,27.872-1.78C300.332,300.967,300.433,290.736,293.895,284.205z M110.977,258.913
	c-0.018,0.586,2.869,0.162,2.897-0.776c0-0.009,0.001-0.018,0.002-0.027c0.456-0.319,0.653-0.664,0.048-0.761
	c0.432-5.499,3.587-10.324,8.149-13.395c6.692-4.505,10.642,1.607,10.965,7.775c0.005,0.093,0.073,0.16,0.178,0.207
	c-0.26,0.366-0.492,0.753-0.681,1.162c-0.319,0.69,2.493,0.397,2.878-0.436c0.41-0.887,1.212-2.49,2.396-2.401
	c1.215,0.092,2.272,0.901,3.048,1.783c1.993,2.269,1.362,5.197-0.354,7.313c-0.097,0-0.193,0-0.29,0c-0.93,0-3.136,1.41-1.189,1.41
	c0.513,0,1.026,0,1.539,0c8.893,0,17.786,0,26.679,0c0.93,0,3.136-1.41,1.189-1.41c-8.442,0-16.884,0-25.326,0
	c2.455-2.924,2.67-7.134-0.824-9.516c-2.059-1.403-4.478-1.264-6.463-0.198c-0.832-6.467-5.242-10.283-12.077-7.814
	c-6.678,2.413-11.771,8.458-12.636,15.489c-5.175,0-10.35,0-15.524,0c-0.913,0-3.141,1.384-1.197,1.384c5.537,0,11.073,0,16.609,0
	C110.988,258.774,110.979,258.843,110.977,258.913z M500.878,295.755c-7.514,0-15.028,0-22.542,0
	c8.446-10.273-3.314-22.441-14.145-23.974c-11.303-1.599-23.923,5.668-29.42,15.659c-1.764-3.145-5.908-3.028-9.522-1.427
	c-4.99,2.21-9.612,6.858-10.016,12.482c-8.612,0-17.227,0-25.841,0c-0.568,0-3.288,1.122-1.895,1.122c9.233,0,18.469,0,27.704,0
	c0.002,0,0.007-0.001,0.009-0.001c0.004,0.114-0.004,0.227,0.003,0.341c0.027,0.445,2.943-0.037,2.898-0.776
	c-0.262-4.294,2.118-7.955,5.257-10.68c3.767-3.271,8.566-3.409,9.288,2.221c0.017,0.13,0.232,0.185,0.536,0.185
	c-0.01,0.029-0.021,0.058-0.032,0.087c-0.408,1.15,2.528,0.795,2.916-0.294c3.678-10.356,14.974-17.376,25.799-17.148
	c10.102,0.212,21.976,12.816,13.627,22.096c-0.034,0.038-0.055,0.072-0.082,0.108c-0.236,0-0.474,0-0.71,0
	c-0.969,0-3.124,1.47-1.174,1.47c8.722,0,17.443,0,26.166,0C500.673,297.225,502.829,295.755,500.878,295.755z" fill="#0984E3"></path>
</svg>