<?xml version="1.0" standalone="no"?>
<svg version="1.1" id="Layer_1" xmlns="http://www.w3.org/2000/svg" xmlns:xlink="http://www.w3.org/1999/xlink" x="0px" y="0px" width="595.279px" height="595.281px" viewBox="0 0 595.279 595.281" enable-background="new 0 0 595.279 595.281" xml:space="preserve">
<path id="color_x5F_2" fill="#FBC02D" d="M314.899,342.583c0.736,0,1.473,0,2.208,0c-0.981,0.295-2.038,0.439-3.149,0.334
	c-0.179-0.016-0.369-0.035-0.569-0.057C313.893,342.78,314.396,342.686,314.899,342.583z M399.839,286.02
	c-2.823-6.982-4.563-15.867-10.061-21.352c-8.316-8.295-17.131-0.09-25.416,3.773c0.809,1.141,1.582,2.336,2.335,3.574
	c6.478,10.67,12.636,21.236,17.781,32.637c4.361,9.66,8.434,19.467,13.097,28.984c4.911-2.373,10.884-4.83,16.301-3.893
	C408.641,315.383,405.588,300.235,399.839,286.02z M347.232,260.99c-10.253,1.705-18.555,9.391-27.599,14.361
	c-1.233,1.457-2.473,2.906-3.72,4.352c-0.431,0.496-1.646,0.658-2.263,0.404c-3.512,2.762-7.077,5.453-10.753,7.988
	c-5.231,3.611-10.931,7.557-17.01,9.992c0.05,0.067,0.088,0.139,0.095,0.231c0.95,12.166-7.373,27.145,2.072,37.482
	c0.083,0.092,0.118,0.186,0.129,0.277c4.772,2.352,9.851,4.006,14.92,4.684c3.278,0,6.559,0,9.836,0
	c3.384-0.494,6.665-1.541,9.748-3.227c0.104-0.561,1.102-1.223,1.894-1.135c2.23-1.457,4.344-3.273,6.288-5.502
	c7.171-8.225,11.656-18.449,19.649-25.98c-2.146-3.367-3.683-7.112-4.231-11.428c-0.186-1.451,2.719-2.18,2.897-0.777
	c2.363,18.551,23.439,25.038,31.979,39.249c3.658-1.51,7.561-2.33,11.486-1.645c-8.231-17.254-15.05-35.129-25.188-51.477
	C363.053,271.73,357.633,259.258,347.232,260.99z M323.014,271.301c-0.017,0.021-0.032,0.041-0.049,0.061
	c1.22-0.787,2.438-1.604,3.663-2.422C325.347,269.752,324.136,270.547,323.014,271.301z M331.704,339.182
	c0,0,0.613-0.227,1.751-0.678c-1.253,0.127-2.52,0.184-3.797,0.176L331.704,339.182z M294.375,291.693
	c5.979-3.592,11.632-7.828,17.087-12.18L294.375,291.693z M351.796,306.786c-8.972,9.145-13.729,22.172-24.02,29.955
	c7.145,0.506,13.966-0.844,19.597-5.854c4.99-4.438,8.959-9.84,13.044-15.09C357.213,313.032,354.218,310.088,351.796,306.786z
	 M259.505,273.586c-0.784-0.018-1.979-0.305-2.378-1.043c-4.188,1.754-8.352,2.875-13.024,2.959
	c-10.896,6.23-20.282,14.582-31.879,19.785c-7.835,3.516-18.024,8.489-27.379,8.592c-0.016,0.043-0.031,0.082-0.048,0.125
	c-0.777,5.529-2.374,11.061-4.586,16.201c12.929-1.789,25.501-5.678,38.659-5.463c12.142,0.199,23.771,4.492,35.89,4.916
	c-0.001-0.006-0.003-0.01-0.005-0.014c-0.093-0.258,0.354-0.561,0.922-0.773c-4.048-14.316,1.782-31.184,4.313-45.303
	C259.829,273.574,259.669,273.59,259.505,273.586z M258.352,206.031c-0.019,0.006-0.037,0.012-0.056,0.018
	c0.063,0.004,0.125,0.018,0.188,0.023L258.352,206.031z M270.179,221.039c-0.181-3.486-0.915-6.883-1.456-10.314
	c-0.336,0.086-0.646,0.119-0.862,0.043c-4.689-1.699-8.389-3.822-13.54-3.662c-0.147,0.004-0.239-0.008-0.302-0.027
	c-2.522,0.4-5.452,0.746-6.822,2.871c-0.647,1.004-1.221,2.047-1.782,3.1c0.067,0.021,0.1,0.053,0.074,0.09
	c-0.199,0.305-0.406,0.602-0.608,0.904c-0.005,0.01-0.01,0.018-0.016,0.025c-0.008,0.018-0.022,0.029-0.032,0.045
	c-3.895,5.809-8.283,11.135-14.301,14.875c-0.496,0.311-3.407,0.705-2.207-0.041c0.134-0.084,0.254-0.178,0.385-0.262
	c-0.271-0.045-0.497-0.156-0.617-0.363c-5.019-8.574-2.067-18.326-2.844-27.684c-2.646,1.441-5.531,2.363-8.484,3.104l-0.608,0.318
	l-1.652,0.215c-2.632,0.59-5.281,1.105-7.828,1.779c-7.092,1.875-17.529,0.307-22.112,7.123
	c-8.168,12.148-8.554,27.479-14.334,40.541c8.764,2.137,18.045,0.813,26.709,3.508c1.548-6.227,3.214-12.406,3.646-18.842
	c0.062-0.91,2.932-1.27,2.897-0.777c-0.478,7.113-2.624,13.762-4.063,20.695c-1.258,6.051-2.385,12.15-5.022,17.771
	c3.466-0.768,7.042-1.162,10.376-1.533c14.038-1.563,26.901-5.971,39.423-12.359c-0.018-0.258,0.111-0.559,0.464-0.877
	c5.158-4.684,10.155-9.209,16.648-11.939c0.886-0.371,1.815-0.762,2.768-1.145l4.007-1.871l0.44-2.178
	c-0.434,0.02-0.756-0.041-0.738-0.184C268.709,236.406,270.578,228.715,270.179,221.039z M230.806,227.223
	c0.396-0.301,0.778-0.615,1.16-0.932c-0.46,0.271-0.888,0.52-1.256,0.727c0.02,0.035,0.034,0.07,0.055,0.105
	C230.785,227.156,230.793,227.189,230.806,227.223z"></path>
<path id="color_x5F_1" d="M259.54,187.76c-0.364,3.193-1.257,6.262-2.264,9.307c-0.268,0.809-1.53,1.02-2.222,0.811
	c-1.372-0.418-2.758-0.666-4.017-1.387c-1.41-0.809,1.133-2.303,2.233-1.672c0.508,0.291,1.068,0.475,1.641,0.631
	c0.764-2.443,1.398-4.91,1.69-7.467C256.753,186.672,259.71,186.273,259.54,187.76z M263.565,186.26
	c-0.329,0.66-0.687,1.342-0.72,2.092c-0.029,0.66,0.764,0.732,1.266,0.674c0.467-0.055,1.61-0.379,1.64-1.014
	c0.025-0.602,0.261-1.115,0.525-1.646C266.92,185.074,264.011,185.367,263.565,186.26z M250.301,185.41
	c0.607-0.031,1.516-0.225,1.932-0.721c0.418-0.498,0.473-1.146,0.735-1.725c0.243-0.529-1.005-0.408-1.187-0.379
	c-0.521,0.084-1.435,0.301-1.684,0.848c-0.188,0.408-0.223,1.049-0.511,1.393C249.164,185.332,249.954,185.428,250.301,185.41z
	 M242.915,199.439c1.229,0.52,3.373-1.246,1.67-1.965c-1.233-0.521-1.729-1.564-1.545-2.863c0.21-1.484-2.751-1.1-2.938,0.217
	C239.794,197.002,240.955,198.609,242.915,199.439z M264.576,181.123c0.772-0.168,1.681,0.029,2.348,0.443
	c0.639,0.396,1.495,0.295,2.082-0.16c0.471-0.363,0.771-1.164,0.141-1.557c-1.538-0.955-3.371-1.182-5.125-0.799
	c-0.598,0.131-1.356,0.729-1.172,1.426C263.046,181.209,263.979,181.254,264.576,181.123z M250.963,177.459
	c1.488,0.021,2.489,0.691,3.271,1.941c0.49,0.785,3.313-0.133,2.695-1.119c-1.094-1.748-2.822-2.387-4.825-2.416
	c-0.646-0.01-1.518,0.227-1.915,0.781C249.786,177.207,250.528,177.451,250.963,177.459z M297.83,211.816
	c-1.416-0.313-2.657-1.016-3.561-2.162c-0.8-1.018-3.562,0.113-2.656,1.266c1.127,1.434,2.76,2.428,4.534,2.82
	c0.726,0.16,1.534,0.041,2.05-0.549C298.602,212.729,298.506,211.967,297.83,211.816z M303.524,208.404
	c-0.57-0.008-0.629-0.373-0.179-0.668c0.59-0.383,1.354-0.559,2.05-0.549c0.08,0.002,0.204,0.01,0.335,0.02
	c-0.013-0.178-0.226-0.408-0.298-0.508c-0.578-0.799-1.214-1.566-2.022-2.139c-0.445-0.316,0.705-0.799,0.855-0.854
	c0.462-0.168,1.405-0.477,1.87-0.146c1.063,0.752,1.854,1.844,2.576,2.914c-0.007,0.047-0.013,0.092-0.02,0.139
	C307.668,208.475,305.375,208.426,303.524,208.404z M305.6,207.473C305.455,207.547,305.502,207.566,305.6,207.473L305.6,207.473z
	 M294.08,203.264c0.4-0.107,1.446-0.543,1.244-1.148c-0.315-0.947-0.651-1.938-1.352-2.678c-0.722-0.768-3.48,0.309-2.686,1.15
	c0.605,0.646,0.863,1.48,1.139,2.305C292.63,203.504,293.617,203.389,294.08,203.264z M305.408,199.602
	c0.589-0.279,1.031-0.834,0.692-1.467c-0.354-0.662-0.892-1.203-1.246-1.867c-0.334-0.623-1.478-0.434-1.964-0.201
	c-0.588,0.279-1.03,0.832-0.691,1.467c0.354,0.662,0.892,1.205,1.245,1.867C303.778,200.023,304.921,199.832,305.408,199.602z
	 M291.664,194.555c0.045-0.021,0.071-0.035,0.095-0.047c0.026-0.006,0.064-0.016,0.124-0.031c0.389-0.105,1.421-0.488,1.264-1.078
	c-0.157-0.588-1.245-0.408-1.635-0.303c-1.736,0.475-3.135,1.563-3.962,3.166c-0.619,1.201,2.273,0.832,2.688,0.027
	c0.233-0.453,0.504-0.918,0.863-1.285c0.154-0.158,0.311-0.289,0.475-0.395C291.729,194.527,291.758,194.508,291.664,194.555z
	 M304.091,190.691c0.433-0.439,0.313-1.064-0.324-1.209c-1.94-0.439-3.737,0.107-5.163,1.482c-0.467,0.451-0.281,1.041,0.324,1.209
	c0.694,0.195,1.536-0.053,2.049-0.549c0.195-0.188,0.381-0.336,0.587-0.436c0.026-0.004,0.038-0.004,0.08-0.01
	c0.01,0,0.33,0.045,0.398,0.061C302.742,191.4,303.579,191.215,304.091,190.691z M535.058,430.538c0,0.088-0.033,0.17-0.08,0.25
	c-0.026,0.566-0.604,1.188-1.5,1.188c-89.271-0.055-178.542-0.055-267.813-0.029c-0.192,1.322-0.375,2.65-0.538,3.982
	c-0.052,0.426-0.705,0.709-1.378,0.854c1.249,0.178,0.921,1.527-0.165,1.934l0.02,0.045c2.396,1.566,7.021,5.039,3.993,8.092
	c-2.83,2.854-7.073,3.512-10.937,3.594c-10.906,0.229-18.689-4.947-24.333-13.945c-0.253-0.402-0.141-0.787,0.15-1.088
	c-0.396-0.344-0.068-0.875,0.485-1.258c-0.004-0.043-0.008-0.086,0.002-0.137c0.127-0.682,0.246-1.363,0.369-2.047
	c-0.031,0.002-0.063,0.008-0.094,0.008c-10.722,0.004-21.44,0.008-32.161,0.012c0.088,0.482,0.172,0.967,0.262,1.449
	c0.085,0.455-0.449,0.848-1.082,1.059c0.017,0.443-0.302,0.932-1.083,1.146c-0.664,0.184-1.33,0.342-1.995,0.51
	c0.004,0.176-0.089,0.383-0.318,0.621c-7.355,7.58-14.563,18.229-26.798,15.654c-2.941-0.619-6.303-3.113-6.229-6.438
	c0.084-3.838,2.894-6.236,5.965-8.039c-0.348,0-0.603-0.074-0.624-0.246c-0.23-1.896-0.491-3.785-0.766-5.672
	c-35.532-0.055-71.064-0.053-106.599,0c-0.616,0.002-0.989-0.219-1.159-0.521c-0.105-0.047-0.175-0.111-0.175-0.203
	c-0.072-31.863-4.917-64.537-0.041-96.232c3.912-25.426,29.642-49.485,56.079-47.801c0.058-8.199,0.896-16.338,5.112-23.639
	c8.223-14.234,23.459-23.656,39.966-23.322c0.261-0.119,0.531-0.197,0.773-0.197c3.021,0,6.044,0,9.065,0
	c0.969-3.998,1.954-7.994,3.534-11.809c2.551-6.158,4.142-12.951,8.746-17.992c4.219-4.617,11.629-4.623,17.329-5.406
	c4.095-0.564,8.046-1.811,12.082-2.689c4.145-0.902,8.257-1.803,11.906-4.063c0.351-0.217,0.703-0.279,1.017-0.24
	c1.01-1.602,2.082-3.203,2.813-4.926c0.276-0.65,0.476-1.305,0.623-1.967c-9.379-8.861-11.803-23.43-5.599-34.91
	c3.824-7.08,11.062-12.865,19.218-10.479c3.383-3.77,8.69-3.643,13.287-2.398c6.696,1.809,13.02,5.678,20.055,4.193
	c3.959-0.836,10.334-1.338,10.477,4.475c0.079,3.238-1.684,5.258-4.109,6.441c3.697,1.063,6.486,3.754,5.376,8.584
	c-1.34,5.828-6.714,8.748-12.258,9.123c-0.387,0.93-0.757,1.883-1.108,2.867c0.092-0.08,0.243-0.154,0.431-0.221
	c5.594-4.535,13.864-6.26,21.136-4.676c0.121,0.025,0.242,0.057,0.363,0.084c4.136,0.969,7.926,3.018,10.68,6.246
	c5.266,6.178,8.702,14.604,10.479,22.463c1.972,8.727,1.175,18.086,5.688,26.035c7.288-0.164,13.234,5.352,16.957,11.801
	c0.099-0.02,0.193-0.033,0.28-0.033c9.133,0,18.266,0,27.396,0c1.958,0-0.086,1.598-1.139,1.598c-8.563,0-17.126,0-25.688,0
	c0.881,1.721,1.604,3.477,2.152,5.188c6.555,0.875,12.876,2.961,19.32,4.535c2.337-1.064,4.688-2.098,7.049-3.111
	c-0.167-7.865-3.882-23.283,6.198-26.416c0.545-0.168,1.507-0.111,1.702,0.559c0.209,0.721,0.387,1.426,0.526,2.129
	c1.27-3.104,3.021-5.947,5.767-8.063c0.609-0.471,2.183-0.715,2.425,0.328c0.198,0.854,0.305,1.689,0.338,2.516
	c1.065-0.711,2.274-1.236,3.621-1.609c0.415-0.115,1.479-0.264,1.645,0.34c0.387,1.4,0.421,2.758,0.234,4.084
	c0.891-0.148,1.757-0.48,2.677-0.555c0.115-0.01,0.828-0.061,0.825,0.207c-0.016,1.105-0.114,2.225-0.312,3.322
	c3.391,3.43,0.123,9.127-2.301,13.104c0.477,0.021,0.82,0.199,0.74,0.582c-0.09,0.426-0.188,0.846-0.299,1.264
	c14.13,0,28.26,0,42.389,0c0.323,0,0.529,0.047,0.656,0.119c17.225-0.535,34.208,10.299,40.809,26.375
	c2.676,6.516,3.378,13.549,3.392,20.602c27.095-1.791,51.264,23.19,54.433,49.106C539.194,367.909,535.129,399.368,535.058,430.538z
	 M372.812,247.604c5.615-2.379,11.25-4.715,16.799-7.248c1.578-2.635,4.512-6.877,4.498-10.352c-0.222,0.412-0.46,0.816-0.73,1.203
	c-0.354,0.504-1.124,0.699-1.695,0.801c-0.087,0.014-1.476,0.145-1.164-0.299c1.085-1.543,1.756-3.307,2.121-5.139
	c-0.058-0.055-0.11-0.107-0.171-0.158c-0.287-0.238-0.079-0.547,0.33-0.805c0.1-0.709,0.156-1.424,0.178-2.137
	c-0.255,0.057-0.508,0.121-0.762,0.188c-0.501,2.27-1.589,4.449-2.653,6.584c-0.424,0.852-3.324,1.188-2.699-0.064
	c1.569-3.145,3.182-6.361,2.586-9.887c-1.185,0.611-2.061,1.521-2.788,2.746c-0.444,2.527-1.472,4.961-2.657,7.371
	c-0.603,1.223-3.538,1.129-2.787-0.395c1.042-2.117,1.991-4.25,2.451-6.467c0.001-0.004,0.002-0.01,0.003-0.014
	c0.201-0.979,0.308-1.977,0.282-2.994c-2.637,3.197-3.847,7.48-4.853,11.445c-0.342,1.346-3.317,1.658-2.945,0.189
	c0.082-0.322,0.165-0.646,0.25-0.971c-0.551-0.043-0.971-0.309-0.865-0.869c0.349-1.855,0.147-3.592-0.279-5.354
	C370.046,228.586,372.41,241.646,372.812,247.604z M360.877,253.225c-5.721-1.377-11.342-3.201-17.118-4.207
	c-0.564,0.703-2.535,1.078-2.765,0.264c-0.064-0.229-0.136-0.463-0.207-0.697c-0.523-0.063-1.05-0.115-1.575-0.158
	c0.071,0.135,0.06,0.313-0.077,0.541c-4.733,7.9-10.277,15.238-16.121,22.336c-0.017,0.021-0.032,0.039-0.049,0.061
	c1.22-0.789,2.438-1.605,3.663-2.424c6.606-4.424,13.354-8.932,20.982-9.617c7.095-0.639,11.805,2.715,15.637,7.615
	c5.771-2.783,12.545-8.389,19.263-8.188c-0.104-0.121-0.12-0.293,0-0.527c2.853-5.553,6.485-10.713,8.181-16.744
	c-0.35,0.063-0.696,0.072-0.964,0.018c-5.581,2.504-11.237,4.836-16.863,7.234c0,0.014,0.001,0.027,0.001,0.041
	c0.014,0.922-1.612,1.426-2.447,1.008c-2.31,0.998-4.609,2.014-6.895,3.064c-0.314,0.146-1.028,0.234-1.569,0.221
	C361.521,253.201,361.106,253.279,360.877,253.225z M273.158,341.583c0.39-0.422,1.084-0.818,1.644-0.818c6.172,0,12.344,0,18.516,0
	c-3.091-1.045-6.103-2.367-8.974-3.896c-0.602-0.318-0.441-0.771,0.015-1.133c-8.063-10.52-0.338-24.691-1.271-36.641
	c0-0.002,0.001-0.004,0-0.006c-0.612,0.189-1.228,0.371-1.846,0.523c-5.889,1.467-10.595,0.426-12.921-5.729
	c-2.281-6.039-2.724-12.57-2.755-19.074c-0.183-0.039-0.217-0.133-0.002-0.301c-0.004-1.254,0.006-2.508,0.021-3.756
	c-0.755,0.834-1.642,1.531-2.627,2.027c0.014,0.078,0.017,0.164,0,0.26c-2.589,14.646-8.949,32.483-3.748,47.071
	c0.152,0.432-0.145,0.813-0.6,1.064C261.96,328.483,268.112,334.868,273.158,341.583z M173.408,256.639
	c-1.815,13.211-12.357,37.234,4.077,44.106c7.532,3.146,15.282,0.99,22.589-1.768c6.172-2.327,12.28-4.811,18.03-8.067
	c8.576-4.857,16.063-11.242,24.603-16.105c-0.147-0.629,0.447-1.457,1.477-1.471c5.054-0.064,9.314-1.41,13.861-3.529
	c0.211-0.1,0.423-0.146,0.629-0.162c0.72-0.441,1.561-0.734,2.314-0.934c0.416-0.107,1.482-0.266,1.646,0.344
	c0.162,0.605-0.838,1.012-1.253,1.119c-0.339,0.09-0.96,0.307-1.272,0.666c-0.027,0.094-0.085,0.186-0.154,0.275
	c-0.038,0.119-0.053,0.248-0.005,0.393c0.257,0.783,1.398,0.307,1.879,0.018c2.011-1.211,3.178-3.695,3.513-5.949
	c0.026-0.176,0.142-0.334,0.309-0.475c0-0.053,0.001-0.104,0.001-0.158c0.001-0.211,0.136-0.4,0.339-0.563
	c0.012-0.07,0.033-0.146,0.084-0.232c0.728-1.268,0.702-2.414-0.321-3.492c-0.227-0.238-0.094-0.51,0.208-0.742
	c-0.025-0.057-0.031-0.123,0.017-0.209c0.831-1.486,0.835-3.096-0.116-4.5c-1.235,0.076-2.191-1.17-0.646-1.875
	c2.154-0.98,4.455-1.688,6.502-2.898c1.595-0.414,1.915-1.352,0.962-2.809c-0.714,0.174-1.418,0.381-2.113,0.617
	c-1.35,0.471-2.676,0.994-4.017,1.486c-7.465,2.752-12.824,6.576-18.584,11.672c0.023,0.119-0.129,0.287-0.56,0.514
	c-0.014,0.008-0.026,0.014-0.039,0.02c-0.262,0.234-0.521,0.467-0.784,0.705c-0.369,0.336-0.877,0.438-1.331,0.379
	c-9.379,4.783-19.322,8.961-29.644,11.078c-9.94,2.037-24.058,0.512-31.557,8.352c-0.514,0.537-3.32,0.857-2.643,0.148
	c2.73-2.855,6.227-4.592,9.983-5.732c2.645-5.51,3.584-11.373,4.971-17.258c-0.046-0.01-0.092-0.016-0.136-0.031
	C188.899,257.021,181.03,257.596,173.408,256.639z M258.296,206.047c0.063,0.006,0.125,0.02,0.188,0.023
	c3.611,0.314,6.616,1.604,9.987,2.928c-0.151-1.148-0.272-2.301-0.325-3.467c-0.12-2.709-0.183-5.719-0.001-8.768
	c-1.424,2.635-3.143,5.02-5.376,6.926c-1.231,1.051-2.807,1.795-4.419,2.34C258.334,206.037,258.314,206.041,258.296,206.047z
	 M313.162,231.631c-2.264,0.357-4.52,0.535-6.768-0.25c-0.6-0.209-0.673-0.535-0.478-0.852c-0.321,0.012-0.591-0.055-0.727-0.24
	c-6.135-8.428,5.37-12.148,8.011-18.984c1.729-4.479-0.488-9.279-2.483-13.316c-1.711-3.461-3.594-7.104-6.104-10.119
	c-2.229,0.338-4.373,0.896-6.421,1.877c-0.939,0.449-2.05,0.057-1.948-0.521c-0.272-0.004-0.498-0.063-0.612-0.205
	c-0.445-0.549-0.924-1.076-1.423-1.584c0.267,0.586,0.615,1.143,0.988,1.656c0.674,0.924-0.658,1.795-1.724,1.736
	c-1.546,0.445-3.026,1.07-4.464,1.797l-1.506,0.799c-0.994,0.551-1.976,1.129-2.948,1.711c0.113,0.027,0.185,0.068,0.183,0.133
	c-0.506,16.229,11.436,29.033,13.076,44.832c0.02,0.182-0.145,0.354-0.399,0.5c0,0,0.001,0,0.002,0.002
	c3.476,3.742,9.738,5.648,13.914,1.697C314.526,239.273,314.813,235.391,313.162,231.631z M285.477,275.209
	c0.042-1.564,0.22-3.107,0.459-4.643c-0.168,0.031-0.314,0.047-0.417,0.031c-6.1-0.932-11.833,0.35-17.066,3.506
	c0.007,5.326,0.288,10.672,1.701,15.734c0.8,2.861,2.141,7.748,5.549,8.532c3,0.689,6.213-0.442,8.948-1.627
	c3.348-1.447,6.579-3.162,9.725-5.051c5.979-3.59,11.632-7.828,17.087-12.18c1.118-0.893,2.229-1.789,3.332-2.688
	c-0.346-0.285-0.3-0.746,0.606-1.162c0.637-0.293,1.269-0.605,1.899-0.938c2.208-2.611,4.381-5.252,6.502-7.934
	c-6.009,2.043-12.48,3.064-18.582,4.576c-6.849,1.699-18.028,3.113-22.782,8.916c-0.496,0.605-3.346,0.945-2.654,0.102
	c1.563-1.906,3.739-3.359,6.18-4.523C285.668,275.758,285.468,275.549,285.477,275.209z M184.797,304.004
	c-0.777,5.529-2.374,11.061-4.586,16.201c12.929-1.789,25.501-5.678,38.659-5.463c12.142,0.199,23.771,4.492,35.89,4.916
	c-0.001-0.006-0.003-0.01-0.005-0.014c-0.093-0.258,0.354-0.561,0.922-0.773c-4.048-14.316,1.782-31.184,4.313-45.303
	c-0.16,0.006-0.319,0.02-0.483,0.018c-0.784-0.018-1.979-0.305-2.378-1.043c-4.188,1.754-8.352,2.875-13.024,2.959
	c-10.896,6.23-20.282,14.582-31.879,19.785c-7.835,3.516-18.023,8.489-27.379,8.592c-0.01,0.002-0.02,0-0.028,0
	c0,0.002,0,0.002,0,0.002C184.811,303.922,184.803,303.963,184.797,304.004z M312.941,340.764c3.383-0.496,6.665-1.543,9.748-3.229
	c0.104-0.559,1.102-1.221,1.894-1.133c2.23-1.457,4.344-3.273,6.288-5.504c7.171-8.223,11.656-18.447,19.649-25.979
	c-2.146-3.369-3.683-7.114-4.231-11.428c-0.186-1.451,2.719-2.182,2.897-0.777c2.363,18.549,23.439,25.036,31.979,39.249
	c3.658-1.51,7.561-2.33,11.486-1.646c-8.231-17.254-15.05-35.127-25.188-51.475c-4.41-7.111-9.83-19.584-20.23-17.854
	c-10.253,1.705-18.555,9.393-27.599,14.361c-1.233,1.457-2.473,2.908-3.72,4.352c-0.431,0.498-1.646,0.66-2.263,0.406
	c-3.512,2.76-7.076,5.451-10.753,7.986c-5.231,3.611-10.931,7.559-17.01,9.994c0.05,0.065,0.088,0.137,0.095,0.229
	c0.95,12.168-7.373,27.146,2.072,37.484c0.083,0.09,0.118,0.184,0.129,0.275c4.772,2.354,9.851,4.006,14.92,4.686
	C306.384,340.764,309.664,340.764,312.941,340.764z M413.877,329.747c-5.235-14.363-8.288-29.512-14.037-43.729
	c-2.823-6.98-4.563-15.867-10.061-21.352c-8.316-8.293-17.131-0.09-25.416,3.773c0.809,1.141,1.582,2.336,2.336,3.576
	c6.477,10.668,12.635,21.234,17.78,32.635c4.361,9.662,8.434,19.467,13.097,28.986C402.487,331.266,408.46,328.809,413.877,329.747z
	 M327.777,336.741c7.145,0.506,13.966-0.844,19.597-5.852c4.991-4.439,8.959-9.84,13.044-15.09
	c-3.204-2.768-6.199-5.711-8.621-9.014C342.824,315.93,338.068,328.958,327.777,336.741z M381.632,332.797
	c1.137,2.051,2.019,4.258,2.543,6.689c2.386,2.031,6.559,5.365,9.382,6.396c3.026,1.104,5.688-0.975,6.913-2.184
	c-0.63-0.57-1.296-1.043-1.557-1.238c-0.167-0.125-0.265-0.256-0.311-0.389c-0.003-0.006-0.007-0.01-0.01-0.014
	c-1.933-3.568-3.749-7.189-5.503-10.84c-0.611,0.266-1.396,0.484-1.717,0.404C387.913,330.766,384.783,331.387,381.632,332.797z
	 M419.929,343.514c-0.063-0.061-0.121-0.129-0.164-0.209c-1.893-3.623-3.514-7.342-4.97-11.117
	c-5.34-2.443-11.454,0.35-16.529,2.848c1.001,2.008,2.021,4.008,3.089,5.986c1.011,0.754,2.678,2.02,3.229,3.418
	c2.522,1.084,5.979,2.461,8.684,3.145c2.313,0.09,4.394-0.436,5.648-2.119c-0.039-0.016-0.082-0.035-0.121-0.053
	c-0.576-0.254-0.007-0.711,0.736-1.01c0.089-0.205,0.171-0.418,0.241-0.646C419.799,343.67,419.856,343.59,419.929,343.514z
	 M320.761,230.689c-0.001,0-0.001,0-0.002,0c-0.22,0.08-0.443,0.129-0.648,0.121c-1.313-0.053-2.625,0.104-3.936,0.313
	c5.058,12.211-13.332,19.271-21.48,10.496c-0.099-0.105-0.081-0.229,0.014-0.354c-0.496,0.088-0.979,0.051-1.239-0.199
	c-7.698-7.404-18.09-4.688-22.244,4.758c1.061-0.252,2.11-0.441,3.134-0.539c2.532-0.236,3.987,2.139,2.177,4.143
	c-2.144,2.363-5.071,3.529-7.958,4.727c1.095,1.584,1.235,3.379,0.273,5.102c-0.082,0.146-0.201,0.268-0.337,0.373
	c1.288,1.416,1.169,2.906,0.24,4.521c-0.049,0.084-0.132,0.164-0.232,0.236c0.021,0.064,0.031,0.137,0.031,0.215
	c-0.009,2.707-0.08,5.469-0.097,8.242c5.458-2.797,11.563-4.1,17.692-3.525c0.813-4.561,2.076-9.051,2.202-13.723
	c0.027-1.043,2.941-1.617,2.906-0.328c-0.18,6.645-2.678,12.916-2.87,19.559c4.015-1.541,8.411-2.49,11.904-3.404
	c8.167-2.135,17.072-3.26,24.932-6.432c1.989-2.564,3.923-5.17,5.777-7.834c-1.55-2.723-2.084-6.682-2.146-9.742
	c-0.021-1.008,2.883-1.531,2.898-0.775c0.048,2.334,0.366,5.193,1.201,7.627c1.188-1.789,2.354-3.596,3.461-5.443
	c0.13-0.219,0.402-0.395,0.729-0.52c-0.099-0.004-0.195-0.01-0.295-0.014c-1.479-0.039,1.18-1.297,1.854-1.279
	c0.527,0.014,1.054,0.039,1.577,0.072C337.318,238.957,330.085,228.885,320.761,230.689z M281.086,176.477
	c0.356-0.141,0.727-0.275,1.113-0.402c1.229-0.408,2.556-0.795,3.906-1.133C284.369,175.213,282.68,175.725,281.086,176.477z
	 M242.455,147.486c0.105,0.078,0.176,0.133,0.176,0.133s0.047-0.047,0.133-0.133C242.65,147.494,242.545,147.496,242.455,147.486z
	 M228.106,199.387c0.886,9.188-2.245,19.217,2.604,27.631c0.02,0.035,0.034,0.07,0.055,0.105c0.021,0.033,0.027,0.066,0.041,0.1
	c0.396-0.301,0.778-0.615,1.16-0.932c3.979-3.299,7.165-7.391,10.062-11.725c1.306-2.475,2.441-4.98,4.904-6.463
	c2.313-1.393,5.29-1.439,7.843-2.006c11.919-2.652,14.17-19.277,18.213-29.299c-0.053,0-0.104,0.002-0.157-0.006
	c-2.85-0.346-7.877-2.213-8.943-5.406c-4.168,1.633-10.378,2.229-13.748-0.67c-1.886,4.578-5.467,7.688-9.962,9.986
	c-0.482,0.246-3.4,0.627-2.193,0.01c0.164-0.084,0.313-0.178,0.476-0.264c-0.502,0.172-0.804,0.258-0.804,0.258l-1.992-2.223
	c-1.621-1.205-3.779-2.076-5.038-0.314c-1.808,2.531,1.313,4.98,3.364,5.871c1.529,0.666,0.052,2.227-1.209,2.148
	c0.032,1.375,0.007,2.768-0.224,4.121c0.048,0.045,0.092,0.092,0.142,0.137c0.226,0.203,0.045,0.467-0.312,0.699
	c-0.134,0.557-0.305,1.104-0.532,1.639C230.863,195.115,229.392,197.215,228.106,199.387z M214.502,204.275
	c-2.632,0.59-5.281,1.105-7.828,1.779c-7.092,1.875-17.529,0.307-22.112,7.123c-8.168,12.148-8.554,27.479-14.334,40.541
	c8.763,2.137,18.045,0.813,26.709,3.508c1.548-6.227,3.214-12.406,3.646-18.842c0.062-0.91,2.932-1.27,2.897-0.777
	c-0.478,7.113-2.624,13.762-4.063,20.695c-1.257,6.051-2.384,12.15-5.022,17.771c3.466-0.77,7.042-1.162,10.376-1.533
	c14.038-1.563,26.901-5.971,39.423-12.359c-0.018-0.258,0.111-0.559,0.464-0.879c5.158-4.682,10.155-9.207,16.648-11.938
	c0.886-0.371,1.815-0.762,2.768-1.146c1.31-0.527,2.662-1.041,4.033-1.496c0.003-0.047,0.013-0.096,0.034-0.15
	c0.365-0.887,0.79-1.725,1.255-2.521c-0.301,0.072-0.607,0.111-0.875,0.123c-0.434,0.02-0.756-0.041-0.737-0.186
	c0.928-7.582,2.797-15.271,2.397-22.947c-0.181-3.488-0.915-6.885-1.456-10.314c-0.336,0.086-0.646,0.117-0.862,0.041
	c-4.689-1.699-8.389-3.82-13.54-3.662c-0.147,0.006-0.239-0.008-0.302-0.025c-2.522,0.398-5.452,0.746-6.821,2.869
	c-0.648,1.006-1.222,2.049-1.783,3.1c0.067,0.021,0.1,0.053,0.074,0.09c-0.199,0.305-0.406,0.604-0.608,0.906
	c-0.005,0.008-0.01,0.018-0.015,0.025c-0.009,0.016-0.023,0.029-0.033,0.043c-3.895,5.809-8.283,11.135-14.301,14.875
	c-0.496,0.311-3.407,0.705-2.206-0.041c0.133-0.082,0.253-0.178,0.384-0.262c-0.271-0.043-0.497-0.156-0.617-0.361
	c-5.018-8.576-2.067-18.328-2.844-27.684c-2.646,1.441-5.531,2.363-8.484,3.104C216.013,203.93,215.258,204.105,214.502,204.275z
	 M168.076,429.813c-1.551-10.066-3.667-20.035-6.164-29.912c-2.742-10.844-6.34-21.566-8.351-32.578
	c-1.859-10.189,2.957-18.027,8.816-25.57c-0.56,0.246-1.252,0.471-1.503,0.471c-10.469,0-20.937,0-31.403,0
	c-1.38,0,1.347-1.098,1.902-1.098c10.468,0,20.936,0,31.402,0c0.035,0,0.058,0.004,0.087,0.004
	c5.185-6.598,11.049-13.012,13.805-20.625c0.08-0.221,0.38-0.404,0.754-0.541c2.17-5.035,3.712-10.42,4.463-15.846
	c0.019-0.133,0.073-0.254,0.146-0.367c-0.947-0.098-1.887-0.232-2.806-0.457c-22.461-5.473-10.031-31.762-8.573-47.079
	c-1.029-0.189-2.055-0.414-3.068-0.693c-0.516-0.143-0.795-0.746-0.571-1.225c1.854-3.963,2.958-8.16,3.987-12.381
	c-3.239,0-6.479,0-9.716,0c-0.517,0-0.763-0.125-0.831-0.309c-18.293-0.568-36.112,13.732-39.908,31.707
	c-0.98,4.646-1.312,9.477-1.32,14.34c0,0.047,0.001,0.094,0.001,0.141c-0.004,6.041,0.482,12.127,0.84,17.967
	c0.313,5.135,0.645,10.053,0.182,15.193c-0.454,5.039-0.814,9.93,0.064,14.943c0.063,0.354-0.487,0.682-1.125,0.877
	c-8.755,13.383-14.898,28.086-16.707,44.068c-1.772,15.682-0.488,31.465,0.714,47.137c0.104,1.35-2.803,2.033-2.898,0.777
	c-1.244-16.232-2.827-32.842-0.568-49.057c2.2-15.791,8.127-30.17,16.866-43.465c0.142-0.213,0.389-0.379,0.679-0.5
	c-0.936-6.607,0.428-12.975,0.436-19.609c0.008-7.174-0.938-14.361-1.1-21.545c-0.044-1.938-0.086-3.887-0.093-5.832
	c-16.444-1.775-31.456,7.982-41.403,20.442c-4.091,5.123-7.816,10.824-9.938,17.076c-0.303,0.895-0.562,1.805-0.801,2.721
	c5.969-2.811,12.351-4.344,18.917-2.615c7.145,1.881,11.717,8.207,14.647,14.572c0.396,0.854-2.439,1.77-2.897,0.773
	c-2.425-5.262-6.029-10.797-11.648-13.082c-6.38-2.594-12.744-1.129-18.696,1.906c-0.195,0.1-0.465,0.156-0.749,0.182
	c-0.987,4.477-1.371,9.146-1.698,13.652c-2.063,28.48,1.009,56.951,1.127,85.436C98.272,429.76,133.174,429.76,168.076,429.813z
	 M233.719,429.842c3.697-21.082,5.864-42.422,10.698-63.295c-3.417-9.369-11.479-16.943-18.402-23.852
	c-0.473,0.189-0.978,0.313-1.24,0.268c-5.521-0.975-10.978-1.521-16.472-0.652c-6.875,6.861-14.991,14.395-18.401,23.715
	c4.87,21.045,7.033,42.563,10.79,63.813c10.934-0.004,21.864-0.008,32.797-0.012C233.571,429.827,233.644,429.834,233.719,429.842z
	 M269.05,400.618c2.752-11.064,6.269-21.969,8.548-33.143c1.966-9.635-1.01-16.451-6.803-24.193
	c-5.262-7.033-11.538-13.305-15.116-21.371c-12.09-0.164-23.603-4.297-35.639-4.865c-13.884-0.656-27.209,3.715-40.851,5.506
	c-0.285,0.037-0.512,0.016-0.694-0.039c-3.632,7.986-9.91,14.006-15.007,21.133c-5.574,7.801-8.872,14.535-6.766,24.195
	c4.552,20.867,11.021,41.078,14.366,62.172c0.513,0.311,0.541,0.92,0.219,1.393c0.271,1.781,0.524,3.568,0.745,5.363
	c8.949,0.477,17.679-0.629,26.313-2.975c-4.04-21.838-6.163-44-11.062-65.678c-0.512-0.051-0.865-0.295-0.707-0.785
	c0.099-0.303,0.215-0.596,0.321-0.896c-0.104-0.443-0.201-0.893-0.308-1.338c-0.119-0.5,0.562-0.938,1.294-1.125
	c3.642-8.096,10.387-14.838,16.636-21.061c-0.709-0.16-0.558-0.857,0.725-1.178c0.193-0.049,0.387-0.078,0.58-0.123
	c0.105-0.105,0.213-0.211,0.318-0.316c0.549-0.551,1.917-0.602,2.475-0.227c5.646-0.893,11.238-0.551,16.943,0.391
	c0.518-0.625,2.068-1.023,2.687-0.406c6.711,6.715,14.458,13.98,18.323,22.896c0.653-0.059,1.208,0.098,1.095,0.57
	c-0.109,0.465-0.212,0.93-0.319,1.395c0.106,0.299,0.226,0.596,0.322,0.898c0.164,0.512-0.244,0.945-0.803,1.191
	c-4.853,21.666-6.967,43.813-11.03,65.633c-0.022,0.125-0.096,0.24-0.2,0.35c8.671,2.258,17.681,3.203,26.632,2.813
	c-0.039-0.025-0.065-0.055-0.062-0.092C263.715,424.538,266.092,412.51,269.05,400.618z M491.755,429.86
	c1.268-16.059,3.024-32.408,1.295-48.484c-1.72-15.979-7.063-30.613-15.879-44.057c-0.186-0.281-0.174-0.555-0.047-0.797
	c0.983-6.125-0.045-11.98-0.289-18.121c-0.231-5.811,0.529-11.629,0.794-17.436c0.173-3.79,0.438-7.778,0.503-11.792
	c-1.533,0.143-0.941-0.719,0.011-1.098c0.038-6.066-0.443-12.148-2.477-17.639c-6.075-16.408-22.099-28.828-39.844-28.447
	c-0.297,0.139-0.604,0.23-0.854,0.23c-13.907,0-27.815,0-41.723,0c-1.847,5.703-5.307,10.684-8.048,16.021
	c-0.152,0.297-0.647,0.535-1.18,0.656c0.568,0.096,1.135,0.23,1.699,0.424c8.027,2.742,11.328,10.525,14.054,17.961
	c3.788,10.334,7.463,20.588,10.519,31.172c2.188,7.582,4.397,15.166,7.223,22.518c0.378,0.199,0.753,0.414,1.12,0.662
	c0.563,0.383,0.205,0.85-0.396,1.168c0.824,2.053,1.693,4.088,2.64,6.096c0.39-0.375,0.971-0.689,1.483-0.689
	c12.037,0,24.076,0,36.113,0c1.96,0,0.236,1.947-1.045,1.947c-11.979,0-23.955,0-35.933,0c0.386,0.793,0.76,1.59,1.169,2.373
	c0.102,0.195,0.071,0.385-0.039,0.557c0.045,0.066,0.06,0.146,0.028,0.244c-0.067,0.217-0.146,0.422-0.228,0.623
	c0.57,0.488,1.308,1.119,2.149,1.84c3.382,1.734,6.664,3.832,9.407,6.354c1.515,1.389,3.224,3.432,4.206,5.664
	c2.061,2.281,3.488,4.854,1.703,6.811c-0.962,1.055-2.16,1.436-3.529,1.412c-3.429,1.643-9.066-1.477-12.452-3.555
	c-0.464-0.088-0.874-0.15-1.224-0.195c2.577,4.061,2.773,7.475-2.877,8.301c-12.586,1.842-24.662-6.252-35.384-11.598
	c-8.002-3.988-7.104-9.242-4.456-16.879c0.118-0.342,0.414-0.586,0.771-0.734c0.176-0.451,0.352-0.877,0.52-1.268
	c-2.152-9.738-10.754-15.984-18.271-22.143c-0.283-0.232-0.563-0.469-0.846-0.701c-4.729,6.207-9.568,13.082-16.271,17.148
	c-3.953,2.4-8.107,3.66-12.419,4.096c-1.253,0.127-2.52,0.184-3.797,0.176c-1.437-0.006-2.888-0.092-4.353-0.246
	c-0.209,0.129-0.4,0.273-0.614,0.398c-1.273,0.744-2.57,1.385-3.885,1.932c18.912,0,37.823,0,56.735,0
	c1.961,0,0.118,1.816-1.08,1.816c-19.785,0-39.569,0-59.354,0c-0.735,0-1.472,0-2.207,0c-0.504,0.105-1.008,0.197-1.513,0.277
	c-4.341,0.689-8.771,0.527-13.134-0.277c-8.783,0-17.567,0-26.351,0c5.004,6.857,8.652,14.119,6.819,23.105
	c-4.403,21.588-11.34,42.369-14.736,64.156C341.244,429.823,416.5,429.827,491.755,429.86z M494.664,429.86
	c12.503,0.006,25.006,0.006,37.51,0.014c0.178-29.063,3.635-58.285,0.862-87.307c-0.391-4.078-1.028-7.953-1.979-11.664
	c-0.202,0.008-0.384-0.016-0.516-0.082c-5.154-2.629-11.468-4.887-17.256-2.957c-6.305,2.102-10.161,7.486-12.831,13.283
	c-0.427,0.926-3.295,1.238-2.896,0.371c6.486-14.078,19.118-18.959,32.768-13.256c-2.277-7.496-5.973-14.313-11.705-20.73
	c-9.652-10.803-22.853-19.26-37.666-18.584c-0.033,3.773-0.238,7.549-0.429,11.243c-0.328,6.416-1.208,12.883-0.668,19.303
	c0.477,5.645,1.054,11.158,0.103,16.777c9.038,13.846,14.759,29.23,16.125,45.771C497.402,397.987,495.904,413.956,494.664,429.86z" fill="#0984E3"></path>
</svg>